<svg width="153" height="26" viewBox="0 0 153 26" fill="none" xmlns="http://www.w3.org/2000/svg">
<path d="M4.15265 6.35555L0 6.35555L1.23118e-07 3.53889C1.13145 3.53889 2.0342 3.44259 2.70825 3.25C3.40638 3.05741 3.96007 2.74444 4.36932 2.31111C4.77856 1.8537 5.13966 1.2037 5.45262 0.36111L8.12476 0.36111L8.12476 25.6389H4.15265L4.15265 6.35555Z" fill="white"/>
<path d="M18.6469 26C16.721 26 15.2525 25.4583 14.2415 24.375C13.2304 23.2676 12.7248 21.6907 12.7248 19.6444V19.175H16.4803V19.8972C16.4803 21.5583 17.1664 22.3889 18.5386 22.3889C19.2848 22.3889 19.8385 22.1602 20.1996 21.7028C20.5607 21.2454 20.7413 20.4389 20.7413 19.2833V14.4444H20.669C19.9709 15.913 18.7673 16.6472 17.058 16.6472C15.6136 16.6472 14.5183 16.1537 13.772 15.1667C13.0258 14.1796 12.6526 12.7472 12.6526 10.8694V6.35555C12.6526 4.33333 13.1702 2.76852 14.2054 1.66111C15.2405 0.553703 16.7331 -8.52372e-08 18.683 0C20.6329 8.52372e-08 22.1255 0.553704 23.1606 1.66111C24.1958 2.76852 24.7134 4.33333 24.7134 6.35555V19.4278C24.7134 23.8093 22.6912 26 18.6469 26ZM18.683 13.0361C20.0552 13.0361 20.7413 12.2056 20.7413 10.5444L20.7413 6.06666C20.7413 4.42963 20.0552 3.61111 18.683 3.61111C17.3108 3.61111 16.6247 4.42963 16.6247 6.06666V10.5444C16.6247 12.2056 17.3108 13.0361 18.683 13.0361Z" fill="white"/>
<path d="M33.2494 26C31.2995 26 29.807 25.4463 28.7718 24.3389C27.7366 23.2315 27.2191 21.6667 27.2191 19.6444V6.35555C27.2191 4.33333 27.7366 2.76852 28.7718 1.66111C29.807 0.553704 31.2995 5.515e-07 33.2494 6.36738e-07C35.1994 7.21975e-07 36.6919 0.553704 37.7271 1.66111C38.7622 2.76852 39.2798 4.33333 39.2798 6.35555V19.6444C39.2798 21.6667 38.7622 23.2315 37.7271 24.3389C36.6919 25.4463 35.1994 26 33.2494 26ZM33.2494 22.3889C34.6216 22.3889 35.3077 21.5583 35.3077 19.8972V6.10278C35.3077 4.44167 34.6216 3.61111 33.2494 3.61111C31.8773 3.61111 31.1912 4.44167 31.1912 6.10278V19.8972C31.1912 21.5583 31.8773 22.3889 33.2494 22.3889Z" fill="white"/>
<path d="M47.7076 26C45.7576 26 44.2651 25.4463 43.2299 24.3389C42.1948 23.2315 41.6772 21.6667 41.6772 19.6444V6.35555C41.6772 4.33333 42.1948 2.76852 43.2299 1.66111C44.2651 0.553705 45.7576 1.18351e-06 47.7076 1.26874e-06C49.6575 1.35398e-06 51.1501 0.553705 52.1852 1.66111C53.2204 2.76852 53.7379 4.33333 53.7379 6.35556V19.6444C53.7379 21.6667 53.2204 23.2315 52.1852 24.3389C51.1501 25.4463 49.6575 26 47.7076 26ZM47.7076 22.3889C49.0798 22.3889 49.7658 21.5583 49.7658 19.8972V6.10278C49.7658 4.44167 49.0798 3.61111 47.7076 3.61111C46.3354 3.61111 45.6493 4.44167 45.6493 6.10278V19.8972C45.6493 21.5583 46.3354 22.3889 47.7076 22.3889Z" fill="white"/>
<path d="M68.0573 26C66.1073 26 64.6148 25.4463 63.5796 24.3389C62.5445 23.2315 62.0269 21.6667 62.0269 19.6444V6.57222C62.0269 2.19074 64.0491 1.98307e-06 68.0934 2.15986e-06C70.0192 2.24405e-06 71.4877 0.553706 72.4988 1.66111C73.5099 2.74445 74.0154 4.30926 74.0154 6.35556V6.825L70.26 6.825V6.10278C70.26 4.44167 69.5739 3.61111 68.2017 3.61111C67.4554 3.61111 66.9017 3.83982 66.5406 4.29722C66.1796 4.75463 65.999 5.56111 65.999 6.71667V11.5556H66.0712C66.7693 10.087 67.973 9.35278 69.6822 9.35278C71.1266 9.35278 72.222 9.8463 72.9682 10.8333C73.7145 11.8204 74.0876 13.2528 74.0876 15.1306V19.6444C74.0876 21.6667 73.5701 23.2315 72.5349 24.3389C71.4998 25.4463 70.0072 26 68.0573 26ZM68.0573 22.3889C69.4295 22.3889 70.1155 21.5704 70.1155 19.9333V15.4556C70.1155 13.7944 69.4295 12.9639 68.0573 12.9639C66.6851 12.9639 65.999 13.7944 65.999 15.4556V19.9333C65.999 21.5704 66.6851 22.3889 68.0573 22.3889Z" fill="white"/>
<path d="M82.2987 26C80.3488 26 78.8683 25.4583 77.8572 24.375C76.8702 23.2917 76.3767 21.7389 76.3767 19.7167V17.6583H80.1321V19.8972C80.1321 21.5583 80.8182 22.3889 82.1904 22.3889C82.8645 22.3889 83.37 22.1843 83.707 21.775C84.0681 21.3417 84.2487 20.5954 84.2487 19.5361V17.4778C84.2487 16.3222 84.0441 15.5037 83.6348 15.0222C83.2256 14.5167 82.5635 14.2639 81.6488 14.2639H80.3127V10.6528H81.7571C82.5515 10.6528 83.1413 10.4481 83.5265 10.0389C83.9357 9.62963 84.1403 8.94352 84.1403 7.98056V6.13889C84.1404 5.27222 83.9598 4.63426 83.5987 4.225C83.2376 3.81574 82.7561 3.61111 82.1543 3.61111C80.8784 3.61111 80.2405 4.39352 80.2405 5.95834V7.61945L76.485 7.61945V6.28334C76.485 4.26111 76.9785 2.70834 77.9655 1.625C78.9766 0.541669 80.421 2.69873e-06 82.2987 2.78081e-06C84.2005 2.86395e-06 85.6449 0.54167 86.6319 1.625C87.6189 2.68426 88.1124 4.225 88.1124 6.24722V7.15C88.1124 8.52222 87.8838 9.62963 87.4264 10.4722C86.969 11.2907 86.2588 11.8806 85.2959 12.2417V12.3139C86.331 12.6991 87.0773 13.325 87.5347 14.1917C87.9921 15.0583 88.2208 16.1657 88.2208 17.5139V19.7528C88.2208 21.775 87.7152 23.3278 86.7042 24.4111C85.7171 25.4704 84.2487 26 82.2987 26Z" fill="white"/>
<path d="M96.9735 26C95.0236 26 93.531 25.4463 92.4959 24.3389C91.4607 23.2315 90.9431 21.6667 90.9431 19.6444V6.57223C90.9431 2.19074 92.9653 3.24708e-06 97.0096 3.42387e-06C98.9355 3.50805e-06 100.404 0.553707 101.415 1.66111C102.426 2.74445 102.932 4.30926 102.932 6.35556V6.825L99.1762 6.825V6.10278C99.1762 4.44167 98.4901 3.61111 97.118 3.61111C96.3717 3.61111 95.818 3.83982 95.4569 4.29722C95.0958 4.75463 94.9152 5.56111 94.9152 6.71667V11.5556H94.9875C95.6856 10.087 96.8893 9.35278 98.5985 9.35278C100.043 9.35278 101.138 9.8463 101.884 10.8333C102.631 11.8204 103.004 13.2528 103.004 15.1306V19.6444C103.004 21.6667 102.486 23.2315 101.451 24.3389C100.416 25.4463 98.9235 26 96.9735 26ZM96.9735 22.3889C98.3457 22.3889 99.0318 21.5704 99.0318 19.9333V15.4556C99.0318 13.7944 98.3457 12.9639 96.9735 12.9639C95.6013 12.9639 94.9152 13.7944 94.9152 15.4556V19.9333C94.9152 21.5704 95.6013 22.3889 96.9735 22.3889Z" fill="white"/>
<path d="M117.215 26C115.265 26 113.772 25.4463 112.737 24.3389C111.702 23.2315 111.185 21.6667 111.185 19.6444V6.57223C111.185 2.19074 113.207 4.13188e-06 117.251 4.30867e-06C119.177 4.39286e-06 120.645 0.553708 121.656 1.66112C122.668 2.74445 123.173 4.30926 123.173 6.35556V6.825L119.418 6.825V6.10278C119.418 4.44167 118.732 3.61112 117.359 3.61112C116.613 3.61112 116.059 3.83982 115.698 4.29723C115.337 4.75463 115.157 5.56111 115.157 6.71667V11.5556H115.229C115.927 10.087 117.131 9.35278 118.84 9.35278C120.284 9.35278 121.38 9.8463 122.126 10.8333C122.872 11.8204 123.245 13.2528 123.245 15.1306V19.6444C123.245 21.6667 122.728 23.2315 121.693 24.3389C120.657 25.4463 119.165 26 117.215 26ZM117.215 22.3889C118.587 22.3889 119.273 21.5704 119.273 19.9333V15.4556C119.273 13.7944 118.587 12.9639 117.215 12.9639C115.843 12.9639 115.157 13.7944 115.157 15.4556V19.9333C115.157 21.5704 115.843 22.3889 117.215 22.3889Z" fill="white"/>
<path d="M132.467 21.0528H124.884V17.4417L132.106 0.361116L136.44 0.361116V17.4417H138.317V21.0528H136.44V25.6389H132.467V21.0528ZM132.467 17.4417V7.58334H132.395L128.495 17.4417L132.467 17.4417Z" fill="white"/>
<path d="M146.023 26C144.025 26 142.484 25.4704 141.401 24.4111C140.341 23.3278 139.812 21.775 139.812 19.7528V17.5139C139.812 16.262 140.016 15.2148 140.426 14.3722C140.835 13.5056 141.497 12.8315 142.412 12.35V12.2778C141.569 11.8204 140.943 11.1944 140.534 10.4C140.149 9.58148 139.956 8.5463 139.956 7.29445V6.24723C139.956 4.225 140.474 2.68426 141.509 1.62501C142.568 0.541672 144.073 5.48112e-06 146.023 5.56636e-06C147.973 5.6516e-06 149.465 0.541672 150.5 1.62501C151.56 2.68426 152.089 4.22501 152.089 6.24723V7.29445C152.089 9.70186 151.271 11.363 149.634 12.2778V12.35C150.549 12.8315 151.211 13.5056 151.62 14.3722C152.029 15.2148 152.234 16.262 152.234 17.5139V19.7528C152.234 21.775 151.692 23.3278 150.609 24.4111C149.55 25.4704 148.021 26 146.023 26ZM146.023 10.6528C147.419 10.6528 148.117 9.81019 148.117 8.125V6.13889C148.117 4.45371 147.419 3.61112 146.023 3.61112C144.627 3.61112 143.928 4.45371 143.928 6.13889V8.125C143.928 9.81019 144.627 10.6528 146.023 10.6528ZM146.023 22.3889C147.515 22.3889 148.262 21.438 148.262 19.5361V17.1167C148.262 15.2148 147.515 14.2639 146.023 14.2639C144.53 14.2639 143.784 15.2148 143.784 17.1167L143.784 19.5361C143.784 21.438 144.53 22.3889 146.023 22.3889Z" fill="white"/>
</svg>
