<svg width="48" height="48" viewBox="0 0 48 48" fill="none" xmlns="http://www.w3.org/2000/svg">
<g opacity="0.9">
<g filter="url(#filter0_d_1649_8362)">
<path d="M24 44C35.0457 44 44 35.0457 44 24C44 12.9543 35.0457 4 24 4C12.9543 4 4 12.9543 4 24C4 35.0457 12.9543 44 24 44Z" fill="url(#paint0_linear_1649_8362)"/>
</g>
<path d="M23.9095 43.4596C34.683 43.4596 43.4166 34.7259 43.4166 23.9524C43.4166 13.179 34.683 4.44531 23.9095 4.44531C13.136 4.44531 4.40234 13.179 4.40234 23.9524C4.40234 34.7259 13.136 43.4596 23.9095 43.4596Z" fill="white"/>
</g>
<path d="M39 24C32.6222 26.3808 31.657 28.5365 34.6066 34.6066C28.5365 31.657 26.3811 32.6222 24 39C21.6192 32.6222 19.4635 31.657 13.3934 34.6066C16.343 28.5365 15.3778 26.3811 9 24C15.3778 21.6192 16.343 19.4635 13.3934 13.3934C19.4635 16.343 21.6189 15.3778 24 9C26.3808 15.3778 28.5365 16.343 34.6066 13.3934C31.657 19.4635 32.6222 21.6189 39 24Z" fill="#F7A411"/>
<path d="M32.7928 23.9999C32.7928 28.856 28.856 32.7928 23.9999 32.7928C19.1438 32.7928 15.207 28.856 15.207 23.9999C15.207 19.1438 19.1438 15.207 23.9999 15.207C28.856 15.207 32.7928 19.1438 32.7928 23.9999Z" fill="#F9CD15"/>
<path opacity="0.46" d="M24.908 32.7463C24.6096 32.7769 24.3067 32.7928 23.9999 32.7928C19.1438 32.7928 15.207 28.8563 15.207 23.9999C15.207 19.1438 19.1438 15.207 23.9999 15.207C24.3067 15.207 24.6096 15.2229 24.908 15.2535C20.4785 15.7076 17.023 19.4503 17.023 23.9999C17.023 28.5495 20.4785 32.2922 24.908 32.7463Z" fill="#F4B653"/>
<path opacity="0.51" d="M29.9537 20.2882C29.8754 20.2882 29.8008 20.2437 29.766 20.1682C29.2028 18.9452 28.2738 18.0702 27.0052 17.568C26.0569 17.1927 25.2741 17.1788 25.2663 17.1785C25.1524 17.1771 25.0611 17.0836 25.0625 16.9695C25.0639 16.8553 25.158 16.7632 25.2716 16.7657C25.3067 16.7662 26.1391 16.781 27.1574 17.1841C28.0998 17.5572 29.3827 18.3478 30.1413 19.9956C30.1889 20.0992 30.1438 20.2217 30.0402 20.2696C30.0124 20.2824 29.9829 20.2885 29.9539 20.2885L29.9537 20.2882Z" fill="white"/>
<defs>
<filter id="filter0_d_1649_8362" x="0" y="0" width="48" height="48" filterUnits="userSpaceOnUse" color-interpolation-filters="sRGB">
<feFlood flood-opacity="0" result="BackgroundImageFix"/>
<feColorMatrix in="SourceAlpha" type="matrix" values="0 0 0 0 0 0 0 0 0 0 0 0 0 0 0 0 0 0 127 0" result="hardAlpha"/>
<feOffset/>
<feGaussianBlur stdDeviation="2"/>
<feComposite in2="hardAlpha" operator="out"/>
<feColorMatrix type="matrix" values="0 0 0 0 0 0 0 0 0 0 0 0 0 0 0 0 0 0 0.12 0"/>
<feBlend mode="normal" in2="BackgroundImageFix" result="effect1_dropShadow_1649_8362"/>
<feBlend mode="normal" in="SourceGraphic" in2="effect1_dropShadow_1649_8362" result="shape"/>
</filter>
<linearGradient id="paint0_linear_1649_8362" x1="4" y1="24" x2="44.0003" y2="24" gradientUnits="userSpaceOnUse">
<stop stop-color="#F1F2F2"/>
<stop offset="0.32" stop-color="white"/>
<stop offset="0.47" stop-color="#E6E7E8"/>
<stop offset="0.78" stop-color="#F1F2F2"/>
<stop offset="1" stop-color="#BCBEC0"/>
</linearGradient>
</defs>
</svg>
