<svg width="70" height="71" viewBox="0 0 70 71" fill="none" xmlns="http://www.w3.org/2000/svg">
<path d="M59.4632 26.219C58.5439 20.3351 53.4429 15.819 47.3047 15.819C44.9955 15.819 42.7766 16.4579 40.852 17.6495C37.924 12.7287 32.6528 9.66663 26.7969 9.66663C17.7506 9.66663 10.3906 17.0266 10.3906 26.0729C10.3906 26.1289 10.3906 26.187 10.3927 26.2431C4.57871 27.2224 0 32.2913 0 38.3776C0 45.1628 5.65619 50.6823 12.4414 50.6823H57.5586C64.3438 50.6823 70 45.1628 70 38.3776C70 32.2393 65.3472 27.1383 59.4632 26.219Z" fill="#3ED1FF"/>
<g style="mix-blend-mode:multiply">
<path d="M35 27.2578C25.353 27.2578 17.5 35.1108 17.5 44.7578C17.5 54.4048 25.353 62.2578 35 62.2578C44.647 62.2578 52.5 54.4048 52.5 44.7578C52.5 35.1108 44.647 27.2578 35 27.2578ZM35 29.7641C38.8869 29.7641 42.4397 31.2503 45.1043 33.695C44.6558 33.6071 44.2073 33.6246 43.7676 33.7741C42.554 34.1963 41.5163 35.955 42.2814 37.4324C42.6332 38.1096 43.3367 39.0769 44.1018 40.0882C44.5942 40.7478 45.6671 43.1397 44.7437 46.6573C44.093 49.146 42.7299 53.4287 42.7299 53.4287L37.2864 37.5907H39.0013C39.353 37.5907 39.6344 37.3093 39.6344 36.9576C39.6344 36.6058 39.353 36.3244 39.0013 36.3244H30.6822C30.3304 36.3244 30.049 36.6058 30.049 36.9576C30.049 37.3093 30.3304 37.5907 30.6822 37.5907H32.1156L34.6043 44.0719L31.3769 53.7013L25.9598 37.5907H27.6746C28.0264 37.5907 28.3078 37.3093 28.3078 36.9576C28.3078 36.6058 28.0264 36.3244 27.6746 36.3244H22.6093C25.3178 32.3671 29.8643 29.7641 35 29.7641ZM20.0063 44.7578C20.0063 42.6209 20.4548 40.5895 21.2638 38.7515L28.4837 58.2566C23.4711 55.8294 20.0063 50.6937 20.0063 44.7578ZM30.647 59.1008L35.3254 46.1473L40.0126 58.8897C38.4472 59.4437 36.7588 59.7515 35.0088 59.7515C33.4874 59.7515 32.0276 59.5229 30.647 59.1008ZM42.9234 57.4827C43.8643 54.7126 47.1181 45.048 47.7337 43.1309C48.3141 41.3282 48.7802 40.2729 48.745 38.7779C49.5452 40.6159 49.9937 42.6385 49.9937 44.7578C49.9937 50.1133 47.1621 54.8269 42.9234 57.4827Z" fill="#A943F9"/>
</g>
</svg>
