<svg width="80" height="80" viewBox="0 0 80 80" fill="none" xmlns="http://www.w3.org/2000/svg">
<path d="M36.666 13.3333C20.0975 13.3333 6.66602 26.7647 6.66602 43.3333C6.66602 59.9018 20.0975 73.3333 36.666 73.3333C53.2346 73.3333 66.666 59.9018 66.666 43.3333C66.6484 26.7721 53.2273 13.351 36.666 13.3333ZM49.3002 44.2891C49.0925 44.7057 48.7549 45.0435 48.3382 45.2512V45.2618L31.1953 53.8333C30.1366 54.3623 28.8496 53.933 28.3205 52.8743C28.1701 52.5733 28.0927 52.2411 28.0945 51.9047V34.7619C28.094 33.5784 29.0529 32.6186 30.2364 32.618C30.5693 32.6179 30.8976 32.6952 31.1953 32.844L48.3382 41.4155C49.3974 41.9433 49.8282 43.2299 49.3002 44.2891Z" fill="#3ED1FF"/>
<g style="mix-blend-mode:multiply">
<path fill-rule="evenodd" clip-rule="evenodd" d="M59.7119 41.5833C55.3454 40.8831 51.2452 38.4219 48.2728 35.0099C45.3491 31.6536 43.4824 27.3544 43.4824 22.8737V8.6212C43.4824 7.61745 44.2286 6.78802 45.1964 6.65707L59.6691 3.60692C59.9581 3.54684 60.2456 3.55328 60.5155 3.6156L75.0815 6.68531C76.0155 6.87957 76.6621 7.70318 76.6611 8.62107V22.8736C76.6611 27.3544 74.7946 31.6535 71.8708 35.0098C68.8853 38.4369 64.7618 40.905 60.3738 41.5926C60.1477 41.6277 59.9247 41.6227 59.7119 41.5833ZM65.2471 16.1883C66.021 15.4142 67.276 15.4142 68.0501 16.1883C68.824 16.9622 68.824 18.2172 68.0501 18.9913L59.2836 27.7578C58.5097 28.5318 57.2547 28.5318 56.4806 27.7578L52.0973 23.3745C51.3232 22.6005 51.3232 21.3455 52.0973 20.5715C52.8712 19.7974 54.1262 19.7974 54.9003 20.5715L57.882 23.5532L65.2471 16.1883Z" fill="#A943F9"/>
</g>
</svg>
