<svg width="71" height="71" viewBox="0 0 71 71" fill="none" xmlns="http://www.w3.org/2000/svg">
<g clip-path="url(#clip0_5399_12828)">
<path d="M57.4523 55.6195C55.4283 54.823 54.5625 53.7661 54.6462 52.1891C54.7324 50.3483 53.6455 49 53.1293 48.4673C53.4412 47.3228 54.3525 43.3634 53.1302 39.9243C51.8168 36.2432 47.8068 30.6211 43.6691 25.0947C41.9753 22.8251 41.8952 20.3582 41.8026 17.5016C41.7139 14.7769 41.6139 11.6886 40.0325 8.25534C38.3131 4.51706 34.8629 2.37341 30.5662 2.37341C28.0101 2.37341 25.3864 3.14094 23.3674 4.47901C19.2329 7.22059 19.7794 13.198 20.1411 17.1532C20.1906 17.6949 20.2372 18.2065 20.2644 18.6433C20.5052 22.517 20.2861 24.5587 19.9996 25.1792C19.8143 25.5847 18.9018 26.7389 17.9362 27.9608C16.9376 29.2245 15.8054 30.657 14.8773 31.9918C13.7701 33.5979 12.8762 36.0529 12.0117 38.427C11.3792 40.1643 10.7818 41.8053 10.2002 42.7859C9.0979 44.6723 9.37217 46.4313 9.60118 47.2443C9.18389 47.5228 8.58103 48.0712 8.07208 49.1048C7.457 50.3659 6.20896 51.0437 3.61377 51.5231C2.42117 51.7575 1.5988 52.2393 1.16883 52.9551C0.543118 53.9968 0.883925 55.3057 1.19486 56.2002C1.65425 57.5152 1.36798 58.3476 0.84749 59.8587C0.727552 60.2075 0.591546 60.6023 0.45373 61.0378C0.23671 61.7251 0.315009 62.35 0.685913 62.8951C1.66601 64.3347 4.52598 64.8424 7.47013 65.1764C9.22802 65.3769 11.152 66.0524 13.0129 66.706C14.8362 67.3461 16.7215 68.0082 18.4352 68.2091C18.6957 68.2406 18.9537 68.2565 19.2024 68.2565C21.7899 68.2565 22.9589 66.6069 23.3296 65.9291C24.259 65.7469 27.4645 65.1634 30.7683 65.0851C34.0668 64.9946 37.2583 65.6204 38.1624 65.815C38.4466 66.3377 39.1959 67.5316 40.3903 68.1467C41.0468 68.4916 41.9603 68.6892 42.8961 68.6892C43.8954 68.6892 45.7968 68.4622 47.3014 66.9413C48.8023 65.4132 52.552 63.4624 55.2903 62.038C55.9013 61.7201 56.4729 61.4227 56.9741 61.1542C58.5123 60.3349 59.3516 59.1642 59.2767 57.9425C59.2143 56.9278 58.5152 56.0376 57.4523 55.6195ZM23.4011 55.3253C23.2097 54.0294 21.4746 52.7442 19.4653 51.2561C17.8224 50.0391 15.9602 48.66 15.4472 47.4919C14.387 45.0824 15.2227 40.8455 16.6798 38.6638C17.3999 37.5715 17.988 35.9149 18.557 34.3128C19.1711 32.583 19.8064 30.7944 20.5167 30.0114C21.6416 28.789 22.6813 26.4105 22.8655 24.5361C23.9189 25.5023 25.553 26.7284 27.0626 26.7284C27.295 26.7284 27.5207 26.6993 27.7363 26.6408C28.7692 26.3542 30.2883 25.5108 31.7574 24.6955C33.024 23.9923 34.5859 23.1252 35.1736 23.0462C36.1813 24.4365 42.0368 36.8868 42.6352 40.8851C43.1086 44.0487 42.6085 46.664 42.357 47.6883C42.1547 47.6617 41.9135 47.6402 41.66 47.6402C40.0291 47.6402 39.5973 48.4956 39.4849 49.0063C39.1956 50.3333 39.1651 54.5765 39.1619 55.5299C38.5722 56.2498 35.5898 59.64 31.308 60.2494C29.5639 60.493 27.9352 60.6165 26.4675 60.6165C25.2129 60.6165 24.4122 60.5234 24.0798 60.4749L21.9281 58.1095C22.7765 57.707 23.6247 56.8577 23.4011 55.3253ZM26.1314 16.3213C26.0642 16.3492 25.9981 16.379 25.9332 16.4107C25.9266 16.2707 25.9115 16.1287 25.8881 15.9863C25.6532 14.6871 24.7566 13.7441 23.7566 13.7441C23.6826 13.7441 23.6082 13.7496 23.5265 13.7615C22.9315 13.8568 22.4649 14.2862 22.2092 14.895C22.4335 13.5591 23.2212 12.57 24.1558 12.57C25.2534 12.57 26.1805 13.9911 26.1805 15.6732C26.1805 15.8852 26.1645 16.0961 26.1314 16.3213ZM34.6597 17.323C34.7602 17.0156 34.8145 16.6829 34.8145 16.3377C34.8145 14.8126 33.8075 13.6178 32.5219 13.6178C31.2655 13.6178 30.2433 14.8378 30.2433 16.3377C30.2433 16.4398 30.2485 16.5423 30.2584 16.6444C30.1919 16.6199 30.1269 16.596 30.0636 16.5729C29.919 16.1522 29.8459 15.7132 29.8459 15.2651C29.8459 13.4415 31.0588 11.9577 32.5502 11.9577C34.0412 11.9577 35.2544 13.4415 35.2544 15.2651C35.2544 16.0237 35.0365 16.7477 34.6597 17.323ZM33.5601 20.8724C33.5386 20.9646 33.4929 21.0054 32.9874 21.2581C32.7321 21.3857 32.4144 21.5447 32.0168 21.7773L31.7511 21.9319C30.6834 22.5538 28.1835 24.0103 27.5048 24.0958C27.0438 24.1554 26.7587 23.9836 26.1176 23.565C25.973 23.4705 25.8191 23.37 25.6551 23.2689C24.4993 22.5403 23.756 21.7378 23.672 21.424C24.0488 21.1442 24.9827 20.4438 25.4609 20.0292C26.4315 19.1621 27.4082 18.5794 27.8916 18.5794C27.9171 18.5794 27.9402 18.5811 27.9642 18.5854C28.5322 18.6818 29.9332 19.219 30.9566 19.6113C31.4295 19.7926 31.838 19.9492 32.1254 20.0483C33.0308 20.3471 33.5029 20.7293 33.5601 20.8724ZM41.6949 61.3949C42.2057 59.1812 42.794 56.1698 42.6988 54.3945C42.6768 53.9911 42.6397 53.5521 42.6037 53.1277C42.5365 52.3341 42.4367 51.1545 42.5397 50.8047C42.56 50.7956 42.5827 50.7877 42.6078 50.781C42.6121 51.796 42.8416 53.8205 44.5266 54.5264C45.0287 54.7369 45.6026 54.8435 46.2322 54.8435C47.9202 54.8435 49.793 54.0479 50.5602 53.3108C51.0118 52.8768 51.3918 52.3458 51.6579 51.9253C51.7161 52.0891 51.7518 52.303 51.7331 52.5787C51.6328 54.0757 52.39 56.0617 53.8311 56.7936L54.0409 56.8995C54.5541 57.1582 55.9173 57.846 55.9393 58.1721C55.9393 58.1721 55.9277 58.2106 55.8517 58.2784C55.5102 58.5783 54.3083 59.1679 53.1461 59.7383C51.0843 60.7497 48.7473 61.8962 47.6977 62.9569C46.22 64.4511 44.5485 65.4547 43.5392 65.4547C43.4177 65.4547 43.307 65.4399 43.2086 65.4099C42.1124 65.0816 41.2102 63.562 41.6949 61.3949ZM4.33046 55.7475C4.21866 55.2448 4.13041 54.848 4.22523 54.4636C4.29402 54.1788 5.7575 53.8735 6.38254 53.7433C7.26125 53.56 8.17007 53.3706 8.76433 53.024C9.56792 52.5563 10.0031 51.6938 10.3869 50.9328C10.6648 50.3824 10.9517 49.8134 11.2932 49.6267C11.3125 49.6158 11.3419 49.6032 11.398 49.6032C12.0377 49.6032 13.3801 50.8954 14.1536 52.0519C14.3498 52.3435 14.7133 52.9277 15.1337 53.6041C16.3913 55.6258 18.1132 58.3948 19.0125 59.3227C19.8229 60.157 21.1347 61.761 20.812 63.1367C20.5758 64.2041 19.318 65.072 19.0213 65.264C18.9136 65.2875 18.7803 65.2995 18.6235 65.2995C16.9023 65.2995 13.4951 63.9236 11.6646 63.1843L11.3937 63.0749C10.3715 62.6631 8.70278 62.4037 7.08904 62.1528C5.80502 61.953 4.04668 61.6797 3.7552 61.4327C3.51895 61.1781 3.793 60.3503 4.03468 59.62C4.20871 59.0951 4.38839 58.5524 4.48683 57.9842C4.62646 57.078 4.46216 56.3403 4.33046 55.7475Z" fill="#3ED1FF"/>
<g style="mix-blend-mode:multiply">
<path d="M19.2539 57.6375C18.9778 57.6375 18.7539 57.8613 18.7539 58.1375V68.1901C18.7539 68.4662 18.9778 68.6901 19.2539 68.6901H69.8329C70.109 68.6901 70.3329 68.4662 70.3329 68.1901V58.1375C70.3329 57.8613 70.109 57.6375 69.8329 57.6375H19.2539ZM28.6085 64.4965H26.6814C26.5014 64.4965 26.3394 64.5965 26.2288 64.7384C25.8878 65.1761 25.35 65.4829 24.6136 65.5058C21.8682 65.4203 21.8689 61.3973 24.6137 61.3122C25.382 61.3361 25.9307 61.6706 26.2675 62.1393C26.377 62.2916 26.5444 62.3998 26.7319 62.3998H28.6085C29.9769 62.4343 29.9789 64.4615 28.6085 64.4965ZM55.7938 65.5043C55.7938 66.194 55.1339 66.7283 54.4167 66.4986C53.9841 66.3601 53.7168 65.9182 53.7168 65.4599V61.835C53.7512 60.4533 55.7591 60.4517 55.7938 61.835V65.5043ZM60.4671 65.5043C60.4671 66.194 59.8072 66.7283 59.09 66.4986C58.6574 66.3601 58.3901 65.9182 58.3901 65.4599V61.835C58.4244 60.4533 60.4324 60.4517 60.4671 61.835V65.5043ZM65.1403 65.5043C65.1403 66.194 64.4804 66.7283 63.7632 66.4986C63.3306 66.3601 63.0633 65.9182 63.0633 65.4599V61.835C63.0977 60.4533 65.1056 60.4517 65.1403 61.835V65.5043Z" fill="#A943F9"/>
</g>
<g style="mix-blend-mode:multiply">
<path d="M19.2539 42.9005C18.9778 42.9005 18.7539 43.1244 18.7539 43.4005V53.4531C18.7539 53.7293 18.9778 53.9531 19.2539 53.9531H69.8329C70.109 53.9531 70.3329 53.7293 70.3329 53.4531V43.4005C70.3329 43.1244 70.109 42.9005 69.8329 42.9005H19.2539ZM28.6085 49.7596H26.6814C26.5014 49.7596 26.3394 49.8595 26.2288 50.0015C25.8878 50.4392 25.35 50.746 24.6136 50.7688C21.8682 50.6833 21.8689 46.6604 24.6137 46.5753C25.382 46.5992 25.9307 46.9336 26.2675 47.4024C26.377 47.5546 26.5444 47.6628 26.7319 47.6628H28.6085C29.9769 47.6974 29.9789 49.7245 28.6085 49.7596ZM55.7938 50.7674C55.7938 51.4571 55.1339 51.9914 54.4167 51.7617C53.9841 51.6232 53.7168 51.1813 53.7168 50.723V47.098C53.7512 45.7164 55.7591 45.7147 55.7938 47.098V50.7674ZM60.4671 50.7674C60.4671 51.4571 59.8072 51.9914 59.09 51.7617C58.6574 51.6232 58.3901 51.1813 58.3901 50.723V47.098C58.4244 45.7164 60.4324 45.7147 60.4671 47.098V50.7674ZM65.1403 50.7674C65.1403 51.4571 64.4804 51.9914 63.7632 51.7617C63.3306 51.6232 63.0633 51.1813 63.0633 50.723V47.098C63.0977 45.7164 65.1056 45.7147 65.1403 47.098V50.7674Z" fill="#A943F9"/>
</g>
</g>
<defs>
<clipPath id="clip0_5399_12828">
<rect width="70" height="70" fill="white" transform="translate(0.333984 0.531616)"/>
</clipPath>
</defs>
</svg>
