<svg width="70" height="70" viewBox="0 0 70 70" fill="none" xmlns="http://www.w3.org/2000/svg">
<path d="M0 10.9375V29.5312H26.0312V7.68359L0 10.9375Z" fill="#3ED1FF"/>
<path d="M29.748 7.21912V29.5316H59.498V3.50037L29.748 7.21912Z" fill="#3ED1FF"/>
<path d="M29.748 33.2498V55.5623L59.498 59.281V33.2498H29.748Z" fill="#3ED1FF"/>
<path d="M0 33.25V51.8438L26.0312 55.0977V33.25H0Z" fill="#3ED1FF"/>
<g style="mix-blend-mode:multiply">
<path d="M21.498 56.0004C21.2219 56.0004 20.998 56.2242 20.998 56.5004V66.0004C20.998 66.2765 21.2219 66.5004 21.498 66.5004H69.498C69.7742 66.5004 69.998 66.2765 69.998 66.0004V56.5004C69.998 56.2242 69.7742 56.0004 69.498 56.0004H21.498ZM30.3599 62.5165H28.5437C28.3638 62.5165 28.2019 62.6167 28.0902 62.7577C27.7658 63.1675 27.2579 63.4537 26.5648 63.4753C23.9567 63.394 23.9573 59.5722 26.5649 59.4914C27.288 59.5139 27.8063 59.826 28.127 60.2648C28.2377 60.4161 28.4049 60.5246 28.5924 60.5246H30.3599C31.6599 60.5574 31.6618 62.4832 30.3599 62.5165ZM56.186 63.4739C56.186 64.1291 55.559 64.6367 54.8777 64.4185C54.4667 64.2869 54.2128 63.8671 54.2128 63.4317V59.988C54.2455 58.6755 56.153 58.6739 56.186 59.988V63.4739ZM60.6256 63.4739C60.6256 64.1291 59.9986 64.6367 59.3173 64.4185C58.9063 64.2869 58.6524 63.8671 58.6524 63.4317V59.988C58.6851 58.6755 60.5926 58.6739 60.6256 59.988V63.4739ZM65.0652 63.4739C65.0652 64.1291 64.4382 64.6367 63.7569 64.4185C63.3459 64.2869 63.092 63.8671 63.092 63.4317V59.988C63.1246 58.6755 65.0322 58.6739 65.0652 59.988V63.4739Z" fill="#A943F9"/>
</g>
<g style="mix-blend-mode:multiply">
<path d="M21.498 41.9998C21.2219 41.9998 20.998 42.2236 20.998 42.4998V51.9998C20.998 52.2759 21.2219 52.4998 21.498 52.4998H69.498C69.7742 52.4998 69.998 52.2759 69.998 51.9998V42.4998C69.998 42.2236 69.7742 41.9998 69.498 41.9998H21.498ZM30.3599 48.5159H28.5437C28.3638 48.5159 28.2019 48.6161 28.0902 48.7571C27.7658 49.1668 27.2579 49.4531 26.5648 49.4746C23.9567 49.3934 23.9573 45.5716 26.5649 45.4908C27.288 45.5133 27.8063 45.8253 28.127 46.2641C28.2377 46.4155 28.4049 46.5239 28.5924 46.5239H30.3599C31.6599 46.5568 31.6618 48.4826 30.3599 48.5159ZM56.186 49.4733C56.186 50.1285 55.559 50.6361 54.8777 50.4178C54.4667 50.2863 54.2128 49.8665 54.2128 49.4311V45.9874C54.2455 44.6749 56.153 44.6733 56.186 45.9874V49.4733ZM60.6256 49.4733C60.6256 50.1285 59.9986 50.6361 59.3173 50.4178C58.9063 50.2863 58.6524 49.8665 58.6524 49.4311V45.9874C58.6851 44.6749 60.5926 44.6733 60.6256 45.9874V49.4733ZM65.0652 49.4733C65.0652 50.1285 64.4382 50.6361 63.7569 50.4178C63.3459 50.2863 63.092 49.8665 63.092 49.4311V45.9874C63.1246 44.6749 65.0322 44.6733 65.0652 45.9874V49.4733Z" fill="#A943F9"/>
</g>
</svg>
