<svg width="80" height="80" viewBox="0 0 80 80" fill="none" xmlns="http://www.w3.org/2000/svg">
<path d="M70.139 71.6667L9.85965 71.6666C6.25265 71.6666 3.33268 68.9329 3.33268 65.5561L3.33268 47C3.33268 45.8954 4.22812 45 5.33269 45L70.139 45.0003C73.746 45.0003 76.666 47.734 76.666 51.1108L76.666 65.5561C76.666 68.933 73.746 71.6667 70.139 71.6667Z" fill="#56A6FC"/>
<g style="mix-blend-mode:multiply">
<path d="M5.40245 23.6313C4.6083 23.9824 4.60828 25.1093 5.40242 25.4605L19.7826 31.8191V44.7541C19.7826 45.5458 20.2495 46.2629 20.9735 46.5832L39.1932 54.6422C39.7085 54.8701 40.296 54.8701 40.8113 54.6422L59.031 46.5832C59.755 46.2629 60.222 45.5458 60.222 44.7541V31.8176L65.999 29.2632V51.2849C65.999 52.3894 66.8945 53.2849 67.999 53.2849H69.7761C70.8807 53.2849 71.7761 52.3894 71.7761 51.2849V26.7087L74.599 25.4604C75.3931 25.1093 75.3931 23.9824 74.599 23.6313L40.811 8.69097C40.2959 8.46319 39.7086 8.46318 39.1935 8.69094L5.40245 23.6313Z" fill="#A943F9"/>
</g>
</svg>
