<svg width="80" height="80" viewBox="0 0 80 80" fill="none" xmlns="http://www.w3.org/2000/svg">
<path d="M67.958 28.917C66.9073 22.1925 61.0777 17.0312 54.0625 17.0312C51.4234 17.0312 48.8875 17.7614 46.688 19.1233C43.3417 13.4995 37.3175 10 30.625 10C20.2864 10 11.875 18.4114 11.875 28.75C11.875 28.8141 11.875 28.8805 11.8773 28.9445C5.23281 30.0637 0 35.8567 0 42.8125C0 50.567 6.46422 56.875 14.2188 56.875H65.7812C73.5358 56.875 80 50.567 80 42.8125C80 35.7973 74.6825 29.9677 67.958 28.917Z" fill="#3ED1FF"/>
<g style="mix-blend-mode:multiply">
<path d="M12.1678 45.1512C11.3556 45.4961 11.3555 46.6473 12.1677 46.9921L23.4579 51.7863V61.6494C23.4579 62.4518 23.9375 63.1765 24.676 63.4902L39.2194 69.6678C39.7191 69.88 40.2836 69.88 40.7832 69.6678L55.3266 63.4902C56.0652 63.1765 56.5447 62.4518 56.5447 61.6494V51.7852L61.2714 49.7781V66.6523C61.2714 67.7569 62.1668 68.6523 63.2714 68.6523H63.9981C65.1026 68.6523 65.9981 67.7569 65.9981 66.6523V47.771L67.8324 46.9921C68.6445 46.6472 68.6445 45.4961 67.8324 45.1512L40.783 33.6652C40.2835 33.4531 39.7192 33.453 39.2196 33.6652L12.1678 45.1512Z" fill="#A943F9"/>
</g>
</svg>
