<svg width="80" height="80" viewBox="0 0 80 80" fill="none" xmlns="http://www.w3.org/2000/svg">
<path d="M73.3333 68.6041V11.3957C73.3333 10.6203 72.5758 10 71.6667 10C70.7407 10 70 10.6344 70 11.3957V68.6041C70 69.3795 70.7576 69.9998 71.6667 69.9998C72.5758 70.0139 73.3333 69.3795 73.3333 68.6041Z" fill="#F9A457"/>
<path d="M68.6041 6.66663H11.3957C10.6203 6.66663 10 7.40737 10 8.33329C10 9.25922 10.6344 9.99996 11.3957 9.99996H68.6041C69.3795 9.99996 69.9998 9.24238 69.9998 8.33329C70.0139 7.4242 69.3795 6.66663 68.6041 6.66663Z" fill="#F9A457"/>
<path d="M9.99935 68.6043V11.3957C9.99935 10.6203 9.24177 10 8.33268 10C7.42359 10 6.66602 10.6344 6.66602 11.3957V68.6043C6.66602 69.3797 7.42359 70 8.33268 70C9.24177 70 9.99935 69.3797 9.99935 68.6043Z" fill="#F9A457"/>
<path d="M25.8714 61.4398L31.0435 49.094H48.9668L54.1389 61.4398C54.6305 62.6211 55.7674 63.332 56.9452 63.332C57.3446 63.332 57.7543 63.2483 58.1435 63.0811C59.7002 62.4016 60.4172 60.5722 59.7514 58.9832L42.8114 18.5587C42.33 17.4088 41.2239 16.6666 40.0051 16.6666C38.7863 16.6666 37.6802 17.4088 37.1989 18.5587L20.2486 58.9832C19.5828 60.5617 20.2998 62.4016 21.8565 63.0811C23.4031 63.7606 25.2056 63.0184 25.8714 61.4398ZM40.0051 27.7162L46.3551 42.8532H33.6552L40.0051 27.7162Z" fill="#F9A457"/>
<path d="M68.6041 70H11.3957C10.6203 70 10 70.7407 10 71.6667C10 72.5926 10.6344 73.3333 11.3957 73.3333H68.6041C69.3795 73.3333 69.9998 72.5758 69.9998 71.6667C70.0139 70.7407 69.3795 70 68.6041 70Z" fill="#F9A457"/>
<g style="mix-blend-mode:multiply">
<path d="M63.334 3.83337C63.334 3.55723 63.5578 3.33337 63.834 3.33337H76.1673C76.4435 3.33337 76.6673 3.55723 76.6673 3.83337V16.1667C76.6673 16.4428 76.4435 16.6667 76.1673 16.6667H63.834C63.5578 16.6667 63.334 16.4428 63.334 16.1667V3.83337Z" fill="#A943F9"/>
</g>
<g style="mix-blend-mode:multiply">
<path d="M63.334 63.8334C63.334 63.5572 63.5578 63.3334 63.834 63.3334H76.1673C76.4435 63.3334 76.6673 63.5572 76.6673 63.8334V76.1667C76.6673 76.4428 76.4435 76.6667 76.1673 76.6667H63.834C63.5578 76.6667 63.334 76.4428 63.334 76.1667V63.8334Z" fill="#A943F9"/>
</g>
<g style="mix-blend-mode:multiply">
<path d="M3.33398 3.83337C3.33398 3.55723 3.55784 3.33337 3.83398 3.33337H16.1673C16.4435 3.33337 16.6673 3.55723 16.6673 3.83337V16.1667C16.6673 16.4428 16.4435 16.6667 16.1673 16.6667H3.83398C3.55784 16.6667 3.33398 16.4428 3.33398 16.1667V3.83337Z" fill="#A943F9"/>
</g>
<g style="mix-blend-mode:multiply">
<path d="M3.33398 63.8334C3.33398 63.5572 3.55784 63.3334 3.83398 63.3334H16.1673C16.4435 63.3334 16.6673 63.5572 16.6673 63.8334V76.1667C16.6673 76.4428 16.4435 76.6667 16.1673 76.6667H3.83398C3.55784 76.6667 3.33398 76.4428 3.33398 76.1667V63.8334Z" fill="#A943F9"/>
</g>
</svg>
