<svg width="70" height="70" viewBox="0 0 70 70" fill="none" xmlns="http://www.w3.org/2000/svg">
<path fill-rule="evenodd" clip-rule="evenodd" d="M58.7661 64.1667H11.2352C9.80325 64.1651 8.43042 63.6204 7.41786 62.6521C6.40531 61.6839 5.8357 60.3711 5.83398 59.0018V10.9983C5.8357 9.62898 6.40531 8.31622 7.41786 7.34796C8.43042 6.3797 9.80325 5.83501 11.2352 5.83337H58.7661C60.1981 5.83501 61.5709 6.3797 62.5834 7.34796C63.596 8.31622 64.1656 9.62898 64.1673 10.9983V59.0018C64.1656 60.3711 63.596 61.6839 62.5834 62.6521C61.5709 63.6204 60.1981 64.1651 58.7661 64.1667ZM32.084 17.5C33.6948 17.5 35.0006 16.1942 35.0006 14.5834C35.0006 12.9725 33.6948 11.6667 32.084 11.6667C30.4732 11.6667 29.1673 12.9725 29.1673 14.5834C29.1673 16.1942 30.4732 17.5 32.084 17.5ZM26.2506 14.5834C26.2506 16.1942 24.9448 17.5 23.334 17.5C21.7232 17.5 20.4173 16.1942 20.4173 14.5834C20.4173 12.9725 21.7232 11.6667 23.334 11.6667C24.9448 11.6667 26.2506 12.9725 26.2506 14.5834ZM14.584 17.5C16.1948 17.5 17.5007 16.1942 17.5007 14.5834C17.5007 12.9725 16.1948 11.6667 14.584 11.6667C12.9732 11.6667 11.6673 12.9725 11.6673 14.5834C11.6673 16.1942 12.9732 17.5 14.584 17.5Z" fill="#56A6FC"/>
<g style="mix-blend-mode:multiply">
<path d="M28.3224 23.3334H67.9276C69.0721 23.3334 70 24.2516 70 25.3842V39.0687C70 39.5105 69.6418 39.8687 69.2 39.8687H27.05C26.6082 39.8687 26.25 39.5105 26.25 39.0687V25.3842C26.25 24.2516 27.178 23.3334 28.3224 23.3334ZM52.2308 33.8607H63.2303C64.3748 33.8607 65.3026 32.9425 65.3026 31.8099C65.3026 30.6774 64.3748 29.7592 63.2303 29.7592H52.2308C51.0865 29.7592 50.1585 30.6774 50.1585 31.8099C50.1585 32.9425 51.0865 33.8607 52.2308 33.8607ZM41.8618 33.841C43.0063 33.841 43.9342 32.9228 43.9342 31.7902C43.9342 30.6577 43.0063 29.7395 41.8618 29.7395C40.7175 29.7395 39.7895 30.6577 39.7895 31.7902C39.7895 32.9228 40.7175 33.841 41.8618 33.841ZM33.0197 33.841C34.1642 33.841 35.0921 32.9228 35.0921 31.7902C35.0921 30.6577 34.1642 29.7395 33.0197 29.7395C31.8754 29.7395 30.9474 30.6577 30.9474 31.7902C30.9474 32.9228 31.8754 33.841 33.0197 33.841Z" fill="#A943F9"/>
</g>
<g style="mix-blend-mode:multiply">
<path d="M28.3224 41.329H67.9276C69.0721 41.329 70 42.2472 70 43.3798V57.0643C70 57.5061 69.6418 57.8643 69.2 57.8643H27.05C26.6082 57.8643 26.25 57.5061 26.25 57.0643V43.3798C26.25 42.2472 27.178 41.329 28.3224 41.329ZM52.2308 51.8563H63.2303C64.3748 51.8563 65.3026 50.9381 65.3026 49.8055C65.3026 48.673 64.3748 47.7548 63.2303 47.7548H52.2308C51.0865 47.7548 50.1585 48.673 50.1585 49.8055C50.1585 50.9381 51.0865 51.8563 52.2308 51.8563ZM41.8618 51.8366C43.0063 51.8366 43.9342 50.9184 43.9342 49.7859C43.9342 48.6533 43.0063 47.7351 41.8618 47.7351C40.7175 47.7351 39.7895 48.6533 39.7895 49.7859C39.7895 50.9184 40.7175 51.8366 41.8618 51.8366ZM33.0197 51.8366C34.1642 51.8366 35.0921 50.9184 35.0921 49.7859C35.0921 48.6533 34.1642 47.7351 33.0197 47.7351C31.8754 47.7351 30.9474 48.6533 30.9474 49.7859C30.9474 50.9184 31.8754 51.8366 33.0197 51.8366Z" fill="#A943F9"/>
</g>
</svg>
