<svg width="24" height="24" viewBox="0 0 24 24" fill="none" xmlns="http://www.w3.org/2000/svg">
<rect x="12" y="1.5" width="10.5" height="10.5" rx="1" fill="#F5851E"/>
<g style="mix-blend-mode:multiply">
<path fill-rule="evenodd" clip-rule="evenodd" d="M10.939 6.69512C14.456 6.69512 17.3049 9.54255 17.3049 13.0523C17.3049 16.5622 14.456 19.4096 10.939 19.4096C9.18437 19.4096 7.59749 18.7021 6.44504 17.555C5.28737 16.4026 4.57313 14.8117 4.57313 13.0523C4.57313 9.54255 7.42208 6.69512 10.939 6.69512ZM19.5 13.0523C19.5 8.32783 15.6659 4.5 10.939 4.5C6.21212 4.5 2.37803 8.32783 2.37803 13.0523C2.37803 15.0227 3.04601 16.8386 4.16633 18.2841L1.82192 20.6259C1.39307 21.0543 1.39262 21.7492 1.82102 22.1781C2.24942 22.6069 2.94431 22.6074 3.37316 22.179L5.72153 19.8333C7.16567 20.9436 8.97584 21.6047 10.939 21.6047C15.6659 21.6047 19.5 17.7769 19.5 13.0523Z" fill="#2686EC"/>
</g>
</svg>
