<svg width="24" height="24" viewBox="0 0 24 24" fill="none" xmlns="http://www.w3.org/2000/svg">
<g style="mix-blend-mode:multiply">
<path fill-rule="evenodd" clip-rule="evenodd" d="M20.1481 18.5H3.85185C3.36089 18.4994 2.89021 18.3127 2.54304 17.9807C2.19588 17.6487 2.00059 17.1987 2 16.7292L2 2.77083C2.00059 2.30135 2.19588 1.85126 2.54304 1.51929C2.89021 1.18731 3.36089 1.00056 3.85185 1H20.1481C20.6391 1.00056 21.1098 1.18731 21.457 1.51929C21.8041 1.85126 21.9994 2.30135 22 2.77083V16.7292C21.9994 17.1987 21.8041 17.6487 21.457 17.9807C21.1098 18.3127 20.6391 18.4994 20.1481 18.5ZM11 5C11.5523 5 12 4.55228 12 4C12 3.44772 11.5523 3 11 3C10.4477 3 10 3.44772 10 4C10 4.55228 10.4477 5 11 5ZM9 4C9 4.55228 8.55228 5 8 5C7.44772 5 7 4.55228 7 4C7 3.44772 7.44772 3 8 3C8.55228 3 9 3.44772 9 4ZM5 5C5.55228 5 6 4.55228 6 4C6 3.44772 5.55228 3 5 3C4.44772 3 4 3.44772 4 4C4 4.55228 4.44772 5 5 5Z" fill="#56A6FC"/>
</g>
<g style="mix-blend-mode:multiply">
<path d="M15.4333 13.2358L12.7217 21.8227L19.2748 13.2358H15.4333Z" fill="#F9A457"/>
<path d="M6.83759 10.1982L4.75586 12.6963H8.29481L6.83759 10.1982Z" fill="#F9A457"/>
<path d="M17.1623 10.1982L15.7051 12.6963H19.244L17.1623 10.1982Z" fill="#F9A457"/>
<path d="M8.56708 13.2358H4.72559L11.2787 21.8227L8.56708 13.2358Z" fill="#F9A457"/>
<path d="M12.6514 10L15.1797 12.5283L16.6544 10H12.6514Z" fill="#F9A457"/>
<path d="M7.3457 10L8.82043 12.5283L11.3487 10H7.3457Z" fill="#F9A457"/>
<path d="M9.13281 13.2358L12.0009 22.3176L14.8689 13.2358H9.13281Z" fill="#F9A457"/>
<path d="M11.9999 10.1116L9.41504 12.6965H14.5848L11.9999 10.1116Z" fill="#F9A457"/>
</g>
</svg>
