<svg width="40" height="40" viewBox="0 0 40 40" fill="none" xmlns="http://www.w3.org/2000/svg">
<g clip-path="url(#clip0_3451_6849)">
<path fill-rule="evenodd" clip-rule="evenodd" d="M35.2753 12.8868C35.1473 11.0971 33.6579 9.71069 31.8635 9.71069H8.13849C6.34416 9.71069 4.85475 11.0971 4.72672 12.8868L3.05163 36.3368C2.9842 37.2837 3.31256 38.2157 3.95954 38.9102C4.60749 39.6056 5.51346 40.0001 6.4634 40.0001H33.5386C34.4886 40.0001 35.3945 39.6056 36.0425 38.9102C36.6895 38.2157 37.0178 37.2837 36.9504 36.3368L35.2753 12.8868Z" fill="white"/>
<path fill-rule="evenodd" clip-rule="evenodd" d="M29.3328 20.0348V9.28446C29.3319 4.15654 25.1755 6.10352e-05 20.0468 6.10352e-05C15.1067 6.10352e-05 10.5393 3.93469 10.7617 9.28446C10.972 14.3547 10.7617 20.0348 10.7617 20.0348C10.7617 20.844 11.4185 21.5008 12.2274 21.5008C13.0363 21.5008 13.694 20.844 13.694 20.0348V9.28446C13.694 5.77593 16.5377 2.93198 20.0468 2.93198C23.556 2.93198 26.3997 5.77593 26.4005 9.28446V20.0348C26.4005 20.844 27.0574 21.5008 27.8663 21.5008C28.6751 21.5008 29.3328 20.844 29.3328 20.0348Z" fill="white"/>
</g>
<defs>
<clipPath id="clip0_3451_6849">
<rect width="40" height="40" fill="white"/>
</clipPath>
</defs>
</svg>
