<svg width="80" height="80" viewBox="0 0 80 80" fill="none" xmlns="http://www.w3.org/2000/svg">
<path fill-rule="evenodd" clip-rule="evenodd" d="M67.1598 73.3333H12.8389C11.2023 73.3314 9.63337 72.7089 8.47616 71.6023C7.31896 70.4958 6.66798 68.9955 6.66602 67.4305V12.5694C6.66798 11.0045 7.31896 9.50416 8.47616 8.39758C9.63337 7.291 11.2023 6.6685 12.8389 6.66663H67.1598C68.7964 6.6685 70.3653 7.291 71.5225 8.39758C72.6797 9.50416 73.3307 11.0045 73.3327 12.5694V67.4305C73.3307 68.9955 72.6797 70.4958 71.5225 71.6023C70.3653 72.7089 68.7964 73.3314 67.1598 73.3333ZM36.666 20C38.507 20 39.9993 18.5076 39.9993 16.6666C39.9993 14.8257 38.507 13.3333 36.666 13.3333C34.8251 13.3333 33.3327 14.8257 33.3327 16.6666C33.3327 18.5076 34.8251 20 36.666 20ZM29.9993 16.6666C29.9993 18.5076 28.507 20 26.666 20C24.8251 20 23.3327 18.5076 23.3327 16.6666C23.3327 14.8257 24.8251 13.3333 26.666 13.3333C28.507 13.3333 29.9993 14.8257 29.9993 16.6666ZM16.666 20C18.507 20 19.9993 18.5076 19.9993 16.6666C19.9993 14.8257 18.507 13.3333 16.666 13.3333C14.8251 13.3333 13.3327 14.8257 13.3327 16.6666C13.3327 18.5076 14.8251 20 16.666 20Z" fill="#56A6FC"/>
<g style="mix-blend-mode:multiply">
<path d="M32.3684 26.6666H77.6316C78.9396 26.6666 80 27.716 80 29.0104V44.7641C80 45.206 79.6418 45.5641 79.2 45.5641H30.8C30.3582 45.5641 30 45.206 30 44.7641V29.0104C30 27.716 31.0606 26.6666 32.3684 26.6666ZM59.6924 38.6979H72.2632C73.5712 38.6979 74.6316 37.6485 74.6316 36.3541C74.6316 35.0598 73.5712 34.0104 72.2632 34.0104H59.6924C58.3845 34.0104 57.3239 35.0598 57.3239 36.3541C57.3239 37.6485 58.3845 38.6979 59.6924 38.6979ZM47.8421 38.6754C49.1501 38.6754 50.2105 37.626 50.2105 36.3316C50.2105 35.0372 49.1501 33.9879 47.8421 33.9879C46.5343 33.9879 45.4737 35.0372 45.4737 36.3316C45.4737 37.626 46.5343 38.6754 47.8421 38.6754ZM37.7368 38.6754C39.0448 38.6754 40.1053 37.626 40.1053 36.3316C40.1053 35.0372 39.0448 33.9879 37.7368 33.9879C36.429 33.9879 35.3684 35.0372 35.3684 36.3316C35.3684 37.626 36.429 38.6754 37.7368 38.6754Z" fill="#A943F9"/>
</g>
<g style="mix-blend-mode:multiply">
<path d="M32.3684 47.2314H77.6316C78.9396 47.2314 80 48.2808 80 49.5752V65.3289C80 65.7708 79.6418 66.1289 79.2 66.1289H30.8C30.3582 66.1289 30 65.7708 30 65.3289V49.5752C30 48.2808 31.0606 47.2314 32.3684 47.2314ZM59.6924 59.2627H72.2632C73.5712 59.2627 74.6316 58.2133 74.6316 56.9189C74.6316 55.6246 73.5712 54.5752 72.2632 54.5752H59.6924C58.3845 54.5752 57.3239 55.6246 57.3239 56.9189C57.3239 58.2133 58.3845 59.2627 59.6924 59.2627ZM47.8421 59.2402C49.1501 59.2402 50.2105 58.1908 50.2105 56.8964C50.2105 55.6021 49.1501 54.5527 47.8421 54.5527C46.5343 54.5527 45.4737 55.6021 45.4737 56.8964C45.4737 58.1908 46.5343 59.2402 47.8421 59.2402ZM37.7368 59.2402C39.0448 59.2402 40.1053 58.1908 40.1053 56.8964C40.1053 55.6021 39.0448 54.5527 37.7368 54.5527C36.429 54.5527 35.3684 55.6021 35.3684 56.8964C35.3684 58.1908 36.429 59.2402 37.7368 59.2402Z" fill="#A943F9"/>
</g>
</svg>
