<svg width="70" height="71" viewBox="0 0 70 71" fill="none" xmlns="http://www.w3.org/2000/svg">
<path d="M59.4632 25.6358C58.5439 19.7518 53.4429 15.2357 47.3047 15.2357C44.9955 15.2357 42.7766 15.8746 40.852 17.0662C37.924 12.1455 32.6528 9.08337 26.7969 9.08337C17.7506 9.08337 10.3906 16.4434 10.3906 25.4896C10.3906 25.5457 10.3906 25.6038 10.3927 25.6598C4.57871 26.6392 0 31.708 0 37.7943C0 44.5795 5.65619 50.099 12.4414 50.099H57.5586C64.3438 50.099 70 44.5795 70 37.7943C70 31.656 65.3472 26.5551 59.4632 25.6358Z" fill="#3ED1FF"/>
<g style="mix-blend-mode:multiply">
<path d="M10.9178 39.7257C10.1056 40.0705 10.1055 41.2217 10.9177 41.5666L20.5257 45.6464V54.1112C20.5257 54.9136 21.0052 55.6383 21.7438 55.952L34.2192 61.2512C34.7189 61.4634 35.2834 61.4634 35.7831 61.2512L48.2585 55.952C48.9971 55.6383 49.4766 54.9136 49.4766 54.1112V45.6455L53.6125 43.8892V58.4042C53.6125 59.5087 54.5079 60.4042 55.6125 60.4042H55.7483C56.8529 60.4042 57.7483 59.5087 57.7483 58.4042V42.133L59.0824 41.5666C59.8946 41.2217 59.8945 40.0705 59.0824 39.7256L35.7828 29.8319C35.2833 29.6198 34.719 29.6198 34.2195 29.8319L10.9178 39.7257Z" fill="#A943F9"/>
</g>
</svg>
