<svg width="41" height="41" viewBox="0 0 41 41" fill="none" xmlns="http://www.w3.org/2000/svg">
<g style="mix-blend-mode:multiply">
<path d="M29.6227 10.5014C33.3513 10.5014 37.1818 11.8676 38.8173 15.2184C42.0169 21.7739 40.8932 29.9072 35.4461 35.3543C29.999 40.8014 21.8657 41.9251 15.3103 38.7255C11.9594 37.09 10.5933 33.2595 10.5933 29.5309V14.0162C10.5933 12.075 12.1669 10.5014 14.108 10.5014H29.6227Z" fill="#FF4BAD"/>
</g>
<g style="mix-blend-mode:multiply">
<path d="M7.25992 20.5014C5.18845 20.5014 3.08787 19.7382 2.07709 17.93C-0.416448 13.4695 0.232762 7.72486 4.02472 3.9329C7.81668 0.140941 13.5613 -0.508268 18.0219 1.98527C19.83 2.99605 20.5933 5.09664 20.5933 7.16811L20.5933 17.898C20.5933 19.3358 19.4276 20.5014 17.9898 20.5014L7.25992 20.5014Z" fill="#3ED1FF"/>
</g>
</svg>
