<svg width="80" height="80" viewBox="0 0 80 80" fill="none" xmlns="http://www.w3.org/2000/svg">
<path d="M72.3268 67.7809L64.981 60.4218C66.8821 57.6403 67.9966 54.2827 67.9966 50.6678C67.9966 41.1098 60.2215 33.3333 50.6653 33.3333C41.1091 33.3333 33.334 41.1098 33.334 50.6678C33.334 60.2258 41.1091 68.0023 50.6653 68.0023C54.2862 68.0023 57.6485 66.8822 60.4322 64.9754L67.774 72.3319C68.3952 72.9546 69.2151 73.308 70.0804 73.332C70.1097 73.3333 70.1404 73.3333 70.171 73.3333C71.0283 73.3333 71.8228 73.008 72.4188 72.4119C73.0374 71.7932 73.3627 70.9625 73.332 70.0704C73.304 69.213 72.9467 68.3996 72.3268 67.7809ZM36.0017 50.6678C36.0017 42.5806 42.5809 36.0002 50.6666 36.0002C58.7524 36.0002 65.3316 42.5806 65.3316 50.6678C65.3316 58.755 58.7524 65.3354 50.6666 65.3354C42.5809 65.3354 36.0017 58.755 36.0017 50.6678Z" fill="#FF4BAD"/>
<path d="M36.0017 50.6678C36.0017 42.5806 42.5809 36.0002 50.6666 36.0002C58.7524 36.0002 65.3316 42.5806 65.3316 50.6678C65.3316 58.755 58.7524 65.3354 50.6666 65.3354C42.5809 65.3354 36.0017 58.755 36.0017 50.6678Z" fill="#FF4BAD"/>
<g style="mix-blend-mode:multiply">
<path fill-rule="evenodd" clip-rule="evenodd" d="M73.3327 44.7524V15.0704C73.3327 10.4366 69.4578 6.66669 64.6955 6.66669H15.3048C10.5409 6.66669 6.66602 10.4366 6.66602 15.0704V39.3487C6.66602 43.9825 10.5409 47.7524 15.3048 47.7524H15.8357C16.7003 47.7524 17.5228 48.1254 18.0924 48.7757L24.6398 56.2504C24.8714 56.5143 25.2098 56.6667 25.5661 56.6667C25.9223 56.6667 26.2591 56.5143 26.489 56.2504L32.7323 48.498C33.1119 48.0265 33.6844 47.7524 34.2897 47.7524L70.333 47.7524C71.9899 47.7524 73.3327 46.4093 73.3327 44.7524ZM29.6374 17.5741C29.6374 18.451 28.7938 19.1615 27.7532 19.1615H19.5882V24.4526H27.7532C28.7938 24.4526 29.6374 25.1631 29.6374 26.0399V34.5057C29.6374 35.3826 28.7938 36.093 27.7532 36.093H17.7039C16.6633 36.093 15.8197 35.3826 15.8197 34.5057C15.8197 33.6289 16.6633 32.9184 17.7039 32.9184H25.8689V27.6272H17.7039C16.6633 27.6272 15.8197 26.9168 15.8197 26.0399V17.5741C15.8197 16.6973 16.6633 15.9868 17.7039 15.9868H27.7532C28.7938 15.9868 29.6374 16.6973 29.6374 17.5741ZM45.0254 19.1615C46.066 19.1615 46.9096 18.451 46.9096 17.5741C46.9096 16.6973 46.066 15.9868 45.0254 15.9868H34.9761C33.9355 15.9868 33.0919 16.6973 33.0919 17.5741V34.5057C33.0919 35.3826 33.9355 36.093 34.9761 36.093H45.0254C46.066 36.093 46.9096 35.3826 46.9096 34.5057C46.9096 33.6289 46.066 32.9184 45.0254 32.9184H36.8604V27.6272H45.0254C46.066 27.6272 46.9096 26.9168 46.9096 26.0399C46.9096 25.1631 46.066 24.4526 45.0254 24.4526H36.8604V19.1615H45.0254ZM52.2483 15.9868H62.2976C63.3382 15.9868 64.1818 16.6973 64.1818 17.5741V34.5057C64.1818 35.3826 63.3382 36.093 62.2976 36.093H52.2483C51.2077 36.093 50.3641 35.3826 50.3641 34.5057V17.5741C50.3641 16.6973 51.2077 15.9868 52.2483 15.9868ZM54.1326 32.9184H60.4133V19.1615H54.1326V32.9184Z" fill="#A943F9"/>
</g>
</svg>
