<svg width="80" height="80" viewBox="0 0 80 80" fill="none" xmlns="http://www.w3.org/2000/svg">
<path fill-rule="evenodd" clip-rule="evenodd" d="M72.4223 53.4922C73.0895 53.1577 73.7936 52.663 74.162 52.3299C78.0139 48.7871 77.6537 41.1847 71.4726 38.5259C72.028 35.4613 70.2214 32.4804 67.0108 32.3132C68.3984 27.9532 64.4598 23.4873 59.851 24.1273L59.836 24.1292L59.8248 24.1308C58.9812 24.2514 58.1155 24.5432 57.2562 25.0383C57.1778 25.0834 57.0993 25.1303 57.021 25.1789C57.0148 25.1828 57.0085 25.1867 57.0023 25.1906L56.9916 25.1974C53.3673 27.4731 52.5824 32.4892 54.1235 36.5098C54.492 37.4782 54.9958 38.3999 55.6326 39.2755C55.9669 39.7333 55.9123 40.4076 55.3856 40.8037C54.8998 41.1614 54.2203 41.049 53.8642 40.5597C53.519 40.0883 53.2079 39.6045 52.9336 39.1124C51.226 39.4171 49.5537 39.2855 47.9519 38.7767C47.3775 38.5944 47.0582 37.9776 47.2397 37.4006C47.4212 36.8236 48.0352 36.5029 48.6096 36.6852C49.7161 37.0365 50.8673 37.1567 51.9867 37.0347C50.0504 31.6399 51.8516 26.1519 55.2014 23.7679C55.5817 23.4908 56.1119 23.5979 56.3688 23.9893C56.4115 24.0588 56.4534 24.129 56.4944 24.1998C56.4579 24.1366 56.4208 24.074 56.383 24.0118L56.377 24.0021L56.3688 23.9893C55.1373 21.9891 53.1601 20.5462 50.8677 20.1264C50.6461 20.0858 50.4245 20.0552 50.2035 20.0343C49.9219 20.0077 49.6412 19.9968 49.3624 20.0008C46.361 20.0442 43.5828 21.8201 42.2415 24.3654C40.4554 21.9123 37.4355 20.6907 34.2789 20.6671C34.2131 20.6666 34.1473 20.6666 34.0814 20.6672C28.9114 20.7102 23.4369 23.9543 22.4535 30.2534L22.4522 30.2616C22.4492 30.2808 22.4463 30.3001 22.4434 30.3193C22.4467 30.2973 22.4501 30.2754 22.4535 30.2534C22.543 29.7235 23.271 29.6274 23.4887 30.1221C23.9068 31.0724 24.4507 31.8272 25.0995 32.3146C26.2143 33.1533 27.3386 33.2863 27.3509 33.2876C28.4425 33.3973 29.3444 33.0231 29.9093 32.6901C30.4292 32.3831 31.0978 32.5585 31.4034 33.0807C31.709 33.6029 31.5344 34.2744 31.0145 34.5814C30.4087 34.9378 29.5395 35.3256 28.4793 35.4545C28.6032 36.0427 28.8547 36.6844 29.2271 37.2855C29.5463 37.7995 29.3894 38.4751 28.8777 38.7958C28.365 39.1157 27.6939 38.9585 27.3741 38.445C26.7837 37.4949 26.3902 36.4286 26.2293 35.2831C23.8958 34.6199 22.4176 33.1008 21.4992 31.0522C21.3117 30.6339 21.6864 30.1794 22.1292 30.2918C22.2148 30.3135 22.3002 30.3372 22.3853 30.3629C21.7852 30.1818 21.1942 30.0964 20.623 30.0946C20.3847 30.0938 20.1497 30.1076 19.919 30.1351C16.1727 30.581 13.5306 34.6315 15.2534 38.5245C15.2217 38.5769 15.1904 38.6295 15.1594 38.6823C13.2737 41.893 12.9202 45.4691 13.772 48.6736C14.2937 50.6726 15.2919 52.5509 16.7448 54.1185C16.9381 54.3271 17.1374 54.528 17.3422 54.7211C19.156 56.4452 21.5188 57.6603 24.2917 58.0532C26.1655 58.3216 28.1071 58.1823 29.9724 57.6081L29.9768 57.6068L29.9818 57.6053L29.9998 57.5997C30.0111 57.5962 30.0224 57.5926 30.0337 57.5891C30.0133 57.5955 29.9928 57.6018 29.9724 57.6081C29.3245 57.8019 28.6582 57.3639 28.5743 56.6885C28.502 56.1062 28.4582 55.5141 28.4383 54.9175C28.4178 54.2967 28.9227 53.7909 29.5408 53.795C30.1065 53.7989 30.6004 54.2546 30.6202 54.8586C30.6502 55.7508 30.7376 56.5608 30.874 57.294L30.877 57.294C30.877 57.294 30.8785 57.297 30.88 57.3077C30.8853 57.3454 30.9048 57.4839 31.0254 57.9875C32.4008 63.5656 37.043 64.3921 42.7301 63.5999C42.8022 63.7744 42.8787 63.9459 42.9596 64.1144C43.1105 64.4288 43.2764 64.7329 43.4563 65.0263C43.4626 65.0367 43.4691 65.0469 43.4758 65.057C45.293 67.9943 48.5064 69.851 51.9647 70.4471C53.9814 71.6655 54.8465 73.6021 54.7878 75.5537C54.7701 76.176 55.2667 76.6721 55.8862 76.6666H61.1299C61.7439 76.6611 62.231 76.128 62.2119 75.5113C62.1153 72.1646 60.7327 69.8698 60.3866 69.2952C60.3368 69.2126 60.3085 69.1655 60.3085 69.1561C64.2327 70.0538 68.2129 67.976 68.73 63.7205C68.796 63.1754 68.796 62.688 68.7781 62.3067C68.7839 62.4306 68.7877 62.5657 68.7881 62.7103C68.7898 63.2996 68.3212 63.7897 67.7346 63.8037C67.6349 63.806 67.5347 63.8067 67.4344 63.8053C66.8537 63.7978 66.3789 63.2969 66.3789 62.7136V62.5377C66.4635 61.9964 66.9342 61.6085 67.48 61.6126C67.9018 61.6167 68.3166 61.5783 68.7177 61.5016C68.7177 61.5278 68.7206 61.5675 68.7252 61.6194C68.7276 61.6471 68.7305 61.6782 68.7337 61.7125L68.7335 61.7099C68.7304 61.6766 68.7276 61.6463 68.7252 61.6194C68.7206 61.5675 68.7177 61.5278 68.7177 61.5016C72.5828 60.7368 74.0776 56.9834 72.4919 53.6349C72.4694 53.5871 72.4461 53.5396 72.4223 53.4922ZM72.4223 53.4922C72.4461 53.5396 72.4694 53.5871 72.4919 53.6349C72.652 53.9744 72.7806 54.3229 72.8779 54.6752C73.0281 55.2196 72.7226 55.7864 72.1948 55.9813C68.7976 57.236 65.3906 56.4774 62.8922 54.2446C62.7129 54.0843 62.6019 53.8783 62.5578 53.6607C62.4824 53.2882 62.6031 52.8814 62.913 52.6103C63.3271 52.2482 63.9432 52.254 64.3543 52.6198C64.6583 52.8903 64.9792 53.1325 65.3147 53.3445C67.3283 54.6173 69.8661 54.8027 72.4223 53.4922ZM43.4758 65.057C43.7149 65.4193 44.1477 65.6043 44.5764 65.5291C46.2821 65.23 47.9653 64.8413 49.5398 64.4778C51.9345 63.9248 54.0776 63.4299 55.6652 63.397C56.1714 63.3861 56.6012 63.0242 56.7036 62.5267C56.8469 61.836 56.3106 61.1905 55.6094 61.2124C53.7844 61.2689 51.4374 61.8021 48.9144 62.3754C46.9063 62.8316 44.7867 63.3132 42.7301 63.5999C42.8022 63.7744 42.8787 63.9459 42.9596 64.1144C43.116 64.4399 43.2885 64.7542 43.4758 65.057ZM68.7634 62.0603C68.7536 61.9228 68.7425 61.8055 68.7337 61.7125L68.7342 61.7171C68.7429 61.8096 68.7537 61.9251 68.7634 62.0603ZM58.0122 51.0774C57.4614 51.0774 56.988 50.6599 56.9281 50.0975C56.7031 47.9838 57.6431 45.9553 59.3813 44.8033C61.2621 43.5557 63.7898 43.6028 65.6706 44.9207C66.1651 45.2671 66.2863 45.9506 65.9413 46.4472C65.5964 46.944 64.9159 47.0656 64.4214 46.7191C63.2675 45.9106 61.7254 45.8762 60.5838 46.6334C59.5299 47.3319 58.9611 48.5699 59.0989 49.8643C59.1678 50.5108 58.664 51.0774 58.0122 51.0774ZM42.1951 51.7525C41.9484 52.305 42.1944 52.9538 42.7445 53.2016C45.7297 54.5461 49.1448 53.5076 50.9296 50.7692C51.2596 50.2625 51.1184 49.583 50.6141 49.2513C50.1098 48.9198 49.4331 49.0615 49.1029 49.5682C47.9333 51.3629 45.6876 52.1238 43.6378 51.2008C43.0878 50.9531 42.442 51.2001 42.1951 51.7525ZM33.9994 47.5239C36.1221 48.4314 37.2482 50.1113 37.5851 50.6893C37.8896 51.2118 37.7147 51.8834 37.1946 52.1894C36.6735 52.4958 36.0052 52.319 35.701 51.7971C35.4929 51.4399 34.339 49.6365 32.0566 49.213C29.5216 48.7413 27.6612 50.3635 27.4574 50.55C27.0118 50.958 26.3213 50.9258 25.9153 50.4783C25.5091 50.0307 25.541 49.3372 25.9866 48.9293C26.4272 48.526 28.6875 46.6331 31.8859 46.9748C32.08 46.1984 32.0348 45.3977 31.7356 44.6172C31.5189 44.0521 31.7994 43.4176 32.362 43.2001C32.9247 42.9826 33.5563 43.2642 33.7729 43.8293C34.2369 45.0402 34.3068 46.307 33.9994 47.5239ZM41.6149 37.9293C41.7304 37.3349 42.3037 36.9471 42.8954 37.0632C43.487 37.1792 43.8731 37.7551 43.7576 38.3495C43.2673 40.8721 45.2012 42.8687 47.5686 42.8146C48.1687 42.8033 48.6708 43.2809 48.6842 43.8863C48.6975 44.4917 48.2198 44.9934 47.6171 45.0069C43.807 45.0929 40.8676 41.7738 41.6149 37.9293ZM41.6684 31.1428C41.8435 31.6907 41.5688 32.2566 41.0748 32.4777C40.4854 32.7422 39.7909 32.4393 39.5944 31.8225C38.7349 29.1378 38.9147 26.1881 40.146 23.6652C40.3921 23.1613 41.0637 23.0453 41.4573 23.4435C41.7393 23.7287 42.0017 24.0361 42.2415 24.3654C41.1568 26.3924 40.9316 28.8457 41.6684 31.1428ZM19.4138 46.7189C19.1049 46.199 19.2741 45.5259 19.7917 45.2156C20.2359 44.9493 21.0382 44.3458 21.4204 43.2957C22.1517 41.2923 20.6897 39.4525 20.6271 39.3752C20.2468 38.9054 20.3178 38.2147 20.7855 37.8328C21.2532 37.4508 21.9408 37.5221 22.3211 37.9919C22.5581 38.2848 24.6045 40.9432 23.4705 44.0497C22.857 45.7349 21.6032 46.6833 20.9105 47.0986C20.3909 47.41 19.7216 47.237 19.4138 46.7189Z" fill="#A943F9"/>
<path d="M42.1951 51.7525C41.9484 52.305 42.1944 52.9538 42.7445 53.2016C45.7297 54.5461 49.1448 53.5076 50.9296 50.7692C51.2596 50.2625 51.1184 49.583 50.6141 49.2513C50.1098 48.9198 49.4331 49.0615 49.1029 49.5682C47.9333 51.3629 45.6876 52.1238 43.6378 51.2008C43.0878 50.9531 42.442 51.2001 42.1951 51.7525Z" fill="#A943F9"/>
<path d="M33.9994 47.5239C36.1221 48.4314 37.2482 50.1113 37.5851 50.6893C37.8896 51.2118 37.7147 51.8834 37.1946 52.1894C36.6735 52.4958 36.0052 52.319 35.701 51.7971C35.4929 51.4399 34.339 49.6365 32.0566 49.213C29.5216 48.7413 27.6612 50.3635 27.4574 50.55C27.0118 50.958 26.3213 50.9258 25.9153 50.4783C25.5091 50.0307 25.541 49.3372 25.9866 48.9293C26.4272 48.526 28.6875 46.6331 31.8859 46.9748C32.08 46.1984 32.0348 45.3977 31.7356 44.6172C31.5189 44.0521 31.7994 43.4176 32.362 43.2001C32.9247 42.9826 33.5563 43.2642 33.7729 43.8293C34.2369 45.0402 34.3068 46.307 33.9994 47.5239Z" fill="#A943F9"/>
<path d="M41.6149 37.9293C41.7304 37.3349 42.3037 36.9471 42.8954 37.0632C43.487 37.1792 43.8731 37.7551 43.7576 38.3495C43.2673 40.8721 45.2012 42.8687 47.5686 42.8146C48.1687 42.8033 48.6708 43.2809 48.6842 43.8863C48.6975 44.4917 48.2198 44.9934 47.6171 45.0069C43.807 45.0929 40.8676 41.7738 41.6149 37.9293Z" fill="#A943F9"/>
<path d="M58.0122 51.0774C57.4614 51.0774 56.988 50.6599 56.9281 50.0975C56.7031 47.9838 57.6431 45.9553 59.3813 44.8033C61.2621 43.5557 63.7898 43.6028 65.6706 44.9207C66.1651 45.2671 66.2863 45.9506 65.9413 46.4472C65.5964 46.944 64.9159 47.0656 64.4214 46.7191C63.2675 45.9106 61.7254 45.8762 60.5838 46.6334C59.5299 47.3319 58.9611 48.5699 59.0989 49.8643C59.1678 50.5108 58.664 51.0774 58.0122 51.0774Z" fill="#A943F9"/>
<g style="mix-blend-mode:multiply">
<path d="M35.2359 30.5165C34.0179 31.3285 32.6031 31.7577 31.1444 31.7577C29.6859 31.7577 28.2711 31.3285 27.0531 30.5165L6.99198 17.142C6.88068 17.0678 6.77225 16.9904 6.66602 16.9109V38.8264C6.66602 41.3391 8.70509 43.3332 11.1728 43.3332H51.116C53.6286 43.3332 55.6228 41.2941 55.6228 38.8264V16.9108C55.5163 16.9905 55.4077 17.0681 55.2961 17.1424L35.2359 30.5165Z" fill="#F41E92"/>
<path d="M8.58317 14.7552L28.6443 28.1298C29.4037 28.6361 30.274 28.8892 31.1443 28.8892C32.0148 28.8892 32.8852 28.636 33.6446 28.1298L53.7057 14.7552C54.9062 13.9554 55.6229 12.6167 55.6229 11.1719C55.6229 8.68763 53.6018 6.66663 51.1176 6.66663H11.1713C8.68711 6.66672 6.66602 8.68772 6.66602 11.1743C6.66602 12.6167 7.38277 13.9554 8.58317 14.7552Z" fill="#F41E92"/>
</g>
</svg>
