<svg width="80" height="80" viewBox="0 0 80 80" fill="none" xmlns="http://www.w3.org/2000/svg">
<path d="M67.958 28.917C66.9073 22.1925 61.0777 17.0312 54.0625 17.0312C51.4234 17.0312 48.8875 17.7614 46.688 19.1233C43.3417 13.4995 37.3175 10 30.625 10C20.2864 10 11.875 18.4114 11.875 28.75C11.875 28.8141 11.875 28.8805 11.8773 28.9445C5.23281 30.0637 0 35.8567 0 42.8125C0 50.567 6.46422 56.875 14.2188 56.875H65.7812C73.5358 56.875 80 50.567 80 42.8125C80 35.7973 74.6825 29.9677 67.958 28.917Z" fill="#3ED1FF"/>
<g style="mix-blend-mode:multiply">
<path d="M58.7483 41.036C57.3128 41.1968 56.4337 42.3976 56.6345 43.8039C57.3555 48.8513 56.3614 53.9399 53.4362 58.2035C51.82 60.559 49.7565 62.4547 47.3977 63.8691C46.9092 64.1621 47.2597 64.9474 47.8719 64.9414L61.366 64.8253C61.9318 64.8202 62.0803 64.1342 61.5884 63.7967L58.3612 61.5825C61.9865 56.2986 63.2 50.0086 62.2986 43.76C62.0632 42.1278 60.4148 40.8494 58.7483 41.036Z" fill="#A943F9"/>
</g>
<g style="mix-blend-mode:multiply">
<path d="M27.4276 32.4047C28.2174 33.501 29.7071 33.8255 30.9012 33.2223C35.1855 31.0599 40.2737 30.2536 45.4759 31.2501C48.349 31.8007 51.0037 32.8521 53.3514 34.2912C53.8382 34.589 54.3975 34.063 54.1178 33.576L47.9667 22.8374C47.7081 22.3866 47.0153 22.4835 46.9278 22.9835L46.3532 26.2564C39.9074 25.0222 33.6229 26.0303 28.324 28.7142C26.9384 29.4147 26.511 31.1327 27.4276 32.4047Z" fill="#A943F9"/>
</g>
<g style="mix-blend-mode:multiply">
<path d="M19.9791 43.1697C19.2467 49.0646 20.425 55.3197 23.7678 60.9678L20.8824 62.6162C20.4414 62.8678 20.5847 63.5525 21.0965 63.6432L33.2837 65.7975C33.8359 65.895 34.1432 65.1909 33.6974 64.8343C31.5486 63.112 29.6607 60.9696 28.1703 58.4522C25.4726 53.8948 24.5086 48.8329 25.0936 44.0694C25.2563 42.7422 24.4468 41.4502 23.1487 41.0773C21.6423 40.6461 20.1701 41.6296 19.9791 43.1697Z" fill="#A943F9"/>
</g>
</svg>
