<svg width="80" height="80" viewBox="0 0 80 80" fill="none" xmlns="http://www.w3.org/2000/svg">
<path d="M66.0661 47.4828L59.3681 44.1066L66.0661 40.7304C66.4328 40.545 66.665 40.1772 66.6672 39.7735C66.6694 39.3698 66.4437 38.9989 66.0791 38.8082L49.4125 30.1272C49.0892 29.9597 48.705 29.9577 48.3795 30.1208L40.0007 34.3441L31.6217 30.1209C31.2962 29.9577 30.9078 29.9598 30.5887 30.1273L13.9221 38.8083C13.5575 38.999 13.3318 39.3699 13.334 39.7736C13.3362 40.1773 13.5684 40.5451 13.9351 40.7305L20.6331 44.1067L13.9352 47.4828C13.5685 47.6683 13.3363 48.036 13.3341 48.4398C13.3319 48.8435 13.5576 49.2144 13.9222 49.4051L30.5888 58.0861C30.7516 58.1709 30.9317 58.2132 31.1118 58.2132C31.2877 58.2132 31.4612 58.173 31.6218 58.0925L40.0007 53.8692L48.3796 58.0925C48.5402 58.173 48.7137 58.2132 48.8896 58.2132C49.0697 58.2132 49.2498 58.1709 49.4126 58.0861L66.0792 49.4051C66.4438 49.2144 66.6695 48.8435 66.6673 48.4398C66.665 48.0359 66.4328 47.6683 66.0661 47.4828ZM40.0007 51.4264L25.4794 44.1067L40.0007 36.787L54.5219 44.1066L40.0007 51.4264Z" fill="#F9A457"/>
<path d="M38.3535 57.7248C38.0258 57.5287 37.6114 57.5149 37.2663 57.6877L32.6373 60.0212C31.6846 60.5023 30.4911 60.4938 29.5406 59.9999L23.8549 57.0381C23.5119 56.8601 23.0975 56.8686 22.7611 57.0656C22.4248 57.2616 22.2207 57.6146 22.2207 57.996V64.724C22.2207 65.1245 22.4464 65.4933 22.8088 65.6819L37.2532 73.2057C37.4161 73.2905 37.5962 73.3328 37.7763 73.3328C37.9738 73.3328 38.1713 73.2809 38.347 73.1782C38.6833 72.9821 38.8874 72.6292 38.8874 72.2478V58.652C38.8874 58.2737 38.6856 57.9219 38.3535 57.7248Z" fill="#F9A457"/>
<path d="M57.2395 57.0657C56.9031 56.8685 56.4864 56.8601 56.1457 57.0381L50.46 60C49.5095 60.4949 48.3138 60.5033 47.3633 60.0212L42.7344 57.6877C42.3893 57.514 41.9748 57.5288 41.6471 57.7248C41.3151 57.9219 41.1133 58.2737 41.1133 58.6521V72.2479C41.1133 72.6294 41.3172 72.9823 41.6537 73.1783C41.8295 73.2811 42.0269 73.333 42.2244 73.333C42.4045 73.333 42.5846 73.2906 42.7474 73.2058L57.1918 65.682C57.5541 65.4934 57.7799 65.1247 57.7799 64.7241V57.9962C57.7799 57.6146 57.5759 57.2618 57.2395 57.0657Z" fill="#F9A457"/>
<g style="mix-blend-mode:multiply">
<path fill-rule="evenodd" clip-rule="evenodd" d="M67.1598 61.6666H12.8389C11.2023 61.6647 9.63337 61.0422 8.47616 59.9356C7.31896 58.8291 6.66798 57.3288 6.66602 55.7638L6.66602 9.23603C6.66798 7.67109 7.31896 6.17079 8.47616 5.06421C9.63337 3.95763 11.2023 3.33513 12.8389 3.33325H67.1598C68.7964 3.33513 70.3653 3.95763 71.5225 5.06421C72.6797 6.17079 73.3307 7.67109 73.3327 9.23603V55.7638C73.3307 57.3288 72.6797 58.8291 71.5225 59.9356C70.3653 61.0422 68.7964 61.6647 67.1598 61.6666ZM36.666 16.6666C38.507 16.6666 39.9993 15.1742 39.9993 13.3333C39.9993 11.4923 38.507 9.99992 36.666 9.99992C34.8251 9.99992 33.3327 11.4923 33.3327 13.3333C33.3327 15.1742 34.8251 16.6666 36.666 16.6666ZM29.9993 13.3333C29.9993 15.1742 28.507 16.6666 26.666 16.6666C24.8251 16.6666 23.3327 15.1742 23.3327 13.3333C23.3327 11.4923 24.8251 9.99992 26.666 9.99992C28.507 9.99992 29.9993 11.4923 29.9993 13.3333ZM16.666 16.6666C18.507 16.6666 19.9993 15.1742 19.9993 13.3333C19.9993 11.4923 18.507 9.99992 16.666 9.99992C14.8251 9.99992 13.3327 11.4923 13.3327 13.3333C13.3327 15.1742 14.8251 16.6666 16.666 16.6666Z" fill="#56A6FC"/>
</g>
</svg>
