<svg width="24" height="24" viewBox="0 0 24 24" fill="none" xmlns="http://www.w3.org/2000/svg">
<g style="mix-blend-mode:multiply">
<path fill-rule="evenodd" clip-rule="evenodd" d="M20.1481 18.5H3.85185C3.36089 18.4994 2.89021 18.3127 2.54304 17.9807C2.19588 17.6487 2.00059 17.1987 2 16.7292L2 2.77083C2.00059 2.30135 2.19588 1.85126 2.54304 1.51929C2.89021 1.18731 3.36089 1.00056 3.85185 1H20.1481C20.6391 1.00056 21.1098 1.18731 21.457 1.51929C21.8041 1.85126 21.9994 2.30135 22 2.77083V16.7292C21.9994 17.1987 21.8041 17.6487 21.457 17.9807C21.1098 18.3127 20.6391 18.4994 20.1481 18.5ZM11 5C11.5523 5 12 4.55228 12 4C12 3.44772 11.5523 3 11 3C10.4477 3 10 3.44772 10 4C10 4.55228 10.4477 5 11 5ZM9 4C9 4.55228 8.55228 5 8 5C7.44772 5 7 4.55228 7 4C7 3.44772 7.44772 3 8 3C8.55228 3 9 3.44772 9 4ZM5 5C5.55228 5 6 4.55228 6 4C6 3.44772 5.55228 3 5 3C4.44772 3 4 3.44772 4 4C4 4.55228 4.44772 5 5 5Z" fill="#56A6FC"/>
</g>
<g style="mix-blend-mode:multiply">
<path d="M10.2365 19.9141C10.0456 19.7046 9.95116 19.4236 9.97653 19.1424L10.4485 13.9515C10.5065 13.3135 11.0333 12.8324 11.6739 12.8324H12.2719V12.364C12.2719 11.4111 13.0471 10.6358 14 10.6358C14.9529 10.6358 15.7281 11.4111 15.7281 12.364V9.72812C15.7281 8.78889 14.9661 8 14 8H8.72812C7.78271 8 7 8.76144 7 9.72812V20.2719C7 21.2385 7.78165 22 8.72812 22H14C14.9642 22 15.7281 21.2133 15.7281 20.2719V20.2426H10.9816C10.6988 20.2426 10.4272 20.1229 10.2365 19.9141ZM10.7051 8.93699H12.0231C12.2496 8.93699 12.4332 9.12063 12.4332 9.34714C12.4332 9.57366 12.2496 9.7573 12.0231 9.7573H10.7051C10.4786 9.7573 10.2949 9.57366 10.2949 9.34714C10.2949 9.12063 10.4786 8.93699 10.7051 8.93699Z" fill="#F9A457"/>
</g>
<g style="mix-blend-mode:multiply">
<path d="M13.0918 12.3639V12.8323H14.9074V12.3639C14.9074 11.8633 14.5002 11.4561 13.9996 11.4561C13.4991 11.4561 13.0918 11.8633 13.0918 12.3639Z" fill="#F9A457"/>
</g>
<g style="mix-blend-mode:multiply">
<path d="M17.2067 19.2164L16.7348 14.0259C16.7156 13.8146 16.5385 13.6528 16.3263 13.6528H11.674C11.4619 13.6528 11.2848 13.8146 11.2656 14.0259L10.7937 19.2162C10.789 19.2683 10.8074 19.3226 10.8422 19.3609C10.8774 19.3994 10.9296 19.4224 10.9818 19.4224H17.0186C17.0708 19.4224 17.123 19.3992 17.1578 19.3612C17.1931 19.3225 17.2114 19.2683 17.2067 19.2164Z" fill="#F9A457"/>
</g>
</svg>
