<svg width="40" height="40" viewBox="0 0 40 40" fill="none" xmlns="http://www.w3.org/2000/svg">
<path d="M29.4266 39.932C31.1119 39.6191 32.5 38.2549 32.5 36.4567V31.7323C32.5 31.2236 32.1665 30.7724 31.6458 30.6126L23.9887 28.2504C23.6144 28.1339 23.206 28.1866 22.8768 28.3874V28.3874L19.6293 30.3906C17.909 29.6315 16.0075 28.3079 14.3306 26.7764C12.6546 25.2441 11.2031 23.5039 10.383 21.9118L12.5474 18.9063C12.7652 18.6031 12.8205 18.2236 12.6954 17.8772L10.1431 10.8071C9.97035 10.3252 9.48285 10 8.93325 10H3.82853C1.71774 10 0 11.5724 0 13.5268C0 20.3307 3.49673 26.9488 8.83115 31.8661C9.49796 32.4808 10.1935 33.0689 10.9145 33.6275C15.9614 37.5373 22.2566 40 28.6893 40C28.939 40 29.1859 39.9767 29.4266 39.932Z" fill="white"/>
<path fill-rule="evenodd" clip-rule="evenodd" d="M24.6837 5H32.8163C36.7396 5 40 8.48955 40 12.7778C40 17.066 36.7396 20.5555 32.8163 20.5555H31.2356C29.9201 20.5555 28.6652 21.1083 27.7772 22.0788L25.4025 24.6744C25.1094 24.9946 24.6696 25.0863 24.2946 24.9153C23.9143 24.7439 23.6672 24.338 23.6672 23.8888V22.6146C23.6672 21.3835 22.7388 20.3755 21.6435 19.8134C19.2148 18.5668 17.5 15.8817 17.5 12.7778C17.5 8.48955 20.7604 5 24.6837 5ZM29.7666 12.7776C29.7666 12.8543 29.7595 12.9292 29.7459 13.0015C29.6683 13.4163 29.3792 13.7469 29.0071 13.8529C28.925 13.8763 28.8388 13.8887 28.75 13.8887C28.1886 13.8887 27.7334 13.3913 27.7334 12.7776C27.7334 12.164 28.1886 11.6665 28.75 11.6665C29.3114 11.6665 29.7666 12.164 29.7666 12.7776ZM25.7002 12.7777C25.7002 13.3913 25.2451 13.8888 24.6837 13.8888C24.1222 13.8888 23.6671 13.3913 23.6671 12.7777C23.6671 12.164 24.1222 11.6666 24.6837 11.6666C25.2451 11.6666 25.7002 12.164 25.7002 12.7777ZM33.8328 12.7777C33.8328 13.3913 33.3776 13.8888 32.8162 13.8888C32.2548 13.8888 31.7996 13.3913 31.7996 12.7777C31.7996 12.164 32.2548 11.6666 32.8162 11.6666C33.3776 11.6666 33.8328 12.164 33.8328 12.7777Z" fill="white"/>
</svg>
