<svg width="24" height="24" viewBox="0 0 24 24" fill="none" xmlns="http://www.w3.org/2000/svg">
<g clip-path="url(#clip0_2287_1123)">
<g style="mix-blend-mode:multiply">
<path d="M22.6935 5.70645L15.2734 -0.267621C14.9739 -0.508829 14.5468 -0.508721 14.2474 -0.267621L13.3032 0.492503L18.1964 4.43203C18.778 4.90031 19.1116 5.59705 19.1116 6.34368V17.1819C19.1116 17.4687 19.0617 17.744 18.9709 18H22.1807C22.6324 18 22.9987 17.6337 22.9987 17.1819V6.34368C22.9986 6.09602 22.8864 5.86175 22.6935 5.70645Z" fill="#56A6FC"/>
</g>
<g style="mix-blend-mode:multiply">
<path d="M17.1721 5.70693L9.75191 -0.267133C9.45237 -0.50834 9.02543 -0.508233 8.7259 -0.267133L1.30507 5.70693C1.11219 5.86219 1 6.09651 1 6.34417V17.1819C1 17.6337 1.3663 18 1.81807 18H6.91295C7.36472 18 7.73102 17.6337 7.73102 17.1819V13.5315C7.73102 12.7002 8.40728 12.0239 9.23853 12.0239C10.0698 12.0239 10.7461 12.7002 10.7461 13.5315V17.1819C10.7461 17.6337 11.1124 18 11.5642 18H12.0004H12.8645H16.659C17.1108 18 17.4771 17.6337 17.4771 17.1819V6.34417C17.4772 6.09651 17.365 5.86224 17.1721 5.70693Z" fill="#56A6FC"/>
</g>
<g style="mix-blend-mode:multiply">
<path fill-rule="evenodd" clip-rule="evenodd" d="M15.8417 11.2423C15.7273 10.9192 15.2727 10.9192 15.1583 11.2423L14.7326 12.4451C14.642 12.7011 14.3146 12.771 14.1283 12.5742L13.2527 11.6495C13.0175 11.4011 12.6022 11.5869 12.6284 11.9289L12.7262 13.2017C12.747 13.4726 12.4762 13.6703 12.2263 13.5667L11.0523 13.08C10.7369 12.9492 10.4327 13.2887 10.595 13.5904L11.1994 14.7132C11.328 14.9522 11.1606 15.2435 10.8905 15.2511L9.62093 15.2864C9.27987 15.2959 9.1394 15.7304 9.40977 15.9396L10.4162 16.7183C10.6304 16.884 10.5954 17.2186 10.3516 17.3359L9.20612 17.8872C8.89839 18.0353 8.94591 18.4898 9.27754 18.5703L10.512 18.8702C10.7748 18.934 10.8782 19.254 10.7029 19.4609L9.87959 20.4328C9.65838 20.694 9.88568 21.0897 10.2213 21.0277L11.4703 20.7969C11.7362 20.7478 11.9601 20.9978 11.8837 21.2585L11.5249 22.483C11.4284 22.812 11.7962 23.0806 12.0777 22.8868L13.1254 22.1652C13.3484 22.0117 13.6542 22.1485 13.6898 22.4178L13.8575 23.6833C13.9025 24.0232 14.3472 24.1182 14.5259 23.8261L15.1911 22.7386C15.3327 22.5072 15.6673 22.5072 15.8089 22.7386L16.4741 23.8261C16.6528 24.1182 17.0975 24.0232 17.1425 23.6833L17.3102 22.4178C17.3458 22.1485 17.6516 22.0117 17.8746 22.1652L18.9223 22.8868C19.2038 23.0806 19.5716 22.812 19.4751 22.483L19.1163 21.2585C19.0399 20.9978 19.2638 20.7478 19.5297 20.7969L20.7787 21.0277C21.1143 21.0897 21.3416 20.694 21.1204 20.4328L20.2971 19.4609C20.1218 19.254 20.2252 18.934 20.488 18.8702L21.7225 18.5703C22.0541 18.4898 22.1016 18.0353 21.7939 17.8872L20.6484 17.3359C20.4046 17.2186 20.3696 16.884 20.5838 16.7183L21.5902 15.9396C21.8606 15.7304 21.7201 15.2959 21.3791 15.2864L20.1095 15.2511C19.8394 15.2435 19.672 14.9522 19.8006 14.7132L20.405 13.5904C20.5673 13.2887 20.2631 12.9492 19.9477 13.08L18.7737 13.5667C18.5238 13.6703 18.253 13.4726 18.2738 13.2017L18.3716 11.9289C18.3978 11.5869 17.9825 11.4011 17.7473 11.6495L16.8717 12.5742C16.6854 12.771 16.358 12.7011 16.2674 12.4451L15.8417 11.2423ZM15.5 19.3903C16.5014 19.3903 17.3132 18.5742 17.3132 17.5676C17.3132 16.561 16.5014 15.745 15.5 15.745C14.4986 15.745 13.6868 16.561 13.6868 17.5676C13.6868 18.5742 14.4986 19.3903 15.5 19.3903Z" fill="#F9A457"/>
</g>
</g>
<defs>
<clipPath id="clip0_2287_1123">
<rect width="24" height="24" fill="white"/>
</clipPath>
</defs>
</svg>
