<svg width="80" height="80" viewBox="0 0 80 80" fill="none" xmlns="http://www.w3.org/2000/svg">
<rect x="36.6621" y="36.6666" width="33.3333" height="33.3333" rx="6.66667" fill="#FF4BAD"/>
<g style="mix-blend-mode:multiply">
<path d="M15.6562 17.5713C15.6562 23.5841 20.6175 28.3739 26.6123 28.3739C28.8862 28.3739 30.9534 27.7625 32.6072 26.5395C32.7105 26.5395 32.7105 26.4376 32.8139 26.4376C35.7079 24.5013 37.5684 21.2401 37.5684 17.4694C37.5684 11.4566 32.6072 6.66669 26.6123 6.66669C20.6175 6.66669 15.6562 11.5585 15.6562 17.5713Z" fill="#A943F9"/>
</g>
<g style="mix-blend-mode:multiply">
<path d="M46.6582 46.9218C46.6582 38.565 41.3869 31.1255 33.4282 28.3738C29.2939 30.8197 24.1259 30.9216 19.8882 28.3738C11.9295 31.2274 6.6582 38.565 6.6582 46.9218C6.6582 51.8136 16.9941 54.4633 26.7099 54.4633C36.4256 54.4633 46.6582 51.8136 46.6582 46.9218Z" fill="#A943F9"/>
</g>
<path d="M59.3668 29.3621C59.9638 29.0342 60.1848 28.2824 59.8258 27.7035C57.0134 23.1675 52.7289 19.7317 47.6903 17.9718C47.0472 17.7472 46.3613 18.1262 46.171 18.7802V18.7802C45.9807 19.4343 46.3582 20.1153 46.9998 20.3439C51.4116 21.9158 55.1677 24.9278 57.6604 28.8927C58.023 29.4694 58.7697 29.69 59.3668 29.3621V29.3621Z" fill="#A943F9"/>
<path d="M16.7516 56.6078C16.1074 57.0681 15.9557 57.966 16.4463 58.5875C20.0761 63.1863 24.9744 66.6221 30.5342 68.4694C31.2857 68.7191 32.0783 68.2707 32.2918 67.5083V67.5083C32.5053 66.7458 32.0586 65.9582 31.3085 65.7048C26.3769 64.0385 22.0279 60.9879 18.7821 56.9183C18.2884 56.2993 17.3959 56.1474 16.7516 56.6078V56.6078Z" fill="#A943F9"/>
</svg>
