<svg width="100" height="100" viewBox="0 0 100 100" fill="none" xmlns="http://www.w3.org/2000/svg">
<path d="M90.4031 84.7265L81.2208 75.5276C83.5972 72.0507 84.9904 67.8537 84.9904 63.3351C84.9904 51.3876 75.2715 41.667 63.3263 41.667C51.381 41.667 41.6621 51.3876 41.6621 63.3351C41.6621 75.2826 51.381 85.0032 63.3263 85.0032C67.8524 85.0032 72.0552 83.6031 75.5348 81.2196L84.7121 90.4152C85.4887 91.1936 86.5136 91.6353 87.5951 91.6653C87.6318 91.667 87.6701 91.667 87.7084 91.667C88.78 91.667 89.7732 91.2603 90.5181 90.5152C91.2913 89.7419 91.698 88.7035 91.6596 87.5884C91.6246 86.5166 91.178 85.4999 90.4031 84.7265ZM44.9967 63.3351C44.9967 53.2261 53.2208 45.0005 63.3279 45.0005C73.4351 45.0005 81.6591 53.2261 81.6591 63.3351C81.6591 73.4441 73.4351 81.6697 63.3279 81.6697C53.2208 81.6697 44.9967 73.4441 44.9967 63.3351Z" fill="#F9A457"/>
<path d="M44.9967 63.3351C44.9967 53.2261 53.2208 45.0005 63.3279 45.0005C73.4351 45.0005 81.6591 53.2261 81.6591 63.3351C81.6591 73.4441 73.4351 81.6697 63.3279 81.6697C53.2208 81.6697 44.9967 73.4441 44.9967 63.3351Z" fill="#F9A457"/>
<g style="mix-blend-mode:multiply">
<path fill-rule="evenodd" clip-rule="evenodd" d="M91.6615 47.1892V18.8367C91.6615 13.0444 86.8178 8.33203 80.865 8.33203H19.1266C13.1717 8.33203 8.32812 13.0444 8.32812 18.8367V49.1845C8.32812 54.9768 13.1717 59.6892 19.1266 59.6892C20.629 59.6892 22.0585 60.3374 23.0484 61.4676L30.7954 70.3117C31.0848 70.6416 31.5079 70.832 31.9532 70.832C32.3985 70.832 32.8195 70.6416 33.1069 70.3117L39.1597 62.7957C40.7416 60.8314 43.1276 59.6892 45.6496 59.6892L79.1615 59.6892C86.0651 59.6892 91.6615 54.0928 91.6615 47.1892ZM37.0359 21.9675C37.0359 23.0636 35.9813 23.9517 34.6805 23.9517H24.4744V30.5656H34.6805C35.9813 30.5656 37.0359 31.4537 37.0359 32.5498V43.132C37.0359 44.2281 35.9813 45.1162 34.6805 45.1162H22.119C20.8182 45.1162 19.7637 44.2281 19.7637 43.132C19.7637 42.036 20.8182 41.1478 22.119 41.1478H32.3252V34.5339H22.119C20.8182 34.5339 19.7637 33.6458 19.7637 32.5498V21.9675C19.7637 20.8715 20.8182 19.9834 22.119 19.9834H34.6805C35.9813 19.9834 37.0359 20.8715 37.0359 21.9675ZM56.2704 23.9517C57.5712 23.9517 58.6257 23.0636 58.6257 21.9675C58.6257 20.8715 57.5712 19.9834 56.2704 19.9834H43.7089C42.4081 19.9834 41.3535 20.8715 41.3535 21.9675V43.132C41.3535 44.2281 42.4081 45.1162 43.7089 45.1162H56.2704C57.5712 45.1162 58.6257 44.2281 58.6257 43.132C58.6257 42.036 57.5712 41.1478 56.2704 41.1478H46.0642V34.5339H56.2704C57.5712 34.5339 58.6257 33.6458 58.6257 32.5498C58.6257 31.4537 57.5712 30.5656 56.2704 30.5656H46.0642V23.9517H56.2704ZM65.2987 19.9834H77.8602C79.161 19.9834 80.2156 20.8715 80.2156 21.9675V43.132C80.2156 44.2281 79.161 45.1162 77.8602 45.1162H65.2987C63.9979 45.1162 62.9434 44.2281 62.9434 43.132V21.9675C62.9434 20.8715 63.9979 19.9834 65.2987 19.9834ZM67.654 41.1478H75.5049V23.9517H67.654V41.1478Z" fill="#A943F9"/>
</g>
</svg>
