<svg width="121" height="120" viewBox="0 0 121 120" fill="none" xmlns="http://www.w3.org/2000/svg">
<path d="M104.43 69.0346C106.011 71.8015 106.011 75.1982 104.43 77.9651L91.5732 100.465C89.9708 103.269 86.9887 105 83.759 105H58.2048C54.9751 105 51.993 103.269 50.3906 100.465L37.5335 77.9651C35.9524 75.1982 35.9524 71.8015 37.5335 69.0346L50.3906 46.5346C51.993 43.7304 54.9751 41.9998 58.2048 41.9998L83.759 41.9998C86.9887 41.9998 89.9708 43.7304 91.5732 46.5346L104.43 69.0346Z" fill="#F9A457"/>
<g style="mix-blend-mode:multiply">
<path d="M16.5354 55.4654C14.9543 52.6985 14.9543 49.3018 16.5354 46.5349L29.3926 24.0349C30.9949 21.2308 33.977 19.5002 37.2068 19.5002L62.7609 19.5002C65.9907 19.5002 68.9727 21.2308 70.5751 24.0349L83.4323 46.5349C85.0134 49.3018 85.0134 52.6985 83.4323 55.4654L70.5751 77.9654C68.9727 80.7696 65.9907 82.5002 62.7609 82.5002H37.2068C33.977 82.5002 30.9949 80.7696 29.3926 77.9654L16.5354 55.4654Z" fill="#56A6FC"/>
</g>
</svg>
