<svg width="589" height="80" viewBox="0 0 589 80" fill="none" xmlns="http://www.w3.org/2000/svg">
<g clip-path="url(#clip0_2844_7268)">
<path d="M50.5646 17.7101C49.5179 22.8676 53.2499 28.1766 58.8952 29.5643C64.5404 30.9566 69.9679 27.9019 71.0145 22.7445C72.0612 17.587 68.334 12.2779 62.6839 10.8903C57.0386 9.49793 51.6112 12.5526 50.5646 17.7101Z" fill="#231F20"/>
<path d="M52.3939 19.2209C51.5367 23.4549 54.5962 27.812 59.2327 28.9533C63.8692 30.0947 68.321 27.5846 69.183 23.3507C70.0402 19.1167 66.9807 14.7596 62.3442 13.6182C57.7077 12.4769 53.2511 14.9869 52.3939 19.2209Z" fill="#999999"/>
<path d="M22.8496 20.0402C23.9815 25.6287 19.9417 31.3829 13.8228 32.8889C7.7039 34.395 1.82182 31.0845 0.685182 25.4961C-0.446716 19.9076 3.59307 14.1534 9.71196 12.6474C15.8308 11.1413 21.7129 14.4518 22.8448 20.0402" fill="#231F20"/>
<path d="M20.6576 22.2709C21.5148 26.5048 18.4554 30.8619 13.8188 32.0033C9.18231 33.1447 4.72576 30.6393 3.86855 26.4006C3.01133 22.1667 6.07078 17.8096 10.7073 16.6682C15.3438 15.5268 19.8004 18.0369 20.6576 22.2709Z" fill="#999999"/>
<path d="M73.5622 43.3649C73.5622 57.7718 57.9287 69.4507 38.6391 69.4507C19.3494 69.4507 3.7207 57.7718 3.7207 43.3649C3.7207 28.9581 19.3542 17.2791 38.6391 17.2791C57.924 17.2791 73.5622 28.9581 73.5622 43.3649Z" fill="#231F20"/>
<path d="M70.628 43.3649C70.628 57.2366 55.8849 68.4846 37.6988 68.4846C19.5126 68.4846 4.76953 57.2366 4.76953 43.3649C4.76953 29.4932 19.5126 18.2453 37.6988 18.2453C55.8849 18.2453 70.628 29.4932 70.628 43.3649Z" fill="white"/>
<mask id="mask0_2844_7268" style="mask-type:luminance" maskUnits="userSpaceOnUse" x="31" y="51" width="7" height="5">
<path d="M31.6963 53.4478C31.6963 54.3524 32.9466 55.0817 34.4905 55.0817C36.0344 55.0817 37.2847 54.3524 37.2847 53.4478C37.2847 52.5432 36.0344 51.8139 34.4905 51.8139C32.9466 51.8139 31.6963 52.548 31.6963 53.4478Z" fill="white"/>
</mask>
<g mask="url(#mask0_2844_7268)">
<path d="M37.2895 51.8092H31.6963V55.077H37.2895V51.8092Z" fill="url(#paint0_linear_2844_7268)"/>
</g>
<path d="M31.9795 53.0689C31.9795 52.458 32.8272 51.9607 33.8739 51.9607C34.9205 51.9607 35.773 52.458 35.773 53.0689C35.773 53.6799 34.9253 54.1771 33.8739 54.1771C32.8225 54.1771 31.9795 53.6799 31.9795 53.0689Z" fill="#4D4D4D"/>
<path d="M9.86611 42.7113C9.67193 49.3654 14.4126 54.9017 20.451 55.077C26.4894 55.2522 31.5427 50.0047 31.7369 43.3507C31.931 36.6966 27.1903 31.1603 21.1519 30.985C15.1136 30.8098 10.0603 36.0573 9.86611 42.7113Z" fill="black"/>
<mask id="mask1_2844_7268" style="mask-type:luminance" maskUnits="userSpaceOnUse" x="9" y="30" width="23" height="20">
<path d="M9.86501 42.7113C9.78924 45.3398 10.4807 47.793 11.7215 49.8106C17.5941 47.2721 23.9119 46.0123 30.2913 46.197C30.637 46.2065 30.9875 46.2207 31.3332 46.2396C31.57 45.3161 31.7073 44.35 31.7405 43.346C31.9347 36.6919 27.194 31.1555 21.1556 30.9803C21.0561 30.9803 20.9567 30.9803 20.862 30.9803C14.9562 30.9803 10.0639 36.1662 9.86975 42.7113" fill="white"/>
</mask>
<g mask="url(#mask1_2844_7268)">
<path d="M9.80554 30.334L9.23828 49.7906L31.9092 50.4516L32.4765 30.995L9.80554 30.334Z" fill="url(#paint1_linear_2844_7268)"/>
</g>
<path d="M23.6215 46.0502C23.5789 47.4805 24.5072 48.6692 25.6912 48.7071C26.8751 48.7402 27.8697 47.6083 27.9123 46.1781C27.9549 44.7478 27.0267 43.5543 25.8427 43.5212C24.6587 43.488 23.6642 44.6199 23.6215 46.0502Z" fill="white"/>
<path d="M24.692 46.0786C24.673 46.7938 25.1324 47.3905 25.7292 47.4047C26.3211 47.4236 26.8184 46.8553 26.8374 46.1402C26.8563 45.4251 26.3969 44.8283 25.8049 44.8141C25.2129 44.7952 24.7157 45.3635 24.6967 46.0786" fill="#231F20"/>
<path d="M27.4243 29.9195C27.4243 29.9195 24.8337 25.8702 19.2879 27.3289C13.742 28.7876 24.1091 26.7985 27.4243 29.9195Z" fill="#E5E5E5"/>
<path d="M41.2012 29.9195C41.2012 29.9195 43.7918 25.8702 49.3376 27.3289C54.8834 28.7876 44.5164 26.7985 41.2012 29.9195Z" fill="#E5E5E5"/>
<path d="M31.9236 18.1079C31.9236 18.1079 29.7071 19.3724 29.584 21.4421C29.584 21.4421 30.8011 18.9841 31.9236 19.273C33.0412 19.5666 32.3593 20.8074 32.3119 20.9022C32.2645 21.0016 33.458 19.2446 34.211 19.2209C34.9641 19.1972 35.4755 21.7025 35.4755 21.7025C35.4755 21.7025 35.4755 18.5105 36.6216 19.0978C37.7678 19.6803 38.4497 20.5564 38.4497 20.5564C38.4497 20.5564 37.6162 18.4631 39.1412 19.2162C40.6662 19.9692 41.225 21.2621 41.225 21.2621C41.225 21.2621 40.3962 17.7575 39.0086 17.6343C37.6209 17.5112 31.9236 18.0985 31.9236 18.0985" fill="#231F20"/>
<path d="M61.2253 41.8778C62.1346 48.4703 58.0143 54.485 52.0328 55.3091C46.0465 56.1331 40.458 51.454 39.5535 44.8615C38.6442 38.269 42.7645 32.2543 48.746 31.4303C54.7323 30.6062 60.3207 35.2853 61.2253 41.8778Z" fill="black"/>
<mask id="mask2_2844_7268" style="mask-type:luminance" maskUnits="userSpaceOnUse" x="39" y="31" width="23" height="19">
<path d="M48.7451 31.4303C42.7589 32.2543 38.6433 38.2643 39.5526 44.8615C39.69 45.8513 39.9315 46.7985 40.2677 47.6936C40.6087 47.6368 40.9545 47.5847 41.2955 47.5373C47.6132 46.6659 54.0352 47.2437 60.1446 49.1333C61.1581 46.9927 61.5844 44.4826 61.2244 41.8778C60.3862 35.7921 55.5602 31.3355 50.1138 31.3355C49.6592 31.3355 49.2045 31.3687 48.7451 31.4303Z" fill="white"/>
</mask>
<g mask="url(#mask2_2844_7268)">
<path d="M61.1595 28.2469L36.2412 31.6736L39.0691 52.2378L63.9874 48.8111L61.1595 28.2469Z" fill="url(#paint2_linear_2844_7268)"/>
</g>
<path d="M47.9113 46.6753C48.1054 48.0961 47.3145 49.3748 46.14 49.5359C44.9655 49.6969 43.8573 48.6787 43.6631 47.2579C43.4689 45.8371 44.2598 44.5584 45.4344 44.3926C46.6089 44.2316 47.7171 45.2498 47.916 46.6706" fill="white"/>
<path d="M46.8526 46.8221C46.9521 47.5325 46.5543 48.1719 45.967 48.2524C45.3797 48.3329 44.8256 47.8214 44.7262 47.1158C44.6267 46.4054 45.0245 45.766 45.6118 45.6855C46.1991 45.605 46.7532 46.1165 46.8526 46.8221Z" fill="#231F20"/>
<path d="M27.4387 63.8433C26.8656 63.4739 24.2893 61.1438 27.1024 61.1438C29.9156 61.1438 33.0035 66.879 38.1467 65.0794C38.1467 65.0794 34.3722 68.3093 27.4387 63.8433Z" fill="#231F20"/>
<path d="M34.2596 56.3793C34.2596 56.3793 34.037 61.3853 33.3408 62.2946C33.3408 62.2946 34.6622 58.7047 34.7048 56.2704C34.7474 53.8361 34.2549 56.3793 34.2549 56.3793" fill="#4D4D4D"/>
</g>
<path d="M91.0814 15.8495H103.636L116.896 48.2006H117.461L130.721 15.8495H143.276V64H133.401V32.6599H133.002L120.541 63.7649H113.817L101.356 32.5423H100.956V64H91.0814V15.8495ZM195.911 39.9248C195.911 45.1755 194.916 49.6426 192.925 53.326C190.95 57.0094 188.254 59.8229 184.837 61.7665C181.436 63.6944 177.612 64.6583 173.364 64.6583C169.085 64.6583 165.245 63.6865 161.844 61.7429C158.442 59.7994 155.754 56.9859 153.779 53.3025C151.804 49.6191 150.817 45.1599 150.817 39.9248C150.817 34.674 151.804 30.2069 153.779 26.5235C155.754 22.8401 158.442 20.0345 161.844 18.1066C165.245 16.163 169.085 15.1912 173.364 15.1912C177.612 15.1912 181.436 16.163 184.837 18.1066C188.254 20.0345 190.95 22.8401 192.925 26.5235C194.916 30.2069 195.911 34.674 195.911 39.9248ZM185.59 39.9248C185.59 36.5235 185.08 33.6552 184.061 31.3197C183.058 28.9843 181.64 27.2132 179.806 26.0063C177.972 24.7994 175.825 24.1959 173.364 24.1959C170.903 24.1959 168.756 24.7994 166.922 26.0063C165.088 27.2132 163.662 28.9843 162.643 31.3197C161.64 33.6552 161.138 36.5235 161.138 39.9248C161.138 43.326 161.64 46.1944 162.643 48.5298C163.662 50.8652 165.088 52.6364 166.922 53.8433C168.756 55.0502 170.903 55.6536 173.364 55.6536C175.825 55.6536 177.972 55.0502 179.806 53.8433C181.64 52.6364 183.058 50.8652 184.061 48.5298C185.08 46.1944 185.59 43.326 185.59 39.9248ZM243.726 15.8495V64H234.933L213.985 33.6943H213.632V64H203.452V15.8495H212.386L233.17 46.1317H233.593V15.8495H243.726ZM260.437 64H249.528L266.15 15.8495H279.269L295.868 64H284.959L272.898 26.8527H272.522L260.437 64ZM259.755 45.0737H285.523V53.0204H259.755V45.0737ZM307.33 64.6113C305.778 64.6113 304.446 64.0627 303.333 62.9655C302.236 61.8527 301.687 60.5204 301.687 58.9687C301.687 57.4326 302.236 56.116 303.333 55.0188C304.446 53.9216 305.778 53.373 307.33 53.373C308.834 53.373 310.151 53.9216 311.279 55.0188C312.408 56.116 312.972 57.4326 312.972 58.9687C312.972 60.0031 312.706 60.9514 312.173 61.8135C311.656 62.6599 310.974 63.3417 310.127 63.8589C309.281 64.3605 308.348 64.6113 307.33 64.6113Z" fill="#3A3A3A"/>
<path d="M321.383 15.8495H333.938L347.198 48.2006H347.763L361.023 15.8495H373.578V64H363.703V32.6599H363.303L350.842 63.7649H344.118L331.658 32.5423H331.258V64H321.383V15.8495ZM398.235 64.7053C394.52 64.7053 391.323 63.953 388.642 62.4483C385.978 60.9279 383.924 58.7806 382.482 56.0063C381.04 53.2163 380.319 49.9169 380.319 46.1081C380.319 42.3934 381.04 39.1332 382.482 36.3276C383.924 33.5219 385.954 31.3354 388.572 29.768C391.205 28.2006 394.293 27.4169 397.835 27.4169C400.218 27.4169 402.435 27.8009 404.489 28.569C406.558 29.3213 408.36 30.4577 409.896 31.978C411.448 33.4984 412.655 35.4106 413.517 37.7147C414.379 40.0031 414.81 42.6834 414.81 45.7555V48.5063H384.316V42.2994H405.382C405.382 40.8574 405.069 39.5799 404.442 38.4671C403.815 37.3542 402.945 36.4843 401.832 35.8574C400.735 35.2147 399.457 34.8934 398 34.8934C396.479 34.8934 395.131 35.2461 393.956 35.9514C392.796 36.6411 391.887 37.5737 391.228 38.7492C390.57 39.9091 390.233 41.2022 390.218 42.6285V48.5298C390.218 50.3166 390.547 51.8605 391.205 53.1614C391.879 54.4624 392.827 55.4655 394.05 56.1708C395.272 56.8762 396.722 57.2288 398.399 57.2288C399.512 57.2288 400.531 57.0721 401.456 56.7586C402.381 56.4451 403.172 55.9749 403.83 55.348C404.489 54.721 404.99 53.953 405.335 53.0439L414.598 53.6552C414.128 55.8809 413.164 57.8244 411.707 59.4859C410.265 61.1317 408.399 62.4169 406.111 63.3417C403.838 64.2508 401.213 64.7053 398.235 64.7053ZM434.653 64.5878C431.91 64.5878 429.426 63.8824 427.2 62.4718C424.99 61.0455 423.235 58.953 421.934 56.1944C420.649 53.4201 420.006 50.0188 420.006 45.9906C420.006 41.8527 420.672 38.4122 422.004 35.6693C423.337 32.9106 425.108 30.8495 427.318 29.4859C429.544 28.1066 431.981 27.4169 434.63 27.4169C436.652 27.4169 438.337 27.7617 439.685 28.4514C441.048 29.1254 442.145 29.9718 442.976 30.9906C443.823 31.9937 444.465 32.9812 444.904 33.953H445.21V15.8495H455.202V64H445.327V58.2163H444.904C444.434 59.2194 443.768 60.2147 442.906 61.2022C442.059 62.174 440.954 62.9812 439.591 63.6238C438.243 64.2665 436.597 64.5878 434.653 64.5878ZM437.827 56.6176C439.442 56.6176 440.805 56.1787 441.918 55.3009C443.047 54.4075 443.909 53.1614 444.504 51.5627C445.116 49.9639 445.421 48.0909 445.421 45.9436C445.421 43.7962 445.123 41.931 444.528 40.348C443.932 38.7649 443.07 37.5423 441.942 36.6802C440.813 35.8182 439.442 35.3871 437.827 35.3871C436.181 35.3871 434.794 35.8338 433.666 36.7273C432.537 37.6207 431.683 38.8589 431.103 40.442C430.523 42.0251 430.233 43.8589 430.233 45.9436C430.233 48.0439 430.523 49.9012 431.103 51.5157C431.699 53.1144 432.553 54.3683 433.666 55.2774C434.794 56.1708 436.181 56.6176 437.827 56.6176ZM463.437 64V27.8871H473.452V64H463.437ZM468.468 23.232C466.979 23.232 465.701 22.7382 464.636 21.7508C463.585 20.7476 463.06 19.5486 463.06 18.1536C463.06 16.7743 463.585 15.5909 464.636 14.6034C465.701 13.6003 466.979 13.0987 468.468 13.0987C469.957 13.0987 471.227 13.6003 472.277 14.6034C473.343 15.5909 473.875 16.7743 473.875 18.1536C473.875 19.5486 473.343 20.7476 472.277 21.7508C471.227 22.7382 469.957 23.232 468.468 23.232ZM491.773 64.6818C489.469 64.6818 487.416 64.2821 485.613 63.4828C483.811 62.6677 482.384 61.4687 481.334 59.8856C480.3 58.2868 479.783 56.2962 479.783 53.9138C479.783 51.9075 480.151 50.2226 480.888 48.8589C481.624 47.4953 482.627 46.3981 483.897 45.5674C485.167 44.7367 486.609 44.1097 488.223 43.6865C489.853 43.2633 491.562 42.9655 493.348 42.7931C495.449 42.5737 497.142 42.3699 498.427 42.1818C499.712 41.978 500.645 41.6802 501.225 41.2884C501.805 40.8965 502.095 40.3166 502.095 39.5486V39.4075C502.095 37.9185 501.624 36.7664 500.684 35.9514C499.759 35.1364 498.442 34.7288 496.734 34.7288C494.931 34.7288 493.497 35.1285 492.431 35.9279C491.366 36.7116 490.66 37.6991 490.316 38.8903L481.052 38.1379C481.522 35.9436 482.447 34.047 483.826 32.4483C485.206 30.8338 486.985 29.5956 489.163 28.7335C491.358 27.8558 493.897 27.4169 496.781 27.4169C498.787 27.4169 500.707 27.652 502.541 28.1222C504.391 28.5925 506.029 29.3213 507.455 30.3088C508.897 31.2962 510.033 32.5658 510.864 34.1175C511.695 35.6536 512.11 37.4953 512.11 39.6426V64H502.612V58.9922H502.33C501.75 60.1207 500.974 61.116 500.002 61.9781C499.03 62.8245 497.863 63.4906 496.499 63.9765C495.135 64.4467 493.56 64.6818 491.773 64.6818ZM494.642 57.7696C496.115 57.7696 497.416 57.4796 498.544 56.8997C499.673 56.3041 500.558 55.5047 501.201 54.5016C501.844 53.4984 502.165 52.3621 502.165 51.0925V47.2602C501.852 47.4639 501.421 47.652 500.872 47.8244C500.339 47.9812 499.736 48.1301 499.062 48.2712C498.388 48.3965 497.714 48.5141 497.04 48.6238C496.366 48.7179 495.754 48.8041 495.206 48.8824C494.03 49.0549 493.004 49.3291 492.126 49.7053C491.248 50.0815 490.566 50.5909 490.08 51.2335C489.595 51.8605 489.352 52.6442 489.352 53.5846C489.352 54.9483 489.845 55.9906 490.833 56.7116C491.836 57.4169 493.105 57.7696 494.642 57.7696Z" fill="#7C0FD2"/>
<path d="M576.127 47.4023V32.5977C578.064 32.4054 579.89 31.6039 581.343 30.3084C582.796 29.0129 583.801 27.2901 584.214 25.3876C584.626 23.4851 584.425 21.5008 583.639 19.7199C582.853 17.939 581.522 16.4531 579.839 15.4759C578.155 14.4986 576.205 14.0802 574.269 14.2809C572.332 14.4815 570.509 15.2909 569.062 16.5926C567.614 17.8943 566.617 19.6214 566.213 21.5256C565.808 23.4299 566.018 25.4133 566.812 27.1908L550.591 36.4598C549.773 34.4982 548.3 32.8806 546.424 31.8822C544.548 30.8838 542.383 30.5663 540.299 30.9835C538.215 31.4008 536.34 32.5271 534.993 34.171C533.645 35.8148 532.909 37.8746 532.909 40C532.909 42.1254 533.645 44.1852 534.993 45.829C536.34 47.4729 538.215 48.5992 540.299 49.0165C542.383 49.4337 544.548 49.1162 546.424 48.1178C548.3 47.1194 549.773 45.5018 550.591 43.5402L566.812 52.8092C566.021 54.5844 565.813 56.5645 566.218 58.4651C566.623 60.3658 567.62 62.0892 569.066 63.388C570.511 64.6867 572.331 65.494 574.264 65.6938C576.197 65.8936 578.144 65.4757 579.825 64.5002C581.505 63.5246 582.834 62.0415 583.619 60.2639C584.404 58.4863 584.606 56.5056 584.195 54.6062C583.784 52.7068 582.782 50.9864 581.332 49.6921C579.883 48.3978 578.06 47.5962 576.127 47.4023ZM551.134 41.7379C551.354 40.5898 551.354 39.4102 551.134 38.2621L567.731 28.7816C568.489 29.8482 569.466 30.7405 570.597 31.3987C571.728 32.0568 572.986 32.4657 574.288 32.5977V47.4023C572.986 47.5343 571.728 47.9431 570.597 48.6013C569.466 49.2594 568.489 50.1518 567.731 51.2184L551.134 41.7379Z" fill="#7C0FD2"/>
<defs>
<linearGradient id="paint0_linear_2844_7268" x1="37.0271" y1="54.5396" x2="31.5059" y2="54.5396" gradientUnits="userSpaceOnUse">
<stop stop-color="#6F7173"/>
<stop offset="0.12" stop-color="#5D5D5F"/>
<stop offset="0.34" stop-color="#434243"/>
<stop offset="0.56" stop-color="#312E2F"/>
<stop offset="0.78" stop-color="#262223"/>
<stop offset="1" stop-color="#231F20"/>
</linearGradient>
<linearGradient id="paint1_linear_2844_7268" x1="22.3501" y1="50.8978" x2="22.9076" y2="31.7764" gradientUnits="userSpaceOnUse">
<stop stop-color="#6F7173"/>
<stop offset="0.12" stop-color="#5D5D5F"/>
<stop offset="0.34" stop-color="#434243"/>
<stop offset="0.56" stop-color="#312E2F"/>
<stop offset="0.78" stop-color="#262223"/>
<stop offset="1" stop-color="#231F20"/>
</linearGradient>
<linearGradient id="paint2_linear_2844_7268" x1="49.9016" y1="51.1861" x2="47.3338" y2="32.5136" gradientUnits="userSpaceOnUse">
<stop stop-color="#6F7173"/>
<stop offset="0.12" stop-color="#5D5D5F"/>
<stop offset="0.34" stop-color="#434243"/>
<stop offset="0.56" stop-color="#312E2F"/>
<stop offset="0.78" stop-color="#262223"/>
<stop offset="1" stop-color="#231F20"/>
</linearGradient>
<clipPath id="clip0_2844_7268">
<rect width="73.0667" height="58.8919" fill="white" transform="translate(0.496094 10.554)"/>
</clipPath>
</defs>
</svg>
