<svg width="16" height="53" viewBox="0 0 16 53" fill="none" xmlns="http://www.w3.org/2000/svg">
<path d="M0 0L0.761566 3.11765C2.49811 7.91118 3.67479 11.1359 8.40029 14.2556L10.0566 15.349C13.8124 17.8285 16 21.5896 16 25.5672C16 29.2316 14.1421 32.7276 10.8792 35.2029L8.44347 37.0507C3.67397 40.669 2.52537 44.195 0.823452 49.3627L0 53V0Z" fill="white"/>
<path d="M0 14L0.416477 14.9519C1.36614 17.1226 3.25972 19.0427 5.84395 20.4554L6.74973 20.9505C8.80365 22.0733 10 23.7764 10 25.5776C10 27.2369 8.98396 28.8201 7.1996 29.941L5.86756 30.7777C3.25927 32.4162 1.38105 34.5277 0.450321 36.8678L0 38V14Z" fill="#2686EC"/>
</svg>
