<svg width="44" height="44" viewBox="0 0 44 44" fill="none" xmlns="http://www.w3.org/2000/svg">
<g filter="url(#filter0_d_1649_8305)">
<path d="M22 42C33.0457 42 42 33.0457 42 22C42 10.9543 33.0457 2 22 2C10.9543 2 2 10.9543 2 22C2 33.0457 10.9543 42 22 42Z" fill="url(#paint0_linear_1649_8305)"/>
</g>
<path d="M21.9993 41.5084C32.7728 41.5084 41.5065 32.7748 41.5065 22.0013C41.5065 11.2278 32.7728 2.49414 21.9993 2.49414C11.2258 2.49414 2.49219 11.2278 2.49219 22.0013C2.49219 32.7748 11.2258 41.5084 21.9993 41.5084Z" fill="#021C67"/>
<path d="M23.141 8.77154C22.8068 8.71193 22.591 9.11665 22.8297 9.3579C24.9273 11.4765 26.2431 14.5241 26.2431 17.9111C26.2431 24.3109 21.5453 29.4994 15.7504 29.4994C13.3014 29.4994 11.0482 28.5726 9.26278 27.0197C8.97979 26.7734 8.56065 27.0874 8.71783 27.4281C10.8242 31.992 15.4404 35.1588 20.7968 35.1588C28.1402 35.1588 34.0933 29.2061 34.0933 21.8619C34.0933 15.3182 29.3663 9.8787 23.141 8.77123V8.77154Z" fill="#F9CD15"/>
<path d="M34.0956 21.8627C34.0956 29.2065 28.1426 35.1593 20.7991 35.1593C18.8198 35.1593 16.9415 34.7269 15.2539 33.9508C16.6334 34.4355 18.1167 34.699 19.6615 34.699C27.005 34.699 32.958 28.7463 32.958 21.4025C32.958 16.039 29.7821 11.4171 25.2083 9.31445C30.3845 11.1331 34.0956 16.0644 34.0956 21.8624V21.8627Z" fill="#F7A411"/>
<path d="M13.6496 23.6615L13.7732 24.108C13.7776 24.1243 13.7905 24.1375 13.8068 24.1425L14.2492 24.2799C14.2896 24.2925 14.2972 24.3464 14.262 24.3696L13.8755 24.625C13.8614 24.6344 13.8529 24.6504 13.8529 24.6674L13.8589 25.1307C13.8595 25.1731 13.8106 25.1969 13.7776 25.1706L13.4153 24.882C13.4018 24.8713 13.3842 24.8681 13.3679 24.8738L12.929 25.0225C12.8888 25.036 12.8512 24.9971 12.8659 24.9576L13.0284 24.5237C13.0344 24.5077 13.0319 24.4898 13.0215 24.476L12.7445 24.1048C12.7191 24.071 12.7445 24.023 12.7869 24.0248L13.2496 24.0455C13.2666 24.0462 13.2829 24.0383 13.2929 24.0245L13.5605 23.6462C13.585 23.6117 13.6386 23.6211 13.6496 23.6619V23.6615Z" fill="#F9CD15"/>
<path d="M21.9576 15.8863L22.3824 16.5564C22.3981 16.5812 22.4251 16.5962 22.4542 16.5962L23.2477 16.601C23.3201 16.6013 23.3593 16.6857 23.3132 16.7415L22.8072 17.3527C22.7887 17.3752 22.7827 17.4057 22.7915 17.4336L23.0321 18.1897C23.0541 18.2587 22.986 18.3221 22.9186 18.2954L22.181 18.003C22.1537 17.9923 22.1229 17.9961 22.0994 18.0131L21.4547 18.4755C21.3957 18.5178 21.3145 18.4727 21.3188 18.4002L21.369 17.6083C21.3709 17.5792 21.3577 17.5509 21.3342 17.5337L20.6952 17.0634C20.6368 17.0204 20.6547 16.9291 20.7246 16.9109L21.4933 16.7139C21.5215 16.7067 21.5444 16.6853 21.5535 16.6577L21.8032 15.9045C21.8261 15.8358 21.9184 15.8245 21.9573 15.8857L21.9576 15.8863Z" fill="#F9CD15"/>
<path d="M15.3948 16.4982C14.8655 16.5769 14.8015 16.6406 14.7228 17.1702C14.644 16.6409 14.5804 16.5769 14.0508 16.4982C14.58 16.4194 14.644 16.3557 14.7228 15.8262C14.8015 16.3554 14.8652 16.4194 15.3948 16.4982Z" fill="white"/>
<defs>
<filter id="filter0_d_1649_8305" x="0" y="0" width="44" height="44" filterUnits="userSpaceOnUse" color-interpolation-filters="sRGB">
<feFlood flood-opacity="0" result="BackgroundImageFix"/>
<feColorMatrix in="SourceAlpha" type="matrix" values="0 0 0 0 0 0 0 0 0 0 0 0 0 0 0 0 0 0 127 0" result="hardAlpha"/>
<feOffset/>
<feGaussianBlur stdDeviation="1"/>
<feComposite in2="hardAlpha" operator="out"/>
<feColorMatrix type="matrix" values="0 0 0 0 0 0 0 0 0 0 0 0 0 0 0 0 0 0 0.16 0"/>
<feBlend mode="normal" in2="BackgroundImageFix" result="effect1_dropShadow_1649_8305"/>
<feBlend mode="normal" in="SourceGraphic" in2="effect1_dropShadow_1649_8305" result="shape"/>
</filter>
<linearGradient id="paint0_linear_1649_8305" x1="42" y1="22" x2="2" y2="22" gradientUnits="userSpaceOnUse">
<stop stop-color="#5F73B5"/>
<stop offset="0.26" stop-color="#2B3990"/>
<stop offset="0.55" stop-color="#2B3990"/>
<stop offset="0.77" stop-color="#2E3192"/>
<stop offset="1" stop-color="#95BCDB"/>
</linearGradient>
</defs>
</svg>
