<svg width="80" height="80" viewBox="0 0 80 80" fill="none" xmlns="http://www.w3.org/2000/svg">
<g clip-path="url(#clip0_5399_11872)">
<path d="M36.5754 39.7942C35.0539 40.8086 33.2865 41.3448 31.4642 41.3448C29.6421 41.3448 27.8747 40.8086 26.3532 39.7942L1.29197 23.0862C1.15293 22.9935 1.01748 22.8969 0.884766 22.7975V50.1753C0.884766 53.3142 3.43206 55.8054 6.51485 55.8054H56.4135C59.5524 55.8054 62.0436 53.2581 62.0436 50.1753V22.7974C61.9106 22.897 61.7749 22.9939 61.6355 23.0867L36.5754 39.7942Z" fill="#3ED1FF"/>
<path d="M3.27976 20.1048L28.3409 36.8129C29.2896 37.4454 30.3769 37.7616 31.4641 37.7616C32.5515 37.7616 33.6388 37.4453 34.5875 36.8129L59.6487 20.1048C61.1484 19.1056 62.0437 17.4333 62.0437 15.6284C62.0437 12.525 59.5189 10.0002 56.4155 10.0002H6.51294C3.4096 10.0004 0.884766 12.5251 0.884766 15.6314C0.884766 17.4333 1.78017 19.1056 3.27976 20.1048Z" fill="#3ED1FF"/>
<g style="mix-blend-mode:multiply">
<path d="M79.9987 49.5646C79.9987 37.5984 69.552 27.8979 56.6654 27.8979C43.7787 27.8979 33.332 37.5984 33.332 49.5646C33.332 61.5308 43.7787 71.2313 56.6654 71.2313C69.552 71.2313 79.9987 61.5308 79.9987 49.5646Z" fill="#A943F9"/>
</g>
<path d="M70.8174 59.4464C70.8932 59.549 70.9476 59.6658 70.9772 59.7897C71.0069 59.9136 71.0113 60.0422 70.9901 60.1678C70.969 60.2934 70.9227 60.4136 70.8541 60.5211C70.7854 60.6286 70.6958 60.7214 70.5905 60.7939C66.7171 63.4732 63.2577 64.5647 59.0194 64.5647C50.4472 64.5647 43.332 58.8537 43.332 49.9672C43.332 41.2405 50.4472 34.5647 59.6258 34.5647C67.6712 34.5647 73.332 39.5115 73.332 46.5885C73.332 52.2189 69.4109 57.1657 64.9217 57.1657C62.9406 57.1657 61.5658 55.9989 61.5658 54.229C61.5719 53.9305 61.6129 53.6338 61.6879 53.3447C60.5149 55.5568 58.7766 57.1657 56.0682 57.1657C52.7933 57.1657 50.5693 54.6725 50.5693 51.0126C50.5693 45.7847 54.3697 41.2801 58.6956 41.2801C60.9196 41.2801 62.4562 42.0852 63.3055 44.1362L63.9119 41.9241H67.2293L64.6019 50.7314C64.2383 51.9378 64.1163 52.6215 64.1163 53.1837C64.1163 54.1894 64.7638 54.7926 65.8148 54.7926C68.5231 54.7926 71.1518 50.6509 71.1518 46.3878C71.1518 40.5568 66.461 36.5352 59.6683 36.5352C51.5831 36.5352 45.5175 42.3267 45.5175 50.0478C45.5175 57.3663 51.1784 62.5942 59.1428 62.5942C62.8729 62.5942 66.1107 61.5462 69.5117 59.2246C69.7161 59.0854 69.9668 59.0307 70.211 59.0721C70.4552 59.1135 70.6736 59.2477 70.8201 59.4464H70.8174ZM59.5051 43.6531C56.3111 43.6531 54.4095 48.6395 54.4095 51.2132C54.4095 53.4252 55.4207 54.7926 57.078 54.7926C60.2734 54.7926 62.0926 48.8005 62.0926 46.3456C62.0926 44.779 61.0006 43.6531 59.5051 43.6531Z" fill="white"/>
</g>
<defs>
<clipPath id="clip0_5399_11872">
<rect width="80" height="80" fill="white"/>
</clipPath>
</defs>
</svg>
