<svg width="80" height="80" viewBox="0 0 80 80" fill="none" xmlns="http://www.w3.org/2000/svg">
<circle cx="25.0007" cy="25" r="21.6667" fill="#A943F9"/>
<g style="mix-blend-mode:multiply">
<path d="M65.8666 25.3333L51.0039 36.2967L75.9072 54.6666C76.4055 52.5268 76.6706 50.2966 76.6706 48.0045C76.6706 38.8305 72.4447 30.6407 65.8666 25.3333Z" fill="#F9A457"/>
</g>
<g style="mix-blend-mode:multiply">
<path d="M62.0033 22.1114C57.8596 19.504 52.9942 18.0001 47.7945 18.0001C42.2062 18.0001 37.005 19.7379 32.6699 22.715L38.1186 40.0001L62.0033 22.1114Z" fill="#F9A457"/>
</g>
<g style="mix-blend-mode:multiply">
<path d="M27.3665 25.3335C21.6363 30.5791 18.002 38.3428 18.002 46.9922C18.002 49.65 18.3463 52.2236 18.9879 54.6668H36.3353L27.3665 25.3335Z" fill="#F9A457"/>
</g>
<g style="mix-blend-mode:multiply">
<path d="M21.668 58.3334C25.6375 68.74 34.811 76.1713 45.5867 76.6667L51.0013 58.3334H21.668Z" fill="#F9A457"/>
</g>
<g style="mix-blend-mode:multiply">
<path d="M51.0039 76.667C61.1148 75.7541 69.5898 68.3177 73.0039 58.1623L59.585 47.3336L51.0039 76.667Z" fill="#F9A457"/>
</g>
</svg>
