<svg width="40" height="40" viewBox="0 0 40 40" fill="none" xmlns="http://www.w3.org/2000/svg">
<g clip-path="url(#clip0_2915_5319)">
<g style="mix-blend-mode:multiply">
<rect y="25" width="40" height="15" rx="1" fill="#FFA51F"/>
</g>
<g style="mix-blend-mode:multiply">
<path fill-rule="evenodd" clip-rule="evenodd" d="M1.65731 10.8716C1.13833 11.0605 0.870747 11.6344 1.05964 12.1533L8.3333 32.1376C8.5222 32.6565 9.09604 32.9241 9.61502 32.7352L38.3447 22.2785C38.8637 22.0896 39.1313 21.5158 38.9424 20.9968L31.6687 1.01255C31.4798 0.493575 30.906 0.225989 30.387 0.414881L1.65731 10.8716ZM25.209 16.4266C26.0744 15.3794 25.477 13.7678 24.1382 13.5376L16.1979 12.1722C14.8693 11.9438 13.8054 13.249 14.2788 14.5264L17.0867 22.1024C17.5601 23.3798 19.2177 23.6763 20.0765 22.6372L25.209 16.4266Z" fill="#F41E92"/>
</g>
</g>
<defs>
<clipPath id="clip0_2915_5319">
<rect width="40" height="40" fill="white"/>
</clipPath>
</defs>
</svg>
