<svg width="361" height="361" viewBox="0 0 361 361" fill="none" xmlns="http://www.w3.org/2000/svg">
<path d="M302.485 232.337V128.876C316.023 127.532 328.786 121.931 338.94 112.877C349.095 103.824 356.118 91.7843 359 78.4887C361.882 65.1931 360.475 51.3261 354.982 38.8803C349.488 26.4345 340.19 16.0507 328.424 9.22116C316.658 2.39159 303.03 -0.532171 289.498 0.870033C275.966 2.27224 263.227 7.92821 253.111 17.0252C242.996 26.1222 236.024 38.1918 233.199 51.4996C230.374 64.8074 231.84 78.6683 237.388 91.0904L124.03 155.866C118.312 142.158 108.021 130.853 94.9081 123.876C81.7954 116.899 66.6706 114.68 52.1062 117.596C37.5418 120.512 24.4373 128.383 15.0216 139.871C5.60589 151.359 0.460449 165.753 0.460449 180.607C0.460449 195.46 5.60589 209.855 15.0216 221.343C24.4373 232.831 37.5418 240.702 52.1062 243.618C66.6706 246.534 81.7954 244.315 94.9081 237.337C108.021 230.36 118.312 219.056 124.03 205.348L237.388 270.123C231.862 282.529 230.41 296.367 233.24 309.65C236.07 322.932 243.036 334.976 253.139 344.053C263.241 353.129 275.96 358.77 289.469 360.167C302.978 361.563 316.581 358.643 328.327 351.825C340.072 345.007 349.355 334.643 354.842 322.22C360.33 309.797 361.739 295.955 358.868 282.681C355.998 269.408 348.994 257.385 338.864 248.34C328.734 239.295 315.998 233.692 302.485 232.337ZM127.822 192.752C129.364 184.729 129.364 176.485 127.822 168.461L243.814 102.208C249.109 109.662 255.937 115.897 263.839 120.497C271.741 125.096 280.536 127.953 289.632 128.876V232.337C280.536 233.26 271.741 236.117 263.839 240.716C255.937 245.316 249.109 251.552 243.814 259.006L127.822 192.752Z" fill="#7C0FD2"/>
</svg>
