<svg width="80" height="80" viewBox="0 0 80 80" fill="none" xmlns="http://www.w3.org/2000/svg">
<rect x="36.6719" y="36.6667" width="33.3333" height="33.3333" rx="6.66667" fill="#A943F9"/>
<g style="mix-blend-mode:multiply">
<path d="M15.6699 17.5713C15.6699 23.5841 20.6312 28.3739 26.626 28.3739C28.8999 28.3739 30.9671 27.7625 32.6208 26.5395C32.7242 26.5395 32.7242 26.4376 32.8275 26.4376C35.7216 24.5013 37.5821 21.2401 37.5821 17.4694C37.5821 11.4566 32.6208 6.66669 26.626 6.66669C20.6312 6.66669 15.6699 11.5585 15.6699 17.5713Z" fill="#56A6FC"/>
</g>
<g style="mix-blend-mode:multiply">
<path d="M46.6719 46.9218C46.6719 38.565 41.4006 31.1255 33.4419 28.3738C29.3075 30.8197 24.1396 30.9216 19.9018 28.3738C11.9432 31.2274 6.67188 38.565 6.67188 46.9218C6.67188 51.8136 17.0078 54.4633 26.7236 54.4633C36.4393 54.4633 46.6719 51.8136 46.6719 46.9218Z" fill="#56A6FC"/>
</g>
<path d="M59.3765 29.3622C59.9736 29.0343 60.1945 28.2825 59.8356 27.7036C57.0232 23.1676 52.7387 19.7318 47.7 17.9719C47.057 17.7473 46.3711 18.1263 46.1808 18.7803V18.7803C45.9904 19.4343 46.368 20.1153 47.0096 20.344C51.4214 21.9159 55.1774 24.9279 57.6702 28.8928C58.0327 29.4695 58.7795 29.6901 59.3765 29.3622V29.3622Z" fill="#56A6FC"/>
<path d="M16.7634 56.6078C16.1191 57.0682 15.9674 57.9661 16.458 58.5876C20.0879 63.1863 24.9861 66.6222 30.546 68.4695C31.2974 68.7191 32.09 68.2708 32.3035 67.5083V67.5083C32.517 66.7458 32.0703 65.9583 31.3202 65.7048C26.3887 64.0386 22.0396 60.988 18.7939 56.9184C18.3002 56.2993 17.4076 56.1475 16.7634 56.6078V56.6078Z" fill="#56A6FC"/>
</svg>
