<svg width="40" height="40" viewBox="0 0 40 40" fill="none" xmlns="http://www.w3.org/2000/svg">
<g clip-path="url(#clip0_5399_14544)">
<g style="mix-blend-mode:multiply">
<path d="M25.2712 7.18027C25.2371 7.07659 25.1836 6.98106 25.114 6.89927C25.0444 6.81748 24.9599 6.75105 24.8656 6.70386C24.7713 6.65667 24.669 6.62965 24.5646 6.62438C24.4603 6.61912 24.356 6.6357 24.2578 6.67318L22.7931 7.21352C22.4842 7.33223 22.2018 7.5163 21.9634 7.75433C21.725 7.99236 21.5358 8.27928 21.4074 8.59728C21.2789 8.91528 21.2141 9.25759 21.2169 9.60299C21.2197 9.94839 21.29 10.2895 21.4235 10.6052L24.5151 19.7868L27.6067 28.9684C27.8228 29.5872 28.2615 30.0923 28.8285 30.3752C29.3955 30.6581 30.0455 30.6962 30.6389 30.4813C31.1513 30.2377 32.3963 30.0112 32.5549 29.5171C32.6402 29.3151 32.6515 29.0872 32.5865 28.877L25.2712 7.18027Z" fill="#A943F9"/>
</g>
<g style="mix-blend-mode:multiply">
<path d="M26.1184 29.517C25.7972 28.344 21.3439 15.7491 20.0143 11.3291C19.8289 10.7127 18.9289 10.3721 18.4042 10.745L8.66259 17.6678C8.37507 17.8722 8.25451 18.2384 8.36702 18.5727C9.28779 21.3086 11.6684 28.3762 12.6016 31.1494C12.7197 31.5005 13.0623 31.7212 13.4312 31.6877L17.2729 31.3387C17.4585 31.3218 17.5961 31.4079 17.6562 31.5843C17.7728 31.9268 17.9544 32.473 17.9589 32.4864C17.9591 32.487 17.9591 32.487 17.9593 32.4876C18.0764 32.8377 18.0566 33.2223 17.9043 33.5572C17.7518 33.8924 17.479 34.1504 17.1456 34.2747L10.7238 36.6614C10.3902 36.7816 10.0249 36.7596 9.70656 36.6C9.38821 36.4405 9.14218 36.1562 9.02136 35.8082L8.42413 34.0367C8.28587 33.6266 8.49881 33.1809 8.90472 33.0308L10.53 32.4298C10.9356 32.2798 11.1506 31.8406 11.0129 31.4307C10.2379 29.1235 7.84407 21.9975 7.03187 19.5771C6.88797 19.1482 6.41763 18.9238 5.99358 19.0812L2.0664 20.5391C1.21333 20.8587 0.515451 21.5199 0.125288 22.3782C-0.264876 23.2365 -0.315596 24.2221 -0.0157896 25.1195L2.2089 31.7116C2.3636 32.1646 2.60308 32.5804 2.91323 32.9347C3.22338 33.2889 3.59794 33.5744 4.01481 33.7743C4.43168 33.9741 4.88244 34.0844 5.34052 34.0984C5.52838 34.1042 5.71591 34.0938 5.90126 34.0675C6.34287 34.0047 6.81002 34.1976 6.94356 34.6232C7.35551 35.9362 7.81718 37.6327 9.02369 38.1031C9.36885 38.2777 9.74358 38.3788 10.1262 38.4003C10.5088 38.4219 10.8917 38.3635 11.2526 38.2286L17.6744 35.8423C18.4033 35.5703 18.9997 35.0058 19.3327 34.2727C19.6658 33.5397 19.7084 32.6978 19.4511 31.9318V31.9318C19.3189 31.5398 19.588 31.1273 20.0001 31.0903L25.5049 30.5957C25.9979 30.5514 26.2758 29.9863 26.1184 29.517V29.517Z" fill="#A943F9"/>
</g>
<g style="mix-blend-mode:multiply">
<path d="M32.3387 15.8563C31.431 14.0787 29.7539 15.5103 30.3909 17.4019V17.4019C31.0428 19.3379 33.2872 19.434 32.8856 17.431C32.7757 16.8828 32.5907 16.3498 32.3387 15.8563Z" fill="#A943F9"/>
</g>
<g style="mix-blend-mode:multiply">
<path d="M36.9544 5.44142e-07H7.85927C6.99874 0.00122118 6.17378 0.3607 5.56529 0.999614C4.95681 1.63853 4.61444 2.50473 4.61328 3.40829V9.99211C4.6128 10.897 4.95439 11.765 5.563 12.4056C6.17162 13.0462 6.99751 13.407 7.85927 13.4087C7.85927 13.4087 26.1791 13.4123 27.0423 13.4087C27.3536 13.4089 27.6618 13.4744 27.9487 13.6014C28.2356 13.7284 28.4955 13.9142 28.713 14.1481C28.9306 14.382 29.1014 14.6591 29.2156 14.9632C29.3298 15.2674 29.3849 15.5924 29.3778 15.9192C29.366 16.1753 29.3262 16.4292 29.2591 16.6757C29.193 16.8366 29.1664 17.0123 29.1817 17.1868C29.1969 17.3613 29.2536 17.529 29.3466 17.6745C29.4395 17.82 29.5657 17.9388 29.7136 18.0199C29.8615 18.101 30.0265 18.1419 30.1933 18.1388C31.6817 18.1388 34.5081 15.6698 35.4978 13.6914C35.6954 13.236 36.4033 13.4574 36.9545 13.4087C37.3818 13.4087 37.8049 13.3204 38.1997 13.1487C38.5945 12.977 38.9532 12.7253 39.2554 12.4081C39.5575 12.0908 39.7972 11.7141 39.9607 11.2996C40.1243 10.8851 40.2084 10.4408 40.2084 9.99211V3.40829C40.2068 2.50343 39.8632 1.63624 39.2531 0.997196C38.6429 0.358146 37.8162 -0.000509916 36.9544 5.44142e-07ZM35.9015 9.74273C35.6876 9.73731 35.4842 9.64428 35.3347 9.48352C35.1852 9.32275 35.1016 9.10698 35.1016 8.88232C35.1016 8.65765 35.1853 8.44189 35.3347 8.28113C35.4842 8.12037 35.6876 8.02736 35.9015 8.02196C36.1154 8.02737 36.3188 8.1204 36.4683 8.28117C36.6178 8.44194 36.7014 8.6577 36.7014 8.88237C36.7014 9.10703 36.6177 9.32279 36.4683 9.48355C36.3188 9.64431 36.1154 9.73733 35.9015 9.74273ZM35.1098 6.35106V4.23127C35.1129 4.01293 35.1976 3.80464 35.3458 3.65138C35.4939 3.49813 35.6935 3.41222 35.9015 3.41222C36.1094 3.41222 36.3091 3.49813 36.4572 3.65138C36.6053 3.80464 36.6901 4.01293 36.6932 4.23127V6.35106C36.6895 6.56896 36.6044 6.77661 36.4564 6.92933C36.3083 7.08205 36.109 7.16761 35.9015 7.16761C35.6939 7.16761 35.4947 7.08205 35.3466 6.92933C35.1985 6.77661 35.1135 6.56896 35.1098 6.35106ZM30.5258 8.34616H31.6421V7.76426C31.4448 7.73535 31.2651 7.62939 31.1389 7.46752C31.0128 7.30565 30.9493 7.09978 30.9613 6.89098C30.9733 6.68219 31.0599 6.48582 31.2037 6.34105C31.3475 6.19629 31.538 6.11378 31.7372 6.10999H32.4338C32.5379 6.10961 32.641 6.13085 32.7372 6.17249C32.8334 6.21413 32.9208 6.27535 32.9944 6.35262C33.068 6.42989 33.1263 6.52168 33.166 6.62271C33.2056 6.72373 33.2259 6.832 33.2255 6.94128V9.17745C33.2259 9.28672 33.2056 9.39499 33.166 9.49602C33.1263 9.59705 33.068 9.68884 32.9944 9.76611C32.9208 9.84338 32.8334 9.90459 32.7372 9.94624C32.641 9.98788 32.5379 10.0091 32.4338 10.0087H30.5258C30.2897 10.0089 30.056 9.96024 29.8378 9.86548C29.6197 9.77071 29.4215 9.63172 29.2546 9.45646C29.0877 9.2812 28.9553 9.0731 28.8651 8.84407C28.7748 8.61504 28.7284 8.36957 28.7286 8.12171V5.30363C28.7281 4.80003 28.9179 4.31676 29.2563 3.95988C29.5947 3.603 30.0541 3.40164 30.5337 3.39998H31.7292C32.9748 3.26115 34.0103 5.56981 32.4338 5.79418C32.2404 5.79437 32.0538 5.71995 31.9093 5.58505C31.7647 5.45016 31.6725 5.26421 31.65 5.06256H30.5337C30.4741 5.06435 30.4175 5.09059 30.3761 5.13564C30.3346 5.1807 30.3116 5.241 30.312 5.30363V8.12171C30.3119 8.15122 30.3174 8.18046 30.3281 8.20775C30.3388 8.23504 30.3545 8.25983 30.3744 8.2807C30.3943 8.30156 30.4179 8.31809 30.4439 8.32933C30.4698 8.34056 30.4977 8.34628 30.5258 8.34616ZM11.3269 5.91048V4.29777C11.3299 4.07934 11.4146 3.87089 11.5627 3.71752C11.7109 3.56414 11.9106 3.47816 12.1186 3.47816C12.3267 3.47816 12.5264 3.56414 12.6746 3.71752C12.8227 3.87089 12.9074 4.07934 12.9104 4.29777V9.17745C12.9073 9.39579 12.8225 9.60408 12.6744 9.75734C12.5262 9.91059 12.3266 9.9965 12.1186 9.9965C11.9107 9.9965 11.7111 9.91059 11.5629 9.75734C11.4148 9.60408 11.33 9.39579 11.3269 9.17745V7.57306H10.5907V9.17745C10.5907 9.39792 10.5072 9.60936 10.3588 9.76526C10.2103 9.92116 10.0089 10.0087 9.79895 10.0087C9.58898 10.0087 9.3876 9.92116 9.23913 9.76526C9.09066 9.60936 9.00725 9.39792 9.00725 9.17745V4.29777C9.0114 4.08018 9.09664 3.87297 9.24467 3.72063C9.39269 3.56829 9.59171 3.48296 9.79898 3.48297C10.0063 3.48298 10.2053 3.56832 10.3533 3.72067C10.5013 3.87302 10.5865 4.08024 10.5907 4.29783V5.91048H11.3269ZM13.995 9.17745V4.29777C13.995 4.0773 14.0784 3.86586 14.2269 3.70996C14.3753 3.55406 14.5767 3.46648 14.7867 3.46648C14.9967 3.46648 15.198 3.55406 15.3465 3.70996C15.495 3.86586 15.5784 4.0773 15.5784 4.29777V9.17745C15.5753 9.39579 15.4905 9.60408 15.3424 9.75734C15.1943 9.91059 14.9947 9.9965 14.7867 9.9965C14.5787 9.9965 14.3791 9.91059 14.231 9.75734C14.0828 9.60408 13.9981 9.39579 13.995 9.17745ZM20.0832 8.60386C20.2236 8.76543 20.2977 8.97852 20.2897 9.19706C20.2816 9.41559 20.1919 9.62201 20.04 9.77165C19.8881 9.9213 19.6862 10.0022 19.478 9.99673C19.2698 9.99131 19.072 9.90005 18.9273 9.74268L17.6527 8.32122V9.17745C17.6496 9.39579 17.5648 9.60408 17.4167 9.75734C17.2685 9.91059 17.0689 9.9965 16.861 9.9965C16.653 9.9965 16.4534 9.91059 16.3052 9.75734C16.1571 9.60408 16.0723 9.39579 16.0693 9.17745V4.29777C16.0699 4.0775 16.1535 3.86644 16.3018 3.71069C16.4502 3.55493 16.6512 3.46714 16.861 3.46648H18.1831C18.6491 3.42977 19.1121 3.57089 19.4869 3.86392C19.8618 4.15694 20.1233 4.58217 20.2235 5.06146C20.3236 5.54075 20.2556 6.04188 20.032 6.47276C19.8084 6.90364 19.4442 7.23531 19.0064 7.4068L20.0832 8.60386ZM20.8591 9.17745V4.29777C20.862 4.07934 20.9467 3.87089 21.0949 3.71752C21.243 3.56414 21.4427 3.47816 21.6508 3.47816C21.8588 3.47816 22.0585 3.56414 22.2067 3.71752C22.3548 3.87089 22.4395 4.07934 22.4425 4.29777V9.17745C22.4394 9.39579 22.3546 9.60408 22.2065 9.75734C22.0584 9.91059 21.8587 9.9965 21.6508 9.9965C21.4428 9.9965 21.2432 9.91059 21.0951 9.75734C20.9469 9.60408 20.8622 9.39579 20.8591 9.17745ZM26.6623 9.61803L25.166 7.15741V9.17745C25.1629 9.39579 25.0781 9.60408 24.93 9.75734C24.7818 9.91059 24.5822 9.9965 24.3742 9.9965C24.1663 9.9965 23.9667 9.91059 23.8185 9.75734C23.6704 9.60408 23.5856 9.39579 23.5825 9.17745V4.29777C23.5827 4.11713 23.6388 3.94143 23.7424 3.79721C23.846 3.653 23.9915 3.54809 24.1569 3.49834C24.3222 3.44859 24.4986 3.45669 24.6592 3.52143C24.8198 3.58616 24.956 3.70402 25.0472 3.85719L26.5356 6.31781V4.29777C26.5387 4.07944 26.6235 3.87114 26.7716 3.71788C26.9197 3.56463 27.1193 3.47872 27.3273 3.47872C27.5353 3.47872 27.7349 3.56463 27.883 3.71788C28.0312 3.87114 28.1159 4.07944 28.119 4.29777V9.17745C28.1165 9.35577 28.0594 9.52851 27.9562 9.6702C27.8531 9.81188 27.7093 9.91501 27.5461 9.96437C27.3829 10.0137 27.2089 10.0067 27.0497 9.94436C26.8906 9.88201 26.7548 9.76761 26.6623 9.61803Z" fill="#FF4BAD"/>
</g>
<g style="mix-blend-mode:multiply">
<path d="M18.1926 5.12906H17.6621V5.91047H18.1926C18.8867 5.89273 18.8867 5.14673 18.1926 5.12906Z" fill="#FF4BAD"/>
</g>
</g>
<defs>
<clipPath id="clip0_5399_14544">
<rect width="40" height="40" fill="white"/>
</clipPath>
</defs>
</svg>
