<svg width="70" height="70" viewBox="0 0 70 70" fill="none" xmlns="http://www.w3.org/2000/svg">
<path d="M43.75 0L4.375 15.3125V56.875L17.5 52.5V17.5L43.75 13.125V61.4425L4.375 56.875L43.75 70L65.625 63.4375V6.5625L43.75 0Z" fill="#3ED1FF"/>
<g style="mix-blend-mode:multiply">
<path d="M22.3966 42.7777C21.0707 42.7777 19.895 42.5806 18.8694 42.1863C17.8495 41.787 17.0449 41.2374 16.4556 40.5375C15.8663 39.8376 15.566 39.0318 15.5547 38.1199H19.7873C19.8043 38.4502 19.9262 38.7434 20.1528 38.9997C20.3795 39.2511 20.6883 39.4483 21.0792 39.5912C21.4702 39.7341 21.915 39.8056 22.4136 39.8056C22.9123 39.8056 23.3514 39.7292 23.731 39.5764C24.1163 39.4187 24.4166 39.2043 24.632 38.9332C24.8473 38.6572 24.9521 38.3417 24.9464 37.9868C24.9521 37.632 24.8359 37.3165 24.598 37.0405C24.36 36.7645 24.0228 36.5501 23.5865 36.3973C23.1559 36.2445 22.6459 36.1681 22.0567 36.1681H20.3653V33.5656H22.0567C22.5723 33.5656 23.0256 33.4917 23.4166 33.3438C23.8132 33.196 24.122 32.989 24.343 32.7228C24.564 32.4517 24.6716 32.1412 24.666 31.7912C24.6716 31.4511 24.5781 31.153 24.3855 30.8967C24.1985 30.6354 23.935 30.4333 23.595 30.2904C23.2607 30.1475 22.8726 30.076 22.4306 30.076C21.966 30.076 21.5439 30.1475 21.1642 30.2904C20.7903 30.4333 20.4928 30.6354 20.2718 30.8967C20.0508 31.1579 19.9347 31.461 19.9233 31.806H15.9032C15.9145 30.904 16.2035 30.1105 16.7701 29.4254C17.3367 28.7353 18.1073 28.1956 19.0819 27.8062C20.0622 27.4169 21.1784 27.2222 22.4306 27.2222C23.6772 27.2222 24.7736 27.4119 25.7199 27.7915C26.6661 28.171 27.4027 28.6885 27.9297 29.3441C28.4566 29.9947 28.7201 30.7315 28.7201 31.5547C28.7258 32.4074 28.4056 33.1097 27.7597 33.6618C27.1194 34.2138 26.295 34.5539 25.2864 34.682V34.8003C26.635 34.9383 27.652 35.3179 28.3377 35.9389C29.0289 36.5599 29.3717 37.3362 29.3661 38.2678C29.3661 39.1451 29.0686 39.9239 28.4736 40.6041C27.8844 41.2793 27.0628 41.8117 26.0088 42.201C24.9606 42.5855 23.7565 42.7777 22.3966 42.7777Z" fill="#A943F9"/>
<path d="M39.1961 42.7777C38.2442 42.7777 37.3319 42.6446 36.4593 42.3785C35.5867 42.1074 34.8105 41.6786 34.1305 41.092C33.4506 40.5006 32.9151 39.7267 32.5242 38.7705C32.1332 37.8094 31.9405 36.6388 31.9462 35.2587C31.9519 34.0117 32.1275 32.8928 32.4732 31.9021C32.8188 30.9065 33.3118 30.0612 33.952 29.3662C34.598 28.6713 35.3686 28.1414 36.2639 27.7767C37.1648 27.407 38.1705 27.2222 39.2811 27.2222C40.4993 27.2222 41.5731 27.4292 42.5024 27.8432C43.4373 28.2523 44.1852 28.8043 44.7462 29.4993C45.3071 30.1894 45.6386 30.9583 45.7406 31.806H41.6014C41.4768 31.3279 41.202 30.9657 40.777 30.7192C40.3577 30.4678 39.8591 30.3422 39.2811 30.3422C38.2159 30.3422 37.4198 30.7439 36.8928 31.5473C36.3715 32.3507 36.1052 33.4252 36.0939 34.7708H36.2044C36.4423 34.3173 36.7851 33.9279 37.2328 33.6026C37.6804 33.2773 38.1932 33.0284 38.7712 32.8559C39.3548 32.6784 39.9724 32.5897 40.624 32.5897C41.6666 32.5897 42.5873 32.7992 43.3863 33.2182C44.1852 33.6371 44.8113 34.2113 45.2646 34.9408C45.7179 35.6653 45.9417 36.4959 45.9361 37.4323C45.9417 38.4871 45.6584 39.4187 45.0861 40.227C44.5139 41.0304 43.7206 41.6564 42.7063 42.1049C41.6978 42.5535 40.5277 42.7777 39.1961 42.7777ZM39.1706 39.9683C39.6862 39.9683 40.148 39.8623 40.556 39.6503C40.964 39.4384 41.2841 39.1501 41.5164 38.7853C41.7487 38.4206 41.8621 38.009 41.8564 37.5506C41.8621 37.0873 41.7487 36.6758 41.5164 36.316C41.2898 35.9561 40.9725 35.6703 40.5645 35.4583C40.1622 35.2464 39.7004 35.1404 39.1791 35.1404C38.7995 35.1404 38.4453 35.202 38.1167 35.3253C37.7881 35.4485 37.5019 35.621 37.2583 35.8428C37.0203 36.0597 36.8333 36.316 36.6973 36.6117C36.5613 36.9025 36.4905 37.2179 36.4848 37.558C36.4905 38.0066 36.6095 38.4132 36.8418 38.7779C37.0741 39.1427 37.3914 39.4335 37.7937 39.6503C38.196 39.8623 38.655 39.9683 39.1706 39.9683Z" fill="#A943F9"/>
<path d="M55.4644 42.7777C54.1952 42.7777 53.0676 42.5781 52.0817 42.1789C51.0958 41.7796 50.3166 41.2301 49.7444 40.5302C49.1777 39.8303 48.8831 39.0268 48.8604 38.1199H52.9401C52.9741 38.6769 53.2347 39.1254 53.722 39.4655C54.2093 39.8007 54.7901 39.9683 55.4644 39.9683C55.9914 39.9683 56.4588 39.8672 56.8668 39.6651C57.2748 39.463 57.5949 39.1796 57.8272 38.8149C58.0595 38.4452 58.1729 38.0214 58.1672 37.5432C58.1729 37.0553 58.0567 36.6289 57.8187 36.2642C57.5864 35.8995 57.2634 35.6161 56.8498 35.414C56.4418 35.207 55.9715 35.1035 55.4389 35.1035C54.9346 35.0985 54.4558 35.1946 54.0025 35.3918C53.5549 35.5889 53.2149 35.8576 52.9826 36.1977L49.2684 35.5914L50.0248 27.4292H61.1929V30.3791H53.4841L53.0846 33.9501H53.1866C53.4756 33.5311 53.9402 33.1861 54.5805 32.915C55.2264 32.639 55.9602 32.501 56.7818 32.501C57.8244 32.501 58.7536 32.7129 59.5696 33.1368C60.3912 33.5558 61.0371 34.1374 61.5074 34.8817C61.9834 35.6259 62.2214 36.4786 62.2214 37.4397C62.2214 38.4797 61.938 39.4014 61.3714 40.2048C60.8105 41.0083 60.0229 41.6392 59.0086 42.0975C58 42.551 56.8186 42.7777 55.4644 42.7777Z" fill="#A943F9"/>
</g>
</svg>
