<svg width="40" height="40" viewBox="0 0 40 40" fill="none" xmlns="http://www.w3.org/2000/svg">
<g style="mix-blend-mode:multiply">
<path d="M28.1934 34.7763C29.741 34.4658 31.0156 33.1123 31.0156 31.3281V26.6406C31.0156 26.1359 30.7094 25.6883 30.2312 25.5297L23.2 23.1859C22.8563 23.0703 22.4813 23.1227 22.1789 23.3219C22.1789 23.3219 22.1789 23.3218 22.1789 23.3219L19.1969 25.3094C17.6172 24.5562 15.8711 23.243 14.3313 21.7234C12.7922 20.2031 11.4594 18.4766 10.7063 16.8969L12.6937 13.9148C12.8937 13.6141 12.9445 13.2375 12.8297 12.8937L10.4859 5.87891C10.3273 5.40078 9.87969 5.07812 9.375 5.07812H4.6875C2.74922 5.07812 1.17188 6.63828 1.17188 8.57734C1.17188 15.3281 4.38281 21.8945 9.28125 26.7734C9.89356 27.3833 10.5322 27.9668 11.1943 28.521C15.8287 32.4003 21.6095 34.8438 27.5164 34.8438C27.7457 34.8438 27.9724 34.8207 28.1934 34.7763Z" fill="#A943F9"/>
</g>
<g style="mix-blend-mode:multiply">
<path fill-rule="evenodd" clip-rule="evenodd" d="M22.3419 7.03125H31.0956C35.3187 7.03125 38.8281 10.4678 38.8281 14.6908C38.8281 18.9138 35.3187 22.3503 31.0956 22.3503H27.9485C27.4512 22.3503 26.9743 22.5479 26.6227 22.8995L23.1156 26.4066C22.8001 26.722 22.3266 26.8123 21.923 26.6438C21.5137 26.475 21.2476 26.0754 21.2476 25.633V23.8974C21.2476 22.9648 20.5499 22.1967 19.6752 21.8732C16.7448 20.7894 14.6094 17.9787 14.6094 14.6908C14.6094 10.4678 18.1188 7.03125 22.3419 7.03125ZM27.813 14.6907C27.813 14.7662 27.8053 14.8399 27.7907 14.9112C27.7072 15.3197 27.396 15.6452 26.9955 15.7496C26.9071 15.7726 26.8143 15.7849 26.7187 15.7849C26.1144 15.7849 25.6245 15.295 25.6245 14.6907C25.6245 14.0863 26.1144 13.5964 26.7187 13.5964C27.3231 13.5964 27.813 14.0863 27.813 14.6907ZM23.436 14.6907C23.436 15.2951 22.9461 15.785 22.3418 15.785C21.7375 15.785 21.2476 15.2951 21.2476 14.6907C21.2476 14.0864 21.7375 13.5965 22.3418 13.5965C22.9461 13.5965 23.436 14.0864 23.436 14.6907ZM32.1898 14.6907C32.1898 15.295 31.6999 15.7849 31.0956 15.7849C30.4912 15.7849 30.0013 15.295 30.0013 14.6907C30.0013 14.0864 30.4912 13.5965 31.0956 13.5965C31.6999 13.5965 32.1898 14.0864 32.1898 14.6907Z" fill="#FF4BAD"/>
</g>
</svg>
