<svg width="40" height="40" viewBox="0 0 40 40" fill="none" xmlns="http://www.w3.org/2000/svg">
<g clip-path="url(#clip0_2779_4993)">
<path fill-rule="evenodd" clip-rule="evenodd" d="M28.5871 15.973C28.5871 13.9143 26.9182 12.2472 24.8595 12.2472H4.29183C1.94292 12.2472 0.0517578 14.1379 0.0517578 16.4873V29.0922C0.0517578 31.4416 1.94292 33.3322 4.29183 33.3322H6.43768C6.53418 33.3322 6.61241 33.4105 6.61241 33.507V38.6901C6.61241 39.7492 7.87285 40.294 8.64621 39.5778L15.2434 33.3796C15.2758 33.3492 15.3186 33.3322 15.363 33.3322H24.3455C26.696 33.3322 28.5871 31.4416 28.5871 29.0922C28.5871 25.4561 28.5871 19.7224 28.5871 15.973ZM8.61888 24.036C8.79035 24.0946 8.96232 24.1508 9.16311 24.1508C9.53538 24.1508 9.90814 23.9798 10.1656 23.7229C10.3092 23.5772 10.424 23.4346 10.4812 23.2641C10.5672 23.0907 10.596 22.8919 10.596 22.6906C10.596 22.5171 10.5672 22.3183 10.4812 22.1448C10.4236 21.9744 10.3087 21.8317 10.1656 21.6861C9.62136 21.1433 8.67653 21.1433 8.16013 21.6861C7.87384 21.9465 7.7307 22.3183 7.7307 22.6906C7.7307 22.8919 7.75953 23.0907 7.84551 23.2641C7.90267 23.4346 8.01699 23.5772 8.16013 23.7229C8.27494 23.8347 8.44691 23.9495 8.61888 24.036ZM14.8927 24.1508C14.692 24.1508 14.52 24.0946 14.3485 24.036C14.1765 23.9495 14.0046 23.8347 13.8898 23.7229C13.6035 23.4629 13.4603 23.0907 13.4603 22.6906C13.4603 22.5171 13.4892 22.3183 13.5751 22.1448C13.6323 21.9743 13.7466 21.8317 13.8898 21.6861C14.0014 21.5474 14.1671 21.4641 14.3342 21.3801L14.3485 21.373C14.8639 21.1717 15.523 21.2865 15.8947 21.6861C16.1815 21.946 16.3247 22.3183 16.3247 22.6906C16.3247 23.0907 16.1815 23.4629 15.8947 23.7229C15.7809 23.8347 15.6085 23.9495 15.4365 24.036C15.265 24.0946 15.0935 24.1508 14.8927 24.1508ZM19.6194 23.7229C19.8773 23.9803 20.2496 24.1508 20.6224 24.1508C20.9946 24.1508 21.3674 23.9798 21.6254 23.7229C21.9121 23.4629 22.0553 23.0907 22.0553 22.6906C22.0553 22.5171 22.0265 22.3183 21.9405 22.1448C21.8828 21.9744 21.768 21.8317 21.6249 21.6861C21.109 21.1433 20.1358 21.1433 19.6194 21.6861C19.3331 21.9465 19.19 22.3183 19.19 22.6906C19.19 23.0907 19.3331 23.4629 19.6194 23.7229Z" fill="#56A6FC"/>
<g style="mix-blend-mode:multiply">
<path fill-rule="evenodd" clip-rule="evenodd" d="M40.0002 3.80798V14.7703C40.0002 16.8083 38.3501 18.4608 36.3139 18.4608H34.2985V23.1114C34.2985 24.0282 33.2053 24.5023 32.5369 23.8756L26.7661 18.4608H18.8978C16.862 18.4608 15.2114 16.8087 15.2114 14.7703V3.80798C15.2114 1.76992 16.8616 0.117432 18.8978 0.117432H36.3139C38.3501 0.117432 40.0002 1.76992 40.0002 3.80798ZM32.5831 7.96622H22.6286C21.9412 7.96622 21.3842 7.40905 21.3842 6.72048C21.3842 6.0319 21.9412 5.47473 22.6286 5.47473H32.5831C33.2705 5.47473 33.8274 6.0319 33.8274 6.72048C33.8274 7.40905 33.2705 7.96622 32.5831 7.96622ZM22.6286 12.9492H32.5831C33.2705 12.9492 33.8274 12.392 33.8274 11.7034C33.8274 11.0149 33.2705 10.4577 32.5831 10.4577H22.6286C21.9412 10.4577 21.3842 11.0149 21.3842 11.7034C21.3842 12.392 21.9412 12.9492 22.6286 12.9492Z" fill="#FF4BAD"/>
</g>
</g>
<defs>
<clipPath id="clip0_2779_4993">
<rect width="40" height="40" fill="white"/>
</clipPath>
</defs>
</svg>
