<svg width="80" height="80" viewBox="0 0 80 80" fill="none" xmlns="http://www.w3.org/2000/svg">
<mask id="mask0_5399_11829" style="mask-type:luminance" maskUnits="userSpaceOnUse" x="6" y="6" width="61" height="61">
<path d="M6.66602 6.66674H66.666V66.6667H6.66602V6.66674Z" fill="white"/>
</mask>
<g mask="url(#mask0_5399_11829)">
<path d="M57.877 17.2136H43.8145C42.8429 17.2136 42.0566 16.4274 42.0566 15.4558C42.0566 14.4842 42.8429 13.698 43.8145 13.698H57.877C58.8486 13.698 59.6348 14.4842 59.6348 15.4558C59.6348 16.4274 58.8486 17.2136 57.877 17.2136ZM29.5176 17.2136C28.5468 17.2136 27.7598 16.4266 27.7598 15.4558C27.7598 14.4848 28.5468 13.698 29.5176 13.698C30.4884 13.698 31.2754 14.4848 31.2754 15.4558C31.2754 16.4266 30.4884 17.2136 29.5176 17.2136ZM22.4863 17.2136C21.5155 17.2136 20.7285 16.4266 20.7285 15.4558C20.7285 14.4848 21.5155 13.698 22.4863 13.698C23.4571 13.698 24.2441 14.4848 24.2441 15.4558C24.2441 16.4266 23.4571 17.2136 22.4863 17.2136ZM15.4551 17.2136C14.4843 17.2136 13.6973 16.4266 13.6973 15.4558C13.6973 14.4848 14.4843 13.698 15.4551 13.698C16.4259 13.698 17.2129 14.4848 17.2129 15.4558C17.2129 16.4266 16.4259 17.2136 15.4551 17.2136ZM61.3926 6.66674H11.9395C9.03156 6.66674 6.66602 9.03229 6.66602 11.9402V18.9714C6.66602 21.8793 9.03156 24.2449 11.9395 24.2449H61.3926C64.3005 24.2449 66.666 21.8793 66.666 18.9714V11.9402C66.666 9.03229 64.3005 6.66674 61.3926 6.66674Z" fill="#3ED1FF"/>
<path d="M57.877 38.4246H43.8145C42.8429 38.4246 42.0566 37.6383 42.0566 36.6667C42.0566 35.6951 42.8429 34.9089 43.8145 34.9089H57.877C58.8486 34.9089 59.6348 35.6951 59.6348 36.6667C59.6348 37.6383 58.8486 38.4246 57.877 38.4246ZM29.5176 38.4246C28.5468 38.4246 27.7598 37.6375 27.7598 36.6667C27.7598 35.6957 28.5468 34.9089 29.5176 34.9089C30.4884 34.9089 31.2754 35.6957 31.2754 36.6667C31.2754 37.6375 30.4884 38.4246 29.5176 38.4246ZM22.4863 38.4246C21.5155 38.4246 20.7285 37.6375 20.7285 36.6667C20.7285 35.6957 21.5155 34.9089 22.4863 34.9089C23.4571 34.9089 24.2441 35.6957 24.2441 36.6667C24.2441 37.6375 23.4571 38.4246 22.4863 38.4246ZM15.4551 38.4246C14.4843 38.4246 13.6973 37.6375 13.6973 36.6667C13.6973 35.6957 14.4843 34.9089 15.4551 34.9089C16.4259 34.9089 17.2129 35.6957 17.2129 36.6667C17.2129 37.6375 16.4259 38.4246 15.4551 38.4246ZM61.3926 27.8777H11.9395C9.03156 27.8777 6.66602 30.2432 6.66602 33.1511V40.1824C6.66602 43.0903 9.03156 45.4558 11.9395 45.4558H61.3926C64.3005 45.4558 66.666 43.0903 66.666 40.1824V33.1511C66.666 30.2432 64.3005 27.8777 61.3926 27.8777Z" fill="#3ED1FF"/>
<path d="M57.877 59.6355H43.8145C42.8429 59.6355 42.0566 58.8493 42.0566 57.8777C42.0566 56.9061 42.8429 56.1199 43.8145 56.1199H57.877C58.8486 56.1199 59.6348 56.9061 59.6348 57.8777C59.6348 58.8493 58.8486 59.6355 57.877 59.6355ZM29.5176 59.6355C28.5468 59.6355 27.7598 58.8485 27.7598 57.8777C27.7598 56.9067 28.5468 56.1199 29.5176 56.1199C30.4884 56.1199 31.2754 56.9067 31.2754 57.8777C31.2754 58.8485 30.4884 59.6355 29.5176 59.6355ZM22.4863 59.6355C21.5155 59.6355 20.7285 58.8485 20.7285 57.8777C20.7285 56.9067 21.5155 56.1199 22.4863 56.1199C23.4571 56.1199 24.2441 56.9067 24.2441 57.8777C24.2441 58.8485 23.4571 59.6355 22.4863 59.6355ZM15.4551 59.6355C14.4843 59.6355 13.6973 58.8485 13.6973 57.8777C13.6973 56.9067 14.4843 56.1199 15.4551 56.1199C16.4259 56.1199 17.2129 56.9067 17.2129 57.8777C17.2129 58.8485 16.4259 59.6355 15.4551 59.6355ZM61.3926 49.0886H11.9395C9.03156 49.0886 6.66602 51.4542 6.66602 54.3621V61.3933C6.66602 64.3012 9.03156 66.6667 11.9395 66.6667H61.3926C64.3005 66.6667 66.666 64.3012 66.666 61.3933V54.3621C66.666 51.4542 64.3005 49.0886 61.3926 49.0886Z" fill="#3ED1FF"/>
</g>
<g style="mix-blend-mode:multiply">
<path fill-rule="evenodd" clip-rule="evenodd" d="M57.7173 40.7456C57.3654 39.7515 55.9666 39.7515 55.6147 40.7456L54.3048 44.4463C54.026 45.234 53.0187 45.4493 52.4453 44.8437L49.7512 41.9984C49.0274 41.2341 47.7496 41.8059 47.8304 42.8581L48.1312 46.7743C48.1952 47.608 47.3621 48.2163 46.5932 47.8976L42.9807 46.3999C42.0102 45.9975 41.0743 47.0423 41.5738 47.9704L43.4333 51.4253C43.8291 52.1605 43.3142 53.057 42.4828 53.0802L38.5766 53.1889C37.5271 53.218 37.095 54.5552 37.9269 55.1988L41.0235 57.5947C41.6826 58.1046 41.575 59.1341 40.8248 59.4951L37.3002 61.1915C36.3534 61.6472 36.4996 63.0455 37.52 63.2933L41.3184 64.216C42.1269 64.4124 42.4451 65.3969 41.9058 66.0334L39.3725 69.0241C38.6918 69.8275 39.3912 71.0451 40.4237 70.8544L44.267 70.1444C45.0851 69.9932 45.7741 70.7624 45.5391 71.5645L44.4348 75.3323C44.1382 76.3446 45.2698 77.1709 46.1358 76.5747L49.3596 74.3546C50.0457 73.8821 50.9865 74.3031 51.0963 75.1318L51.6121 79.0255C51.7507 80.0715 53.1189 80.3638 53.6687 79.4648L55.7155 76.1187C56.1511 75.4066 57.1809 75.4066 57.6166 76.1187L59.6633 79.4648C60.2131 80.3638 61.5813 80.0715 61.7199 79.0255L62.2357 75.1318C62.3455 74.3031 63.2863 73.8821 63.9725 74.3546L67.1962 76.5747C68.0622 77.1709 69.1939 76.3446 68.8972 75.3323L67.7929 71.5645C67.5579 70.7624 68.2469 69.9932 69.065 70.1444L72.9083 70.8544C73.9409 71.0451 74.6402 69.8275 73.9596 69.0241L71.4262 66.0334C70.887 65.3969 71.2052 64.4124 72.0136 64.216L75.812 63.2933C76.8325 63.0455 76.9787 61.6472 76.0318 61.1915L72.5072 59.4951C71.7571 59.1341 71.6495 58.1046 72.3086 57.5947L75.4052 55.1988C76.2371 54.5552 75.8049 53.218 74.7555 53.1889L70.8492 53.0802C70.0179 53.057 69.5029 52.1605 69.8988 51.4253L71.7582 47.9704C72.2577 47.0423 71.3218 45.9975 70.3513 46.3999L66.7388 47.8976C65.9699 48.2163 65.1368 47.608 65.2009 46.7743L65.5016 42.8581C65.5825 41.8059 64.3046 41.2341 63.5809 41.9984L60.8868 44.8437C60.3133 45.4493 59.306 45.234 59.0272 44.4463L57.7173 40.7456ZM56.666 65.8162C59.7473 65.8162 62.2452 63.3054 62.2452 60.2081C62.2452 57.1107 59.7473 54.5999 56.666 54.5999C53.5847 54.5999 51.0869 57.1107 51.0869 60.2081C51.0869 63.3054 53.5847 65.8162 56.666 65.8162Z" fill="#A943F9"/>
</g>
</svg>
