<svg width="71" height="71" viewBox="0 0 71 71" fill="none" xmlns="http://www.w3.org/2000/svg">
<g clip-path="url(#clip0_5399_14498)">
<path d="M29.5397 10.3767C13.4314 10.3767 0.373047 23.4351 0.373047 39.5434C0.373047 55.6517 13.4314 68.71 29.5397 68.71C45.648 68.71 58.7064 55.6517 58.7064 39.5434C58.6893 23.4423 45.6409 10.3939 29.5397 10.3767ZM41.8229 40.4727C41.621 40.8777 41.2928 41.2061 40.8876 41.408V41.4184L24.221 49.7518C23.1917 50.266 21.9405 49.8487 21.4261 48.8194C21.2798 48.5268 21.2045 48.2038 21.2063 47.8768V31.2101C21.2058 30.0595 22.1381 29.1264 23.2887 29.1258C23.6123 29.1256 23.9316 29.2008 24.221 29.3455L40.8876 37.6789C41.9174 38.1921 42.3362 39.4429 41.8229 40.4727Z" fill="#3ED1FF"/>
<g style="mix-blend-mode:multiply">
<path fill-rule="evenodd" clip-rule="evenodd" d="M53.1751 39.4506C48.7434 38.7399 44.5819 36.242 41.5651 32.7789C38.5977 29.3725 36.7031 25.0091 36.7031 20.4614V5.99584C36.7031 4.97709 37.4605 4.13526 38.4427 4.00235L53.1317 0.906621C53.4251 0.845637 53.7168 0.852175 53.9908 0.915423L68.7745 4.03102C69.7224 4.22818 70.3787 5.0641 70.3777 5.99572V20.4613C70.3777 25.0091 68.4833 29.3724 65.5158 32.7788C62.4857 36.2572 58.3006 38.7622 53.847 39.46C53.6175 39.4956 53.3912 39.4906 53.1751 39.4506ZM58.7855 13.6747C59.571 12.8891 60.8448 12.8891 61.6304 13.6747C62.4159 14.4602 62.4159 15.734 61.6304 16.5196L52.7329 25.4171C51.9474 26.2028 50.6736 26.2028 49.888 25.4171L45.4392 20.9683C44.6535 20.1828 44.6535 18.9091 45.4392 18.1234C46.2247 17.3378 47.4984 17.3378 48.2841 18.1234L51.3104 21.1497L58.7855 13.6747Z" fill="#A943F9"/>
</g>
</g>
<defs>
<clipPath id="clip0_5399_14498">
<rect width="70" height="70" fill="white" transform="translate(0.373047 0.864258)"/>
</clipPath>
</defs>
</svg>
