<svg width="80" height="80" viewBox="0 0 80 80" fill="none" xmlns="http://www.w3.org/2000/svg">
<path fill-rule="evenodd" clip-rule="evenodd" d="M5.31929 71.4728C6.59222 72.6626 8.31806 73.3319 10.1182 73.3339H69.8713C71.6715 73.3319 73.3974 72.6626 74.6703 71.4728C75.9432 70.283 76.6593 68.6699 76.6615 66.9872V33.0139C76.6593 31.3313 75.9432 29.7182 74.6703 28.5284C73.3974 27.3386 71.6715 26.6693 69.8713 26.6672H10.1182C8.31806 26.6693 6.59222 27.3386 5.31929 28.5284C4.04636 29.7182 3.33028 31.3313 3.32812 33.0139V66.9872C3.33028 68.6699 4.04636 70.283 5.31929 71.4728ZM11.3253 37.6634C11.772 37.9423 12.2971 38.0912 12.8343 38.0912C13.5546 38.0912 14.2455 37.8238 14.7548 37.3477C15.2642 36.8716 15.5503 36.2259 15.5503 35.5526C15.5503 35.0505 15.3911 34.5596 15.0926 34.1422C14.7942 33.7247 14.37 33.3993 13.8737 33.2071C13.3774 33.015 12.8313 32.9647 12.3044 33.0627C11.7776 33.1606 11.2936 33.4024 10.9138 33.7575C10.5339 34.1125 10.2752 34.5648 10.1704 35.0573C10.0656 35.5498 10.1194 36.0602 10.325 36.5241C10.5306 36.988 10.8787 37.3844 11.3253 37.6634ZM19.4735 37.6634C19.9201 37.9423 20.4453 38.0912 20.9824 38.0912C21.7028 38.0912 22.3936 37.8238 22.903 37.3477C23.4123 36.8716 23.6985 36.2259 23.6985 35.5526C23.6985 35.0505 23.5392 34.5596 23.2408 34.1422C22.9423 33.7247 22.5181 33.3993 22.0218 33.2071C21.5255 33.015 20.9794 32.9647 20.4526 33.0627C19.9257 33.1606 19.4418 33.4024 19.0619 33.7575C18.6821 34.1125 18.4234 34.5648 18.3186 35.0573C18.2138 35.5498 18.2676 36.0602 18.4731 36.5241C18.6787 36.988 19.0268 37.3844 19.4735 37.6634ZM27.6216 37.6634C28.0683 37.9423 28.5934 38.0912 29.1306 38.0912C29.8509 38.0912 30.5418 37.8238 31.0511 37.3477C31.5605 36.8716 31.8466 36.2259 31.8466 35.5526C31.8466 35.0505 31.6874 34.5596 31.3889 34.1422C31.0905 33.7247 30.6663 33.3993 30.17 33.2071C29.6737 33.015 29.1276 32.9647 28.6007 33.0627C28.0739 33.1606 27.5899 33.4024 27.2101 33.7575C26.8302 34.1125 26.5715 34.5648 26.4667 35.0573C26.3619 35.5498 26.4157 36.0602 26.6213 36.5241C26.8269 36.988 27.175 37.3844 27.6216 37.6634ZM23.2112 54.026L13.6993 45.1449C12.8096 44.3103 11.4747 44.4263 10.7122 45.4001C9.95021 46.3739 10.0562 47.8354 10.9459 48.6694L18.5719 55.788L10.9459 62.9066C10.0562 63.7405 9.95021 65.2021 10.7122 66.1759C11.1361 66.7082 11.7296 66.9872 12.3221 66.9872C12.8096 66.9872 13.2971 66.8016 13.6993 66.4305L23.2112 57.5499C23.6781 57.1097 23.9531 56.4602 23.9531 55.788C23.9531 55.1152 23.6781 54.4662 23.2112 54.026ZM23.9531 62.5072C22.6875 62.5072 21.6615 63.5101 21.6615 64.7472C21.6615 65.9844 22.6875 66.9872 23.9531 66.9872H39.9948C41.2604 66.9872 42.2865 65.9844 42.2865 64.7472C42.2865 63.5101 41.2604 62.5072 39.9948 62.5072H23.9531Z" fill="#56A6FC"/>
<g style="mix-blend-mode:multiply">
<path d="M23.888 13.0043C21.1806 14.1539 21.1806 17.9911 23.8879 19.1407L30.12 21.7871V28.5621C30.12 31.2368 31.7185 33.6525 34.1803 34.6982L44.057 38.8935C45.7226 39.601 47.6042 39.601 49.2698 38.8935L59.1466 34.6982C61.6083 33.6525 63.2068 31.2368 63.2068 28.5621V21.7859L67.9335 19.7788V36.2897C67.9335 37.5949 68.9916 38.653 70.2968 38.653V38.653C71.6021 38.653 72.6602 37.5949 72.6602 36.2897V17.7717V17.7717C74.1597 17.135 74.1597 15.0098 72.6602 14.373L49.269 4.44039C47.6039 3.73334 45.7229 3.73331 44.0578 4.44031L23.888 13.0043Z" fill="#F9A457"/>
</g>
</svg>
