<svg width="80" height="80" viewBox="0 0 80 80" fill="none" xmlns="http://www.w3.org/2000/svg">
<g clip-path="url(#clip0_3193_5772)">
<path d="M17.4965 23.9809C18.7354 25.2198 20.6859 25.2714 22.0577 24.1817C26.9806 20.2703 33.2206 17.9358 40.001 17.9358C43.7471 17.9358 47.3278 18.649 50.6073 19.9469C51.2865 20.2156 51.8757 19.3843 51.415 18.8158L41.2783 6.27526C40.853 5.74959 40.001 6.05082 40.001 6.72709V11.1642C31.5978 11.1642 23.896 14.0642 17.8081 18.9148C16.2178 20.1817 16.0583 22.5427 17.4965 23.9809Z" fill="#A943F9"/>
<path d="M21.7443 72.5557C22.7499 71.1205 22.4619 69.1906 21.1492 68.0285C16.4419 63.8587 13.0591 58.1207 11.8822 51.4421C11.2326 47.7537 11.3123 44.1036 12.021 40.6484C12.1672 39.9322 11.2473 39.4966 10.7674 40.0489L0.178889 52.2085C-0.265561 52.7194 0.178889 53.5064 0.846302 53.3883L5.2155 52.6175C6.67435 60.8922 10.8678 67.9739 16.7018 73.1272C18.2256 74.4753 20.5778 74.2213 21.7443 72.5557Z" fill="#FF4BAD"/>
<path d="M63.3008 73.1285C69.1348 67.9752 73.3282 60.8935 74.7871 52.6188L79.1563 53.3896C79.8237 53.5077 80.2682 52.7207 79.8237 52.2098L69.2352 40.0502C68.7553 39.4994 67.8339 39.9335 67.9816 40.6497C68.6903 44.1049 68.77 47.755 68.1204 51.4434C66.9435 58.1205 63.5607 63.86 58.8533 68.0298C57.5421 69.1919 57.2542 71.1218 58.2583 72.557C59.4248 74.2211 61.777 74.4751 63.3008 73.1285Z" fill="#A943F9"/>
<path d="M36.5363 54.2649L31.3558 36.8042C30.2178 37.1925 28.1054 37.8386 26.5976 38.2999C26.2709 38.3998 25.9725 38.4911 25.7186 38.5691L23.9251 39.1167C22.9667 39.4164 22.4091 40.4444 22.7089 41.4028L26.9383 55.6577C27.238 56.6161 28.2617 57.1595 29.2343 56.8555L29.3617 56.8177C30.8917 59.0778 37.3469 68.5318 37.9015 68.0688L40.621 65.8142L43.3263 63.5638C43.9558 63.0381 43.6351 62.0089 42.815 61.9442L42.2932 61.8988C41.6806 61.8368 41.0807 61.6654 40.5526 61.3822L42.1002 60.4464C46.0361 58.5676 44.0292 54.8408 43.9582 54.7088C43.9578 54.7081 43.9562 54.7052 43.9562 54.7052L43.0344 52.7609C40.9598 52.9733 38.8785 53.581 36.7863 54.1919C36.703 54.2163 36.6197 54.2406 36.5363 54.2649Z" fill="#A943F9"/>
<g style="mix-blend-mode:multiply">
<path d="M48.0925 24.6831L57.1952 55.3634L52.488 56.76C48.8742 55.5983 45.2608 55.4172 41.6291 55.7864V55.7864C36.3749 56.3244 31.1107 53.634 29.6086 48.5705L29.1672 47.0827C27.4432 41.2712 30.8219 35.4491 36.0154 32.3228C38.6719 30.7237 41.0619 28.75 43.0848 26.1688L48.0925 24.6831Z" fill="#FF4BAD"/>
</g>
</g>
<defs>
<clipPath id="clip0_3193_5772">
<rect width="80" height="80" fill="white"/>
</clipPath>
</defs>
</svg>
