<svg width="80" height="80" viewBox="0 0 80 80" fill="none" xmlns="http://www.w3.org/2000/svg">
<rect x="40" y="5" width="35" height="35" rx="1" fill="#F5851E"/>
<g style="mix-blend-mode:multiply">
<path fill-rule="evenodd" clip-rule="evenodd" d="M36.4634 22.3171C48.1866 22.3171 57.6829 31.8085 57.6829 43.5078C57.6829 55.2072 48.1866 64.6986 36.4634 64.6986C30.6146 64.6986 25.325 62.3403 21.4835 58.5165C17.6246 54.6753 15.2438 49.3722 15.2438 43.5078C15.2438 31.8085 24.7403 22.3171 36.4634 22.3171ZM65 43.5078C65 27.7594 52.2198 15 36.4634 15C20.7071 15 7.92676 27.7594 7.92676 43.5078C7.92676 50.0757 10.1534 56.1285 13.8878 60.9471L6.07306 68.7531C4.64356 70.1808 4.64207 72.4974 6.07007 73.9269C7.49807 75.3564 9.81437 75.3579 11.2439 73.9299L19.0718 66.111C23.8856 69.8118 29.9195 72.0156 36.4634 72.0156C52.2198 72.0156 65 59.2563 65 43.5078Z" fill="#2686EC"/>
</g>
</svg>
