<svg width="80" height="80" viewBox="0 0 80 80" fill="none" xmlns="http://www.w3.org/2000/svg">
<path d="M51.874 7.92745C45.4725 9.64272 41.6874 16.2752 43.4201 22.7415C43.7158 23.845 44.1532 24.8724 44.7069 25.8089L31.7555 38.9966C29.081 37.4174 25.8115 36.8713 22.5908 37.7343C16.1892 39.4496 12.4042 46.082 14.1368 52.5483C15.8694 59.0144 22.4636 62.866 28.8652 61.1507C32.0865 60.2875 34.6453 58.1792 36.1718 55.4734L53.981 60.4063C53.9684 61.4987 54.1033 62.612 54.4003 63.7201C56.1329 70.1863 62.7271 74.0378 69.1286 72.3225C75.5301 70.6072 79.3151 63.9746 77.5825 57.5085C75.8499 51.0423 69.2557 47.1909 62.8542 48.9061C59.6382 49.7678 57.0828 51.8706 55.5552 54.5697L37.7385 49.6347C37.7496 48.5475 37.6146 47.4395 37.3191 46.3366C37.0234 45.2331 36.586 44.2056 36.0323 43.2691L48.9837 30.0815C51.6582 31.6607 54.9275 32.2069 58.1484 31.3438C64.5499 29.6286 68.3349 22.9961 66.6023 16.5298C64.8697 10.0636 58.2755 6.21218 51.874 7.92745Z" fill="#A943F9"/>
<g style="mix-blend-mode:multiply">
<path fill-rule="evenodd" clip-rule="evenodd" d="M26.2258 27.5366C25.8153 26.3767 24.1834 26.3767 23.7729 27.5366L22.2446 31.8541C21.9193 32.773 20.7442 33.0241 20.0752 32.3176L16.932 28.9982C16.0877 28.1065 14.5969 28.7736 14.6911 30.0011L15.042 34.5701C15.1167 35.5427 14.1448 36.2524 13.2478 35.8805L9.03317 34.1332C7.90093 33.6637 6.80905 34.8827 7.39178 35.9655L9.56116 39.9962C10.023 40.8539 9.42219 41.8999 8.45227 41.9269L3.895 42.0537C2.67067 42.0877 2.16644 43.6477 3.13699 44.3986L6.74969 47.1939C7.51867 47.7887 7.39313 48.9898 6.51792 49.411L2.40592 51.3901C1.30125 51.9217 1.47184 53.5531 2.66233 53.8422L7.09382 54.9187C8.03704 55.1478 8.40825 56.2964 7.77912 57.039L4.82352 60.5282C4.02944 61.4655 4.84537 62.886 6.05 62.6635L10.5339 61.8351C11.4883 61.6588 12.2921 62.5562 12.0179 63.4919L10.7296 67.8877C10.3835 69.0688 11.7038 70.0328 12.7141 69.3371L16.4752 66.747C17.2757 66.1958 18.3733 66.687 18.5014 67.6538L19.1032 72.1964C19.2649 73.4168 20.8611 73.7578 21.5025 72.709L23.8904 68.8052C24.3987 67.9744 25.6 67.9744 26.1083 68.8052L28.4962 72.709C29.1376 73.7578 30.7338 73.4168 30.8955 72.1964L31.4973 67.6538C31.6254 66.687 32.723 66.1958 33.5235 66.747L37.2846 69.3371C38.2949 70.0328 39.6152 69.0688 39.2691 67.8877L37.9808 63.4919C37.7066 62.5562 38.5104 61.6588 39.4648 61.8351L43.9487 62.6635C45.1533 62.886 45.9693 61.4655 45.1752 60.5282L42.2196 57.039C41.5904 56.2964 41.9617 55.1478 42.9049 54.9187L47.3364 53.8422C48.5269 53.5531 48.6975 51.9217 47.5928 51.3901L43.4808 49.411C42.6056 48.9898 42.48 47.7887 43.249 47.1939L46.8617 44.3986C47.8323 43.6477 47.328 42.0877 46.1037 42.0537L41.5464 41.9269C40.5765 41.8999 39.9757 40.8539 40.4375 39.9962L42.6069 35.9655C43.1897 34.8827 42.0978 33.6637 40.9655 34.1332L36.7509 35.8805C35.8539 36.2524 34.882 35.5427 34.9567 34.5701L35.3076 30.0011C35.4019 28.7736 33.911 28.1065 33.0667 28.9982L29.9235 32.3176C29.2545 33.0241 28.0794 32.773 27.7541 31.8541L26.2258 27.5366ZM24.9993 56.7855C28.5942 56.7855 31.5084 53.8563 31.5084 50.2427C31.5084 46.6292 28.5942 43.7 24.9993 43.7C21.4045 43.7 18.4903 46.6292 18.4903 50.2427C18.4903 53.8563 21.4045 56.7855 24.9993 56.7855Z" fill="#FF4BAD"/>
</g>
</svg>
