<svg width="40" height="40" viewBox="0 0 40 40" fill="none" xmlns="http://www.w3.org/2000/svg">
<g clip-path="url(#clip0_2779_4971)">
<path d="M4.54542 4.45431H29.404C29.6627 4.45431 29.9001 4.30731 30.0252 4.0727C30.1503 3.83808 30.1432 3.54855 30.0081 3.31992L29.0728 1.75054C28.4204 0.654783 27.2917 0 26.055 0H7.89298C6.6577 0 5.5291 0.654783 4.87518 1.75054L3.94134 3.31992C3.80488 3.54855 3.79775 3.83662 3.92429 4.0727C4.05075 4.30878 4.28676 4.45431 4.54542 4.45431Z" fill="#3ED1FF"/>
<path d="M31.2652 5.79057H2.6834C1.10709 5.79057 -0.174805 7.05581 -0.174805 8.61163V11.4327C-0.174805 12.9885 1.10709 14.2538 2.6834 14.2538H31.2652C32.8415 14.2538 34.1234 12.9885 34.1234 11.4327V8.61163C34.1234 7.05581 32.8415 5.79057 31.2652 5.79057ZM4.11247 11.4327C3.32502 11.4327 2.6834 10.7993 2.6834 10.0222C2.6834 9.24498 3.32502 8.61163 4.11247 8.61163C4.89992 8.61163 5.54154 9.24498 5.54154 10.0221C5.54154 10.7993 4.89992 11.4327 4.11247 11.4327ZM30.5507 11.4327H19.1179C18.7235 11.4327 18.4034 11.1167 18.4034 10.7274C18.4034 10.3381 18.7235 10.0221 19.1179 10.0221H30.5507C30.9451 10.0221 31.2652 10.3381 31.2652 10.7274C31.2652 11.1167 30.9451 11.4327 30.5507 11.4327Z" fill="#3ED1FF"/>
<path d="M31.2652 15.5901H2.6834C1.10709 15.5901 -0.174805 16.8554 -0.174805 18.4112V21.2322C-0.174805 22.7881 1.10709 24.0533 2.6834 24.0533H31.2652C32.8415 24.0533 34.1234 22.7881 34.1234 21.2322V18.4112C34.1234 16.8554 32.8415 15.5901 31.2652 15.5901ZM4.11247 21.2322C3.32502 21.2322 2.6834 20.5989 2.6834 19.8217C2.6834 19.0445 3.32502 18.4112 4.11247 18.4112C4.89992 18.4112 5.54154 19.0445 5.54154 19.8217C5.54154 20.5989 4.89992 21.2322 4.11247 21.2322ZM30.5507 21.2322H19.1179C18.7235 21.2322 18.4034 20.9163 18.4034 20.527C18.4034 20.1377 18.7235 19.8217 19.1179 19.8217H30.5507C30.9451 19.8217 31.2652 20.1377 31.2652 20.527C31.2652 20.9163 30.9451 21.2322 30.5507 21.2322Z" fill="#3ED1FF"/>
<path d="M30.5507 21.2322H19.1179C18.7235 21.2322 18.4034 20.9163 18.4034 20.527C18.4034 20.1377 18.7235 19.8217 19.1179 19.8217H30.5507C30.9451 19.8217 31.2652 20.1377 31.2652 20.527C31.2652 20.9163 30.9451 21.2322 30.5507 21.2322Z" fill="#3ED1FF"/>
<path d="M31.2652 25.8351H2.6834C1.10709 25.8351 -0.174805 27.1003 -0.174805 28.6562V31.4772C-0.174805 33.033 1.10709 34.2983 2.6834 34.2983H31.2652C32.8415 34.2983 34.1234 33.033 34.1234 31.4772V28.6562C34.1234 27.1003 32.8415 25.8351 31.2652 25.8351ZM4.11247 31.4772C3.32502 31.4772 2.6834 30.8439 2.6834 30.0667C2.6834 29.2895 3.32502 28.6562 4.11247 28.6562C4.89992 28.6562 5.54154 29.2895 5.54154 30.0667C5.54154 30.8439 4.89992 31.4772 4.11247 31.4772ZM30.5507 31.4772H19.1179C18.7235 31.4772 18.4034 31.1612 18.4034 30.7719C18.4034 30.3826 18.7235 30.0667 19.1179 30.0667H30.5507C30.9451 30.0667 31.2652 30.3826 31.2652 30.7719C31.2652 31.1612 30.9451 31.4772 30.5507 31.4772Z" fill="#3ED1FF"/>
<path d="M30.5507 31.4772H19.1179C18.7235 31.4772 18.4034 31.1612 18.4034 30.7719C18.4034 30.3826 18.7235 30.0667 19.1179 30.0667H30.5507C30.9451 30.0667 31.2652 30.3826 31.2652 30.7719C31.2652 31.1612 30.9451 31.4772 30.5507 31.4772Z" fill="#3ED1FF"/>
<g style="mix-blend-mode:multiply">
<path d="M33.125 24.7222V24.7222C32.7961 24.7222 32.4815 24.5757 32.2818 24.3145C30.6213 22.1419 28.0295 20.8333 25.2678 20.8333C21.1812 20.8333 17.7331 23.5928 16.7264 27.3285C16.5108 28.1286 15.8951 28.7757 15.1579 29.154C13.5805 29.9635 12.5 31.5958 12.5 33.4722C12.5 36.1517 14.7039 38.3333 17.4107 38.3333H33.125C36.9161 38.3333 40 35.2806 40 31.5277C40 27.7749 36.9161 24.7222 33.125 24.7222Z" fill="#56A6FC"/>
</g>
</g>
<defs>
<clipPath id="clip0_2779_4971">
<rect width="40" height="40" fill="white"/>
</clipPath>
</defs>
</svg>
