<svg width="70" height="70" viewBox="0 0 70 70" fill="none" xmlns="http://www.w3.org/2000/svg">
<path d="M59.4632 25.3024C58.5439 19.4184 53.4429 14.9023 47.3047 14.9023C44.9955 14.9023 42.7766 15.5412 40.852 16.7329C37.924 11.8121 32.6528 8.75 26.7969 8.75C17.7506 8.75 10.3906 16.11 10.3906 25.1562C10.3906 25.2123 10.3906 25.2704 10.3927 25.3265C4.57871 26.3058 0 31.3746 0 37.4609C0 44.2462 5.65619 49.7656 12.4414 49.7656H57.5586C64.3438 49.7656 70 44.2462 70 37.4609C70 31.3227 65.3472 26.2217 59.4632 25.3024Z" fill="#3ED1FF"/>
<g style="mix-blend-mode:multiply">
<path d="M20.416 53.4605L32.0827 61.25V45.7236L20.416 37.9166V53.4605Z" fill="#A943F9"/>
</g>
<g style="mix-blend-mode:multiply">
<path d="M35.0007 29.1666L23.334 36.4583L35.0007 43.75L46.6673 36.4583L35.0007 29.1666Z" fill="#A943F9"/>
</g>
<g style="mix-blend-mode:multiply">
<path d="M37.916 61.25L49.5827 53.4605V37.9166L37.916 45.7236V61.25Z" fill="#A943F9"/>
</g>
</svg>
