<svg width="71" height="70" viewBox="0 0 71 70" fill="none" xmlns="http://www.w3.org/2000/svg">
<g clip-path="url(#clip0_5399_14506)">
<path d="M59.8363 25.3024C58.917 19.4184 53.816 14.9023 47.6777 14.9023C45.3686 14.9023 43.1496 15.5412 41.225 16.7329C38.2971 11.8121 33.0259 8.75 27.1699 8.75C18.1237 8.75 10.7637 16.11 10.7637 25.1562C10.7637 25.2123 10.7637 25.2704 10.7657 25.3265C4.95176 26.3058 0.373047 31.3746 0.373047 37.4609C0.373047 44.2462 6.02924 49.7656 12.8145 49.7656H57.9316C64.7169 49.7656 70.373 44.2462 70.373 37.4609C70.373 31.3227 65.7202 26.2217 59.8363 25.3024Z" fill="#3ED1FF"/>
<g style="mix-blend-mode:multiply">
<path d="M15.9277 31.7187V42.96H31.6656V29.7515L15.9277 31.7187Z" fill="#A943F9"/>
</g>
<g style="mix-blend-mode:multiply">
<path d="M33.9141 29.4704V42.96H51.9002V27.2222L33.9141 29.4704Z" fill="#A943F9"/>
</g>
<g style="mix-blend-mode:multiply">
<path d="M33.9141 45.2083V58.6978L51.9002 60.9461V45.2083H33.9141Z" fill="#A943F9"/>
</g>
<g style="mix-blend-mode:multiply">
<path d="M15.9277 45.2083V56.4496L31.6656 58.4168V45.2083H15.9277Z" fill="#A943F9"/>
</g>
</g>
<defs>
<clipPath id="clip0_5399_14506">
<rect width="70" height="70" fill="white" transform="translate(0.373047)"/>
</clipPath>
</defs>
</svg>
