<svg width="80" height="80" viewBox="0 0 80 80" fill="none" xmlns="http://www.w3.org/2000/svg">
<g clip-path="url(#clip0_3193_5754)">
<path d="M61.0937 80H78C79.1046 80 80 79.1046 80 78V20.9062C80 19.8017 79.1046 18.9062 78 18.9062H20.9062C19.8017 18.9062 18.9062 19.8017 18.9062 20.9063V78C18.9062 79.1046 19.8017 80 20.9062 80H47.0312V61.0937H42.3437V47.0312H47.0312C47.0312 43.7498 47.875 40.6562 49.375 37.9844C49.7218 37.3519 50.1036 36.7423 50.5178 36.1579C52.9583 32.7141 56.5228 30.1485 60.6799 28.98C62.3008 28.5244 64.0117 28.2812 65.7812 28.2812H70.4687V42.3437H65.7812C63.2031 42.3437 61.0937 44.4531 61.0937 47.0312H70.4687V61.0937H61.0937V80Z" fill="#A943F9"/>
<g style="mix-blend-mode:multiply">
<path fill-rule="evenodd" clip-rule="evenodd" d="M40.3437 0C41.4483 0 42.3437 0.89543 42.3437 2V40.3437C42.3437 41.4483 41.4483 42.3437 40.3438 42.3437H2C0.89543 42.3437 0 41.4483 0 40.3438V2C0 0.89543 0.89543 0 2 0H40.3437ZM11.875 10.4264V32.0739L33.5227 21.2502L11.875 10.4264Z" fill="#FF4BAD"/>
</g>
</g>
<defs>
<clipPath id="clip0_3193_5754">
<rect width="80" height="80" fill="white"/>
</clipPath>
</defs>
</svg>
