<svg width="80" height="81" viewBox="0 0 80 81" fill="none" xmlns="http://www.w3.org/2000/svg">
<path d="M29.6396 5.92162C29.7626 6.06647 29.8982 6.20084 30.0521 6.31239L36.4525 10.9526C36.7939 11.2001 37.2048 11.3333 37.6264 11.3333H61.334C62.4386 11.3333 63.334 12.2288 63.334 13.3333V61.8333C63.334 62.9379 62.4386 63.8333 61.334 63.8333H12.82H9.23329C5.97316 63.8333 3.33398 61.0072 3.33398 57.5153V10.1505C3.33398 6.65944 5.97316 3.83334 9.23329 3.83334H25.256C26.9195 3.83334 28.5129 4.59523 29.6396 5.92162Z" fill="#A943F9"/>
<g style="mix-blend-mode:multiply">
<path fill-rule="evenodd" clip-rule="evenodd" d="M74.9219 71.7367V34.8126C74.9219 31.1995 72.2399 28.2747 68.9269 28.2747H20.9168C17.6038 28.2747 14.9219 31.1995 14.9219 34.8126V76.2747C14.9219 77.3792 15.8173 78.2747 16.9219 78.2747H68.9269C72.2399 78.2747 74.9219 75.3498 74.9219 71.7367ZM32.7506 53.3267L38.4307 58.6093C39.0933 59.2281 39.1722 60.3127 38.6039 61.0353C38.289 61.4304 37.847 61.6374 37.405 61.6374C37.0419 61.6374 36.6797 61.4997 36.3797 61.2242L29.2956 54.6342C28.9487 54.3076 28.7435 53.8256 28.7435 53.3267C28.7435 52.8275 28.9487 52.3459 29.2956 52.0193L36.3797 45.4288C37.0419 44.8095 38.0364 44.8955 38.6039 45.6182C39.1722 46.3408 39.0933 47.4254 38.4307 48.0442L32.7506 53.3267ZM59.5247 52.0193L52.4409 45.4288C51.7783 44.8095 50.7842 44.8955 50.2164 45.6182C49.6489 46.3408 49.7278 47.4254 50.3904 48.0442L56.0696 53.3267L50.3904 58.6093C49.7278 59.2281 49.6489 60.3127 50.2164 61.0353C50.5321 61.4304 50.9741 61.6374 51.4153 61.6374C51.7783 61.6374 52.1414 61.4997 52.4409 61.2242L59.5247 54.6342C59.8724 54.3076 60.0772 53.8256 60.0772 53.3267C60.0772 52.8275 59.8724 52.3459 59.5247 52.0193ZM44.7753 41.609C44.9494 40.6803 45.7856 40.0954 46.6372 40.2843C47.4892 40.4905 48.0413 41.4029 47.8677 42.3149L43.4501 65.1987C43.2922 66.0074 42.6301 66.5583 41.9043 66.5583C41.7988 66.5583 41.6933 66.5422 41.5882 66.5261L41.5732 66.5239C40.7208 66.3345 40.1845 65.422 40.3581 64.4933L44.7753 41.609Z" fill="#56A6FC"/>
</g>
</svg>
