<svg width="80" height="80" viewBox="0 0 80 80" fill="none" xmlns="http://www.w3.org/2000/svg">
<g clip-path="url(#clip0_3193_5857)">
<path d="M56.0031 2C56.0031 0.895429 55.1077 0 54.0031 0H2C0.895428 0 0 0.895431 0 2V78C0 79.1046 0.895431 80 2 80H54.0031C55.1077 80 56.0031 79.1046 56.0031 78V2ZM9.375 9.375H20.3491V14.0625H9.375V9.375ZM26.812 29.4166H9.375V24.7291H26.812V29.4166ZM26.812 21.7395H9.375V17.052H26.812V21.7395Z" fill="#F9A457"/>
<g style="mix-blend-mode:multiply">
<path d="M55.5748 62.7767C55.2299 63.0191 54.77 63.0191 54.4251 62.7767L30.1575 45.7275C30.0912 45.6809 30 45.7283 30 45.8093V74.6168C30 75.1691 30.4477 75.6168 31 75.6168H79C79.5523 75.6168 80 75.1691 80 74.6168V45.8093C80 45.7283 79.9088 45.6809 79.8425 45.7275L55.5748 62.7767Z" fill="#A943F9"/>
</g>
<g style="mix-blend-mode:multiply">
<path d="M30.3303 43.3334C30.2313 43.3334 30.1925 43.4617 30.2748 43.5166L53.8906 59.2604C54.5624 59.7083 55.4376 59.7083 56.1094 59.2604L79.7252 43.5166C79.8075 43.4617 79.7687 43.3334 79.6697 43.3334H30.3303Z" fill="#A943F9"/>
</g>
<g style="mix-blend-mode:multiply">
<path d="M74.6996 10H42.7637C42.2114 10 41.7637 10.4477 41.7637 11V30.3844C41.7637 30.9367 42.2114 31.3844 42.7637 31.3844H74.6996C75.2519 31.3844 75.6996 30.9367 75.6996 30.3844V11C75.6996 10.4477 75.2519 10 74.6996 10Z" fill="#A943F9"/>
</g>
</g>
<defs>
<clipPath id="clip0_3193_5857">
<rect width="80" height="80" fill="white"/>
</clipPath>
</defs>
</svg>
