<svg width="39" height="38" viewBox="0 0 39 38" fill="none" xmlns="http://www.w3.org/2000/svg">
<g style="mix-blend-mode:multiply">
<path d="M30.25 8.50512C30.25 7.16224 29.0826 6.07456 27.6413 6.07456H20.1804C19.8022 6.07456 19.5478 5.73429 19.6522 5.38793C19.7565 5.02942 19.8152 4.64661 19.8152 4.25165C19.8152 2.09453 18.1783 0.326299 15.8891 0.0401011C13.0783 -0.312329 10.6848 1.70503 10.6848 4.25165C10.6848 4.64661 10.7435 5.02942 10.8478 5.38793C10.9522 5.73429 10.6978 6.07456 10.3196 6.07456H2.8587C1.41739 6.07456 0.25 7.16224 0.25 8.50512V14.8495C0.25 15.2019 0.615217 15.4389 0.986957 15.3417C1.37174 15.2444 1.78261 15.1898 2.20652 15.1898C4.52174 15.1898 6.41957 16.7149 6.72609 18.8477C7.10435 21.4667 4.93913 23.6973 2.20652 23.6973C1.78261 23.6973 1.37174 23.6426 0.986957 23.5454C0.615217 23.4482 0.25 23.6852 0.25 24.0376V30.3819C0.25 31.7248 1.41739 32.8125 2.8587 32.8125H26.9891C28.7901 32.8125 30.25 31.4523 30.25 29.7743V8.50512Z" fill="#A943F9"/>
</g>
<g style="mix-blend-mode:multiply">
<path d="M36.8719 37.5C37.9974 37.5 38.9089 36.7704 38.9089 35.8696L38.9089 31.2065C38.9089 30.9701 39.1941 30.8111 39.4844 30.8764C39.7849 30.9416 40.1057 30.9783 40.4367 30.9783C42.2446 30.9783 43.7265 29.9552 43.9664 28.5245C44.2618 26.7677 42.571 25.2717 40.4367 25.2717C40.1057 25.2717 39.7849 25.3084 39.4844 25.3736C39.1941 25.4389 38.9089 25.2799 38.9089 25.0435L38.9089 20.3804C38.9089 19.4796 37.9974 18.75 36.8719 18.75L31.5547 18.75C31.2594 18.75 31.0607 18.9783 31.1422 19.2106C31.2237 19.4511 31.2695 19.7079 31.2695 19.9728C31.2695 21.4198 29.9913 22.606 28.2038 22.7976C26.0089 23.034 24.1394 21.6807 24.1394 19.9728C24.1394 19.7079 24.1852 19.4511 24.2667 19.2106C24.3482 18.9783 24.1496 18.75 23.8542 18.75L18.537 18.75C17.4116 18.75 16.5 19.4796 16.5 20.3804L16.5 35.462C16.5 36.5875 17.64 37.5 19.0463 37.5L36.8719 37.5Z" fill="#56A6FC"/>
</g>
</svg>
