<svg width="80" height="80" viewBox="0 0 80 80" fill="none" xmlns="http://www.w3.org/2000/svg">
<path fill-rule="evenodd" clip-rule="evenodd" d="M11.6043 63.3333H55.0611C56.3703 63.3318 57.6255 62.8338 58.5512 61.9486C59.477 61.0633 59.9978 59.8631 59.9993 58.6111V11.3889C59.9978 10.1369 59.477 8.93668 58.5512 8.05142C57.6255 7.16616 56.3703 6.66816 55.0611 6.66666H11.6043C10.2951 6.66816 9.0399 7.16616 8.11413 8.05142C7.18837 8.93668 6.66758 10.1369 6.66602 11.3889V58.6111C6.66758 59.8631 7.18837 61.0633 8.11413 61.9486C9.0399 62.8338 10.2951 63.3318 11.6043 63.3333ZM8.64132 19.8889V58.6111C8.64132 59.3626 8.95349 60.0832 9.50916 60.6146C10.0648 61.1459 10.8185 61.4444 11.6043 61.4444H55.0611C55.8469 61.4444 56.6005 61.1459 57.1562 60.6146C57.7119 60.0832 58.024 59.3626 58.024 58.6111V15.1667H36.1969C34.5772 15.1659 33.0084 15.7079 31.7633 16.6985L30.2324 17.9188C28.6345 19.1905 26.6215 19.8875 24.5426 19.8889H8.64132ZM12.4822 14.8483C12.807 15.0559 13.1889 15.1667 13.5796 15.1667C14.1035 15.1667 14.6059 14.9676 14.9763 14.6134C15.3468 14.2592 15.5549 13.7787 15.5549 13.2778C15.5549 12.9042 15.4391 12.539 15.222 12.2284C15.005 11.9177 14.6965 11.6756 14.3355 11.5327C13.9746 11.3897 13.5774 11.3523 13.1942 11.4252C12.8111 11.4981 12.4591 11.678 12.1828 11.9421C11.9066 12.2063 11.7185 12.5429 11.6422 12.9093C11.566 13.2757 11.6051 13.6555 11.7546 14.0006C11.9042 14.3458 12.1573 14.6408 12.4822 14.8483ZM18.4081 14.8483C18.7329 15.0559 19.1148 15.1667 19.5055 15.1667C20.0294 15.1667 20.5318 14.9676 20.9023 14.6134C21.2727 14.2592 21.4808 13.7787 21.4808 13.2778C21.4808 12.9042 21.365 12.539 21.1479 12.2284C20.9309 11.9177 20.6224 11.6756 20.2614 11.5327C19.9005 11.3897 19.5033 11.3523 19.1202 11.4252C18.737 11.4981 18.385 11.678 18.1088 11.9421C17.8325 12.2063 17.6444 12.5429 17.5682 12.9093C17.492 13.2757 17.5311 13.6555 17.6806 14.0006C17.8301 14.3458 18.0833 14.6408 18.4081 14.8483ZM24.334 14.8483C24.6589 15.0559 25.0408 15.1667 25.4314 15.1667C25.9553 15.1667 26.4578 14.9676 26.8282 14.6134C27.1986 14.2592 27.4068 13.7787 27.4068 13.2778C27.4068 12.9042 27.2909 12.539 27.0739 12.2284C26.8568 11.9177 26.5483 11.6756 26.1874 11.5327C25.8264 11.3897 25.4293 11.3523 25.0461 11.4252C24.6629 11.4981 24.3109 11.678 24.0347 11.9421C23.7584 12.2063 23.5703 12.5429 23.4941 12.9093C23.4179 13.2757 23.457 13.6555 23.6065 14.0006C23.756 14.3458 24.0092 14.6408 24.334 14.8483Z" fill="#56A6FC"/>
<path d="M8.64132 19.8889V58.6111C8.64132 59.3626 8.95349 60.0832 9.50916 60.6146C10.0648 61.1459 10.8185 61.4444 11.6043 61.4444H55.0611C55.8469 61.4444 56.6005 61.1459 57.1562 60.6146C57.7119 60.0832 58.024 59.3626 58.024 58.6111V15.1667H36.1969C34.5772 15.1659 33.0084 15.7079 31.7633 16.6985L30.2324 17.9188C28.6345 19.1905 26.6215 19.8875 24.5426 19.8889H8.64132Z" fill="#56A6FC"/>
<g style="mix-blend-mode:multiply">
<path fill-rule="evenodd" clip-rule="evenodd" d="M16.666 28.6893V70.1529C16.666 70.9964 17.0137 71.8053 17.6326 72.4017C18.2514 72.9981 19.0908 73.3332 19.966 73.3332H68.366C69.2412 73.3332 70.0806 72.9981 70.6995 72.4017C71.3183 71.8053 71.666 70.9964 71.666 70.1529V23.3889C71.666 22.2843 70.7706 21.3889 69.666 21.3889H47.356C45.5521 21.388 43.8048 21.9964 42.4181 23.1083L40.7131 24.478C38.9334 25.9054 36.6915 26.6877 34.376 26.6893H18.666C17.5614 26.6893 16.666 27.5848 16.666 28.6893ZM23.2663 46.8307H29.8663C31.6888 46.8307 33.1663 48.2546 33.1663 50.011V64.0416C33.1663 65.798 31.6888 67.2218 29.8663 67.2218H23.2663C21.4437 67.2218 19.9663 65.798 19.9663 64.0416V50.011C19.9663 48.2546 21.4437 46.8307 23.2663 46.8307ZM47.4715 46.8307H40.8715C39.049 46.8307 37.5715 48.2546 37.5715 50.011V64.0416C37.5715 65.798 39.049 67.2218 40.8715 67.2218H47.4715C49.294 67.2218 50.7715 65.798 50.7715 64.0416V50.011C50.7715 48.2546 49.294 46.8307 47.4715 46.8307ZM58.4686 46.8307H65.0686C66.8912 46.8307 68.3686 48.2545 68.3686 50.0109V64.0415C68.3686 65.798 66.8912 67.2218 65.0686 67.2218H58.4686C56.6461 67.2218 55.1686 65.798 55.1686 64.0415V50.0109C55.1686 48.2545 56.6461 46.8307 58.4686 46.8307ZM45.2663 29.8692H23.2663C21.4437 29.8692 19.9663 31.2931 19.9663 33.0495V39.41C19.9663 41.1665 21.4437 42.5903 23.2663 42.5903H45.2663C47.0888 42.5903 48.5663 41.1665 48.5663 39.41V33.0495C48.5663 31.2931 47.0888 29.8692 45.2663 29.8692ZM54.0686 31.9894H67.2686C67.5604 31.9894 67.8402 31.8777 68.0465 31.6789C68.2527 31.4801 68.3686 31.2105 68.3686 30.9293C68.3686 30.6482 68.2527 30.3785 68.0465 30.1797C67.8402 29.9809 67.5604 29.8692 67.2686 29.8692H54.0686C53.7769 29.8692 53.4971 29.9809 53.2908 30.1797C53.0845 30.3785 52.9686 30.6482 52.9686 30.9293C52.9686 31.2105 53.0845 31.4801 53.2908 31.6789C53.4971 31.8777 53.7769 31.9894 54.0686 31.9894ZM67.2686 37.2904H54.0686C53.7769 37.2904 53.4971 37.1787 53.2908 36.9799C53.0845 36.7811 52.9686 36.5115 52.9686 36.2303C52.9686 35.9492 53.0845 35.6795 53.2908 35.4807C53.4971 35.2819 53.7769 35.1702 54.0686 35.1702H67.2686C67.5604 35.1702 67.8402 35.2819 68.0465 35.4807C68.2527 35.6795 68.3686 35.9492 68.3686 36.2303C68.3686 36.5115 68.2527 36.7811 68.0465 36.9799C67.8402 37.1787 67.5604 37.2904 67.2686 37.2904ZM54.0686 42.5906H67.2686C67.5604 42.5906 67.8402 42.4789 68.0465 42.2801C68.2527 42.0813 68.3686 41.8117 68.3686 41.5305C68.3686 41.2494 68.2527 40.9797 68.0465 40.7809C67.8402 40.5821 67.5604 40.4704 67.2686 40.4704H54.0686C53.7769 40.4704 53.4971 40.5821 53.2908 40.7809C53.0845 40.9797 52.9686 41.2494 52.9686 41.5305C52.9686 41.8117 53.0845 42.0813 53.2908 42.2801C53.4971 42.4789 53.7769 42.5906 54.0686 42.5906Z" fill="#A943F9"/>
</g>
</svg>
