<svg width="40" height="40" viewBox="0 0 40 40" fill="none" xmlns="http://www.w3.org/2000/svg">
<path fill-rule="evenodd" clip-rule="evenodd" d="M24.9995 18.368C24.9995 16.507 23.5374 15 21.7337 15H3.71426C1.65637 15 -0.000488281 16.7091 -0.000488281 18.833V30.2276C-0.000488281 32.3514 1.65637 34.0605 3.71426 34.0605H5.59425C5.6788 34.0605 5.74734 34.1312 5.74734 34.2185V38.9039C5.74734 39.8614 6.85162 40.3538 7.52917 39.7064L13.309 34.1034C13.3374 34.0758 13.3749 34.0605 13.4138 34.0605H21.2835C23.3427 34.0605 24.9995 32.3514 24.9995 30.2276C24.9995 26.9407 24.9995 21.7574 24.9995 18.368ZM7.50522 25.6569C7.65544 25.7099 7.80611 25.7607 7.98203 25.7607C8.30817 25.7607 8.63475 25.6061 8.86031 25.3738C8.98615 25.2422 9.08674 25.1132 9.13682 24.9591C9.21215 24.8023 9.2374 24.6226 9.2374 24.4406C9.2374 24.2838 9.21215 24.1041 9.13682 23.9473C9.08631 23.7932 8.98572 23.6642 8.86031 23.5326C8.3835 23.042 7.55573 23.042 7.10331 23.5326C6.85249 23.768 6.72708 24.1041 6.72708 24.4406C6.72708 24.6226 6.75234 24.8023 6.82767 24.9591C6.87775 25.1132 6.9779 25.2422 7.10331 25.3738C7.20389 25.4749 7.35455 25.5787 7.50522 25.6569ZM13.0018 25.7607C12.8259 25.7607 12.6752 25.7099 12.525 25.6569C12.3743 25.5787 12.2237 25.4749 12.1231 25.3738C11.8723 25.1388 11.7469 24.8023 11.7469 24.4406C11.7469 24.2838 11.7721 24.1041 11.8474 23.9473C11.8975 23.7932 11.9977 23.6642 12.1231 23.5326C12.2209 23.4072 12.366 23.332 12.5125 23.256L12.525 23.2495C12.9765 23.0676 13.5539 23.1714 13.8796 23.5326C14.1309 23.7676 14.2563 24.1041 14.2563 24.4406C14.2563 24.8023 14.1309 25.1388 13.8796 25.3738C13.7799 25.4749 13.6288 25.5787 13.4782 25.6569C13.3279 25.7099 13.1777 25.7607 13.0018 25.7607ZM17.1428 25.3738C17.3688 25.6066 17.695 25.7607 18.0216 25.7607C18.3477 25.7607 18.6743 25.6061 18.9003 25.3738C19.1515 25.1388 19.2769 24.8023 19.2769 24.4406C19.2769 24.2838 19.2517 24.1041 19.1764 23.9473C19.1258 23.7932 19.0253 23.6642 18.8998 23.5326C18.4479 23.042 17.5953 23.042 17.1428 23.5326C16.892 23.768 16.7666 24.1041 16.7666 24.4406C16.7666 24.8023 16.892 25.1388 17.1428 25.3738Z" fill="white"/>
<path fill-rule="evenodd" clip-rule="evenodd" d="M39.9998 3.80788V14.7702C39.9998 16.8082 38.3496 18.4607 36.3134 18.4607H34.298V23.1113C34.298 24.0281 33.2048 24.5022 32.5364 23.8755L26.7656 18.4607H18.8973C16.8615 18.4607 15.2109 16.8086 15.2109 14.7702V3.80788C15.2109 1.76982 16.8611 0.117332 18.8973 0.117332H36.3134C38.3496 0.117332 39.9998 1.76982 39.9998 3.80788ZM32.5826 7.96612H22.6281C21.9407 7.96612 21.3837 7.40895 21.3837 6.72038C21.3837 6.0318 21.9407 5.47463 22.6281 5.47463H32.5826C33.27 5.47463 33.8269 6.0318 33.8269 6.72038C33.8269 7.40895 33.27 7.96612 32.5826 7.96612ZM22.6281 12.9491H32.5826C33.27 12.9491 33.8269 12.3919 33.8269 11.7033C33.8269 11.0148 33.27 10.4576 32.5826 10.4576H22.6281C21.9407 10.4576 21.3837 11.0148 21.3837 11.7033C21.3837 12.3919 21.9407 12.9491 22.6281 12.9491Z" fill="white"/>
</svg>
