<svg width="80" height="80" viewBox="0 0 80 80" fill="none" xmlns="http://www.w3.org/2000/svg">
<g clip-path="url(#clip0_3193_5719)">
<path d="M59.2486 61.5895C61.6695 59.9759 64.94 60.6301 66.5538 63.0509C68.1675 65.4717 67.5131 68.7423 65.0922 70.3559C62.5048 72.0809 54.3384 76.557 47.7114 76.557C42.9306 76.557 34.0081 75.3276 26.2042 72.9778C24.7763 72.5478 23.2691 72.3297 21.7247 72.3297H15.0452C9.80781 72.3297 5.54688 68.0687 5.54688 62.8314C5.54688 57.594 9.80781 53.3333 15.0452 53.3333H22.0792C26.0483 53.3333 28.6562 53.7398 30.7998 54.6928C35.9983 56.8154 38.5167 57.0579 44.4311 57.5778C47.3294 57.8326 49.4722 60.3886 49.2175 63.2867C49.1479 64.0787 48.9052 64.8152 48.53 65.4622C48.3476 65.6622 48.2088 65.8246 48.1373 65.919C47.2796 67.0512 45.924 67.6541 44.5118 67.5299C39.9088 67.1254 36.8682 66.4732 33.7188 65.6181C33.0941 65.4487 32.4504 65.8174 32.2809 66.442C32.1112 67.0665 32.4801 67.7102 33.1046 67.8799C36.3748 68.7677 39.5312 69.4451 44.3071 69.8648C44.4985 69.8813 44.6891 69.8898 44.8787 69.8898C48.0045 69.8902 50.0219 67.1379 51.2903 65.4073C51.3149 65.3739 51.3391 65.3408 51.363 65.3082C54.319 64.3618 57.6105 62.6815 59.2486 61.5895Z" fill="#A943F9"/>
<path d="M21.5302 14.9673C19.1092 16.5809 15.8387 15.9267 14.225 13.5059C12.6112 11.0851 13.2656 7.8145 15.6866 6.20091C18.2739 4.47591 26.4403 -0.000183685 33.0673 -0.000183105C37.8481 -0.000182688 46.7706 1.2292 54.5745 3.57904C56.0025 4.00904 57.5097 4.22716 59.0541 4.22716L65.7336 4.22716C70.9709 4.22716 75.2319 8.4881 75.2319 13.7254C75.2319 18.9628 70.9709 23.2236 65.7336 23.2236L58.6995 23.2236C54.7305 23.2236 52.1225 22.817 49.9789 21.864C44.7805 19.7414 42.262 19.4989 36.3477 18.979C33.4494 18.7242 31.3066 16.1683 31.5612 13.2701C31.6309 12.4782 31.8736 11.7417 32.2487 11.0946C32.4311 10.8946 32.57 10.7323 32.6415 10.6378C33.4991 9.50564 34.8548 8.90267 36.267 9.02689C40.8699 9.43142 43.9105 10.0836 47.0599 10.9388C47.6846 11.1081 48.3284 10.7394 48.4979 10.1149C48.6676 9.49033 48.2987 8.84658 47.6741 8.67689C44.404 7.78908 41.2476 7.11173 36.4716 6.69204C36.2802 6.67548 36.0896 6.66704 35.9001 6.66704C32.7742 6.66661 30.7569 9.4189 29.4884 11.1495C29.4639 11.183 29.4397 11.216 29.4157 11.2487C26.4598 12.195 23.1683 13.8753 21.5302 14.9673Z" fill="#A943F9"/>
<g style="mix-blend-mode:multiply">
<path d="M18.0742 41.0063C18.0742 51.7626 30.098 58.8462 36.3486 61.8251C37.6958 62.4671 39.2586 62.4671 40.6058 61.8251C46.8564 58.8462 58.8802 51.7626 58.8802 41.0063C58.8802 34.1524 53.3239 28.5962 46.47 28.5962C43.6931 28.5962 41.1298 29.5087 39.0623 31.0496C38.7142 31.309 38.2403 31.309 37.8922 31.0496C35.8247 29.5087 33.2613 28.5962 30.4845 28.5962C23.6305 28.5962 18.0742 34.1524 18.0742 41.0063Z" fill="#FF4BAD"/>
</g>
</g>
<defs>
<clipPath id="clip0_3193_5719">
<rect width="80" height="80" fill="white"/>
</clipPath>
</defs>
</svg>
