<svg width="100" height="100" viewBox="0 0 100 100" fill="none" xmlns="http://www.w3.org/2000/svg">
<g clip-path="url(#clip0_3456_4491)">
<path fill-rule="evenodd" clip-rule="evenodd" d="M68.1997 88.573L47.2609 81.5934C46.0167 81.1786 45.0403 80.2023 44.6256 78.9581L29.1582 32.5559L56.6662 60.0638C56.1626 61.3474 56.1163 62.7652 56.5351 64.0788C56.954 65.3925 57.8123 66.5219 58.9659 67.2771C60.1195 68.0323 61.4979 68.3672 62.8695 68.2256C64.241 68.084 65.5219 67.4745 66.4968 66.4995C67.4718 65.5246 68.0813 64.2436 68.2229 62.8721C68.3645 61.5006 68.0296 60.1222 67.2744 58.9686C66.5192 57.815 65.3898 56.9566 64.0761 56.5378C62.7625 56.119 61.3447 56.1653 60.0611 56.6688L32.5532 29.1609L78.9555 44.6283C80.1996 45.043 81.176 46.0194 81.5907 47.2635L88.5703 68.2024L92.8094 63.9633L97.9019 69.0558L69.0444 97.9133L63.9519 92.8208L68.1997 88.573Z" fill="#F9A457"/>
<g style="mix-blend-mode:multiply">
<path d="M5.89256 35.3552C2.63819 32.1008 2.63819 26.8245 5.89256 23.5701L23.5702 5.89243C26.8246 2.63806 32.101 2.63805 35.3553 5.89242L53.033 23.5701C56.2874 26.8245 56.2874 32.1008 53.033 35.3552L35.3553 53.0329C32.101 56.2872 26.8246 56.2872 23.5702 53.0329L5.89256 35.3552Z" fill="#FF4BAD"/>
</g>
</g>
<defs>
<clipPath id="clip0_3456_4491">
<rect width="100" height="100" fill="white"/>
</clipPath>
</defs>
</svg>
