<svg width="339" height="159" viewBox="0 0 339 159" fill="none" xmlns="http://www.w3.org/2000/svg">
<path d="M0 120.575C-6.43517e-09 145.308 12.4257 159 36.3895 159C60.3533 159 72.7789 145.529 72.7789 120.796V107.104C72.7789 90.3208 66.788 79.7208 54.8061 75.3042V74.8625C66.3442 70.6667 72.1133 60.2875 72.1133 43.725V38.2042C72.1133 13.4708 59.6876 1.17707e-06 36.3895 1.35739e-06C13.3132 1.53599e-06 0.665661 13.6917 0.665661 38.425V46.5958H23.7419V36.4375C23.7419 26.9417 27.7359 22.0833 35.5019 22.0833C43.7117 22.0833 47.7057 27.1625 47.7057 37.5417V48.8042C47.7057 60.5083 42.8242 65.1458 33.0612 65.1458H24.1857V87.2292H32.3955C43.7117 87.2292 48.3714 92.75 48.3714 106.883V119.471C48.3714 132.5 43.9336 136.917 35.7238 136.917C27.2921 136.917 23.0762 131.838 23.0762 121.679V107.988H3.29615e-09L0 120.575Z" fill="white"/>
<path d="M85.8755 120.133C85.8755 144.867 98.9668 159 122.931 159C146.894 159 159.986 144.867 159.986 120.133V38.8667C159.986 14.1333 146.894 5.02128e-07 122.931 6.87599e-07C98.9668 8.73069e-07 85.8755 14.1333 85.8755 38.8667V120.133ZM135.578 121.679C135.578 131.838 131.362 136.917 122.931 136.917C114.499 136.917 110.283 131.838 110.283 121.679V37.3208C110.283 27.1625 114.499 22.0833 122.931 22.0833C131.362 22.0833 135.578 27.1625 135.578 37.3208V121.679Z" fill="white"/>
<path d="M174.717 120.133C174.717 144.867 187.808 159 211.772 159C235.736 159 248.827 144.867 248.827 120.133V38.8667C248.827 14.1333 235.736 -1.8547e-07 211.772 0C187.808 1.8547e-07 174.717 14.1333 174.717 38.8667V120.133ZM224.42 121.679C224.42 131.838 220.204 136.917 211.772 136.917C203.34 136.917 199.125 131.838 199.125 121.679V37.3208C199.125 27.1625 203.34 22.0833 211.772 22.0833C220.204 22.0833 224.42 27.1625 224.42 37.3208V121.679Z" fill="white"/>
<path d="M309.267 129.188V98.9333H339V81.7083H309.267V51.8958H291.96V81.7083H262.227V98.9333H291.96V129.188H309.267Z" fill="white"/>
</svg>
