<svg width="88" height="96" viewBox="0 0 88 96" fill="none" xmlns="http://www.w3.org/2000/svg">
<path d="M87.2727 36.1818H61.6364C61.4545 34.0606 60.9697 32.1364 60.1818 30.4091C59.4242 28.6818 58.3636 27.197 57 25.9545C55.6667 24.6818 54.0455 23.7121 52.1364 23.0455C50.2273 22.3485 48.0606 22 45.6364 22C41.3939 22 37.803 23.0303 34.8636 25.0909C31.9545 27.1515 29.7424 30.1061 28.2273 33.9545C26.7424 37.803 26 42.4242 26 47.8182C26 53.5152 26.7576 58.2879 28.2727 62.1364C29.8182 65.9545 32.0455 68.8333 34.9545 70.7727C37.8636 72.6818 41.3636 73.6364 45.4545 73.6364C47.7879 73.6364 49.8788 73.3485 51.7273 72.7727C53.5758 72.1667 55.1818 71.303 56.5455 70.1818C57.9091 69.0606 59.0152 67.7121 59.8636 66.1364C60.7424 64.5303 61.3333 62.7273 61.6364 60.7273L87.2727 60.9091C86.9697 64.8485 85.8636 68.8636 83.9545 72.9545C82.0455 77.0152 79.3333 80.7727 75.8182 84.2273C72.3333 87.6515 68.0152 90.4091 62.8636 92.5C57.7121 94.5909 51.7273 95.6364 44.9091 95.6364C36.3636 95.6364 28.697 93.803 21.9091 90.1364C15.1515 86.4697 9.80303 81.0758 5.86364 73.9545C1.95455 66.8333 0 58.1212 0 47.8182C0 37.4545 2 28.7273 6 21.6364C10 14.5152 15.3939 9.13636 22.1818 5.5C28.9697 1.83333 36.5455 0 44.9091 0C50.7879 0 56.197 0.803029 61.1364 2.40909C66.0758 4.01515 70.4091 6.36364 74.1364 9.45454C77.8636 12.5152 80.8636 16.2879 83.1364 20.7727C85.4091 25.2576 86.7879 30.3939 87.2727 36.1818Z" fill="white"/>
</svg>
