<svg class="ani" width="503" height="206" viewBox="0 0 503 206" fill="none" xmlns="http://www.w3.org/2000/svg">
                            <path
                                d="M57.9476 187.251C113.751 195.674 170.172 200.427 226.499 202.872C301.384 206.122 378.141 202.133 450.516 173.605C470.234 165.833 513.593 148.733 497.955 114.151C491.911 100.786 481.045 90.6779 470.972 82.0868C442.669 57.9484 410.492 41.2594 377.191 29.0967C310.688 4.80724 237.071 -3.0645 167.251 4.32947C134.993 7.74553 102.747 15.6226 72.4083 30.2084C47.8412 42.0193 20.6534 60.0279 7.99894 89.5594C-13.8979 140.66 30.2181 171.154 65.1226 181.167C154.419 206.784 250.218 190.583 340.581 175.504"
                                stroke="#F5851E" stroke-width="3" stroke-linecap="round" class="svg-elem-1"></path>
                        </svg>