<svg width="241" height="124" viewBox="0 0 241 124" fill="none" xmlns="http://www.w3.org/2000/svg">
<path d="M238.782 2.44922C223.521 9.96569 211.126 20.1969 201.345 34.3248C197.993 39.1661 194.821 44.7198 201.481 47.3463C208.156 49.9788 222.17 50.1428 224.472 41.4459C227.796 28.8873 206.134 28.0645 198.904 27.5428C180.802 26.2365 159.672 28.342 147.36 43.684C140.055 52.7877 152.212 55.6204 159.296 55.6204C163.731 55.6204 171.164 55.6289 174.488 51.9581C178.491 47.5381 172.996 42.6633 169.198 41.1068C146.484 31.7979 113.553 39.7447 91.883 47.2107C69.8974 54.7855 49.8274 65.597 33.2861 82.1382C21.3026 94.1217 11.672 108.273 1.95312 122.084" stroke="#F5851E" stroke-width="3" stroke-linecap="round"/>
</svg>
