<svg class="ani" width="144" height="51" viewBox="0 0 144 51" fill="none" xmlns="http://www.w3.org/2000/svg">
                            <path
                                d="M1.85807 25.6141C34.9439 21.3978 68.6482 16.355 101.149 8.66622C111.998 6.09958 122.348 2.95941 133.573 2.56741C135.968 2.48378 146.439 0.987135 139.112 3.16232C122.359 8.13569 105.179 10.6244 88.094 14.0886C69.5597 17.8468 13.7154 26.6191 32.6153 25.9591C51.5766 25.2969 70.6251 20.9544 89.4345 18.6142C93.3538 18.1266 102.924 15.857 94.6422 18.7477C79.6977 23.964 64.9217 27.8796 49.242 30.2661C44.5874 30.9746 35.1754 31.5457 35.1754 31.5457C35.1754 31.5457 48.0884 31.0948 54.5449 30.8693C71.6048 30.2736 122.654 26.9503 105.727 29.1608C97.0278 30.2969 71.372 32.0482 79.8868 34.1625C82.0907 34.7098 90.2039 32.075 90.1859 35.6161C90.1624 40.2581 81.4308 41.2825 90.0579 40.9812C102.731 40.5387 80.0163 51.8203 93.4549 47.9577"
                                stroke="#2686EC" stroke-width="3" stroke-linecap="round" class="svg-elem-1"></path>
                        </svg>