<svg width="121" height="121" viewBox="0 0 121 121" fill="none" xmlns="http://www.w3.org/2000/svg">
<rect x="0.09375" y="0.0913086" width="120" height="120" fill="#1E1E1E"/>
<g clip-path="url(#clip0_436_3856)">
<path d="M48.654 94.6649C55.0158 94.6649 60.1791 89.5017 60.1791 83.1398V71.6147H48.654C42.2921 71.6147 37.1289 76.778 37.1289 83.1398C37.1289 89.5017 42.2921 94.6649 48.654 94.6649Z" fill="#0ACF83"/>
<path d="M37.1289 60.09C37.1289 53.7282 42.2921 48.5649 48.654 48.5649H60.1791V71.6151H48.654C42.2921 71.6151 37.1289 66.4519 37.1289 60.09Z" fill="#A259FF"/>
<path d="M37.1289 37.0397C37.1289 30.6779 42.2921 25.5146 48.654 25.5146H60.1791V48.5648H48.654C42.2921 48.5648 37.1289 43.4016 37.1289 37.0397Z" fill="#F24E1E"/>
<path d="M60.1797 25.5146H71.7048C78.0666 25.5146 83.2299 30.6779 83.2299 37.0397C83.2299 43.4016 78.0666 48.5648 71.7048 48.5648H60.1797V25.5146Z" fill="#FF7262"/>
<path d="M83.2299 60.09C83.2299 66.4519 78.0666 71.6151 71.7048 71.6151C65.3429 71.6151 60.1797 66.4519 60.1797 60.09C60.1797 53.7282 65.3429 48.5649 71.7048 48.5649C78.0666 48.5649 83.2299 53.7282 83.2299 60.09Z" fill="#1ABCFE"/>
</g>
<defs>
<clipPath id="clip0_436_3856">
<rect width="69.1505" height="69.1505" fill="white" transform="translate(25.5156 25.5146)"/>
</clipPath>
</defs>
</svg>
