<svg width="96" height="96" viewBox="0 0 96 96" fill="none" xmlns="http://www.w3.org/2000/svg">
<rect width="96" height="96" fill="white"/>
<path d="M47.9983 39.5267C50.2864 39.5267 52.1412 37.675 52.1412 35.3908C52.1412 33.1066 50.2864 31.2549 47.9983 31.2549C45.7103 31.2549 43.8555 33.1066 43.8555 35.3908C43.8555 37.675 45.7103 39.5267 47.9983 39.5267Z" fill="#2AC44D"/>
<path fill-rule="evenodd" clip-rule="evenodd" d="M27.4939 14.9199C22.0554 20.3491 19 27.7126 19 35.3905C19 43.0684 22.0554 50.432 27.4939 55.8611C28.3028 56.6686 29.615 56.6686 30.4229 55.8611C31.2318 55.0536 31.2318 53.7436 30.4229 52.9371C25.7622 48.2835 23.1429 41.9714 23.1429 35.3905C23.1429 28.8096 25.7622 22.4975 30.4229 17.8439C31.2318 17.0374 31.2318 15.7274 30.4229 14.9199C29.615 14.1125 28.3028 14.1125 27.4939 14.9199Z" fill="#2AC44D"/>
<path fill-rule="evenodd" clip-rule="evenodd" d="M33.3524 20.7689C29.4674 24.6472 27.2852 29.9067 27.2852 35.3906C27.2852 40.8745 29.4674 46.1341 33.3524 50.0123C34.1602 50.8198 35.4735 50.8198 36.2814 50.0123C37.0903 49.2059 37.0903 47.8948 36.2814 47.0884C33.1742 43.9856 31.428 39.7775 31.428 35.3906C31.428 31.0037 33.1742 26.7957 36.2814 23.6929C37.0903 22.8864 37.0903 21.5754 36.2814 20.7689C35.4735 19.9615 34.1602 19.9615 33.3524 20.7689Z" fill="#2AC44D"/>
<path fill-rule="evenodd" clip-rule="evenodd" d="M39.2108 26.6177C36.8795 28.944 35.5703 32.0995 35.5703 35.3905C35.5703 38.6815 36.8795 41.837 39.2108 44.1633C40.0187 44.9708 41.332 44.9708 42.1399 44.1633C42.9487 43.3569 42.9487 42.0458 42.1399 41.2394C40.5863 39.6885 39.7132 37.5845 39.7132 35.3905C39.7132 33.1965 40.5863 31.0925 42.1399 29.5416C42.9487 28.7352 42.9487 27.4242 42.1399 26.6177C41.332 25.8102 40.0187 25.8102 39.2108 26.6177Z" fill="#2AC44D"/>
<path fill-rule="evenodd" clip-rule="evenodd" d="M65.5754 17.8439C70.2361 22.4975 72.8555 28.8096 72.8555 35.3905C72.8555 41.9714 70.2361 48.2835 65.5754 52.9371C64.7665 53.7436 64.7665 55.0536 65.5754 55.8611C66.3833 56.6686 67.6955 56.6686 68.5044 55.8611C73.943 50.432 76.9983 43.0684 76.9983 35.3905C76.9983 27.7126 73.943 20.3491 68.5044 14.9199C67.6955 14.1125 66.3833 14.1125 65.5754 14.9199C64.7665 15.7274 64.7665 17.0374 65.5754 17.8439Z" fill="#2AC44D"/>
<path fill-rule="evenodd" clip-rule="evenodd" d="M59.716 23.6929C62.8232 26.7957 64.5694 31.0037 64.5694 35.3906C64.5694 39.7775 62.8232 43.9856 59.716 47.0884C58.9072 47.8948 58.9072 49.2059 59.716 50.0123C60.5239 50.8198 61.8372 50.8198 62.645 50.0123C66.53 46.1341 68.7123 40.8745 68.7123 35.3906C68.7123 29.9067 66.53 24.6472 62.645 20.7689C61.8372 19.9615 60.5239 19.9615 59.716 20.7689C58.9072 21.5754 58.9072 22.8864 59.716 23.6929Z" fill="#2AC44D"/>
<path fill-rule="evenodd" clip-rule="evenodd" d="M53.8606 29.5416C55.4141 31.0925 56.2873 33.1965 56.2873 35.3905C56.2873 37.5845 55.4141 39.6885 53.8606 41.2394C53.0517 42.0458 53.0517 43.3569 53.8606 44.1633C54.6684 44.9708 55.9817 44.9708 56.7896 44.1633C59.121 41.837 60.4301 38.6815 60.4301 35.3905C60.4301 32.0995 59.121 28.944 56.7896 26.6177C55.9817 25.8102 54.6684 25.8102 53.8606 26.6177C53.0517 27.4242 53.0517 28.7352 53.8606 29.5416Z" fill="#2AC44D"/>
</svg>
