<svg width="121" height="121" viewBox="0 0 121 121" fill="none" xmlns="http://www.w3.org/2000/svg">
<rect x="0.238281" y="0.230957" width="120" height="120" fill="#FF6B17"/>
<path d="M42.1517 97.231C39.52 97.231 37.2067 96.8507 35.2117 96.0901C33.2168 95.2873 31.5401 94.0197 30.1819 92.2873C28.866 90.5126 27.8686 88.1887 27.1894 85.3155C26.5527 82.4422 26.2344 78.9141 26.2344 74.731C26.2344 70.5056 26.5527 66.9774 27.1894 64.1464C27.8686 61.2732 28.866 58.9493 30.1819 57.1746C31.5401 55.4 33.2168 54.1324 35.2117 53.3718C37.2067 52.6112 39.52 52.231 42.1517 52.231C44.8258 52.231 47.1391 52.6112 49.0916 53.3718C51.0441 54.1324 52.6783 55.4 53.9941 57.1746C55.3524 58.9493 56.3499 61.2732 56.9866 64.1464C57.6657 66.9774 58.0053 70.5056 58.0053 74.731C58.0053 78.9141 57.6657 82.4422 56.9866 85.3155C56.3499 88.1887 55.3524 90.5126 53.9941 92.2873C52.6783 94.0197 51.0441 95.2873 49.0916 96.0901C47.1391 96.8507 44.8258 97.231 42.1517 97.231ZM42.1517 90.3859C44.0193 90.3859 45.4412 89.9 46.4175 88.9281C47.3938 87.9141 48.0729 86.3929 48.4549 84.3648C48.8369 82.3366 49.0279 79.8014 49.0279 76.7591V72.8295C49.0279 69.745 48.8369 67.1887 48.4549 65.1605C48.0729 63.0901 47.3938 61.5479 46.4175 60.5338C45.4412 59.5197 44.0193 59.0126 42.1517 59.0126C40.284 59.0126 38.8409 59.5197 37.8222 60.5338C36.8459 61.5479 36.1668 63.069 35.7848 65.0972C35.4027 67.0831 35.2117 69.6183 35.2117 72.7028V76.6324C35.2117 79.7169 35.4027 82.2943 35.7848 84.3648C36.1668 86.3929 36.8459 87.9141 37.8222 88.9281C38.8409 89.9 40.284 90.3859 42.1517 90.3859Z" fill="white"/>
<path d="M66.1376 96.4704V89.3718H76.5793V63.7028H66.0739V58.3788C67.4746 58.2521 69.0876 57.9352 70.9127 57.4281C72.7804 56.8788 74.648 56.2239 76.5156 55.4634C78.3833 54.6605 80.0599 53.8155 81.5455 52.9281H85.493V89.3718H95.2344V96.4704H66.1376Z" fill="white"/>
<path d="M34.8133 42.6523L37.9567 23.4924H40.9504L37.807 42.6523H34.8133ZM26.2344 37.8997L26.7302 34.906H41.6988L41.203 37.8997H26.2344ZM28.0774 42.6523L31.2208 23.4924H34.2145L31.0711 42.6523H28.0774ZM27.329 31.2387L27.8341 28.245H42.8028L42.2976 31.2387H27.329Z" fill="white"/>
<path d="M43.4804 26.8323V23.4924H59.2162V26.8323H53.3503V42.6523H49.3462V26.8323H43.4804Z" fill="white"/>
<path d="M78.0128 33.0723C78.0128 35.1617 77.6168 36.9392 76.8247 38.4049C76.0388 39.8706 74.9661 40.9901 73.6064 41.7635C72.253 42.5307 70.7312 42.9142 69.041 42.9142C67.3383 42.9142 65.8103 42.5275 64.4569 41.7542C63.1035 40.9808 62.0338 39.8612 61.248 38.3956C60.4621 36.9299 60.0692 35.1555 60.0692 33.0723C60.0692 30.983 60.4621 29.2054 61.248 27.7398C62.0338 26.2741 63.1035 25.1577 64.4569 24.3905C65.8103 23.6172 67.3383 23.2305 69.041 23.2305C70.7312 23.2305 72.253 23.6172 73.6064 24.3905C74.9661 25.1577 76.0388 26.2741 76.8247 27.7398C77.6168 29.2054 78.0128 30.983 78.0128 33.0723ZM73.9058 33.0723C73.9058 31.7189 73.7031 30.5776 73.2977 29.6483C72.8986 28.719 72.3341 28.0142 71.6044 27.534C70.8747 27.0537 70.0202 26.8136 69.041 26.8136C68.0618 26.8136 67.2074 27.0537 66.4776 27.534C65.7479 28.0142 65.1804 28.719 64.775 29.6483C64.3758 30.5776 64.1762 31.7189 64.1762 33.0723C64.1762 34.4258 64.3758 35.5671 64.775 36.4964C65.1804 37.4257 65.7479 38.1305 66.4776 38.6107C67.2074 39.091 68.0618 39.3311 69.041 39.3311C70.0202 39.3311 70.8747 39.091 71.6044 38.6107C72.3341 38.1305 72.8986 37.4257 73.2977 36.4964C73.7031 35.5671 73.9058 34.4258 73.9058 33.0723Z" fill="white"/>
<path d="M80.4867 42.6523V23.4924H88.0458C89.4991 23.4924 90.7371 23.77 91.7599 24.3251C92.7828 24.8739 93.5624 25.6379 94.0988 26.6171C94.6414 27.5901 94.9127 28.7127 94.9127 29.9851C94.9127 31.2574 94.6383 32.38 94.0894 33.353C93.5406 34.326 92.7454 35.0838 91.7038 35.6264C90.6685 36.169 89.4149 36.4403 87.9429 36.4403H83.1249V33.194H87.2881C88.0677 33.194 88.7101 33.0599 89.2153 32.7917C89.7267 32.5173 90.1072 32.1399 90.3566 31.6597C90.6123 31.1732 90.7402 30.615 90.7402 29.9851C90.7402 29.3489 90.6123 28.7938 90.3566 28.3198C90.1072 27.8396 89.7267 27.4685 89.2153 27.2065C88.7038 26.9383 88.0552 26.8042 87.2693 26.8042H84.5376V42.6523H80.4867Z" fill="white"/>
</svg>
