<svg width="238" height="238" viewBox="0 0 238 238" fill="none" xmlns="http://www.w3.org/2000/svg">
<path d="M0 119C9.84238e-08 117.874 0.015977 116.748 0.047926 115.623L20.9785 116.217C20.9522 117.145 20.939 118.072 20.939 119H0Z" fill="#C8FFD4"/>
<path d="M230.849 78.3703C231.234 79.4285 231.603 80.4921 231.957 81.5608L212.081 88.1485C211.79 87.2679 211.485 86.3914 211.168 85.5195L230.849 78.3703Z" fill="#C8FFD4"/>
<path d="M213.173 46.2503C213.861 47.1413 214.536 48.0419 215.199 48.952L198.272 61.2775C197.726 60.5276 197.169 59.7854 196.602 59.0512L213.173 46.2503Z" fill="#C8FFD4"/>
<path d="M6.96357 78.8897C7.34305 77.8297 7.73755 76.7752 8.14695 75.7264L27.6524 83.3408C27.3151 84.205 26.99 85.074 26.6773 85.9474L6.96357 78.8897Z" fill="#C8FFD4"/>
<path d="M30.7891 39.1262C31.5447 38.2916 32.3122 37.4679 33.0912 36.6551L48.2075 51.1444C47.5656 51.8141 46.9332 52.4929 46.3105 53.1806L30.7891 39.1262Z" fill="#C8FFD4"/>
<path d="M184.458 19.6206C185.398 20.2398 186.329 20.8724 187.252 21.5181L175.242 38.6708C174.482 38.1388 173.715 37.6175 172.94 37.1072L184.458 19.6206Z" fill="#C8FFD4"/>
<path d="M143.708 2.5934C144.81 2.82716 145.908 3.07653 147.002 3.34145L142.075 23.6925C141.173 23.4742 140.268 23.2687 139.361 23.0761L143.708 2.5934Z" fill="#C8FFD4"/>
<path d="M97.9886 1.86964C99.0967 1.67086 100.208 1.48781 101.321 1.32056L104.432 22.0272C103.514 22.165 102.599 22.3159 101.686 22.4797L97.9886 1.86964Z" fill="#C8FFD4"/>
<path d="M60.9119 15.1406C61.8945 14.591 62.8848 14.0555 63.8826 13.534L73.5809 32.0916C72.7587 32.5213 71.9427 32.9626 71.133 33.4155L60.9119 15.1406Z" fill="#C8FFD4"/>
</svg>
