<svg width="25" height="25" viewBox="0 0 25 25" fill="none" xmlns="http://www.w3.org/2000/svg">
<path d="M8.0808 22.6025L2.10938 20.9525V14.0046C2.10938 12.7549 3.24269 11.8113 4.4717 12.0377L8.0808 12.7025L14.5951 11.6025L19.6004 12.8703C20.4879 13.0951 21.1094 13.8937 21.1094 14.8091V22.6025L14.5951 20.9525L8.0808 22.6025Z" fill="#1EC0F2"/>
<g style="mix-blend-mode:multiply">
<path fill-rule="evenodd" clip-rule="evenodd" d="M11.2968 3.07373H11.8942C14.9404 3.07373 17.4098 5.54314 17.4098 8.58932C17.4098 10.1343 16.7961 11.6161 15.7036 12.7085L11.5955 16.8166L7.48749 12.7085C6.395 11.6161 5.78125 10.1343 5.78125 8.58932C5.78125 5.54314 8.25066 3.07373 11.2968 3.07373ZM11.5955 11.5309C13.3471 11.5309 14.767 10.111 14.767 8.35944C14.767 6.60791 13.3471 5.18802 11.5955 5.18802C9.844 5.18802 8.42411 6.60791 8.42411 8.35944C8.42411 10.111 9.844 11.5309 11.5955 11.5309Z" fill="#FF4BAD"/>
</g>
</svg>
