<svg width="24" height="21" viewBox="0 0 24 21" fill="none" xmlns="http://www.w3.org/2000/svg">
<path d="M21.1094 0.602539H9.10938C8.00481 0.602539 7.10938 1.49797 7.10938 2.60254V10.6025C7.10938 11.7071 8.00481 12.6025 9.10938 12.6025H21.1094C22.2139 12.6025 23.1094 11.7071 23.1094 10.6025V2.60254C23.1094 1.49797 22.2139 0.602539 21.1094 0.602539Z" fill="#FF4BAD"/>
<g style="mix-blend-mode:multiply">
<path fill-rule="evenodd" clip-rule="evenodd" d="M4.4565 20.6025H13.7706C17.1042 20.6025 18.1177 19.5647 18.1093 16.1485V10.2242H0.109375V16.1571C0.109375 19.5647 1.12287 20.6025 4.4565 20.6025ZM0.109811 8.92686H18.1089C18.0848 5.61573 17.056 4.60254 13.7622 4.60254H4.4565C1.16268 4.60254 0.133915 5.61573 0.109811 8.92686ZM5.76315 17.1431H4.08796C3.74454 17.1431 3.45976 16.849 3.45976 16.4944C3.45976 16.1398 3.74454 15.8458 4.08796 15.8458H5.76315C6.10657 15.8458 6.39135 16.1398 6.39135 16.4944C6.39135 16.849 6.10657 17.1431 5.76315 17.1431ZM7.85714 17.1431H11.2075C11.5509 17.1431 11.8357 16.849 11.8357 16.4944C11.8357 16.1398 11.5509 15.8458 11.2075 15.8458H7.85714C7.51373 15.8458 7.22895 16.1398 7.22895 16.4944C7.22895 16.849 7.51373 17.1431 7.85714 17.1431Z" fill="#1EC0F2"/>
</g>
</svg>
