<svg width="25" height="25" viewBox="0 0 25 25" fill="none" xmlns="http://www.w3.org/2000/svg">
<path fill-rule="evenodd" clip-rule="evenodd" d="M21.1082 9.53506C21.1082 10.4011 20.4061 11.1032 19.5401 11.1032H18.8584V18.3526C18.8584 18.7668 18.5226 19.1025 18.1084 19.1025C17.6942 19.1025 17.3585 18.7668 17.3585 18.3526V11.1032H15.1086V18.3526C15.1086 18.7668 14.7728 19.1025 14.3587 19.1025C13.9445 19.1025 13.6087 18.7668 13.6087 18.3526V11.1032H10.6089V18.3526C10.6089 18.7668 10.2731 19.1025 9.85894 19.1025C9.44476 19.1025 9.10899 18.7668 9.10899 18.3526V11.1032H6.85914V18.3526C6.85914 18.7668 6.52337 19.1025 6.10918 19.1025C5.695 19.1025 5.35923 18.7668 5.35923 18.3526V11.1032H4.67753C3.81146 11.1032 3.10938 10.4011 3.10938 9.53506C3.1093 9.13087 3.21811 8.73412 3.42438 8.38651C3.63064 8.03891 3.92674 7.75329 4.28155 7.55969L11.0311 3.87817C11.3615 3.69733 11.7321 3.60254 12.1088 3.60254C12.4855 3.60254 12.8561 3.69733 13.1865 3.87817L19.9361 7.55969C20.2909 7.75329 20.587 8.03891 20.7932 8.38651C20.9995 8.73412 21.1083 9.13087 21.1082 9.53506ZM19.5033 9.15221C19.5721 9.26808 19.6083 9.40033 19.6083 9.53506V9.60331H4.60928V9.53506C4.60925 9.40033 4.64553 9.26808 4.71428 9.15221C4.78304 9.03634 4.88174 8.94114 5 8.8766L11.7496 5.19509C11.8598 5.13496 11.9833 5.10345 12.1088 5.10345C12.2343 5.10345 12.3578 5.13496 12.468 5.19509L19.2176 8.8766C19.3359 8.94114 19.4346 9.03634 19.5033 9.15221Z" fill="#1EC0F2"/>
<path d="M19.6083 9.53506C19.6083 9.40033 19.5721 9.26808 19.5033 9.15221C19.4346 9.03634 19.3359 8.94114 19.2176 8.8766L12.468 5.19509C12.3578 5.13496 12.2343 5.10345 12.1088 5.10345C11.9833 5.10345 11.8598 5.13496 11.7496 5.19509L5 8.8766C4.88174 8.94114 4.78304 9.03634 4.71428 9.15221C4.64553 9.26808 4.60925 9.40033 4.60928 9.53506V9.60331H19.6083V9.53506Z" fill="#1EC0F2"/>
<g style="mix-blend-mode:multiply">
<path d="M2.10938 17.6025C2.10938 16.498 3.00481 15.6025 4.10938 15.6025H20.1094C21.2139 15.6025 22.1094 16.498 22.1094 17.6025V18.6025C22.1094 19.7071 21.2139 20.6025 20.1094 20.6025H4.10938C3.00481 20.6025 2.10938 19.7071 2.10938 18.6025V17.6025Z" fill="#FF4BAD"/>
</g>
</svg>
