<svg width="40" height="41" viewBox="0 0 40 41" fill="none" xmlns="http://www.w3.org/2000/svg">
<g clip-path="url(#clip0_577_1868)">
<path d="M10.625 17.4016C8.68641 17.4016 7.10938 18.9786 7.10938 20.9172V30.4485C7.10938 32.3871 8.68641 33.9641 10.625 33.9641C12.5636 33.9641 14.1406 32.3871 14.1406 30.4485V20.9172C14.1406 18.9786 12.5636 17.4016 10.625 17.4016Z" fill="white"/>
<path d="M4.76562 20.9172C4.76562 20.5792 4.81023 20.2526 4.86547 19.9302C3.45313 20.3867 2.42188 21.6985 2.42188 23.261V28.1047C2.42188 29.6671 3.45313 30.979 4.86547 31.4355C4.81023 31.1131 4.76562 30.7865 4.76562 30.4485V20.9172Z" fill="white"/>
<path d="M29.375 17.4016C27.4364 17.4016 25.8594 18.9786 25.8594 20.9172V30.4485C25.8594 32.3871 27.4364 33.9641 29.375 33.9641C29.7273 33.9641 30.0611 33.8963 30.3822 33.7994C29.9459 35.2454 28.6176 36.3079 27.0312 36.3079H23.2998C22.8144 34.9468 21.5258 33.9641 20 33.9641C18.0614 33.9641 16.4844 35.5411 16.4844 37.4797C16.4844 39.4183 18.0614 40.9954 20 40.9954C21.5258 40.9954 22.8144 40.0127 23.2998 38.6516H27.0312C30.262 38.6516 32.8906 36.0229 32.8906 32.7922V30.4485V20.9172C32.8906 18.9786 31.3136 17.4016 29.375 17.4016Z" fill="white"/>
<path d="M35.1348 19.9302C35.19 20.2526 35.2346 20.5792 35.2346 20.9172V30.4485C35.2346 30.7865 35.19 31.1131 35.1348 31.4355C36.5471 30.979 37.5784 29.6671 37.5784 28.1047V23.261C37.5784 21.6985 36.5471 20.3867 35.1348 19.9302Z" fill="white"/>
<path d="M20 0.995361C10.3069 0.995361 2.42188 8.88036 2.42188 18.5735V18.6034C3.12008 18.0748 3.92789 17.688 4.8193 17.5148C5.36703 9.60872 11.9573 3.33911 20 3.33911C28.0427 3.33911 34.633 9.60872 35.1807 17.5147C36.072 17.6879 36.8798 18.0748 37.5781 18.6033V18.5735C37.5781 8.88036 29.6931 0.995361 20 0.995361Z" fill="white"/>
</g>
<defs>
<clipPath id="clip0_577_1868">
<rect width="40" height="40" fill="white" transform="translate(0 0.995361)"/>
</clipPath>
</defs>
</svg>
