<svg width="1916" height="158" viewBox="0 0 1916 158" fill="none" xmlns="http://www.w3.org/2000/svg">
<path d="M1.5332 99.0179C22.5637 79.059 28.5623 71.1418 62.2291 57.6253C206.741 -0.393089 362.223 -4.00843 515.558 6.58101C630.179 14.4969 746.548 34.1625 855.853 70.5605C894.317 83.3688 931.295 98.327 970.479 109.267C1051.24 131.814 1133.34 145.951 1217.04 151.754C1319 158.822 1433.38 162.948 1530.07 123.296C1554.42 113.313 1595.62 89.9347 1575.55 57.8243C1565.04 41.0139 1546.33 30.4494 1528.88 22.4017C1520.59 18.5773 1505.55 11.5976 1495.55 12.1531C1493.1 12.2893 1498.05 16.6195 1500.12 17.9242C1528.32 35.6097 1562.07 47.3914 1593.76 56.4313C1650.74 72.6883 1709.44 81.725 1768.58 84.4907C1818.08 86.8054 1865.22 80.5964 1914.35 77.5256" stroke="#F41E92" stroke-width="3" stroke-linecap="round"/>
</svg>
