<svg width="24" height="24" viewBox="0 0 24 24" fill="none" xmlns="http://www.w3.org/2000/svg">
<path d="M19.1245 9.35303V16.1255C19.1245 16.283 19.0908 16.4368 19.0308 16.5793L15.082 12.038L19.1245 9.35303Z" fill="#F5851E"/>
<path d="M19.125 7.875V8.4525L14.3137 11.6512C12.9262 12.5738 11.1187 12.5696 9.735 11.6434L4.875 8.3925V7.875C4.875 7.2525 5.3775 6.75 6 6.75H18C18.6225 6.75 19.125 7.2525 19.125 7.875Z" fill="#F5851E"/>
<path d="M14.4441 12.4499L18.5128 17.1261C18.3516 17.2086 18.1791 17.2499 17.9991 17.2499H5.99906C5.86406 17.2499 5.72906 17.2236 5.60156 17.1786L9.60281 12.4424C11.1028 13.3049 12.9441 13.3049 14.4441 12.4499Z" fill="#F5851E"/>
<path d="M8.97 12.0342L5.02875 16.6917C4.9275 16.5192 4.875 16.3242 4.875 16.1255V9.29297L8.97 12.0342Z" fill="#F5851E"/>
</svg>
