<svg width="24" height="24" viewBox="0 0 24 24" fill="none" xmlns="http://www.w3.org/2000/svg">
<path d="M16.5 9.75C18.135 9.75 19.5 11.115 19.5 12.75C19.5 14.385 18.135 15.75 16.5 15.75V9.75Z" fill="#F5851E"/>
<path d="M17.2241 16.4295C17.4904 16.377 17.7491 16.2982 17.9966 16.1895C17.9629 17.6145 16.7966 18.7507 15.3716 18.7507H15.3604C15.4091 18.5032 15.4091 18.2482 15.3604 18.0007H15.3716C16.2904 18.0007 17.0741 17.337 17.2241 16.4295Z" fill="#F5851E"/>
<path d="M17.9386 9.28806C17.6836 9.17931 17.4136 9.10056 17.1398 9.05556C16.6523 6.71556 14.5673 4.95681 12.1786 4.87431C9.65859 4.79181 7.37484 6.58431 6.85734 9.05556C6.58359 9.10056 6.31359 9.17931 6.05859 9.28806C6.47484 6.32181 9.11109 4.07556 12.1036 4.12431C15.0173 4.17306 17.5336 6.40431 17.9386 9.28806Z" fill="#F5851E"/>
<path d="M12 10.125C13.4288 10.125 14.625 11.3212 14.625 12.75C14.625 14.1788 13.4288 15.375 12 15.375C10.5712 15.375 9.375 14.1788 9.375 12.75C9.375 11.3212 10.5712 10.125 12 10.125ZM13.5 13.125C13.9837 13.125 13.9837 12.375 13.5 12.375H12.375V11.25C12.375 10.7663 11.625 10.7663 11.625 11.25V12.375C11.625 12.7875 11.9625 13.125 12.375 13.125H13.5Z" fill="#F5851E"/>
<path d="M12.3984 18.3751C12.3984 16.9238 14.6484 16.9238 14.6484 18.3751C14.6484 19.8263 12.3984 19.8263 12.3984 18.3751Z" fill="#F5851E"/>
<path d="M7.5 9.75V15.75C5.865 15.75 4.5 14.385 4.5 12.75C4.5 11.115 5.865 9.75 7.5 9.75Z" fill="#F5851E"/>
</svg>
