<svg width="24" height="24" viewBox="0 0 24 24" fill="none" xmlns="http://www.w3.org/2000/svg">
<path d="M16.5228 17.9853C16.5378 18.7615 15.6528 19.2115 15.0341 19.4215C13.6203 19.909 12.0228 19.9803 10.5491 19.7815C9.59284 19.6578 8.10409 19.4178 7.59409 18.4578C6.99784 17.3328 8.61409 16.669 9.39784 16.4403C9.86659 16.3128 10.0653 17.0365 9.59659 17.164C9.52159 17.1865 9.44659 17.209 9.37534 17.2315C9.04909 17.3365 7.87534 17.7228 8.35909 18.2403C8.71534 18.619 9.33409 18.7765 9.81784 18.8928C10.5453 19.0653 11.3103 19.1365 12.0566 19.1253C12.8291 19.1103 13.6016 19.0465 14.3478 18.8515C14.7753 18.7353 15.3978 18.5703 15.6866 18.1915C16.1066 17.6328 14.6966 17.2503 14.4041 17.164C13.9353 17.0365 14.1341 16.3128 14.6028 16.4403C15.3116 16.6503 16.5078 17.0553 16.5228 17.9853V17.9853Z" fill="#F5851E"/>
<path d="M12.3569 4.88939C15.6794 5.15939 17.4756 9.08564 15.5256 11.7781C14.3144 13.4019 12.8031 14.8681 12.0006 16.7581C11.1981 14.8681 9.68688 13.4019 8.47563 11.7781C7.41063 10.3081 7.38438 8.27189 8.40813 6.77189C9.28188 5.48939 10.8119 4.76189 12.3569 4.88939V4.88939ZM14.4756 9.22439C14.4756 7.87439 13.3506 6.74939 12.0006 6.74939C10.6506 6.74939 9.52563 7.87439 9.52563 9.22439C9.52563 10.5744 10.6506 11.7031 12.0006 11.7031C13.3506 11.7031 14.4756 10.5744 14.4756 9.22439Z" fill="#F5851E"/>
</svg>
