<svg width="995" height="582" viewBox="0 0 995 582" fill="none" xmlns="http://www.w3.org/2000/svg">
<path d="M992.916 154.686C993.792 153.372 994.259 151.828 994.259 150.248V8.69044C994.259 4.27216 990.677 0.69043 986.259 0.69043H36.1444C34.0015 0.69043 31.9482 1.55014 30.4446 3.07692L2.59505 31.3549C1.1211 32.8515 0.294922 34.8678 0.294922 36.9684L0.294922 150.247C0.294922 151.827 0.763003 153.372 1.64011 154.687L14.2624 173.606C15.1395 174.92 15.6076 176.465 15.6076 178.046V406.269C15.6076 407.851 15.1384 409.398 14.2592 410.714L1.64331 429.593C0.764167 430.909 0.294922 432.456 0.294922 434.038V573.69C0.294922 578.109 3.87664 581.69 8.29492 581.69H291.522H703.068H986.295C990.713 581.69 994.295 578.109 994.295 573.69V434.035C994.295 432.455 993.827 430.91 992.95 429.595L980.327 410.676C979.45 409.362 978.982 407.817 978.982 406.236V178.008C978.982 176.429 979.45 174.885 980.326 173.57L992.916 154.686ZM37.6681 552.284C33.2498 552.284 29.6681 548.703 29.6681 544.284V71.5553C29.6681 67.137 33.2498 63.5553 37.6681 63.5553H276.79C278.915 63.5553 280.952 62.7098 282.453 61.2055L296.781 46.8439L311.109 32.4823C312.61 30.978 314.648 30.1325 316.773 30.1325H956.922C961.34 30.1325 964.922 33.7143 964.922 38.1325V511.435C964.922 515.854 961.34 519.435 956.922 519.435H741.771C739.646 519.435 737.608 520.281 736.107 521.785L708.131 549.827C706.631 551.331 704.593 552.177 702.468 552.177H261.867C261.839 552.177 261.825 552.211 261.845 552.23V552.23C261.865 552.25 261.85 552.284 261.822 552.284H37.6681Z" fill="url(#paint0_linear_4418_25509)"/>
<g clip-path="url(#clip0_4418_25509)">
<path d="M257.812 30.4751C259.635 30.4759 260.506 32.7163 259.163 33.9488L243.293 48.5084C242.924 48.8469 242.442 49.0346 241.941 49.0346H33.082C31.9775 49.0346 31.082 48.1392 31.082 47.0346V32.3798C31.082 31.2749 31.978 30.3793 33.0829 30.3798L257.812 30.4751Z" fill="url(#paint1_linear_4418_25509)"/>
<g filter="url(#filter0_f_4418_25509)">
<path d="M965.295 15.3301H39.2744C38.7359 15.3301 38.22 15.5473 37.8437 15.9325L31.6513 22.2719C31.2864 22.6455 31.082 23.1471 31.082 23.6694V28.3793C31.082 29.4838 31.9775 30.3793 33.082 30.3793H257.931C259.738 30.3793 260.619 32.5868 259.307 33.8305L243.791 48.5432" stroke="white" stroke-miterlimit="10"/>
</g>
<path d="M965.295 15.3301H39.2744C38.7359 15.3301 38.22 15.5473 37.8437 15.9325L31.6513 22.2719C31.2864 22.6455 31.082 23.1471 31.082 23.6694V28.3793C31.082 29.4838 31.9775 30.3793 33.082 30.3793H257.931C259.738 30.3793 260.619 32.5868 259.307 33.8305L243.791 48.5432" stroke="white" stroke-miterlimit="10"/>
</g>
<g clip-path="url(#clip1_4418_25509)">
<path d="M740.217 554.906C738.401 554.905 737.526 552.68 738.855 551.442L754.487 536.883C754.858 536.538 755.345 536.346 755.85 536.346H961.535C962.64 536.346 963.535 537.242 963.535 538.346V553.001C963.535 554.106 962.639 555.002 961.534 555.001L740.217 554.906Z" fill="url(#paint2_linear_4418_25509)"/>
<path d="M43.2953 570.051H955.444C955.988 570.051 956.508 569.83 956.885 569.438L962.976 563.107C963.335 562.735 963.535 562.238 963.535 561.721V557.002C963.535 555.898 962.64 555.002 961.535 555.002H740.1C738.3 555.002 737.416 552.81 738.713 551.561L754.007 536.838" stroke="white" stroke-miterlimit="10"/>
<g filter="url(#filter1_f_4418_25509)">
<path d="M43.2953 570.051H955.444C955.988 570.051 956.508 569.83 956.885 569.438L962.976 563.107C963.335 562.735 963.535 562.238 963.535 561.721V557.002C963.535 555.898 962.64 555.002 961.535 555.002H740.1C738.3 555.002 737.416 552.81 738.713 551.561L754.007 536.838" stroke="white" stroke-miterlimit="10"/>
</g>
</g>
<defs>
<filter id="filter0_f_4418_25509" x="22.582" y="6.83008" width="950.713" height="50.0762" filterUnits="userSpaceOnUse" color-interpolation-filters="sRGB">
<feFlood flood-opacity="0" result="BackgroundImageFix"/>
<feBlend mode="normal" in="SourceGraphic" in2="BackgroundImageFix" result="shape"/>
<feGaussianBlur stdDeviation="4" result="effect1_foregroundBlur_4418_25509"/>
</filter>
<filter id="filter1_f_4418_25509" x="35.2949" y="528.478" width="936.74" height="50.0732" filterUnits="userSpaceOnUse" color-interpolation-filters="sRGB">
<feFlood flood-opacity="0" result="BackgroundImageFix"/>
<feBlend mode="normal" in="SourceGraphic" in2="BackgroundImageFix" result="shape"/>
<feGaussianBlur stdDeviation="4" result="effect1_foregroundBlur_4418_25509"/>
</filter>
<linearGradient id="paint0_linear_4418_25509" x1="241.11" y1="736.785" x2="755.262" y2="-151.666" gradientUnits="userSpaceOnUse">
<stop stop-color="#552AD9"/>
<stop offset="0.1193" stop-color="#5F2DDA"/>
<stop offset="0.3207" stop-color="#7934DD"/>
<stop offset="0.5798" stop-color="#A440E2"/>
<stop offset="0.8832" stop-color="#DF50E8"/>
<stop offset="1" stop-color="#F857EB"/>
</linearGradient>
<linearGradient id="paint1_linear_4418_25509" x1="262.944" y1="39.7009" x2="31.082" y2="39.7009" gradientUnits="userSpaceOnUse">
<stop stop-color="#8433DE"/>
<stop offset="1" stop-color="#2E2BCF"/>
</linearGradient>
<linearGradient id="paint2_linear_4418_25509" x1="735.141" y1="545.68" x2="963.535" y2="545.68" gradientUnits="userSpaceOnUse">
<stop stop-color="#8433DE"/>
<stop offset="1" stop-color="#2E2BCF"/>
</linearGradient>
<clipPath id="clip0_4418_25509">
<rect width="936" height="36" fill="white" transform="translate(29.2949 13.6904)"/>
</clipPath>
<clipPath id="clip1_4418_25509">
<rect width="922" height="36" fill="white" transform="matrix(-1 0 0 -1 965.295 571.69)"/>
</clipPath>
</defs>
</svg>
