<svg width="529" height="101" viewBox="0 0 529 101" fill="none" xmlns="http://www.w3.org/2000/svg">
<path d="M2.22656 15.8418C7.02289 26.4464 15.1021 34.5567 23.181 42.8443C35.0626 55.0326 47.3533 66.7303 62.8659 74.0543C82.6827 83.4104 104.003 88.6973 126.007 87.1496C137.931 86.3109 156.243 82.5546 158.798 68.2092C160.522 58.5263 153.658 50.0521 145.986 45.1401C138.99 40.6611 130.081 40.2308 122.059 41.5424C110.754 43.3906 116.693 55.7324 122.302 60.8325C149.98 85.9987 198.54 88.8036 233.411 90.554C273.7 92.5762 314.391 90.9113 354.295 84.9114C387.145 79.9722 418.398 70.8173 450.275 61.9818" stroke="#7C0FD1" stroke-width="3" stroke-linecap="round"/>
<g filter="url(#filter0_d_903_9921)">
<path d="M506.011 56.5302C505.536 56.7599 507.45 56.1281 508.998 56.3006C511.069 56.0398 512.959 57.507 513.22 59.5778C513.481 61.6485 512.014 63.5387 509.943 63.7995C507.737 64.8657 507.839 64.8165 506.345 65.5383C504.852 66.2601 503.528 66.8999 502.272 67.5068C500.227 68.3444 498.121 69.0263 495.972 69.5465C493.983 69.8363 491.964 69.8545 489.969 69.6007C487.34 68.8384 484.611 68.4777 481.874 68.5308C480.639 68.8172 479.444 69.2542 478.315 69.8318C477.26 70.3383 476.276 70.9828 475.39 71.7482C474.573 70.4311 473.896 69.0318 473.372 67.5734C472.936 66.1512 474.796 63.2425 475.397 62.4075C475.729 61.9778 475.79 61.3974 475.553 60.9085C475.317 60.4197 474.825 60.1064 474.282 60.0995C472.631 59.9761 469.485 59.4448 468.874 58.5261C467.503 56.3833 465.495 51.5341 463.723 47.8684C463.723 47.8684 467.412 46.8389 467.962 44.8567C468.511 42.8746 469.248 40.76 469.689 39.2485L471.451 34.9221C472.333 32.0434 473.975 29.456 476.205 27.4325C479.051 25.1777 480.645 24.491 482.213 24.529C483.596 24.672 484.877 25.3195 485.813 26.3478C486.473 27.259 486.899 28.3185 487.053 29.4331C487.098 30.2342 486.918 31.0319 486.533 31.736C485.858 33.0252 485.464 33.5088 486.47 32.6456C487.477 31.7824 489.027 30.5724 491.059 28.7114C493.09 26.8503 493.42 26.1466 494.463 25.0984C495.505 24.0502 496.414 22.899 497.648 21.4656C498.943 20.0742 500.324 18.7638 501.781 17.5421C503.024 16.5692 504.631 16.1902 506.178 16.5053C507.956 17.1488 509.257 18.6878 509.597 20.5472C509.659 22.1043 509.25 23.6439 508.425 24.9658C507.308 26.7409 505.997 28.3859 504.515 29.8702C502.145 32.4004 499.502 34.6607 496.635 36.6097C498.426 35.6634 500.327 34.9414 502.295 34.4602C503.578 34.3057 504.86 34.7523 505.769 35.6703C506.568 36.5313 507.154 37.5668 507.482 38.6946C507.77 39.8532 507.615 41.0779 507.048 42.1283C505.446 43.8694 503.555 45.3213 501.46 46.4201C503.294 45.5907 505.221 44.9827 507.2 44.6089C508.272 44.7928 509.248 45.3421 509.961 46.1635C510.706 47.1877 511.262 48.3373 511.601 49.5577C511.738 50.6265 511.547 51.7117 511.054 52.6695C509.602 54.2596 507.912 55.6135 506.043 56.6824" fill="white"/>
<path fill-rule="evenodd" clip-rule="evenodd" d="M510.363 65.1593C513.077 64.6864 514.967 62.1579 514.619 59.3954C514.341 57.1844 512.71 55.4741 510.662 54.9895C511.151 54.5615 511.621 54.1116 512.072 53.6411L512.307 53.3115C512.932 52.099 513.174 50.7251 513 49.372C512.575 47.7898 511.945 46.4868 511.1 45.3259C510.204 44.2869 509.097 43.6063 507.877 43.3024C507.947 43.2287 508.016 43.1545 508.085 43.0798C509.023 41.4342 509.224 39.8479 508.85 38.3471C508.447 36.9552 507.75 35.7255 506.802 34.7031C505.85 33.7411 504.626 33.1653 503.338 33.0378C504.096 32.3265 504.832 31.5905 505.543 30.831C507.068 29.3045 508.445 27.577 509.618 25.7129C510.596 24.1461 511.079 22.3263 511.006 20.4857C510.554 17.9333 508.906 15.985 506.656 15.1703C504.504 14.7166 502.475 15.1949 500.906 16.4229C499.367 17.7122 497.945 19.0625 496.61 20.4963C496.204 20.966 494.952 22.4483 495.14 22.2265C494.628 22.8301 494.263 23.2469 493.899 23.636C493.749 23.7968 493.603 23.9492 493.452 24.1008C493.17 24.3844 492.926 24.6528 492.624 25.0059C491.365 26.4766 491.208 26.6487 490.1 27.6632C489.536 28.1799 488.994 28.6612 488.432 29.1457C488.216 27.7711 487.714 26.5606 486.955 25.5127C485.686 24.1051 484.083 23.2958 482.355 23.117C480.205 23.0606 478.301 23.9595 475.324 26.3187C472.833 28.5743 471.052 31.3803 470.095 34.5021L468.377 38.7098C468.213 39.2514 467.734 40.7594 467.42 41.7482C467.279 42.1936 467.171 42.5336 467.14 42.6327C466.992 43.1099 466.861 43.5457 466.741 43.9609L466.741 43.9618C466.667 44.2174 466.667 44.2177 466.596 44.4734C466.516 44.7622 466.153 45.1476 465.536 45.5334C465.013 45.8608 464.389 46.1419 463.767 46.3617C463.561 46.4342 463.411 46.4809 463.339 46.5009C462.491 46.7377 462.063 47.6846 462.447 48.4778C462.897 49.4094 463.336 50.3576 464.073 51.9743L464.251 52.3648C466.122 56.4709 466.865 58.0085 467.679 59.2821C468.567 60.6156 471.304 61.289 474.275 61.5376C472.658 63.782 471.48 66.2299 472.017 67.9821C472.596 69.5976 473.316 71.0863 474.185 72.4876C474.643 73.2261 475.653 73.3804 476.31 72.8123C477.102 72.1286 477.981 71.553 478.924 71.1006C479.982 70.5595 481.068 70.1624 482.19 69.9021C484.492 69.8881 487.08 70.23 489.572 70.9527C491.909 71.2672 494.057 71.2479 496.173 70.9397C498.519 70.3777 500.693 69.6739 502.804 68.8093C504.801 67.847 504.801 67.847 506.957 66.8054L510.363 65.1593ZM510.233 49.9273C510.288 50.4651 510.174 51.181 509.875 51.8389C508.554 53.1887 507.041 54.3374 505.386 55.2478C505.292 55.2387 505.285 55.2474 504.623 56.0294L504.623 56.0295C505.023 57.4313 505.145 57.8569 505.401 57.9658C505.513 58.0132 505.65 58.0005 505.847 57.9823C506.005 57.9833 506.051 57.9835 506.095 57.9793C506.114 57.9776 506.132 57.9752 506.157 57.9718C506.265 57.9582 506.405 57.9313 506.657 57.8807C507.198 57.7755 507.628 57.7114 508.068 57.6854C508.356 57.6684 508.614 57.6718 508.835 57.6964C510.465 57.5307 511.648 58.4491 511.811 59.7452C511.974 61.0413 511.056 62.2244 509.76 62.3876L509.321 62.5174L501.65 66.2248C499.75 66.9999 497.712 67.6598 495.633 68.1633C493.899 68.4097 492.008 68.4267 490.141 68.1891C487.59 67.4317 484.719 67.0523 481.84 67.1081C480.2 67.457 478.896 67.9338 477.665 68.5641C477.028 68.8693 476.406 69.2275 475.81 69.6326C475.382 68.8101 475.01 67.9592 474.696 67.0857C474.561 66.6419 475.537 64.6141 476.538 63.2245C477.169 62.4086 477.289 61.2554 476.819 60.2841C476.35 59.3129 475.372 58.6904 474.293 58.6767C472.531 58.5423 470.201 57.9688 470.044 57.7336C469.35 56.6478 468.615 55.1282 466.821 51.1892L466.643 50.7982C466.244 49.9234 465.931 49.2411 465.655 48.6493C466.132 48.4397 466.597 48.1998 467.033 47.9266C468.192 47.2016 469.011 46.3324 469.317 45.2251C469.351 45.1055 469.368 45.0454 469.385 44.9854C469.402 44.9246 469.419 44.8639 469.454 44.7418C469.569 44.3456 469.695 43.9269 469.837 43.4661C469.861 43.3903 469.941 43.1386 470.049 42.7959C470.356 41.8309 470.891 40.1447 471.04 39.6359L472.753 35.4459C473.603 32.6916 475.107 30.3227 477.148 28.4701C479.584 26.5448 480.942 25.9032 482.172 25.933C483.098 26.0332 484.059 26.5188 484.761 27.29C485.186 27.8913 485.524 28.7325 485.646 29.6174C485.665 30.0409 485.544 30.5762 485.286 31.0486C485.366 30.8947 484.606 32.2902 484.521 32.548C484.471 32.6283 484.432 32.6889 484.415 32.755C484.362 32.9594 484.51 33.2162 485.115 34.2669C486.453 34.4707 486.453 34.4707 486.677 34.2548C486.864 34.1435 487.055 33.9914 487.384 33.7094C487.597 33.5266 488.349 32.9023 488.846 32.4889C489.057 32.3143 489.222 32.1773 489.281 32.127C490.24 31.3241 491.096 30.5792 492.007 29.7445C493.223 28.6301 493.439 28.3947 494.769 26.8408C495.029 26.5371 495.227 26.3182 495.463 26.0809C495.625 25.918 495.793 25.7442 495.963 25.5622C496.363 25.134 496.754 24.6872 497.293 24.0524C497.113 24.2647 498.354 22.795 498.713 22.3783C499.932 21.0709 501.27 19.8005 502.682 18.616C503.562 17.9284 504.748 17.6489 505.89 17.8813C506.995 18.2977 507.95 19.4273 508.2 20.7922C508.228 21.8674 507.894 23.1267 507.219 24.2079C506.161 25.8898 504.915 27.4524 503.508 28.8623C501.178 31.3486 498.614 33.5409 495.833 35.4313C494.359 36.4337 495.712 38.6834 497.288 37.8504C498.977 36.9584 500.769 36.2778 502.624 35.8242C503.307 35.7522 504.156 36.0479 504.758 36.6558C505.375 37.322 505.851 38.1635 506.117 39.0797C506.307 39.8435 506.198 40.7066 505.797 41.4468C504.509 42.7834 502.748 44.1355 500.797 45.1588C499.175 46.0089 500.367 48.4531 502.035 47.699C503.684 46.9536 505.412 46.3976 507.186 46.0413C507.845 46.2037 508.439 46.566 508.887 47.0812C509.457 47.8736 509.939 48.8698 510.233 49.9273Z" fill="black"/>
<path d="M484.592 64.3261L496.308 58.6637C497.009 58.3248 497.303 57.4802 496.963 56.7772C496.623 56.0743 495.779 55.7792 495.078 56.1181L483.362 61.7805C482.661 62.1194 482.367 62.964 482.707 63.667C483.047 64.3699 483.891 64.665 484.592 64.3261Z" fill="black"/>
<path d="M481.328 57.5712L493.034 51.8719C493.732 51.5318 494.022 50.687 493.68 49.985C493.338 49.283 492.495 48.9897 491.796 49.3298L480.09 55.029C479.392 55.3692 479.102 56.214 479.444 56.916C479.786 57.618 480.629 57.9113 481.328 57.5712Z" fill="black"/>
<path d="M488.496 42.551L476.837 48.2694C476.131 48.6157 475.837 49.4647 476.181 50.1656C476.525 50.8666 477.376 51.1541 478.082 50.8078L489.741 45.0893C490.447 44.743 490.741 43.8941 490.397 43.1931C490.053 42.4922 489.202 42.2047 488.496 42.551Z" fill="black"/>
</g>
<defs>
<filter id="filter0_d_903_9921" x="461.505" y="15.002" width="53.9555" height="59.9543" filterUnits="userSpaceOnUse" color-interpolation-filters="sRGB">
<feFlood flood-opacity="0" result="BackgroundImageFix"/>
<feColorMatrix in="SourceAlpha" type="matrix" values="0 0 0 0 0 0 0 0 0 0 0 0 0 0 0 0 0 0 127 0" result="hardAlpha"/>
<feOffset dy="1"/>
<feGaussianBlur stdDeviation="0.4"/>
<feColorMatrix type="matrix" values="0 0 0 0 0 0 0 0 0 0 0 0 0 0 0 0 0 0 0.5 0"/>
<feBlend mode="normal" in2="BackgroundImageFix" result="effect1_dropShadow_903_9921"/>
<feBlend mode="normal" in="SourceGraphic" in2="effect1_dropShadow_903_9921" result="shape"/>
</filter>
</defs>
</svg>
