<svg width="92" height="214" viewBox="0 0 92 214" fill="none" xmlns="http://www.w3.org/2000/svg">
<path d="M2.93435 0.978849C2.15896 0.687189 1.29395 1.07933 1.00229 1.85472C0.710627 2.6301 1.10277 3.49512 1.87815 3.78678L2.93435 0.978849ZM55.2338 83.5076L53.7352 83.5728L55.2338 83.5076ZM36.7671 97.9318L37.9471 97.0058L36.7671 97.9318ZM20.8729 74.6877L19.3904 74.9158L20.8729 74.6877ZM27.6716 76.3414L26.9767 77.6708L27.6716 76.3414ZM50.4564 93.8894L51.5307 92.8426L50.4564 93.8894ZM75.4012 212.881C75.6632 213.667 76.5127 214.092 77.2986 213.83L90.1058 209.561C90.8917 209.299 91.3165 208.449 91.0545 207.663C90.7925 206.878 89.943 206.453 89.1571 206.715L77.7729 210.51L73.9782 199.125C73.7162 198.339 72.8667 197.915 72.0808 198.177C71.2949 198.439 70.8702 199.288 71.1321 200.074L75.4012 212.881ZM1.87815 3.78678C36.2318 16.7088 52.2033 48.3377 53.7352 83.5728L56.7324 83.4425C55.166 47.4156 38.752 14.4515 2.93435 0.978849L1.87815 3.78678ZM53.7352 83.5728C53.9236 87.9047 53.7793 92.0683 53.2456 95.5788C52.7045 99.1382 51.7908 101.83 50.5862 103.391C50.0033 104.147 49.4002 104.576 48.7907 104.768C48.1905 104.957 47.4325 104.964 46.4428 104.606C44.3782 103.859 41.5648 101.615 37.9471 97.0058L35.5872 98.8579C39.285 103.57 42.5332 106.382 45.4223 107.427C46.9094 107.965 48.3512 108.052 49.6921 107.629C51.0237 107.21 52.1027 106.337 52.9615 105.224C54.6404 103.047 55.6479 99.7368 56.2115 96.0297C56.7825 92.2735 56.9265 87.906 56.7324 83.4425L53.7352 83.5728ZM37.9471 97.0058C36.6722 95.3812 35.1047 93.6225 33.4917 91.8096C31.8658 89.9823 30.1796 88.0847 28.6108 86.1304C25.4365 82.1763 22.9328 78.2124 22.3555 74.4596L19.3904 74.9158C20.0973 79.5109 23.0599 84.008 26.2713 88.0085C27.8953 90.0314 29.6317 91.9845 31.2505 93.8038C32.8821 95.6376 34.3813 97.3214 35.5872 98.8579L37.9471 97.0058ZM22.3555 74.4596C22.3438 74.3838 22.4069 74.6606 22.1607 74.9759C22.0427 75.1269 21.9034 75.2176 21.7923 75.2662C21.6899 75.3109 21.6211 75.3164 21.6168 75.3167C21.6109 75.3172 21.6379 75.3147 21.7066 75.3225C21.7734 75.3301 21.8631 75.3456 21.9775 75.3727C22.2091 75.4275 22.4953 75.519 22.8297 75.6465C24.2083 76.1722 25.8827 77.0989 26.9767 77.6708L28.3665 75.0121C27.3936 74.5035 25.4914 73.4508 23.8986 72.8434C23.1561 72.5602 22.2039 72.2589 21.3731 72.3266C20.9219 72.3634 20.2638 72.5307 19.7963 73.1293C19.3317 73.7242 19.3134 74.4153 19.3904 74.9158L22.3555 74.4596ZM26.9767 77.6708C35.4259 82.0874 42.6709 88.0484 49.382 94.9362L51.5307 92.8426C44.6726 85.804 37.1781 79.6181 28.3665 75.0121L26.9767 77.6708ZM49.382 94.9362C63.1775 109.095 74.3834 129.01 79.7863 150.068C85.1898 171.129 84.7557 193.19 75.4826 211.736L78.1659 213.078C87.8507 193.708 88.2189 170.864 82.6922 149.323C77.1648 127.779 65.7078 107.393 51.5307 92.8426L49.382 94.9362Z" fill="#F41E92"/>
</svg>
