<svg width="169" height="75" viewBox="0 0 169 75" fill="none" xmlns="http://www.w3.org/2000/svg">
<path d="M0.517171 11.5713C0.00168741 12.2198 0.109528 13.1634 0.75804 13.6789L11.3262 22.0792C11.9747 22.5947 12.9183 22.4868 13.4338 21.8383C13.9492 21.1898 13.8414 20.2462 13.1929 19.7307L3.79901 12.2638L11.2659 2.86989C11.7814 2.22138 11.6736 1.27778 11.0251 0.762292C10.3766 0.246808 9.43295 0.354649 8.91747 1.00316L0.517171 11.5713ZM66.2741 13.0644L66.0815 14.552L66.2741 13.0644ZM107.347 31.4666L108.84 31.3244L107.347 31.4666ZM102.099 50.5685L103.009 51.761L102.099 50.5685ZM81.3877 46.3703L82.5939 45.4787L81.3877 46.3703ZM124.559 27.0585L124.882 25.5936L124.559 27.0585ZM1.86173 13.9949C23.464 11.5261 44.4157 11.7474 66.0815 14.552L66.4666 11.5768C44.5668 8.74188 23.3712 8.51719 1.52109 11.0143L1.86173 13.9949ZM66.0815 14.552C72.1196 15.3336 81.7055 15.6718 90.1918 17.9359C98.7183 20.2107 105.146 24.1785 105.853 31.6088L108.84 31.3244C107.936 21.8351 99.6573 17.3563 90.9652 15.0373C82.2331 12.7076 72.0884 12.3045 66.4666 11.5768L66.0815 14.552ZM105.853 31.6088C106.141 34.6327 106.176 38.2118 105.509 41.4954C104.839 44.7904 103.5 47.6127 101.189 49.3761L103.009 51.761C106.122 49.385 107.703 45.7616 108.449 42.0931C109.197 38.4132 109.143 34.5111 108.84 31.3244L105.853 31.6088ZM101.189 49.3761C95.3105 53.8623 86.9274 51.3416 82.5939 45.4787L80.1814 47.2619C85.172 54.0138 95.3871 57.5776 103.009 51.761L101.189 49.3761ZM82.5939 45.4787C80.4622 42.5947 79.4549 40.2421 79.1952 38.3528C78.9429 36.5174 79.3833 35.0489 80.3265 33.8069C81.3026 32.5215 82.8804 31.4012 85.0067 30.4642C87.1231 29.5315 89.6914 28.8208 92.534 28.3017C103.97 26.213 118.992 27.3679 124.237 28.5233L124.882 25.5936C119.295 24.3625 103.868 23.1821 91.995 25.3505C89.0102 25.8956 86.1973 26.6611 83.7969 27.7189C81.4063 28.7724 79.3315 30.1568 77.9373 31.9925C76.5103 33.8716 75.8629 36.1406 76.2231 38.7614C76.576 41.3282 77.8816 44.1504 80.1814 47.2619L82.5939 45.4787ZM124.237 28.5233C134.284 30.7371 144.554 36.7067 152.305 44.8998C160.056 53.0919 165.182 63.3884 165.182 74.2185H168.182C168.182 62.4283 162.612 51.4289 154.485 42.838C146.358 34.2482 135.567 27.9479 124.882 25.5936L124.237 28.5233Z" fill="#F41E92"/>
</svg>
