<svg width="28" height="28" viewBox="0 0 28 28" fill="none" xmlns="http://www.w3.org/2000/svg">
<g clip-path="url(#clip0_935_10575)">
<mask id="mask0_935_10575" style="mask-type:luminance" maskUnits="userSpaceOnUse" x="0" y="0" width="29" height="28">
<path d="M0.0078125 1.90735e-06H28.0079V28H0.0078125V1.90735e-06Z" fill="white"/>
</mask>
<g mask="url(#mask0_935_10575)">
<path d="M18.9297 7.43753C19.8358 7.43753 20.5703 8.17204 20.5703 9.07816C20.5703 9.98427 19.8358 10.7188 18.9297 10.7188C18.0236 10.7188 17.2891 9.98427 17.2891 9.07816" stroke="white" stroke-width="1.64063" stroke-miterlimit="10"/>
<path d="M20.5703 5.79691C20.5703 4.89079 19.8358 4.15628 18.9297 4.15628C18.0236 4.15628 17.2891 4.89079 17.2891 5.79691C17.2891 6.70302 18.0236 7.43753 18.9297 7.43753" stroke="white" stroke-width="1.64063" stroke-miterlimit="10"/>
<path d="M12.3672 7.43753C12.3672 3.81317 15.3053 0.820344 18.9297 0.820344C22.5541 0.820344 25.4922 3.81317 25.4922 7.43753C25.4922 11.0619 22.5541 14 18.9297 14C15.3053 14 12.3672 11.0619 12.3672 7.43753Z" stroke="white" stroke-width="1.64063" stroke-miterlimit="10"/>
<path d="M16.4688 13.523C15.7088 13.8306 14.8781 14 14.0078 14C10.3835 14 7.44531 11.0619 7.44531 7.43753C7.44531 3.81312 10.3835 0.820344 14.0078 0.820344C14.8781 0.820344 15.7088 0.989712 16.4688 1.29733" stroke="white" stroke-width="1.64063" stroke-miterlimit="10"/>
<path d="M11.5469 13.523C10.787 13.8306 9.95619 14 9.08595 14C5.46158 14 2.52344 11.0619 2.52344 7.43753C2.52344 3.81312 5.46158 0.820344 9.08595 0.820344C9.95619 0.820344 10.787 0.989712 11.5469 1.29733" stroke="white" stroke-width="1.64063" stroke-miterlimit="10"/>
<path d="M18.9297 0.820343V4.15628" stroke="white" stroke-width="1.64063" stroke-miterlimit="10"/>
<path d="M18.9297 10.7188V14" stroke="white" stroke-width="1.64063" stroke-miterlimit="10"/>
<path d="M4.10938 25.4844H0.828125V17.2813H4.10938V25.4844Z" stroke="white" stroke-width="1.64063" stroke-miterlimit="10"/>
<path d="M17.083 23.7716C17.7559 22.089 16.9096 20.2517 15.227 19.5787L10.3333 17.6211C9.77199 17.3966 9.17306 17.2813 8.56859 17.2813C7.83086 17.2813 7.10335 17.453 6.44354 17.7829L4.36328 18.7957" stroke="white" stroke-width="1.64063" stroke-miterlimit="10"/>
<path d="M11.7095 21.7062L17.0815 23.7716L23.9069 20.3862C25.4142 19.6326 27.1875 20.7286 27.1875 22.4138L19.591 26.2673C18.3911 26.8673 17.0134 27.1797 15.6718 27.1797C14.5726 27.1797 13.4835 26.9699 12.4629 26.5617L4.10938 23.1875" stroke="white" stroke-width="1.64063" stroke-miterlimit="10"/>
</g>
</g>
<defs>
<clipPath id="clip0_935_10575">
<rect width="28.0001" height="28" fill="white"/>
</clipPath>
</defs>
</svg>
