<svg width="75" height="83" viewBox="0 0 75 83" fill="none" xmlns="http://www.w3.org/2000/svg">
<path d="M33.234 38.4121L32.3045 39.5894L33.234 38.4121ZM42.0436 36.2407L40.6058 35.8133L42.0436 36.2407ZM23.0595 19.0558L22.8889 17.5655L23.0595 19.0558ZM6.99125 59.1953L8.22732 58.3455L6.99125 59.1953ZM74.0703 71.5337C74.6144 70.909 74.5491 69.9615 73.9244 69.4174L63.7443 60.5509C63.1196 60.0068 62.1721 60.0722 61.628 60.6969C61.0839 61.3216 61.1493 62.2691 61.774 62.8132L70.8229 70.6945L62.9416 79.7435C62.3975 80.3682 62.4628 81.3157 63.0875 81.8598C63.7122 82.4039 64.6597 82.3385 65.2038 81.7138L74.0703 71.5337ZM14.5481 1.73644C16.3141 7.72991 17.9844 15.0529 20.5232 21.7975C23.0775 28.5836 26.6092 35.0931 32.3045 39.5894L34.1634 37.2348C29.0933 33.2321 25.8062 27.317 23.3308 20.7407C20.8398 14.1229 19.2694 7.14558 17.4258 0.888555L14.5481 1.73644ZM32.3045 39.5894C34.2709 41.1418 36.5979 41.8863 38.761 41.4248C40.9972 40.9477 42.7122 39.2555 43.4814 36.6682L40.6058 35.8133C40.0956 37.5294 39.1243 38.2798 38.135 38.4909C37.0724 38.7176 35.6343 38.396 34.1634 37.2348L32.3045 39.5894ZM43.4814 36.6682C44.4456 33.425 44.3718 30.4635 43.4647 27.8718C42.5608 25.2891 40.8637 23.171 38.7341 21.5436C34.5053 18.312 28.4712 16.9266 22.8889 17.5655L23.2301 20.5461C28.169 19.9808 33.3954 21.2395 36.9125 23.9273C38.6558 25.2595 39.9531 26.92 40.6332 28.8629C41.3101 30.7969 41.41 33.1082 40.6058 35.8133L43.4814 36.6682ZM22.8889 17.5655C12.5558 18.7482 5.47211 25.3899 2.39566 33.7121C-0.668461 42.0009 0.21934 51.993 5.75519 60.0451L8.22732 58.3455C3.26327 51.1251 2.47144 42.1592 5.20954 34.7523C7.93531 27.3788 14.1357 21.587 23.2301 20.5461L22.8889 17.5655ZM5.75519 60.0451C12.9204 70.4673 24.973 73.7053 37.3999 74.2664C49.782 74.8255 63.1503 72.7272 73.0424 72.045L72.836 69.0521C62.5485 69.7616 49.7025 71.8189 37.5352 71.2695C25.4129 70.7221 14.5813 67.5877 8.22732 58.3455L5.75519 60.0451Z" fill="#F41E92"/>
</svg>
