<svg width="28" height="28" viewBox="0 0 28 28" fill="none" xmlns="http://www.w3.org/2000/svg">
<g clip-path="url(#clip0_547_7428)">
<path d="M8.16536 28C9.45403 28 10.4987 26.9553 10.4987 25.6667C10.4987 24.378 9.45403 23.3333 8.16536 23.3333C6.8767 23.3333 5.83203 24.378 5.83203 25.6667C5.83203 26.9553 6.8767 28 8.16536 28Z" fill="white"/>
<path d="M19.8333 28C21.122 28 22.1667 26.9553 22.1667 25.6667C22.1667 24.378 21.122 23.3333 19.8333 23.3333C18.5447 23.3333 17.5 24.378 17.5 25.6667C17.5 26.9553 18.5447 28 19.8333 28Z" fill="white"/>
<path d="M26.8346 3.5H24.5013V1.16667C24.5013 0.857247 24.3784 0.560501 24.1596 0.341709C23.9408 0.122916 23.6441 0 23.3346 0C23.0252 0 22.7285 0.122916 22.5097 0.341709C22.2909 0.560501 22.168 0.857247 22.168 1.16667V3.5H19.8346C19.5252 3.5 19.2285 3.62292 19.0097 3.84171C18.7909 4.0605 18.668 4.35725 18.668 4.66667C18.668 4.97609 18.7909 5.27283 19.0097 5.49162C19.2285 5.71042 19.5252 5.83333 19.8346 5.83333H22.168V8.16667C22.168 8.47608 22.2909 8.77283 22.5097 8.99162C22.7285 9.21042 23.0252 9.33333 23.3346 9.33333C23.6441 9.33333 23.9408 9.21042 24.1596 8.99162C24.3784 8.77283 24.5013 8.47608 24.5013 8.16667V5.83333H26.8346C27.1441 5.83333 27.4408 5.71042 27.6596 5.49162C27.8784 5.27283 28.0013 4.97609 28.0013 4.66667C28.0013 4.35725 27.8784 4.0605 27.6596 3.84171C27.4408 3.62292 27.1441 3.5 26.8346 3.5Z" fill="white"/>
<path d="M25.3995 11.347C25.2487 11.3188 25.0937 11.3208 24.9436 11.3529C24.7936 11.385 24.6514 11.4465 24.5253 11.534C24.3992 11.6215 24.2917 11.7331 24.209 11.8624C24.1264 11.9917 24.0702 12.1362 24.0438 12.2873C23.8983 13.0948 23.4737 13.8256 22.8442 14.3519C22.2147 14.8781 21.4203 15.1665 20.5998 15.1667H6.321L5.22433 5.83333H15.1667C15.4761 5.83333 15.7728 5.71042 15.9916 5.49162C16.2104 5.27283 16.3333 4.97609 16.3333 4.66667C16.3333 4.35725 16.2104 4.0605 15.9916 3.84171C15.7728 3.62292 15.4761 3.5 15.1667 3.5H4.949L4.9 3.08933C4.79946 2.23837 4.39024 1.45385 3.74989 0.884455C3.10953 0.315063 2.28255 0.000364976 1.42567 0L1.16667 0C0.857247 0 0.560501 0.122916 0.341709 0.341709C0.122916 0.560501 0 0.857247 0 1.16667C0 1.47609 0.122916 1.77283 0.341709 1.99162C0.560501 2.21042 0.857247 2.33333 1.16667 2.33333H1.42567C1.71142 2.33337 1.98723 2.43828 2.20077 2.62817C2.41431 2.81805 2.55073 3.07971 2.58417 3.3635L4.1895 17.0135C4.35616 18.4331 5.03822 19.7421 6.10623 20.692C7.17423 21.6419 8.55383 22.1667 9.98317 22.1667H22.1667C22.4761 22.1667 22.7728 22.0438 22.9916 21.825C23.2104 21.6062 23.3333 21.3094 23.3333 21C23.3333 20.6906 23.2104 20.3938 22.9916 20.175C22.7728 19.9562 22.4761 19.8333 22.1667 19.8333H9.98317C9.25927 19.8335 8.55314 19.6091 7.96205 19.1913C7.37095 18.7734 6.92396 18.1825 6.68267 17.5H20.5998C21.9673 17.5001 23.2914 17.0198 24.3408 16.143C25.3902 15.2661 26.0981 14.0484 26.341 12.7027C26.3683 12.5518 26.3655 12.3971 26.3329 12.2473C26.3004 12.0975 26.2386 11.9556 26.1512 11.8297C26.0637 11.7038 25.9523 11.5964 25.8234 11.5136C25.6944 11.4307 25.5504 11.3741 25.3995 11.347Z" fill="white"/>
</g>
<defs>
<clipPath id="clip0_547_7428">
<rect width="28" height="28" fill="white"/>
</clipPath>
</defs>
</svg>
