<svg width="101" height="103" viewBox="0 0 101 103" fill="none" xmlns="http://www.w3.org/2000/svg">
<path d="M85.7305 1.99472C86.2799 1.93804 86.6793 1.44674 86.6226 0.89737C86.5659 0.348002 86.0746 -0.0514005 85.5252 0.00528038L85.7305 1.99472ZM51.4906 13.3459L52.0264 14.1903L51.4906 13.3459ZM28.5837 36.0297L27.6618 35.6423L28.5837 36.0297ZM58.2586 56.6311L58.4807 57.6061L58.2586 56.6311ZM61.0847 47.4832L60.6852 48.3999L61.0847 47.4832ZM46.4332 45.9957L46.3919 44.9966L46.4332 45.9957ZM15.0478 55.4039L14.5076 54.5624L15.0478 55.4039ZM7.42456 88.8346L8.05958 88.0621L7.42456 88.8346ZM39.8884 98.5775L39.9519 97.5795L39.8884 98.5775ZM99.8019 95.3272C100.143 94.8927 100.067 94.2641 99.6322 93.9232L92.5505 88.369C92.1159 88.0281 91.4873 88.1041 91.1465 88.5387C90.8056 88.9733 90.8816 89.6019 91.3162 89.9427L97.611 94.8798L92.6739 101.175C92.3331 101.609 92.4091 102.238 92.8436 102.579C93.2782 102.919 93.9068 102.843 94.2476 102.409L99.8019 95.3272ZM85.5252 0.00528038C72.8123 1.31693 61.6902 5.68982 50.9548 12.5016L52.0264 14.1903C62.5472 7.51464 73.3768 3.26931 85.7305 1.99472L85.5252 0.00528038ZM50.9548 12.5016C41.9114 18.2398 32.0888 25.1091 27.6618 35.6423L29.5056 36.4172C33.6613 26.5295 42.9479 19.9508 52.0264 14.1903L50.9548 12.5016ZM27.6618 35.6423C25.6022 40.5428 25.531 44.6798 26.9735 48.0568C28.4083 51.4158 31.268 53.8514 34.733 55.5142C41.6311 58.8247 51.273 59.2483 58.4807 57.6061L58.0364 55.6561C51.1636 57.222 42.001 56.7839 35.5983 53.7111C32.4128 52.1824 29.998 50.0459 28.8127 47.2711C27.6351 44.5142 27.5982 40.9555 29.5056 36.4172L27.6618 35.6423ZM58.4807 57.6061C61.2173 56.9826 63.8656 55.2711 64.9243 53.1292C65.4752 52.0146 65.6079 50.7389 65.0077 49.5086C64.4254 48.315 63.2324 47.3285 61.4843 46.5665L60.6852 48.3999C62.1943 49.0577 62.9144 49.7792 63.2102 50.3855C63.488 50.955 63.4636 51.5708 63.1314 52.243C62.4238 53.6745 60.4018 55.1171 58.0364 55.6561L58.4807 57.6061ZM61.4843 46.5665C56.7881 44.5194 51.0374 44.8043 46.3919 44.9966L46.4746 46.9949C51.2458 46.7974 56.4929 46.5725 60.6852 48.3999L61.4843 46.5665ZM46.3919 44.9966C34.8351 45.4748 24.368 48.2322 14.5076 54.5624L15.588 56.2454C25.0988 50.1397 35.2067 47.4611 46.4746 46.9949L46.3919 44.9966ZM14.5076 54.5624C8.72222 58.2765 3.32929 64.0748 1.08973 70.4315C-0.0353656 73.625 -0.373017 76.9877 0.474666 80.2923C1.3239 83.603 3.34196 86.7731 6.78954 89.6071L8.05958 88.0621C4.89177 85.4581 3.14113 82.638 2.41194 79.7954C1.68121 76.9467 1.95543 73.9931 2.97608 71.0961C5.02801 65.2719 10.0621 59.793 15.588 56.2454L14.5076 54.5624ZM6.78954 89.6071C15.8063 97.0192 28.9531 98.8836 39.8249 99.5755L39.9519 97.5795C29.0825 96.8878 16.5344 95.0287 8.05958 88.0621L6.78954 89.6071ZM39.8249 99.5755C59.808 100.847 79.5204 98.0739 99.135 95.7029L98.895 93.7173C79.21 96.0968 59.7089 98.8368 39.9519 97.5795L39.8249 99.5755Z" fill="#F5851E"/>
</svg>
