<svg width="135" height="149" viewBox="0 0 135 149" fill="none" xmlns="http://www.w3.org/2000/svg">
<path d="M133.371 27.2481C120.642 26.014 84.3693 22.0748 78.4209 40.6839C75.9458 48.4271 76.9338 60.4585 82.0709 67.2447C93.1028 81.8181 120.109 73.5548 104.439 55.2014C95.6507 44.9086 78.6489 46.7916 66.6281 48.2909C48.9086 50.5009 37.8992 61.1519 27.2259 74.4509C21.8054 81.2047 3.89454 118.016 6.49262 117.484" stroke="#7C0FD1" stroke-width="2" stroke-linecap="round"/>
<path d="M6.12762 118.197C8.78133 117.556 28.9403 111.999 26.5693 112.999C23.4661 114.309 20.1294 115.338 17.2085 117.025C13.7528 119.02 9.84759 120.113 6.63779 122.475C3.82119 124.547 4.38373 106.159 5.21813 103.045" stroke="#7C0FD1" stroke-width="2" stroke-linecap="round"/>
</svg>
