<svg width="135" height="148" viewBox="0 0 135 148" fill="none" xmlns="http://www.w3.org/2000/svg">
<path d="M1.00027 27.2023C13.7291 25.9683 50.0018 22.0291 55.9502 40.6381C58.4253 48.3814 57.4373 60.4127 52.3002 67.199C41.2683 81.7723 14.2617 73.509 29.9321 55.1557C38.7204 44.8628 55.7221 46.7458 67.743 48.2451C85.4625 50.4551 96.4719 61.1062 107.145 74.4051C112.566 81.1589 130.477 117.97 127.878 117.439" stroke="#7C0FD1" stroke-width="2" stroke-linecap="round"/>
<path d="M128.654 117.151C126 116.511 105.841 110.953 108.212 111.953C111.315 113.263 114.652 114.293 117.573 115.979C121.028 117.974 124.934 119.068 128.143 121.429C130.96 123.501 130.398 105.113 129.563 101.999" stroke="#7C0FD1" stroke-width="2" stroke-linecap="round"/>
</svg>
