<svg width="40" height="41" viewBox="0 0 40 41" fill="none" xmlns="http://www.w3.org/2000/svg">
<g clip-path="url(#clip0_577_1848)">
<path d="M17.6562 37.5804C19.5979 37.5804 21.1719 36.0064 21.1719 34.0648C21.1719 32.1232 19.5979 30.5492 17.6562 30.5492C15.7146 30.5492 14.1406 32.1232 14.1406 34.0648C14.1406 36.0064 15.7146 37.5804 17.6562 37.5804Z" fill="#1EC0F2"/>
<path d="M29.4531 37.5804C31.3948 37.5804 32.9688 36.0064 32.9688 34.0648C32.9688 32.1232 31.3948 30.5492 29.4531 30.5492C27.5115 30.5492 25.9375 32.1232 25.9375 34.0648C25.9375 36.0064 27.5115 37.5804 29.4531 37.5804Z" fill="#1EC0F2"/>
<path d="M1.17187 4.7681H6.05879L11.7164 24.5737L11.2727 25.4612C10.1042 27.7955 11.8004 30.5492 14.4175 30.5492H34.1404C34.7882 30.5492 35.3123 30.0251 35.3123 29.3773C35.3123 28.7296 34.7882 28.2055 34.1404 28.2055H14.4175C13.5473 28.2055 12.9785 27.2891 13.3692 26.5095L13.6931 25.8617H34.1404C34.6634 25.8617 35.1235 25.515 35.2677 25.0114L39.9552 8.60526C40.0559 8.25167 39.9849 7.87168 39.7641 7.57761C39.542 7.28465 39.1953 7.11184 38.828 7.11184H9.16581L8.06948 3.27459C7.92527 2.77108 7.46527 2.42429 6.94223 2.42429H1.17187C0.524138 2.42429 0 2.94842 0 3.59615C0 4.24388 0.524138 4.7681 1.17187 4.7681Z" fill="#1EC0F2"/>
</g>
<defs>
<clipPath id="clip0_577_1848">
<rect width="40" height="40" fill="white" transform="translate(0 0.00231934)"/>
</clipPath>
</defs>
</svg>
