<svg width="40" height="41" viewBox="0 0 40 41" fill="none" xmlns="http://www.w3.org/2000/svg">
<g clip-path="url(#clip0_577_2425)">
<path d="M17.6562 37.5827C19.5979 37.5827 21.1719 36.0087 21.1719 34.0671C21.1719 32.1255 19.5979 30.5515 17.6562 30.5515C15.7146 30.5515 14.1406 32.1255 14.1406 34.0671C14.1406 36.0087 15.7146 37.5827 17.6562 37.5827Z" fill="white"/>
<path d="M29.4531 37.5827C31.3948 37.5827 32.9688 36.0087 32.9688 34.0671C32.9688 32.1255 31.3948 30.5515 29.4531 30.5515C27.5115 30.5515 25.9375 32.1255 25.9375 34.0671C25.9375 36.0087 27.5115 37.5827 29.4531 37.5827Z" fill="white"/>
<path d="M1.17187 4.7704H6.05879L11.7164 24.576L11.2727 25.4635C10.1042 27.7978 11.8004 30.5515 14.4175 30.5515H34.1404C34.7882 30.5515 35.3123 30.0274 35.3123 29.3796C35.3123 28.7319 34.7882 28.2078 34.1404 28.2078H14.4175C13.5473 28.2078 12.9785 27.2914 13.3692 26.5118L13.6931 25.864H34.1404C34.6634 25.864 35.1235 25.5173 35.2677 25.0137L39.9552 8.60757C40.0559 8.25398 39.9849 7.87398 39.7641 7.57992C39.542 7.28695 39.1953 7.11414 38.828 7.11414H9.16581L8.06948 3.2769C7.92527 2.77338 7.46527 2.42659 6.94223 2.42659H1.17187C0.524138 2.42659 0 2.95073 0 3.59846C0 4.24619 0.524138 4.7704 1.17187 4.7704Z" fill="white"/>
</g>
<defs>
<clipPath id="clip0_577_2425">
<rect width="40" height="40" fill="white" transform="translate(0 0.00463867)"/>
</clipPath>
</defs>
</svg>
