<svg width="90" height="97" viewBox="0 0 90 97" fill="none" xmlns="http://www.w3.org/2000/svg">
                                        <path
                                            d="M1.66317 94.7855C22.7996 73.8071 43.9245 51.9073 62.7581 28.7882C69.0451 21.0707 74.6665 13.2187 82.4023 6.83665C84.0526 5.47512 90.654 -1.27927 86.6483 4.24566C77.4896 16.8779 66.6768 27.9833 56.4623 39.7274C45.3813 52.4679 10.6063 89.0489 23.6311 78.3035C36.6982 67.5232 47.8256 54.0892 59.8727 42.2031C62.3829 39.7264 67.9255 32.9151 63.633 39.4656C55.887 51.2866 47.5529 62.0948 37.7474 72.3116C34.8365 75.3446 28.4821 80.8674 28.4821 80.8674C28.4821 80.8674 37.3811 73.5257 41.8306 69.8549C53.5873 60.1556 87.9298 30.0411 77.1456 40.8113C71.603 46.3468 54.3875 61.5389 61.567 58.4057C63.4253 57.5947 67.7377 51.3169 69.6507 53.8342C72.1584 57.1342 66.5323 62.608 72.4777 57.7031C81.2111 50.498 71.2613 70.8394 78.6771 60.796"
                                            stroke="#2686EC" stroke-width="3" stroke-linecap="round" class="svg-elem-1">
                                        </path>
                                    </svg>