 <svg class="sline sline-1" viewBox="0 0 37 12" fill="none" xmlns="http://www.w3.org/2000/svg">
                                        <path
                                            d="M1.83621 9.98522C2.76755 9.10274 7.80729 3.01525 9.23539 5.53139C9.72522 6.39441 10.6158 8.50008 11.7415 8.7515C12.6842 8.96207 14.6909 5.97597 15.2783 5.44822C16.4995 4.3511 17.3614 3.95108 18.573 5.10302C19.9927 6.45285 22.3296 5.46953 23.9828 5.06076C25.0735 4.79106 29.9686 2.54923 30.9405 3.33047C31.2873 3.60917 30.8959 4.30791 31.6251 3.97899C32.8765 3.4145 34.3422 2.59755 35.2251 1.6348"
                                            stroke="#FFA51F" stroke-width="3" stroke-linecap="round" class="sline-path">
                                        </path>
                                    </svg>
                                    <svg class="sline sline-2" viewBox="0 0 28 11" fill="none" xmlns="http://www.w3.org/2000/svg">
                                        <path
                                            d="M1.52344 2.02942C2.63361 3.10995 5.38268 6.86795 7.34847 6.53129C8.59906 6.31712 9.34088 4.80781 10.0353 3.90237C12.1959 1.085 13.0829 2.66369 15.3363 4.89224C17.6176 7.14843 18.7806 7.43939 21.8218 6.91857C23.3018 6.66511 24.2629 8.68667 25.7284 9.03799"
                                            stroke="#FFA51F" stroke-width="3" stroke-linecap="round" class="sline-path">
                                        </path>
                                    </svg>

                                    <svg class="sline sline-3" viewBox="0 0 24 21" fill="none" xmlns="http://www.w3.org/2000/svg">
                                        <path
                                            d="M1.55469 1.59753C3.21923 4.03067 3.47725 7.20418 4.59237 9.87983C4.76773 10.3006 6.33642 8.26981 6.52983 8.11853C7.02571 7.7307 8.57704 6.63887 9.27476 6.93936C9.86509 7.19361 9.2989 10.8383 9.39518 11.4583C9.87108 14.5229 12.9687 12.5314 14.0425 14.7293C15.7573 18.2389 17.4752 19.6913 21.5618 18.5873"
                                            stroke="#FFA51F" stroke-width="3" stroke-linecap="round" class="sline-path">
                                        </path>
                                    </svg>