<svg viewBox="0 0 133 287" fill="none" xmlns="http://www.w3.org/2000/svg">
                                <path
                                    d="M65.8263 286.232C110.239 286.232 132.446 261.982 132.446 213.879V69.9679C132.446 25.4429 109.05 0 66.2228 0C23.3961 0 0 25.4429 0 69.9679V119.661C0 162.198 16.2583 183.268 48.3784 183.268C66.6194 183.268 80.1019 175.317 88.8259 159.018V212.289C88.8259 237.732 80.895 246.478 64.6367 246.478C49.568 246.478 42.0337 237.334 42.0337 219.047V211.096H0.793088V216.264C0.793088 261.187 23.3961 286.232 65.8263 286.232ZM88.8259 116.083C88.8259 134.37 81.2915 143.514 66.2228 143.514C51.1542 143.514 43.6198 134.37 43.6198 116.083V66.7875C43.6198 48.898 51.1542 39.7545 66.2228 39.7545C81.2915 39.7545 88.8259 48.898 88.8259 66.7875V116.083Z"
                                    fill="#F5851E" />
                            </svg>