 <svg viewBox="0 0 131 283" fill="none" xmlns="http://www.w3.org/2000/svg">
                                <path
                                    d="M126.101 282.257V242.502H43.2233V236.539C43.2233 216.264 50.7576 201.555 76.1364 174.522C95.9636 153.452 109.843 134.768 117.774 119.263C126.101 103.362 130.066 87.0623 130.066 69.9679C130.066 25.0453 107.463 0 65.0332 0C22.603 0 0 25.0453 0 69.9679V97.001H41.2405V67.1851C41.2405 48.898 48.7749 39.7545 63.8436 39.7545C78.5157 39.7545 86.4466 47.7054 86.4466 71.5581C86.4466 84.6771 83.2742 96.6034 77.3261 108.132C71.3779 119.661 59.8782 133.973 43.6198 151.465C27.3615 168.559 15.8618 184.461 9.51706 199.17C3.17236 213.879 0 231.371 0 252.044V282.257H126.101Z"
                                    fill="#1EC0F2" />
                            </svg>