<svg viewBox="0 0 137 388" fill="none" xmlns="http://www.w3.org/2000/svg">
                                <path
                                    d="M0.00262451 318.542C0.00262451 363.067 24.1918 387.317 68.2082 387.317C112.225 387.317 136.414 363.067 136.414 318.542L136.414 192.809C136.414 164.584 126.897 145.899 107.863 135.96V135.165C125.707 125.227 134.828 106.94 134.828 80.3041V67.9802C134.828 23.8527 111.035 0 68.2082 0C25.3814 0 1.58879 23.8527 1.58879 67.9802V80.3041C1.58879 106.94 10.7093 125.227 28.5538 135.165V135.96C9.51967 145.899 0.00260925 164.584 0.00260925 192.809L0.00262451 318.542ZM91.2077 89.4476C91.2077 108.132 83.6734 117.276 68.2082 117.276C52.7429 117.276 45.2086 108.132 45.2086 89.4476V66.7875C45.2086 48.898 52.7429 39.7545 68.2082 39.7545C83.6734 39.7545 91.2077 48.898 91.2077 66.7875V89.4476ZM92.7939 316.157C92.7939 337.227 84.4665 347.563 68.2082 347.563C51.9499 347.563 43.6225 337.227 43.6225 316.157L43.6225 188.436C43.6225 167.366 51.9499 157.03 68.2082 157.03C84.4665 157.03 92.7939 167.366 92.7939 188.436L92.7939 316.157Z"
                                    fill="#7C0FD1" />
                                <path
                                    d="M1.52588e-05 318.542C1.52588e-05 363.067 24.1892 387.317 68.2056 387.317C112.222 387.317 136.411 363.067 136.411 318.542V192.809C136.411 164.584 126.894 145.899 107.86 135.96V135.165C125.704 125.227 134.825 106.94 134.825 80.3041V67.9802C134.825 23.8527 111.032 0 68.2056 0C25.3788 0 1.58618 23.8527 1.58618 67.9802V80.3041C1.58618 106.94 10.7067 125.227 28.5512 135.165V135.96C9.51707 145.899 0 164.584 0 192.809L1.52588e-05 318.542ZM91.2051 89.4476C91.2051 108.132 83.6708 117.276 68.2056 117.276C52.7403 117.276 45.206 108.132 45.206 89.4476V66.7875C45.206 48.898 52.7403 39.7545 68.2056 39.7545C83.6708 39.7545 91.2051 48.898 91.2051 66.7875V89.4476ZM92.7913 316.157C92.7913 337.227 84.4639 347.563 68.2056 347.563C51.9473 347.563 43.6199 337.227 43.6199 316.157L43.6198 188.436C43.6198 167.366 51.9472 157.03 68.2056 157.03C84.4639 157.03 92.7913 167.366 92.7913 188.436L92.7913 316.157Z"
                                    fill="#7C0FD1" />
                            </svg>