<svg width="26" height="26" viewBox="0 0 26 26" fill="none" xmlns="http://www.w3.org/2000/svg">
<path d="M17.875 0C13.3185 0 9.75 2.13804 9.75 4.86655V7.66427C9.22567 7.60263 8.68292 7.57018 8.125 7.57018C3.5685 7.57018 0 9.70822 0 12.4367V21.0884C0 23.8169 3.5685 25.9549 8.125 25.9549C11.8257 25.9549 14.8753 24.5447 15.8893 22.5527C16.536 22.6467 17.1968 22.7106 17.875 22.7106C22.4315 22.7106 26 20.5725 26 17.844V4.86655C26 2.13804 22.4315 0 17.875 0ZM17.875 2.16291C21.2853 2.16291 23.8333 3.59043 23.8333 4.86655C23.8333 6.14266 21.2853 7.57018 17.875 7.57018C14.4647 7.57018 11.9167 6.14266 11.9167 4.86655C11.9167 3.59043 14.4647 2.16291 17.875 2.16291ZM8.125 9.73309C11.5353 9.73309 14.0833 11.1606 14.0833 12.4367C14.0833 13.7128 11.5353 15.1404 8.125 15.1404C4.71467 15.1404 2.16667 13.7128 2.16667 12.4367C2.16667 11.1606 4.71467 9.73309 8.125 9.73309ZM2.16667 15.7698C3.64 16.716 5.74492 17.3033 8.125 17.3033C10.5051 17.3033 12.61 16.716 14.0833 15.7698V16.7626C14.0833 18.0387 11.5353 19.4662 8.125 19.4662C4.71467 19.4662 2.16667 18.0387 2.16667 16.7626V15.7698ZM8.125 23.792C4.71467 23.792 2.16667 22.3645 2.16667 21.0884V20.0956C3.64 21.0419 5.74492 21.6291 8.125 21.6291C10.5051 21.6291 12.61 21.0419 14.0833 20.0956V21.0884C14.0833 22.3645 11.5353 23.792 8.125 23.792ZM17.875 20.5476C17.3182 20.5476 16.7787 20.4968 16.25 20.4222V18.2809C16.783 18.3436 17.3225 18.3847 17.875 18.3847C20.2551 18.3847 22.36 17.7975 23.8333 16.8512V17.844C23.8333 19.1201 21.2853 20.5476 17.875 20.5476ZM17.875 16.2218C17.3182 16.2218 16.7787 16.171 16.25 16.0964V13.9551C16.783 14.0178 17.3225 14.0589 17.875 14.0589C20.2551 14.0589 22.36 13.4717 23.8333 12.5254V13.5182C23.8333 14.7943 21.2853 16.2218 17.875 16.2218ZM17.875 11.896C17.2878 11.896 16.7202 11.8408 16.1655 11.7587C15.951 10.7994 15.2891 9.93749 14.3011 9.2486C15.3758 9.55682 16.5826 9.73418 17.875 9.73418C20.2551 9.73418 22.36 9.14695 23.8333 8.20067V9.19345C23.8333 10.4696 21.2853 11.8971 17.875 11.8971V11.896Z" fill="#F5851E"/>
</svg>
