<svg width="83" height="34" viewBox="0 0 83 34" fill="none" xmlns="http://www.w3.org/2000/svg">
<path d="M80 19.3333V19.8333H80.5V19.3333H80ZM3 19.3333H2.5V19.8333H3V19.3333ZM0.333333 3C0.333333 4.47276 1.52724 5.66667 3 5.66667C4.47276 5.66667 5.66667 4.47276 5.66667 3C5.66667 1.52724 4.47276 0.333333 3 0.333333C1.52724 0.333333 0.333333 1.52724 0.333333 3ZM77.3333 3C77.3333 4.47276 78.5272 5.66667 80 5.66667C81.4728 5.66667 82.6667 4.47276 82.6667 3C82.6667 1.52724 81.4728 0.333333 80 0.333333C78.5272 0.333333 77.3333 1.52724 77.3333 3ZM38.8333 31C38.8333 32.4728 40.0272 33.6667 41.5 33.6667C42.9728 33.6667 44.1667 32.4728 44.1667 31C44.1667 29.5272 42.9728 28.3333 41.5 28.3333C40.0272 28.3333 38.8333 29.5272 38.8333 31ZM2.5 3V4.02083H3.5V3H2.5ZM2.5 6.0625V8.10417H3.5V6.0625H2.5ZM2.5 10.1458V12.1875H3.5V10.1458H2.5ZM2.5 14.2292V16.2708H3.5V14.2292H2.5ZM2.5 18.3125V19.3333H3.5V18.3125H2.5ZM3 19.8333H3.9625V18.8333H3V19.8333ZM5.8875 19.8333H7.8125V18.8333H5.8875V19.8333ZM9.7375 19.8333H11.6625V18.8333H9.7375V19.8333ZM13.5875 19.8333H15.5125V18.8333H13.5875V19.8333ZM17.4375 19.8333H19.3625V18.8333H17.4375V19.8333ZM21.2875 19.8333H23.2125V18.8333H21.2875V19.8333ZM25.1375 19.8333H27.0625V18.8333H25.1375V19.8333ZM28.9875 19.8333H30.9125V18.8333H28.9875V19.8333ZM32.8375 19.8333H34.7625V18.8333H32.8375V19.8333ZM36.6875 19.8333H38.6125V18.8333H36.6875V19.8333ZM40.5375 19.8333H41.5V18.8333H40.5375V19.8333ZM41.5 19.8333H42.4625V18.8333H41.5V19.8333ZM44.3875 19.8333H46.3125V18.8333H44.3875V19.8333ZM48.2375 19.8333H50.1625V18.8333H48.2375V19.8333ZM52.0875 19.8333H54.0125V18.8333H52.0875V19.8333ZM55.9375 19.8333H57.8625V18.8333H55.9375V19.8333ZM59.7875 19.8333H61.7125V18.8333H59.7875V19.8333ZM63.6375 19.8333H65.5625V18.8333H63.6375V19.8333ZM67.4875 19.8333H69.4125V18.8333H67.4875V19.8333ZM71.3375 19.8333H73.2625V18.8333H71.3375V19.8333ZM75.1875 19.8333H77.1125V18.8333H75.1875V19.8333ZM79.0375 19.8333H80V18.8333H79.0375V19.8333ZM80.5 19.3333V18.3125H79.5V19.3333H80.5ZM80.5 16.2708V14.2292H79.5V16.2708H80.5ZM80.5 12.1875V11.1667H79.5V12.1875H80.5ZM80.5 11.1667V10.1458H79.5V11.1667H80.5ZM80.5 8.10417V6.0625H79.5V8.10417H80.5ZM80.5 4.02083V3H79.5V4.02083H80.5ZM41 19.3333V20.3056H42V19.3333H41ZM41 22.25V24.1944H42V22.25H41ZM41 26.1389V28.0833H42V26.1389H41ZM41 30.0278V31H42V30.0278H41Z" fill="#F5851E"/>
</svg>
