<svg width="40" height="40" viewBox="0 0 40 40" fill="none" xmlns="http://www.w3.org/2000/svg">
<path d="M34.0625 4.6875H27.0949L26.3332 2.40328C25.8537 0.965859 24.5135 0 22.9984 0H17.0016C15.4864 0 14.1463 0.965859 13.6657 2.40328L12.9048 4.6875H5.9375C3.99891 4.6875 2.42188 6.26453 2.42188 8.20312V10.5469C2.42188 11.8522 3.59695 11.7188 4.85805 11.7188C15.6826 11.7188 25.4967 11.7188 36.4062 11.7188C37.054 11.7188 37.5781 11.1946 37.5781 10.5469V8.20312C37.5781 6.26453 36.0011 4.6875 34.0625 4.6875ZM15.376 4.6875L15.8893 3.14484C16.0495 2.66531 16.497 2.34375 17.0016 2.34375H22.9984C23.503 2.34375 23.9505 2.66531 24.1096 3.14484L24.6234 4.6875H15.376Z" fill="#E74236"/>
<path d="M5.05273 14.2188L6.92125 36.8025C7.08719 38.6255 8.59211 40 10.422 40H29.5795C31.4094 40 32.9143 38.6255 33.0813 36.7922L34.9488 14.2188H5.05273ZM14.1413 34.1406C14.1413 35.6854 11.7976 35.6917 11.7976 34.1406V17.7344C11.7976 16.1896 14.1413 16.1833 14.1413 17.7344V34.1406ZM21.1726 34.1406C21.1726 35.6854 18.8288 35.6917 18.8288 34.1406V17.7344C18.8288 16.1896 21.1726 16.1833 21.1726 17.7344V34.1406ZM28.2038 34.1406C28.2038 35.6854 25.8601 35.6917 25.8601 34.1406V17.7344C25.8601 17.0866 26.3842 16.5625 27.032 16.5625C27.6797 16.5625 28.2038 17.0866 28.2038 17.7344V34.1406Z" fill="#E74236"/>
</svg>
