<svg width="58" height="104" viewBox="0 0 58 104" fill="none" xmlns="http://www.w3.org/2000/svg">
<path d="M56.7251 3.55627C57.5132 3.30094 57.9451 2.45507 57.6898 1.66697C57.4345 0.878877 56.5886 0.446989 55.8005 0.702325L56.7251 3.55627ZM3.27941 67.1984L4.74758 66.891L3.27941 67.1984ZM17.9531 103.91C18.749 104.139 19.5805 103.681 19.8104 102.885L23.5562 89.9147C23.786 89.1188 23.3272 88.2873 22.5313 88.0574C21.7354 87.8275 20.9038 88.2864 20.674 89.0823L17.3444 100.611L5.81555 97.2815C5.01964 97.0517 4.1881 97.5105 3.95824 98.3064C3.72838 99.1023 4.18725 99.9339 4.98314 100.164L17.9531 103.91ZM55.8005 0.702325C40.9266 5.52132 25.517 12.7909 14.7705 23.5604C3.95366 34.4003 -2.11074 48.7737 1.81125 67.5058L4.74758 66.891C1.05675 49.263 6.70533 35.89 16.8941 25.6794C27.1531 15.3985 42.0416 8.3136 56.7251 3.55627L55.8005 0.702325ZM1.81125 67.5058C4.47788 80.2421 10.9921 92.2044 17.056 103.193L19.6826 101.744C13.5853 90.6944 7.30726 79.1165 4.74758 66.891L1.81125 67.5058Z" fill="#F5851E"/>
</svg>
