<svg width="1406" height="343" viewBox="0 0 1406 343" fill="none" xmlns="http://www.w3.org/2000/svg">
<path fill-rule="evenodd" clip-rule="evenodd" d="M0.0976562 21.5887C0.0976562 9.99074 9.49968 0.588745 21.0977 0.588745H261.859C273.457 0.588745 282.859 9.99077 282.859 21.5887V169.501H282.86L282.86 321.412C282.86 331.905 291.366 340.412 301.86 340.412L542.621 340.412C553.115 340.412 561.621 331.905 561.621 321.412V173.499V169.501V21.5887C561.621 9.99074 571.023 0.588745 582.621 0.588745H823.382C834.98 0.588745 844.382 9.99077 844.382 21.5887V169.501H844.383V321.412C844.383 331.905 852.89 340.412 863.383 340.412L1104.14 340.412C1114.64 340.412 1123.14 331.905 1123.14 321.412V173.499V169.501V21.5887C1123.14 9.99074 1132.55 0.588745 1144.14 0.588745H1384.91C1396.5 0.588745 1405.91 9.99077 1405.91 21.5887V173.499H1403.91V21.5887C1403.91 11.0953 1395.4 2.58875 1384.91 2.58875H1144.14C1133.65 2.58875 1125.14 11.0953 1125.14 21.5887V169.501V173.499V321.412C1125.14 333.01 1115.74 342.412 1104.14 342.412L863.383 342.412C851.785 342.412 842.383 333.01 842.383 321.412V173.499H842.382V21.5887C842.382 11.0953 833.876 2.58875 823.382 2.58875H582.621C572.128 2.58875 563.621 11.0953 563.621 21.5887V169.501V173.499V321.412C563.621 333.01 554.219 342.412 542.621 342.412L301.86 342.412C290.262 342.412 280.86 333.01 280.86 321.412L280.86 173.499H280.859V21.5887C280.859 11.0953 272.352 2.58875 261.859 2.58875H21.0977C10.6042 2.58875 2.09766 11.0953 2.09766 21.5887V173.499H0.0976562V21.5887Z" fill="url(#paint0_linear_2511_4896)"/>
<defs>
<linearGradient id="paint0_linear_2511_4896" x1="0.0976599" y1="143.015" x2="1405.91" y2="141.21" gradientUnits="userSpaceOnUse">
<stop offset="0.0849089" stop-color="#FC7E09"/>
<stop offset="0.300948" stop-color="#45FFE7"/>
<stop offset="0.502252" stop-color="#B276FF"/>
<stop offset="0.707887" stop-color="#FFDF58"/>
<stop offset="0.914404" stop-color="#FF8CC3"/>
</linearGradient>
</defs>
</svg>
