<svg width="496" height="361" viewBox="0 0 496 361" fill="none" xmlns="http://www.w3.org/2000/svg">
<g style="mix-blend-mode:soft-light">
<path d="M495.67 358.967L493.493 360.231L379.459 293.173V221.41L21.6297 13.7765C16.5038 16.0937 8.99054 15.9532 4.28595 13.1445C-0.839943 10.1953 -0.910144 5.35033 4.21575 2.40119C9.34165 -0.547955 17.6273 -0.547955 22.7532 2.40119C27.528 5.13968 27.8791 9.4932 23.8065 12.5126L257.842 148.314V50.7812L193.382 13.7765C188.256 16.1639 180.743 15.9532 175.968 13.2147C170.842 10.2656 170.772 5.42056 175.898 2.47141C181.024 -0.477733 189.31 -0.477733 194.436 2.47141C199.21 5.2099 199.561 9.56341 195.559 12.5126L260.089 49.5875V149.648L381.706 220.217V291.979L495.67 358.967Z" fill="#00E1FF"/>
</g>
</svg>
