<svg width="301" height="192" viewBox="0 0 301 192" fill="none" xmlns="http://www.w3.org/2000/svg">
<path d="M298.173 81.2419C295.668 65.7703 293.164 50.2987 290.66 34.8471C289.563 28.0645 289.181 20.8003 287.058 14.1581C282.837 1.07449 267.478 -0.370339 253.812 0.632999C240.861 1.57614 227.815 1.69653 214.841 1.97746C174.582 2.88045 134.299 3.22156 94.0167 3.56268C72.1462 3.74327 50.252 3.88372 28.3815 4.00411C24.971 4.00411 19.2231 3.98404 14.1192 5.56932C-0.620055 10.1044 0.643993 24.8938 1.14484 35.6095C2.50429 64.1246 2.19424 92.72 2.00344 121.235C1.83649 146.379 45.7205 139.998 66.0406 138.814C60.4121 155.55 55.5228 175.637 43.7171 189.944C41.7614 192.312 48.1055 191.449 49.1072 190.948C60.8891 185.048 67.4618 178.004 78.1227 170.76C87.2096 164.579 95.7002 157.796 103.404 150.412C107.005 146.96 110.225 143.288 113.254 139.475C117.094 134.639 125.56 136.204 131.976 135.964C178.555 134.137 230.749 134.339 277.065 129.423C277.352 129.423 277.662 129.382 278.043 129.322C278.329 129.302 278.592 129.242 278.854 129.162C307.212 124.045 301.106 99.2821 298.173 81.2419ZM278.949 125.991C232.323 131.008 179.795 130.766 132.906 132.632C126.562 132.873 118.739 132.171 112.634 133.535C109.414 134.258 108.436 137.107 106.814 139.295C99.6831 148.967 89.7138 157.134 79.673 164.659C70.4669 171.562 65.0867 178.125 54.7119 183.884C63.918 169.576 68.3064 151.717 73.458 136.626C73.7919 135.663 72.1462 135.242 71.3354 135.282C54.4973 135.884 13.5945 143.529 9.11073 123.322C7.17888 114.593 8.99149 104.419 8.99149 95.6096C8.99149 77.0076 8.87224 58.4055 8.27599 39.8236C7.87054 27.1212 4.72234 7.47568 24.1362 7.39542C88.8412 7.11452 153.57 6.75335 218.227 5.24837C226.384 5.04771 234.541 4.82698 242.698 4.50591C251.594 4.14471 261.706 2.27849 270.053 5.22834C282.145 9.48253 281.764 24.2117 283.242 33.3421C286.248 51.9642 289.277 70.6064 292.282 89.2285C294.237 101.349 299.317 122.68 278.949 126.011L278.949 125.991Z" fill="#F41E92"/>
</svg>
