<svg width="24" height="24" viewBox="0 0 24 24" fill="none" xmlns="http://www.w3.org/2000/svg">
<path fill-rule="evenodd" clip-rule="evenodd" d="M18.75 3.75V20.25C18.75 21.4928 17.7428 22.5 16.5 22.5H7.5C6.25725 22.5 5.25 21.4928 5.25 20.25V3.75C5.25 2.50725 6.25725 1.5 7.5 1.5H16.5C17.7428 1.5 18.75 2.50725 18.75 3.75ZM10.125 5.25H13.875C14.289 5.25 14.625 4.914 14.625 4.5C14.625 4.086 14.289 3.75 13.875 3.75H10.125C9.711 3.75 9.375 4.086 9.375 4.5C9.375 4.914 9.711 5.25 10.125 5.25ZM9.87975 10.149L9.77025 9.603C9.68925 9.19725 9.294 8.93325 8.88825 9.01425C8.4825 9.096 8.2185 9.49125 8.2995 9.897C8.2995 9.897 8.5305 11.0505 8.532 11.0595L9.009 13.443C9.14925 14.1442 9.765 14.649 10.4797 14.649H13.7498C14.4653 14.649 15.081 14.1442 15.2213 13.443L15.7005 11.046C15.7448 10.8255 15.687 10.5968 15.5452 10.4235C15.4027 10.2495 15.1897 10.149 14.9647 10.149H9.87975ZM10.6147 15.399C10.2007 15.399 9.86475 15.735 9.86475 16.149C9.86475 16.563 10.2007 16.899 10.6147 16.899C11.0287 16.899 11.3647 16.563 11.3647 16.149C11.3647 15.735 11.0287 15.399 10.6147 15.399ZM13.6147 15.399C13.2007 15.399 12.8647 15.735 12.8647 16.149C12.8647 16.563 13.2007 16.899 13.6147 16.899C14.0287 16.899 14.3647 16.563 14.3647 16.149C14.3647 15.735 14.0287 15.399 13.6147 15.399Z" fill="#7C0FD1"/>
</svg>
