<svg width="24" height="24" viewBox="0 0 24 24" fill="none" xmlns="http://www.w3.org/2000/svg">
<path d="M2 19.8672C2 21.0432 2.96375 22 4.14828 22H19.8517C21.0363 22 22 21.0432 22 19.8672V8H2V19.8672ZM13.7578 17.8892H10.2422C9.59491 17.8892 9.07031 17.3682 9.07031 16.7258C9.07031 16.0831 9.59491 15.5623 10.2422 15.5623H13.7578C14.4051 15.5623 14.9297 16.0833 14.9297 16.7258C14.9297 17.3684 14.4051 17.8892 13.7578 17.8892ZM8.48438 10.3269H15.5156C15.8393 10.3269 16.1016 10.5873 16.1016 10.9086C16.1016 11.2299 15.8393 11.4903 15.5156 11.4903H8.48438C8.16074 11.4903 7.89844 11.2299 7.89844 10.9086C7.89844 10.5873 8.16074 10.3269 8.48438 10.3269ZM6.14062 12.6537H17.8594C18.183 12.6537 18.4453 12.9141 18.4453 13.2355C18.4453 13.5568 18.183 13.8172 17.8594 13.8172H6.14062C5.81699 13.8172 5.55469 13.5568 5.55469 13.2355C5.55469 12.9141 5.81699 12.6537 6.14062 12.6537Z" fill="#7C0FD1"/>
<path d="M19.8517 2H4.14828C2.96375 2 2 3.0195 2 4.27257V7H22V4.27257C22 3.0195 21.0363 2 19.8517 2ZM14.3438 5.76033C14.0201 5.76033 13.7578 5.48286 13.7578 5.1405C13.7578 4.79813 14.0201 4.52066 14.3438 4.52066C14.6674 4.52066 14.9297 4.79813 14.9297 5.1405C14.9297 5.48286 14.6674 5.76033 14.3438 5.76033ZM16.6875 5.76033C16.3639 5.76033 16.1016 5.48286 16.1016 5.1405C16.1016 4.79813 16.3639 4.52066 16.6875 4.52066C17.0111 4.52066 17.2734 4.79813 17.2734 5.1405C17.2734 5.48286 17.0111 5.76033 16.6875 5.76033ZM19.0312 5.76033C18.7076 5.76033 18.4453 5.48286 18.4453 5.1405C18.4453 4.79813 18.7076 4.52066 19.0312 4.52066C19.3549 4.52066 19.6172 4.79813 19.6172 5.1405C19.6172 5.48286 19.3549 5.76033 19.0312 5.76033Z" fill="#7C0FD1"/>
</svg>
