<svg width="24" height="24" viewBox="0 0 24 24" fill="none" xmlns="http://www.w3.org/2000/svg">
<path d="M12.5889 17.7712V17.771C11.2205 17.3822 9.84766 18.4168 9.84766 19.8448C9.84766 21.0332 10.8145 22 12.0029 22C13.1913 22 14.1581 21.0332 14.1581 19.8448C14.1581 18.8595 13.4933 18.0272 12.5889 17.7712Z" fill="#7C0FD1"/>
<path d="M19.8497 17.6894C18.8645 17.6894 18.0322 18.3542 17.7761 19.2585H16.6695V16.4183C16.6695 15.7346 16.1136 15.1787 15.4299 15.1787H13.7617V16.3507H15.4299C15.4674 16.3507 15.4975 16.3812 15.4975 16.4183V19.3437C15.4975 19.943 15.985 20.4305 16.5843 20.4305H17.7761C18.032 21.335 18.8644 21.9998 19.8497 21.9998C21.0381 21.9998 22.0049 21.033 22.0049 19.8446C22.0049 18.6562 21.0381 17.6894 19.8497 17.6894Z" fill="#7C0FD1"/>
<path d="M6.09193 13.5635C6.10541 13.5635 5.96141 13.5638 11.4184 13.5522V16.5691C11.7935 16.5021 12.1955 16.4986 12.5904 16.5691C12.5904 16.4186 12.5904 14.0294 12.5904 13.5497L17.9415 13.5383C20.1417 13.5337 22.0056 11.7782 22.0056 9.4879C22.0056 6.77659 19.6321 4.72104 17.057 5.2059C16.477 4.36841 15.5245 3.86707 14.4788 3.8807C12.6326 0.942613 8.15277 1.57058 7.18542 4.90379C3.61011 4.1882 0.888027 8.05878 2.43603 11.2874C3.1006 12.6708 4.53487 13.5635 6.09193 13.5635Z" fill="#7C0FD1"/>
<path d="M10.2471 15.1787H8.57891C7.89524 15.1787 7.33931 15.7346 7.33931 16.4183V19.2585H6.23266C5.97665 18.3542 5.14432 17.6894 4.15913 17.6894C2.97074 17.6894 2.00391 18.6562 2.00391 19.8446C2.00391 21.033 2.97074 21.9998 4.15913 21.9998C5.1444 21.9998 5.9768 21.335 6.23273 20.4305H7.42448C8.02377 20.4305 8.51133 19.943 8.51133 19.3437V16.4183C8.51133 16.3812 8.54141 16.3507 8.57891 16.3507H10.2471V15.1787Z" fill="#7C0FD1"/>
</svg>
