<svg width="24" height="24" viewBox="0 0 24 24" fill="none" xmlns="http://www.w3.org/2000/svg">
<g clip-path="url(#clip0_2175_21443)">
<path d="M16.5435 16.2768H8.24203C6.18511 16.2768 4.51172 14.6034 4.51172 12.5465C4.51172 10.6191 5.98106 9.0283 7.85855 8.83569C8.03686 7.14482 9.47128 5.82275 11.2087 5.82275C12.0945 5.82275 12.9316 6.17071 13.5659 6.80254C14.0366 7.27157 14.3507 7.85216 14.4818 8.48197C15.5166 8.63755 16.3565 9.39678 16.6302 10.3884C18.2053 10.4483 19.4771 11.7356 19.4888 13.3093C19.4947 14.1004 19.191 14.8451 18.6339 15.4063C18.0768 15.9677 17.3344 16.2768 16.5435 16.2768Z" fill="#7C0FD1"/>
<path d="M2.48359 16.6539C1.33858 14.3198 1.09703 11.6493 1.80329 9.13434C2.51453 6.60169 4.13392 4.43526 6.36311 3.03417C7.96459 2.02758 9.80453 1.46695 11.684 1.4129C13.0254 1.37404 14.3634 1.593 15.6201 2.04904C15.7585 1.58442 15.9938 1.16147 16.3025 0.80306C14.8214 0.235451 13.2346 -0.0381588 11.6436 0.00731C9.51334 0.0686225 7.42867 0.703591 5.61479 1.84364C3.08964 3.43083 1.25528 5.88501 0.449497 8.75414C-0.350425 11.6027 -0.0763934 14.6281 1.2212 17.2732L2.48359 16.6539Z" fill="#7C0FD1"/>
<path d="M22.4445 6.09766L21.2209 6.79047C22.5642 9.163 22.9376 11.9297 22.2723 14.581C21.6049 17.2404 19.9584 19.5089 17.6361 20.9686C15.912 22.0522 13.9624 22.5956 12.0095 22.5955C10.5713 22.5955 9.13141 22.2999 7.77883 21.709C7.60891 22.1613 7.34542 22.568 7.01172 22.9054C8.57898 23.623 10.2878 23.998 12.0201 23.998C12.0426 23.998 12.0654 23.998 12.0879 23.9978C14.3132 23.9853 16.4905 23.3494 18.3843 22.159C21.0149 20.5056 22.88 17.9359 23.6361 14.9232C24.3897 11.9201 23.9665 8.78584 22.4445 6.09766Z" fill="#7C0FD1"/>
<path d="M4.59756 22.5565C5.72365 22.5565 6.63653 21.6436 6.63653 20.5175C6.63653 19.3914 5.72365 18.4785 4.59756 18.4785C3.47147 18.4785 2.55859 19.3914 2.55859 20.5175C2.55859 21.6436 3.47147 22.5565 4.59756 22.5565Z" fill="#7C0FD1"/>
<path d="M20.7677 3.79698C21.199 2.75647 20.7051 1.56334 19.6646 1.13205C18.6241 0.700758 17.431 1.19462 16.9997 2.23513C16.5684 3.27564 17.0622 4.46877 18.1028 4.90007C19.1433 5.33136 20.3364 4.83749 20.7677 3.79698Z" fill="#7C0FD1"/>
</g>
<defs>
<clipPath id="clip0_2175_21443">
<rect width="24" height="24" fill="white"/>
</clipPath>
</defs>
</svg>
