<svg width="24" height="24" viewBox="0 0 24 24" fill="none" xmlns="http://www.w3.org/2000/svg">
<path d="M21.525 5.84211C21.2395 5.73258 20.9272 5.7137 20.6306 5.78805C20.334 5.8624 20.0676 6.02637 19.8675 6.25761L16.545 10.0594L13.2 5.60061C13.0552 5.42187 12.8724 5.27773 12.6647 5.17872C12.4571 5.0797 12.23 5.02832 12 5.02832C11.77 5.02832 11.5429 5.0797 11.3353 5.17872C11.1276 5.27773 10.9448 5.42187 10.8 5.60061L7.455 10.0601L4.12875 6.25761C3.92774 6.02793 3.66144 5.86504 3.36542 5.79069C3.06939 5.71633 2.75773 5.73405 2.47204 5.84148C2.18635 5.94891 1.94024 6.14093 1.76655 6.39192C1.59286 6.6429 1.49988 6.94089 1.5 7.24611V17.2496C1.5 17.8463 1.73705 18.4186 2.15901 18.8406C2.58097 19.2626 3.15326 19.4996 3.75 19.4996H20.25C20.8467 19.4996 21.419 19.2626 21.841 18.8406C22.2629 18.4186 22.5 17.8463 22.5 17.2496V7.24611C22.5016 6.94023 22.4088 6.64129 22.2344 6.39005C22.0599 6.1388 21.8122 5.94746 21.525 5.84211Z" fill="#7C0FD1"/>
</svg>
