<svg width="24" height="24" viewBox="0 0 24 24" fill="none" xmlns="http://www.w3.org/2000/svg">
<path fill-rule="evenodd" clip-rule="evenodd" d="M22.75 3C22.75 2.536 22.566 2.091 22.237 1.763C21.909 1.434 21.464 1.25 21 1.25C17.586 1.25 6.414 1.25 3 1.25C2.536 1.25 2.091 1.434 1.763 1.763C1.434 2.091 1.25 2.536 1.25 3V6C1.25 6.464 1.434 6.909 1.763 7.237C2.091 7.566 2.536 7.75 3 7.75H21C21.464 7.75 21.909 7.566 22.237 7.237C22.566 6.909 22.75 6.464 22.75 6V3ZM5.5 3.5C6.052 3.5 6.5 3.948 6.5 4.5C6.5 5.052 6.052 5.5 5.5 5.5C4.948 5.5 4.5 5.052 4.5 4.5C4.5 3.948 4.948 3.5 5.5 3.5ZM9 3.5C9.552 3.5 10 3.948 10 4.5C10 5.052 9.552 5.5 9 5.5C8.448 5.5 8 5.052 8 4.5C8 3.948 8.448 3.5 9 3.5ZM19.5 3.75H16.5C16.086 3.75 15.75 4.086 15.75 4.5C15.75 4.914 16.086 5.25 16.5 5.25H19.5C19.914 5.25 20.25 4.914 20.25 4.5C20.25 4.086 19.914 3.75 19.5 3.75Z" fill="#7C0FD1"/>
<path fill-rule="evenodd" clip-rule="evenodd" d="M22.75 10.5C22.75 10.036 22.566 9.591 22.237 9.263C21.909 8.934 21.464 8.75 21 8.75C17.586 8.75 6.414 8.75 3 8.75C2.536 8.75 2.091 8.934 1.763 9.263C1.434 9.591 1.25 10.036 1.25 10.5V13.5C1.25 13.964 1.434 14.409 1.763 14.737C2.091 15.066 2.536 15.25 3 15.25H21C21.464 15.25 21.909 15.066 22.237 14.737C22.566 14.409 22.75 13.964 22.75 13.5V10.5ZM5.5 11C6.052 11 6.5 11.448 6.5 12C6.5 12.552 6.052 13 5.5 13C4.948 13 4.5 12.552 4.5 12C4.5 11.448 4.948 11 5.5 11ZM9 11C9.552 11 10 11.448 10 12C10 12.552 9.552 13 9 13C8.448 13 8 12.552 8 12C8 11.448 8.448 11 9 11ZM19.5 11.25H16.5C16.086 11.25 15.75 11.586 15.75 12C15.75 12.414 16.086 12.75 16.5 12.75H19.5C19.914 12.75 20.25 12.414 20.25 12C20.25 11.586 19.914 11.25 19.5 11.25Z" fill="#7C0FD1"/>
<path fill-rule="evenodd" clip-rule="evenodd" d="M22.75 18C22.75 17.536 22.566 17.091 22.237 16.763C21.909 16.434 21.464 16.25 21 16.25C17.586 16.25 6.414 16.25 3 16.25C2.536 16.25 2.091 16.434 1.763 16.763C1.434 17.091 1.25 17.536 1.25 18V21C1.25 21.464 1.434 21.909 1.763 22.237C2.091 22.566 2.536 22.75 3 22.75H21C21.464 22.75 21.909 22.566 22.237 22.237C22.566 21.909 22.75 21.464 22.75 21V18ZM5.5 18.5C6.052 18.5 6.5 18.948 6.5 19.5C6.5 20.052 6.052 20.5 5.5 20.5C4.948 20.5 4.5 20.052 4.5 19.5C4.5 18.948 4.948 18.5 5.5 18.5ZM9 18.5C9.552 18.5 10 18.948 10 19.5C10 20.052 9.552 20.5 9 20.5C8.448 20.5 8 20.052 8 19.5C8 18.948 8.448 18.5 9 18.5ZM19.5 18.75H16.5C16.086 18.75 15.75 19.086 15.75 19.5C15.75 19.914 16.086 20.25 16.5 20.25H19.5C19.914 20.25 20.25 19.914 20.25 19.5C20.25 19.086 19.914 18.75 19.5 18.75Z" fill="#7C0FD1"/>
</svg>
