<svg width="24" height="24" viewBox="0 0 24 24" fill="none" xmlns="http://www.w3.org/2000/svg">
<g clip-path="url(#clip0_2175_21225)">
<path d="M7.65099 0.500304C7.54099 0.500304 7.94099 0.500304 1.50099 0.500304C1.25599 0.500304 0.930989 0.200304 4.50099 2.8753L7.65099 0.500304Z" fill="#7C0FD1"/>
<path d="M8.5 5.49992C8.5 1.15492 8.525 1.38992 8.44 1.16992C4.47 4.14492 4.735 3.99992 4.5 3.99992C4.265 3.99992 4.5 4.11992 0.56 1.16992C0.5 1.39492 0.5 1.17992 0.5 5.49992C0.5 5.76514 0.605357 6.01949 0.792893 6.20703C0.98043 6.39456 1.23478 6.49992 1.5 6.49992H7.5C7.76522 6.49992 8.01957 6.39456 8.20711 6.20703C8.39464 6.01949 8.5 5.76514 8.5 5.49992Z" fill="#7C0FD1"/>
<path d="M19 4.19555L20.38 3.50055L19 2.81055V4.19555Z" fill="#7C0FD1"/>
<path d="M22.5 0.5H16.5C16.2348 0.5 15.9804 0.605357 15.7929 0.792893C15.6054 0.98043 15.5 1.23478 15.5 1.5V5.5C15.5 5.76522 15.6054 6.01957 15.7929 6.20711C15.9804 6.39464 16.2348 6.5 16.5 6.5H22.5C22.7652 6.5 23.0196 6.39464 23.2071 6.20711C23.3946 6.01957 23.5 5.76522 23.5 5.5V1.5C23.5 1.23478 23.3946 0.98043 23.2071 0.792893C23.0196 0.605357 22.7652 0.5 22.5 0.5ZM20.83 4.395C19.33 5.135 19.33 5.19 19 5.19C18.7348 5.19 18.4804 5.08464 18.2929 4.89711C18.1054 4.70957 18 4.45522 18 4.19C18 2.97 17.86 2.34 18.5 1.96C19.14 1.58 19.555 1.96 20.855 2.605C21.0203 2.69024 21.1585 2.81987 21.2542 2.97934C21.3498 3.13881 21.3992 3.32179 21.3966 3.50774C21.394 3.69368 21.3396 3.87522 21.2395 4.03196C21.1394 4.18869 20.9976 4.31441 20.83 4.395Z" fill="#7C0FD1"/>
<path d="M19.5 20.5C20.0523 20.5 20.5 20.0523 20.5 19.5C20.5 18.9477 20.0523 18.5 19.5 18.5C18.9477 18.5 18.5 18.9477 18.5 19.5C18.5 20.0523 18.9477 20.5 19.5 20.5Z" fill="#7C0FD1"/>
<path d="M23.035 18.5C22.9427 18.5005 22.8523 18.4735 22.7754 18.4224C22.6985 18.3713 22.6385 18.2985 22.6031 18.2133C22.5677 18.128 22.5585 18.0341 22.5767 17.9436C22.5948 17.8531 22.6395 17.77 22.705 17.705C22.7914 17.6179 22.8399 17.5002 22.8399 17.3775C22.8399 17.2548 22.7914 17.1371 22.705 17.05L21.95 16.295C21.9076 16.251 21.8567 16.216 21.8004 16.1921C21.7441 16.1682 21.6836 16.1559 21.6225 16.1559C21.5614 16.1559 21.5009 16.1682 21.4446 16.1921C21.3883 16.216 21.3374 16.251 21.295 16.295C21.23 16.3605 21.1469 16.4052 21.0564 16.4233C20.9659 16.4415 20.872 16.4323 20.7867 16.3969C20.7015 16.3615 20.6287 16.3015 20.5776 16.2246C20.5265 16.1477 20.4995 16.0573 20.5 15.965C20.5 15.8417 20.451 15.7234 20.3638 15.6362C20.2766 15.549 20.1583 15.5 20.035 15.5H18.965C18.8417 15.5 18.7234 15.549 18.6362 15.6362C18.549 15.7234 18.5 15.8417 18.5 15.965C18.5005 16.0573 18.4735 16.1477 18.4224 16.2246C18.3713 16.3015 18.2985 16.3615 18.2133 16.3969C18.128 16.4323 18.0341 16.4415 17.9436 16.4233C17.8531 16.4052 17.77 16.3605 17.705 16.295C17.6626 16.251 17.6117 16.216 17.5554 16.1921C17.4991 16.1682 17.4386 16.1559 17.3775 16.1559C17.3164 16.1559 17.2559 16.1682 17.1996 16.1921C17.1433 16.216 17.0924 16.251 17.05 16.295L16.295 17.05C16.2516 17.0928 16.2172 17.1438 16.1936 17.2C16.1701 17.2562 16.158 17.3166 16.158 17.3775C16.158 17.4384 16.1701 17.4988 16.1936 17.555C16.2172 17.6112 16.2516 17.6622 16.295 17.705C16.3581 17.7709 16.4007 17.8538 16.4175 17.9436C16.4343 18.0333 16.4247 18.126 16.3897 18.2103C16.3547 18.2946 16.2959 18.3669 16.2204 18.4183C16.145 18.4698 16.0563 18.4982 15.965 18.5C15.8417 18.5 15.7234 18.549 15.6362 18.6362C15.549 18.7234 15.5 18.8417 15.5 18.965V20.035C15.5 20.1583 15.549 20.2766 15.6362 20.3638C15.7234 20.451 15.8417 20.5 15.965 20.5C16.0573 20.4995 16.1477 20.5265 16.2246 20.5776C16.3015 20.6287 16.3615 20.7015 16.3969 20.7867C16.4323 20.872 16.4415 20.9659 16.4233 21.0564C16.4052 21.1469 16.3605 21.23 16.295 21.295C16.251 21.3374 16.216 21.3883 16.1921 21.4446C16.1682 21.5009 16.1559 21.5614 16.1559 21.6225C16.1559 21.6836 16.1682 21.7441 16.1921 21.8004C16.216 21.8567 16.251 21.9076 16.295 21.95L17.05 22.705C17.0924 22.749 17.1433 22.784 17.1996 22.8079C17.2559 22.8318 17.3164 22.8441 17.3775 22.8441C17.4386 22.8441 17.4991 22.8318 17.5554 22.8079C17.6117 22.784 17.6626 22.749 17.705 22.705C17.77 22.6395 17.8531 22.5948 17.9436 22.5767C18.0341 22.5585 18.128 22.5677 18.2133 22.6031C18.2985 22.6385 18.3713 22.6985 18.4224 22.7754C18.4735 22.8523 18.5005 22.9427 18.5 23.035C18.5 23.1583 18.549 23.2766 18.6362 23.3638C18.7234 23.451 18.8417 23.5 18.965 23.5H20.035C20.1583 23.5 20.2766 23.451 20.3638 23.3638C20.451 23.2766 20.5 23.1583 20.5 23.035C20.4995 22.9427 20.5265 22.8523 20.5776 22.7754C20.6287 22.6985 20.7015 22.6385 20.7867 22.6031C20.872 22.5677 20.9659 22.5585 21.0564 22.5767C21.1469 22.5948 21.23 22.6395 21.295 22.705C21.3374 22.749 21.3883 22.784 21.4446 22.8079C21.5009 22.8318 21.5614 22.8441 21.6225 22.8441C21.6836 22.8441 21.7441 22.8318 21.8004 22.8079C21.8567 22.784 21.9076 22.749 21.95 22.705L22.705 21.95C22.749 21.9076 22.784 21.8567 22.8079 21.8004C22.8318 21.7441 22.8441 21.6836 22.8441 21.6225C22.8441 21.5614 22.8318 21.5009 22.8079 21.4446C22.784 21.3883 22.749 21.3374 22.705 21.295C22.6395 21.23 22.5948 21.1469 22.5767 21.0564C22.5585 20.9659 22.5677 20.872 22.6031 20.7867C22.6385 20.7015 22.6985 20.6287 22.7754 20.5776C22.8523 20.5265 22.9427 20.4995 23.035 20.5C23.1583 20.5 23.2766 20.451 23.3638 20.3638C23.451 20.2766 23.5 20.1583 23.5 20.035V18.965C23.5 18.8417 23.451 18.7234 23.3638 18.6362C23.2766 18.549 23.1583 18.5 23.035 18.5ZM19.5 21.5C19.1044 21.5 18.7178 21.3827 18.3889 21.1629C18.06 20.9432 17.8036 20.6308 17.6522 20.2654C17.5009 19.8999 17.4613 19.4978 17.5384 19.1098C17.6156 18.7219 17.8061 18.3655 18.0858 18.0858C18.3655 17.8061 18.7219 17.6156 19.1098 17.5384C19.4978 17.4613 19.8999 17.5009 20.2654 17.6522C20.6308 17.8036 20.9432 18.06 21.1629 18.3889C21.3827 18.7178 21.5 19.1044 21.5 19.5C21.5 20.0304 21.2893 20.5391 20.9142 20.9142C20.5391 21.2893 20.0304 21.5 19.5 21.5Z" fill="#7C0FD1"/>
<path d="M3.70868 15.7852L1.93868 17.5502C1.65778 17.8314 1.5 18.2127 1.5 18.6102C1.5 19.0077 1.65778 19.3889 1.93868 19.6702L3.35368 21.0852C3.63493 21.3661 4.01618 21.5238 4.41368 21.5238C4.81118 21.5238 5.19243 21.3661 5.47368 21.0852L7.24368 19.3202L3.70868 15.7852Z" fill="#7C0FD1"/>
<path d="M7.59359 20.3809L6.18359 21.7959L7.59359 23.2059C7.78575 23.3632 8.0296 23.4434 8.27765 23.4309C8.5257 23.4184 8.76021 23.314 8.93553 23.138C9.11084 22.9621 9.2144 22.7272 9.22606 22.4791C9.23772 22.231 9.15664 21.9875 8.99859 21.7959L7.59359 20.3809Z" fill="#7C0FD1"/>
<path d="M4.28906 14.9509L8.07406 18.7359L14.3141 15.7809L7.24406 8.71094L4.28906 14.9509Z" fill="#7C0FD1"/>
<path d="M10.2617 10.3154L12.7117 12.7654C12.8027 12.4262 12.8028 12.069 12.712 11.7298C12.6212 11.3905 12.4426 11.0812 12.1943 10.8329C11.9459 10.5845 11.6366 10.406 11.2973 10.3151C10.9581 10.2243 10.6009 10.2244 10.2617 10.3154Z" fill="#7C0FD1"/>
<path d="M13.6046 9.92075C13.8796 9.92075 13.8896 9.84075 15.0196 8.71075C15.1137 8.61726 15.1669 8.4902 15.1674 8.35752C15.1678 8.22484 15.1156 8.0974 15.0221 8.00325C14.9286 7.9091 14.8015 7.85594 14.6689 7.85547C14.5362 7.855 14.4087 7.90726 14.3146 8.00075L13.2546 9.06075C13.1826 9.1301 13.1331 9.21942 13.1124 9.31718C13.0917 9.41495 13.1008 9.51667 13.1384 9.60924C13.1761 9.7018 13.2407 9.78095 13.3237 9.83647C13.4068 9.892 13.5047 9.92135 13.6046 9.92075Z" fill="#7C0FD1"/>
<path d="M12 8.5V7C12 6.86739 11.9473 6.74021 11.8536 6.64645C11.7598 6.55268 11.6326 6.5 11.5 6.5C11.3674 6.5 11.2402 6.55268 11.1464 6.64645C11.0527 6.74021 11 6.86739 11 7V8.5C11 8.63261 11.0527 8.75979 11.1464 8.85355C11.2402 8.94732 11.3674 9 11.5 9C11.6326 9 11.7598 8.94732 11.8536 8.85355C11.9473 8.75979 12 8.63261 12 8.5Z" fill="#7C0FD1"/>
<path d="M16 11H14.5C14.3674 11 14.2402 11.0527 14.1464 11.1464C14.0527 11.2402 14 11.3674 14 11.5C14 11.6326 14.0527 11.7598 14.1464 11.8536C14.2402 11.9473 14.3674 12 14.5 12H16C16.1326 12 16.2598 11.9473 16.3536 11.8536C16.4473 11.7598 16.5 11.6326 16.5 11.5C16.5 11.3674 16.4473 11.2402 16.3536 11.1464C16.2598 11.0527 16.1326 11 16 11Z" fill="#7C0FD1"/>
</g>
<defs>
<clipPath id="clip0_2175_21225">
<rect width="24" height="24" fill="white"/>
</clipPath>
</defs>
</svg>
