<svg width="24" height="24" viewBox="0 0 24 24" fill="none" xmlns="http://www.w3.org/2000/svg">
<path d="M12 4.21875C11.612 4.21875 11.2969 4.53387 11.2969 4.92188C11.2969 5.17657 11.3734 5.2002 12 6.68042C12.6302 5.19214 12.7031 5.17896 12.7031 4.92188C12.7031 4.53387 12.388 4.21875 12 4.21875Z" fill="#7C0FD1"/>
<path d="M11.3551 11.672C11.1546 12.1387 11.4965 12.656 12.0006 12.656C12.5043 12.656 12.8473 12.1393 12.6453 11.6707L12.0006 10.1943L11.3551 11.672Z" fill="#7C0FD1"/>
<path d="M2.85938 2.1095V21.8907C2.85938 22.2094 2.93555 22.5084 3.06262 22.7795L5.3725 19.3145C5.76453 18.726 6.42096 18.3751 7.12756 18.3751H16.8724C17.579 18.3751 18.2355 18.726 18.6275 19.3145L20.9376 22.7792C21.0645 22.5084 21.1406 22.2094 21.1406 21.8907V2.1095C21.1406 1.79089 21.0645 1.49188 20.9374 1.2207L18.6275 4.68579C18.2355 5.27429 17.579 5.62512 16.8724 5.62512H13.9786C13.9623 5.67126 13.9539 5.71942 13.9343 5.76447L12.767 8.43762L13.9336 11.1093C14.5415 12.5077 13.5112 14.0626 12 14.0626C10.4832 14.0626 9.46106 12.5024 10.0657 11.1108L11.233 8.43762L10.0664 5.76593C10.0657 5.7652 10.0657 5.7652 10.0657 5.76447C10.0461 5.71942 10.0377 5.67126 10.0214 5.62512H7.12756C6.42096 5.62512 5.76453 5.27429 5.3725 4.68579L3.06262 1.2207C2.93555 1.49188 2.85938 1.79089 2.85938 2.1095Z" fill="#7C0FD1"/>
<path d="M13.9784 4.21875H16.8709C17.1064 4.21875 17.3254 4.10211 17.4559 3.90564L19.9227 0.205444C19.6505 0.0772705 19.35 0 19.0297 0H4.96722C4.64697 0 4.3465 0.0772705 4.07422 0.205444L6.54102 3.90564C6.67157 4.10211 6.89056 4.21875 7.12604 4.21875H10.0186C10.3099 3.4021 11.0829 2.8125 11.9985 2.8125C12.914 2.8125 13.6871 3.4021 13.9784 4.21875Z" fill="#7C0FD1"/>
<path d="M17.4559 20.0944C17.3256 19.8981 17.1064 19.7812 16.8709 19.7812H7.12604C6.89056 19.7812 6.67157 19.8979 6.54102 20.0944L4.07422 23.7946C4.3465 23.9227 4.64697 24 4.96722 24H19.0297C19.35 24 19.6506 23.9227 19.9227 23.7944L17.4559 20.0944Z" fill="#7C0FD1"/>
</svg>
