<svg width="24" height="24" viewBox="0 0 24 24" fill="none" xmlns="http://www.w3.org/2000/svg">
<path fill-rule="evenodd" clip-rule="evenodd" d="M6.91978 19.8146C6.55269 19.8146 6.25436 20.1132 6.25436 20.48C6.25436 20.8467 6.55269 21.145 6.91978 21.145C7.28643 21.145 7.58498 20.8467 7.58498 20.48C7.58503 20.1132 7.28643 19.8146 6.91978 19.8146ZM16.2625 4.06899H18.0197V4.0039C18.0197 3.51955 17.6256 3.1254 17.1412 3.1254C16.6567 3.1254 16.2625 3.51955 16.2625 4.0039V4.06899ZM15.247 4.82851L14.5315 9.32754C14.5284 9.34761 14.5415 9.36342 14.5622 9.36342H19.7203C19.7336 9.36342 19.7349 9.36256 19.7435 9.35268C19.7523 9.34258 19.7527 9.34065 19.751 9.32754L19.0355 4.82851C19.0327 4.81197 19.0218 4.80251 19.0048 4.80251H18.7531V4.86052C18.7531 5.06307 18.5886 5.22717 18.3864 5.22717C18.1839 5.22717 18.0198 5.06307 18.0198 4.86052V4.80251H16.2626V4.86052C16.2626 5.06307 16.0985 5.22717 15.8959 5.22717C15.6938 5.22717 15.5293 5.06307 15.5293 4.86052V4.80251H15.2778C15.2607 4.80251 15.2498 4.81197 15.247 4.82851ZM4.54478 1.81241H9.28489L9.54889 1.00004H4.28083L4.54478 1.81241ZM11.2823 6.85895C11.2823 3.62848 13.9103 1.00004 17.1412 1.00004C20.372 1.00004 23 3.62848 23 6.85895C23 10.0896 20.372 12.7179 17.1412 12.7179C16.1534 12.7179 15.1763 12.4672 14.3165 11.9929C14.2228 11.9416 14.112 11.9332 14.0117 11.9704L11.4569 12.9183L11.9859 9.80677C11.999 9.72775 11.9864 9.64611 11.9488 9.575C11.5128 8.74334 11.2823 7.80426 11.2823 6.85895ZM13.8072 9.21243L14.5227 4.7134C14.582 4.34008 14.8995 4.06904 15.2777 4.06904H15.5292V4.00394C15.5292 3.11535 16.2524 2.39214 17.1412 2.39214C18.0298 2.39214 18.7531 3.11535 18.7531 4.00394V4.06904H19.0048C19.3828 4.06904 19.7005 4.34013 19.7596 4.7134L20.475 9.21247C20.5491 9.67718 20.1908 10.0968 19.7202 10.0968H14.5622C14.0914 10.0968 13.7333 9.67731 13.8072 9.21243ZM5.52104 20.4801C5.52104 19.7087 6.14848 19.0813 6.91978 19.0813C7.69069 19.0813 8.31829 19.7088 8.31829 20.4801C8.31829 21.2512 7.69064 21.8786 6.91978 21.8786C6.14848 21.8786 5.52104 21.2512 5.52104 20.4801ZM12.8393 21.7624C12.8393 22.4448 12.1404 23 11.281 23H2.55836C1.69898 23 1 22.4448 1 21.7624V2.23767C1 1.55528 1.69898 1.00004 2.55836 1.00004H3.52689C3.52732 1.03614 3.53333 1.07283 3.54472 1.10893L3.92921 2.29241C3.97858 2.4434 4.11952 2.54588 4.27803 2.54588H9.55125C9.71019 2.54588 9.85088 2.4434 9.89986 2.29241L10.2947 1.07842C10.3028 1.05242 10.3078 1.02621 10.3106 1H11.281C11.9845 1 12.5992 1.37568 12.7848 1.91588C11.4149 3.12471 10.549 4.89249 10.549 6.85891C10.549 7.88023 10.7883 8.89558 11.2423 9.80394L10.6278 13.4215C10.5804 13.7006 10.8533 13.9239 11.1169 13.8268L12.8393 13.1876V21.7624Z" fill="#7C0FD1"/>
</svg>
