<svg width="24" height="24" viewBox="0 0 24 24" fill="none" xmlns="http://www.w3.org/2000/svg">
<path d="M16.5117 6.19922V3.62109H1.64453C1.28828 3.62109 1 3.90937 1 4.26562V6.19922H16.5117Z" fill="#7C0FD1"/>
<path d="M13.9336 15.2227H17.9808L18.8406 12.6445H13.9336V15.2227Z" fill="#7C0FD1"/>
<path d="M17.8008 6.19922H23V4.26562C23 3.90937 22.7117 3.62109 22.3555 3.62109H17.8008V6.19922Z" fill="#7C0FD1"/>
<path d="M1 7.48828V19.7344C1 20.0906 1.28828 20.3789 1.64453 20.3789H22.3555C22.7117 20.3789 23 20.0906 23 19.7344V7.48828H1ZM8.13281 17.8008H4.26562C3.90937 17.8008 3.62109 17.5125 3.62109 17.1562C3.62109 16.8 3.90937 16.5117 4.26562 16.5117H8.13281C8.48907 16.5117 8.77734 16.8 8.77734 17.1562C8.77734 17.5125 8.48907 17.8008 8.13281 17.8008ZM8.13281 15.2227H4.26562C3.90937 15.2227 3.62109 14.9344 3.62109 14.5781C3.62109 14.2219 3.90937 13.9336 4.26562 13.9336H8.13281C8.48907 13.9336 8.77734 14.2219 8.77734 14.5781C8.77734 14.9344 8.48907 15.2227 8.13281 15.2227ZM8.13281 12.6445H4.26562C3.90937 12.6445 3.62109 12.3563 3.62109 12C3.62109 11.6437 3.90937 11.3555 4.26562 11.3555H8.13281C8.48907 11.3555 8.77734 11.6437 8.77734 12C8.77734 12.3563 8.48907 12.6445 8.13281 12.6445ZM8.13281 10.0664H4.26562C3.90937 10.0664 3.62109 9.77813 3.62109 9.42188C3.62109 9.06562 3.90937 8.77734 4.26562 8.77734H8.13281C8.48907 8.77734 8.77734 9.06562 8.77734 9.42188C8.77734 9.77813 8.48907 10.0664 8.13281 10.0664ZM20.3462 12.2039L19.0571 16.0711C18.969 16.3342 18.7222 16.5117 18.4453 16.5117H17.8008V17.1562C17.8008 17.5125 17.5125 17.8008 17.1562 17.8008C16.8 17.8008 16.5117 17.5125 16.5117 17.1562V16.5117H15.2227V17.1562C15.2227 17.5125 14.9344 17.8008 14.5781 17.8008C14.2219 17.8008 13.9336 17.5125 13.9336 17.1562V16.5117H13.2891C12.9328 16.5117 12.6445 16.2234 12.6445 15.8672V10.7109C12.6445 10.3553 12.355 10.0664 12 10.0664H10.7109C10.3547 10.0664 10.0664 9.77813 10.0664 9.42188C10.0664 9.06562 10.3547 8.77734 10.7109 8.77734H12C13.0662 8.77734 13.9336 9.64471 13.9336 10.7109V11.3555H19.7344C19.9421 11.3555 20.136 11.4549 20.2568 11.623C20.3789 11.791 20.4116 12.0076 20.3462 12.2039Z" fill="#7C0FD1"/>
</svg>
