<svg width="24" height="24" viewBox="0 0 24 24" fill="none" xmlns="http://www.w3.org/2000/svg">
<g clip-path="url(#clip0_2175_21258)">
<path d="M21.7924 1.5H11.2482C10.028 1.5 9.03906 2.48914 9.03906 3.70917V8.90295C9.59644 9.17999 10.1987 9.47955 10.7608 9.75897L11.6208 8.03815C12.1416 6.99756 13.4111 6.57477 14.4513 7.0946C15.4937 7.61627 15.9161 8.88226 15.3943 9.92487L13.8611 12.9919C13.9018 13.3978 13.8657 13.8071 13.7513 14.2031H14.7635L12.0938 21.5442C11.9354 21.9796 12.2416 22.4877 12.7548 22.4877C13.0417 22.4877 13.3116 22.3107 13.4153 22.0247L16.2596 14.2031H16.7524L19.6257 22.027C19.7302 22.3116 19.9994 22.4877 20.2861 22.4877C20.7657 22.4877 21.1172 22.0087 20.9457 21.5424L18.2504 14.2031H21.7924C23.0124 14.2031 24.0015 13.214 24.0015 11.994V3.70917C24.0015 2.48914 23.0124 1.5 21.7924 1.5ZM20.2858 11.1909H17.131C16.7429 11.1909 16.4279 10.8759 16.4279 10.4877C16.4279 10.0992 16.7429 9.78461 17.131 9.78461H20.2858C20.6743 9.78461 20.9889 10.0992 20.9889 10.4877C20.9889 10.8759 20.6743 11.1909 20.2858 11.1909ZM20.2858 8.55469H17.131C16.7429 8.55469 16.4279 8.24011 16.4279 7.85156C16.4279 7.46338 16.7429 7.14844 17.131 7.14844H20.2858C20.6743 7.14844 20.9889 7.46338 20.9889 7.85156C20.9889 8.24011 20.6743 8.55469 20.2858 8.55469ZM20.2858 5.91888H12.7548C12.3663 5.91888 12.0517 5.60394 12.0517 5.21576C12.0517 4.82758 12.3663 4.51263 12.7548 4.51263H20.2858C20.6743 4.51263 20.9889 4.82758 20.9889 5.21576C20.9889 5.60394 20.6743 5.91888 20.2858 5.91888Z" fill="#7C0FD1"/>
<path d="M12.3713 13.9016C12.4984 13.5293 12.4975 13.1404 12.3902 12.7855L14.1352 9.2959C14.3088 8.94855 14.1682 8.52612 13.8208 8.35254C13.4736 8.17877 13.0512 8.31958 12.8774 8.66693L11.3892 11.6431C10.4996 11.2002 9.14813 10.5282 8.05939 9.98676C7.04645 9.48303 6.32355 9.03131 5.09015 9.03131H4.46887C5.42926 9.03131 6.28638 8.58929 6.84741 7.89752C7.27551 7.37109 7.53149 6.7002 7.53149 5.96906C7.53149 4.27734 6.1604 2.90625 4.46851 2.90625C2.77734 2.90625 1.40625 4.27734 1.40625 5.96906C1.40625 6.78149 1.72266 7.51978 2.23883 8.06763C2.79694 8.66107 3.5896 9.03131 4.46832 9.03149C3.29022 9.03149 2.13849 9.50885 1.30994 10.3396C0.465271 11.1821 0 12.3045 0 13.5002V15.7595C0 16.7322 0.631531 17.5598 1.50623 17.8542V21.7844C1.50623 22.1728 1.82098 22.4875 2.20935 22.4875H6.72803C7.11639 22.4875 7.43115 22.1728 7.43115 21.7844V13.8843C8.09784 14.2176 8.97363 14.6554 9.68225 15.0099C10.179 15.2582 10.7595 15.2805 11.2771 15.0699C11.7933 14.8575 12.1912 14.4348 12.3686 13.9098C12.3695 13.907 12.3704 13.9043 12.3713 13.9016Z" fill="#7C0FD1"/>
</g>
<defs>
<clipPath id="clip0_2175_21258">
<rect width="24" height="24" fill="white"/>
</clipPath>
</defs>
</svg>
