<svg width="24" height="24" viewBox="0 0 24 24" fill="none" xmlns="http://www.w3.org/2000/svg">
<path d="M20.502 5.18375C18.9905 4.92414 15.2598 4.57227 12.3725 4.57227C12.252 4.57227 12.1332 4.57227 12.0186 4.57227H11.9827C11.8693 4.57227 11.7512 4.57227 11.6308 4.57227C8.8365 4.57227 5.25166 4.90186 3.65336 5.15873C3.51261 6.18738 3.38906 8.29394 3.38672 9.57672C3.38906 11.0374 3.54975 13.5701 3.71279 14.3564C3.99976 15.6517 5.25557 16.8383 6.55399 17.0901C7.21865 17.223 9.63682 17.3825 11.2574 17.42V19.1133L8.71412 20.6299C8.63033 20.6799 8.5572 20.7459 8.4989 20.8241C8.4406 20.9023 8.39828 20.9912 8.37436 21.0858C8.35043 21.1804 8.34537 21.2787 8.35946 21.3753C8.37355 21.4718 8.40651 21.5646 8.45647 21.6484C8.50643 21.7322 8.5724 21.8053 8.65062 21.8636C8.72884 21.9219 8.81778 21.9643 8.91235 21.9882C9.00693 22.0121 9.10529 22.0172 9.20182 22.0031C9.29835 21.989 9.39116 21.956 9.47496 21.9061L12.0006 20.3985L14.5259 21.9045C14.6952 22.0054 14.8976 22.035 15.0886 21.9868C15.2796 21.9385 15.4437 21.8163 15.5446 21.647C15.6456 21.4778 15.6752 21.2754 15.6269 21.0844C15.5786 20.8933 15.4564 20.7293 15.2872 20.6284L12.7435 19.1118V17.422C14.3609 17.3907 16.9117 17.2265 17.5982 17.0885C18.8966 16.8367 20.1524 15.6501 20.439 14.3548C20.6024 13.5682 20.7627 11.0354 20.7655 9.57516C20.7627 8.30411 20.6412 6.22139 20.502 5.18375ZM17.9884 8.20597C17.7777 9.06611 17.5947 9.9501 17.3941 10.7297C17.2647 11.2446 16.4433 11.3162 16.1493 10.8783C16.0745 10.7631 16.0004 10.6458 15.9272 10.5264L15.9119 10.5112L13.5532 12.8703C13.2824 13.1409 12.9152 13.2929 12.5324 13.2929C12.1495 13.2929 11.7824 13.1409 11.5115 12.8703L9.96758 11.3252C9.96084 11.3184 9.9517 11.3146 9.94217 11.3146C9.93264 11.3146 9.9235 11.3184 9.91675 11.3252L7.19167 14.0491C7.0593 14.1792 6.88086 14.2518 6.69521 14.2511C6.50955 14.2503 6.33174 14.1761 6.20048 14.0448C6.06923 13.9135 5.99518 13.7357 5.99446 13.55C5.99374 13.3644 6.06641 13.186 6.19664 13.0536L8.92016 10.3301C9.19128 10.0601 9.55835 9.9085 9.941 9.9085C10.3236 9.9085 10.6907 10.0601 10.9618 10.3301L12.5058 11.8741C12.5091 11.8776 12.5131 11.8803 12.5175 11.8822C12.522 11.884 12.5268 11.8848 12.5316 11.8846C12.5363 11.8849 12.5411 11.884 12.5455 11.8822C12.5499 11.8804 12.5538 11.8776 12.557 11.8741L14.9197 9.51182C14.7938 9.43363 14.6694 9.35543 14.5482 9.27724C14.1096 8.98323 14.1819 8.1614 14.6968 8.03238C15.4764 7.83181 16.36 7.64883 17.2205 7.4381C17.7116 7.31846 18.1088 7.7153 17.9884 8.20597Z" fill="#7C0FD1"/>
<path d="M21.0705 4.55706C21.0086 4.55709 20.9468 4.55093 20.886 4.53868C19.4226 4.24623 15.0503 3.83493 12.0109 3.87012H11.9906C8.94802 3.83688 4.57733 4.24623 3.11548 4.53868C2.99467 4.56297 2.87026 4.56322 2.74935 4.53942C2.62844 4.51563 2.51341 4.46825 2.41081 4.4C2.30821 4.33174 2.22006 4.24395 2.15139 4.14163C2.08272 4.03931 2.03488 3.92446 2.01059 3.80365C1.98631 3.68284 1.98605 3.55843 2.00985 3.43752C2.03364 3.31661 2.08102 3.20158 2.14928 3.09898C2.21753 2.99638 2.30532 2.90823 2.40764 2.83956C2.50997 2.77089 2.62481 2.72305 2.74562 2.69876C4.4659 2.3547 9.0704 1.96295 12 1.99501C13.3942 1.98054 15.2118 2.056 17.1217 2.20848C18.8701 2.34845 20.4157 2.53221 21.2559 2.70033C21.4825 2.74777 21.6835 2.87732 21.8204 3.06407C21.9573 3.25081 22.0203 3.48156 21.9973 3.71194C21.9743 3.94232 21.8669 4.15607 21.6958 4.31208C21.5248 4.46809 21.3021 4.55534 21.0705 4.55706Z" fill="#7C0FD1"/>
</svg>
