<svg width="24" height="24" viewBox="0 0 24 24" fill="none" xmlns="http://www.w3.org/2000/svg">
<path d="M4.64062 13.4707L6.63673 11.4746L11.2977 16.1356L9.30164 18.1317L4.64062 13.4707Z" fill="#7C0FD1"/>
<path d="M9 18.9645L8.97495 18.9845C8.32209 19.6349 7.43845 20 6.51733 20C5.5962 20 4.71256 19.6349 4.05971 18.9845L4.01461 18.9394C3.3648 18.286 3 17.4016 3 16.4797C3 15.5578 3.3648 14.6735 4.01461 14.0201L4.03967 14L9 18.9645Z" fill="#7C0FD1"/>
<path d="M20.8687 11.0669C20.2819 10.1513 19.6349 9.27013 18.9314 8.42847C18.9266 8.41954 18.917 8.41062 18.9073 8.39722C17.4295 6.63995 15.7117 5.06871 13.7973 3.72305C13.7591 3.70331 13.7236 3.67932 13.6916 3.65162C12.9031 3.10044 12.0831 2.58927 11.2351 2.12035C11.112 2.05288 10.9739 2.01256 10.8314 2.00249C10.6889 1.99243 10.5457 2.0129 10.4131 2.06231C10.2757 2.11192 10.1524 2.18998 10.0524 2.29055C9.95244 2.39112 9.8785 2.51156 9.83623 2.64267C9.55502 3.56796 9.32874 4.50689 9.15842 5.45522C8.79307 7.27667 8.48061 8.86598 7 10.5356L11.8072 15C11.9418 14.8973 12.0764 14.7991 12.211 14.7098C12.3552 14.6071 12.5042 14.5134 12.6484 14.4286C14.1483 13.5312 15.6241 13.2812 17.2777 12.9955C18.2989 12.8373 19.3099 12.6272 20.3062 12.366C20.4478 12.3274 20.5778 12.259 20.6862 12.1661C20.7946 12.0732 20.8784 11.9583 20.9312 11.8303C20.9855 11.7073 21.0082 11.5743 20.9974 11.4417C20.9865 11.3092 20.9424 11.1808 20.8687 11.0669Z" fill="#7C0FD1"/>
<path d="M16.9928 20.6724C17.0175 20.8955 16.9782 21.1209 16.8794 21.3231C16.7805 21.5252 16.6261 21.6958 16.4338 21.8155C16.2415 21.9352 16.019 21.9991 15.7917 22C15.5644 22.0009 15.3414 21.9387 15.1481 21.8205L12 19.7321L13.7545 18L16.4414 19.7915C16.5941 19.8884 16.7229 20.0178 16.8183 20.1702C16.9137 20.3226 16.9734 20.4942 16.9928 20.6724Z" fill="#7C0FD1"/>
<path d="M13 17.7238L11.3542 20L10 19.5304L10.0679 19.4365L12.3129 16.3315L12.3249 16.3149C12.4128 16.2044 12.5007 16.105 12.5885 16L13 17.7238Z" fill="#7C0FD1"/>
<path d="M19 6.09051C19.0009 6.39854 18.9567 6.70502 18.8688 7C17.7162 5.58347 16.4195 4.2931 15 3.15013C15.3033 3.04952 15.6206 2.99884 15.9399 3.00002C16.7512 3.00096 17.529 3.32686 18.1027 3.90624C18.6764 4.48561 18.9991 5.27115 19 6.09051Z" fill="#7C0FD1"/>
</svg>
