<svg width="24" height="24" viewBox="0 0 24 24" fill="none" xmlns="http://www.w3.org/2000/svg">
<path d="M20.5107 2.03025C20.3697 1.86397 20.1943 1.73039 19.9965 1.63882C19.7987 1.54724 19.5834 1.49987 19.3654 1.5H4.6369C4.41903 1.49997 4.20376 1.54741 4.00607 1.63901C3.80839 1.73062 3.63303 1.86418 3.4922 2.03043C3.35137 2.19667 3.24844 2.3916 3.19058 2.60165C3.13272 2.8117 3.12131 3.03184 3.15715 3.24675L3.6574 6.24675C3.71465 6.59739 3.89498 6.91615 4.16604 7.14583C4.43709 7.37551 4.78113 7.50108 5.1364 7.5H18.8659C19.2212 7.50108 19.5652 7.37551 19.8363 7.14583C20.1073 6.91615 20.2877 6.59739 20.3449 6.24675L20.8452 3.24675C20.8811 3.03185 20.8698 2.81171 20.812 2.60162C20.7543 2.39154 20.6514 2.19656 20.5107 2.03025Z" fill="#7C0FD1"/>
<path d="M17.7104 9H6.29092C6.05312 8.99971 5.81865 9.05596 5.60686 9.16411C5.39508 9.27226 5.21204 9.42922 5.07285 9.62203C4.93366 9.81485 4.84231 10.038 4.80633 10.2731C4.77035 10.5081 4.79078 10.7484 4.86592 10.974L5.86567 13.974C5.96532 14.2732 6.15671 14.5333 6.41266 14.7175C6.66861 14.9017 6.97609 15.0006 7.29142 15H16.7099C17.0251 15.0004 17.3324 14.9015 17.5882 14.7173C17.844 14.5331 18.0353 14.2731 18.1349 13.974L19.1347 10.974C19.2098 10.7484 19.2302 10.5083 19.1943 10.2732C19.1584 10.0382 19.0671 9.81514 18.928 9.62234C18.7889 9.42954 18.6059 9.27257 18.3942 9.16437C18.1825 9.05616 17.9482 8.99983 17.7104 9Z" fill="#7C0FD1"/>
<path d="M15.4604 16.5H8.54092C8.30312 16.4997 8.06865 16.556 7.85686 16.6641C7.64508 16.7723 7.46204 16.9292 7.32285 17.122C7.18366 17.3148 7.09231 17.538 7.05633 17.7731C7.02035 18.0081 7.04078 18.2484 7.11592 18.474L8.11567 21.474C8.21532 21.7732 8.40671 22.0333 8.66266 22.2175C8.91861 22.4017 9.22609 22.5006 9.54142 22.5H14.4599C14.7751 22.5004 15.0824 22.4015 15.3382 22.2173C15.594 22.0331 15.7853 21.7731 15.8849 21.474L16.8847 18.474C16.9598 18.2484 16.9802 18.0083 16.9443 17.7732C16.9084 17.5382 16.8171 17.3151 16.678 17.1223C16.5389 16.9295 16.3559 16.7726 16.1442 16.6644C15.9325 16.5562 15.6982 16.4998 15.4604 16.5Z" fill="#7C0FD1"/>
</svg>
