<svg width="24" height="24" viewBox="0 0 24 24" fill="none" xmlns="http://www.w3.org/2000/svg">
<g clip-path="url(#clip0_2175_21220)">
<path d="M13.8359 6.6084C14.4831 6.6084 15.0078 6.08373 15.0078 5.43652C15.0078 4.78931 14.4831 4.26465 13.8359 4.26465C13.1887 4.26465 12.6641 4.78931 12.6641 5.43652C12.6641 6.08373 13.1887 6.6084 13.8359 6.6084Z" fill="#7C0FD1"/>
<path d="M1.17188 10.8267H1.86816V13.5032C1.86816 13.7876 2.03948 14.044 2.30222 14.1528C2.38922 14.1889 2.48058 14.2064 2.57114 14.2064C2.75414 14.2064 2.93395 14.135 3.06848 14.0004L6.2422 10.8268H18.1016C18.7478 10.8268 19.2735 10.3011 19.2735 9.65489V1.17188C19.2735 0.525703 18.7478 0 18.1016 0H1.17188C0.525703 0 0 0.525703 0 1.17188V9.65484C0 10.301 0.525703 10.8267 1.17188 10.8267ZM3.04158 7.22803C2.78081 6.94027 2.8027 6.49561 3.09047 6.23484C3.37814 5.97412 3.82284 5.99592 4.08366 6.28373C4.1527 6.35995 4.41352 6.60862 4.86942 6.60862C5.13656 6.60862 5.27972 6.45422 5.29378 6.37542C5.30212 6.32878 5.19914 6.21722 4.95173 6.126C4.36294 5.90883 3.83963 5.67586 3.81764 5.66606C3.78375 5.65097 3.75117 5.6332 3.72009 5.61295C3.24745 5.3048 3.00389 4.76466 3.08442 4.20342C3.16945 3.61125 3.59869 3.12998 4.20464 2.94745C4.81027 2.76502 5.42564 2.862 6.03375 3.23583C6.36459 3.43917 6.46791 3.8722 6.26456 4.20305C6.06122 4.53389 5.62814 4.6372 5.29734 4.43386C5.03184 4.27069 4.82639 4.22883 4.61025 4.29394C4.53173 4.31756 4.48294 4.35741 4.47638 4.4033C4.47539 4.41014 4.47534 4.4153 4.476 4.41933C4.64194 4.49128 5.02758 4.6552 5.4383 4.8067C5.88023 4.96973 6.21558 5.21292 6.43509 5.52956C6.65977 5.85366 6.74602 6.24187 6.67805 6.62269C6.534 7.42941 5.77331 8.01497 4.86933 8.01497C4.16095 8.01492 3.49472 7.72809 3.04158 7.22803ZM9.72862 4.73367C10.1169 4.73367 10.4317 5.04848 10.4317 5.4368C10.4317 5.82511 10.1169 6.13992 9.72862 6.13992H8.98153V6.59156H9.84408C10.2324 6.59156 10.5472 6.90637 10.5472 7.29469C10.5472 7.683 10.2324 7.99781 9.84408 7.99781H8.27841C7.89009 7.99781 7.57528 7.683 7.57528 7.29469V3.57891C7.57528 3.19059 7.89009 2.87578 8.27841 2.87578H9.84408C10.2324 2.87578 10.5472 3.19059 10.5472 3.57891C10.5472 3.96722 10.2324 4.28203 9.84408 4.28203H8.98153V4.73367H9.72862ZM11.2578 5.4368C11.2578 4.01522 12.4143 2.85867 13.8359 2.85867C15.2575 2.85867 16.414 4.01522 16.414 5.4368C16.414 6.85838 15.2575 8.01492 13.8359 8.01492C12.4143 8.01492 11.2578 6.85838 11.2578 5.4368Z" fill="#7C0FD1"/>
<path d="M23.2969 22.5933H22.5898V13.3066C22.5898 12.6605 22.0641 12.1348 21.4179 12.1348H19.5349C18.8887 12.1348 18.363 12.6605 18.363 13.3066V22.5933H16.9389V16.454C16.9389 15.8078 16.4132 15.2821 15.767 15.2821H13.884C13.2378 15.2821 12.7121 15.8078 12.7121 16.454V22.5933H11.288V15.1414C11.288 14.4953 10.7623 13.9695 10.1161 13.9695H8.23308C7.58691 13.9695 7.0612 14.4953 7.0612 15.1414V22.5933H5.63709V18.3344C5.63709 17.6882 5.11139 17.1625 4.46522 17.1625H2.58211C1.93594 17.1625 1.41023 17.6882 1.41023 18.3344V22.5933H0.703125C0.314812 22.5933 0 22.9081 0 23.2965C0 23.6848 0.314812 23.9996 0.703125 23.9996H23.2969C23.6852 23.9996 24 23.6848 24 23.2965C24 22.9081 23.6852 22.5933 23.2969 22.5933Z" fill="#7C0FD1"/>
</g>
<defs>
<clipPath id="clip0_2175_21220">
<rect width="24" height="24" fill="white"/>
</clipPath>
</defs>
</svg>
