<svg width="24" height="24" viewBox="0 0 24 24" fill="none" xmlns="http://www.w3.org/2000/svg">
<path d="M2.1518 8.03971H2.22475V9H11.5582C11.4889 8.78554 11.478 8.55484 11.5269 8.3342C11.5758 8.11355 11.6824 7.91183 11.8346 7.75203L13.0747 6.44733C13.1944 6.31966 13.3396 6.22177 13.4996 6.16079C13.6597 6.09981 13.8306 6.07727 14 6.09481V5.21556C13.9998 4.89325 13.8783 4.58421 13.6624 4.35631C13.4464 4.1284 13.1536 4.00025 12.8482 4H2.1518C1.8466 4.00094 1.55415 4.12931 1.33834 4.35707C1.12253 4.58482 1.00089 4.89346 1 5.21556V6.82415C1.00089 7.14625 1.12253 7.45488 1.33834 7.68264C1.55415 7.9104 1.8466 8.03877 2.1518 8.03971ZM5.98346 5.61264C6.08396 5.61477 6.17966 5.65839 6.25002 5.73415C6.32038 5.80991 6.35978 5.91176 6.35978 6.01784C6.35978 6.12392 6.32036 6.22577 6.25 6.30152C6.17964 6.37728 6.08393 6.4209 5.98344 6.42301C5.88294 6.42089 5.78724 6.37727 5.71688 6.30151C5.64652 6.22575 5.60712 6.1239 5.60712 6.01782C5.60712 5.91174 5.64654 5.80989 5.7169 5.73413C5.78726 5.65838 5.88297 5.61476 5.98346 5.61264ZM4.44773 5.61264C4.54822 5.61477 4.64392 5.65839 4.71428 5.73415C4.78464 5.80991 4.82405 5.91176 4.82405 6.01784C4.82404 6.12392 4.78463 6.22577 4.71427 6.30152C4.6439 6.37728 4.5482 6.4209 4.4477 6.42301C4.34721 6.42089 4.25151 6.37727 4.18115 6.30151C4.11079 6.22575 4.07138 6.1239 4.07138 6.01782C4.07139 5.91174 4.1108 5.80989 4.18116 5.73413C4.25153 5.65838 4.34723 5.61476 4.44773 5.61264ZM2.91199 5.61264C3.01249 5.61477 3.10819 5.65839 3.17855 5.73415C3.24891 5.80991 3.28831 5.91176 3.28831 6.01784C3.28831 6.12392 3.24889 6.22577 3.17853 6.30152C3.10817 6.37728 3.01246 6.4209 2.91197 6.42301C2.81147 6.42089 2.71577 6.37727 2.64541 6.30151C2.57505 6.22575 2.53564 6.1239 2.53565 6.01782C2.53565 5.91174 2.57506 5.80989 2.64543 5.73413C2.71579 5.65838 2.81149 5.61476 2.91199 5.61264Z" fill="#7C0FD1"/>
<path d="M13.0747 17.5767C12.9081 17.3725 11.7122 16.2229 11.6311 16H2.1518C1.8466 16.0009 1.55415 16.128 1.33834 16.3536C1.12253 16.5791 1.00089 16.8847 1 17.2036V18.7964C1.00089 19.1153 1.12253 19.4209 1.33834 19.6464C1.55415 19.872 1.8466 19.9991 2.1518 20H12.8482C13.1536 19.9997 13.4464 19.8729 13.6624 19.6472C13.8783 19.4215 13.9998 19.1155 14 18.7964V17.9258C13.8306 17.9432 13.6597 17.9208 13.4996 17.8605C13.3396 17.8001 13.1944 17.7031 13.0747 17.5767ZM2.91199 18.4032C2.81149 18.4011 2.71579 18.3579 2.64544 18.2829C2.57508 18.2079 2.53567 18.107 2.53567 18.002C2.53567 17.897 2.57509 17.7961 2.64545 17.7211C2.71581 17.6461 2.81152 17.6029 2.91201 17.6008C3.01251 17.6029 3.10821 17.6461 3.17857 17.7211C3.24893 17.7961 3.28834 17.897 3.28833 18.002C3.28833 18.1071 3.24892 18.2079 3.17855 18.2829C3.10819 18.3579 3.01249 18.4011 2.91199 18.4032ZM4.44773 18.4032C4.34723 18.4011 4.25153 18.3579 4.18117 18.2829C4.11081 18.2079 4.0714 18.107 4.07141 18.002C4.07141 17.897 4.11082 17.7961 4.18119 17.7211C4.25155 17.6461 4.34725 17.6029 4.44775 17.6008C4.54824 17.6029 4.64395 17.6461 4.7143 17.7211C4.78466 17.7961 4.82407 17.897 4.82407 18.002C4.82407 18.1071 4.78465 18.2079 4.71429 18.2829C4.64392 18.3579 4.54822 18.4011 4.44773 18.4032ZM5.98346 18.4032C5.88297 18.4011 5.78726 18.3579 5.71691 18.2829C5.64655 18.2079 5.60714 18.107 5.60714 18.002C5.60714 17.897 5.64656 17.7961 5.71692 17.7211C5.78729 17.6461 5.88299 17.6029 5.98348 17.6008C6.08398 17.6029 6.17968 17.6461 6.25004 17.7211C6.3204 17.7961 6.35981 17.897 6.35981 18.002C6.3598 18.1071 6.32039 18.2079 6.25002 18.2829C6.17966 18.3579 6.08396 18.4011 5.98346 18.4032Z" fill="#7C0FD1"/>
<path d="M2.15465 14.0389H2.22778V15H11.5458C11.585 14.8038 11.6682 14.6202 11.7883 14.4647L12 14.193L11.6613 14.1565C11.3758 14.1273 11.111 13.9867 10.9188 13.7624C10.7265 13.5381 10.6207 13.2462 10.6221 12.944V11.0949C10.6211 10.8668 10.6812 10.643 10.7956 10.4493C10.91 10.2556 11.074 10.0998 11.2687 10H2.15465C1.84849 10.0003 1.55495 10.1285 1.33846 10.3566C1.12197 10.5847 1.00024 10.894 1 11.2165V12.8224C1.00024 13.145 1.12197 13.4542 1.33845 13.6823C1.55494 13.9104 1.84849 14.0387 2.15465 14.0389ZM5.9958 11.6139C6.09655 11.6161 6.19248 11.6597 6.26302 11.7356C6.33355 11.8114 6.37306 11.9133 6.37305 12.0195C6.37305 12.1256 6.33354 12.2276 6.263 12.3034C6.19246 12.3792 6.09652 12.4229 5.99578 12.425C5.89503 12.4229 5.7991 12.3792 5.72856 12.3034C5.65803 12.2276 5.61852 12.1256 5.61853 12.0195C5.61853 11.9133 5.65804 11.8114 5.72858 11.7355C5.79912 11.6597 5.89506 11.6161 5.9958 11.6139ZM4.45626 11.6139C4.55701 11.6161 4.65295 11.6597 4.72348 11.7356C4.79401 11.8114 4.83352 11.9133 4.83351 12.0195C4.83351 12.1256 4.794 12.2276 4.72346 12.3034C4.65292 12.3792 4.55698 12.4229 4.45624 12.425C4.3555 12.4229 4.25956 12.3792 4.18902 12.3034C4.11849 12.2276 4.07898 12.1256 4.07899 12.0195C4.07899 11.9133 4.1185 11.8114 4.18904 11.7355C4.25958 11.6597 4.35552 11.6161 4.45626 11.6139ZM2.91672 11.6139C3.01747 11.6161 3.11341 11.6597 3.18394 11.7356C3.25447 11.8114 3.29398 11.9133 3.29398 12.0195C3.29397 12.1256 3.25446 12.2276 3.18392 12.3034C3.11339 12.3792 3.01745 12.4229 2.9167 12.425C2.81596 12.4229 2.72002 12.3792 2.64949 12.3034C2.57895 12.2276 2.53945 12.1256 2.53945 12.0195C2.53945 11.9133 2.57896 11.8114 2.6495 11.7355C2.72004 11.6597 2.81598 11.6161 2.91672 11.6139Z" fill="#7C0FD1"/>
<path d="M22.6586 10.6428L21.7862 10.5476C21.7052 10.532 21.6291 10.4943 21.565 10.4381C21.5009 10.3819 21.4508 10.309 21.4194 10.226C21.3881 10.1431 21.3764 10.0529 21.3854 9.96367C21.3945 9.8745 21.4241 9.78926 21.4714 9.71586L22.0252 8.97931C22.0852 8.90034 22.1162 8.79979 22.112 8.69727C22.1078 8.59475 22.0687 8.49762 22.0024 8.42483L20.7772 7.08828C20.7105 7.01594 20.6215 6.97331 20.5275 6.96872C20.4335 6.96413 20.3413 6.99791 20.269 7.06345L19.59 7.66759C19.5227 7.71781 19.4449 7.74891 19.3638 7.75808C19.2827 7.76725 19.2007 7.75418 19.1254 7.72008C19.0501 7.68598 18.9837 7.6319 18.9324 7.56277C18.881 7.49363 18.8463 7.41161 18.8314 7.32414L18.7441 6.37242C18.7347 6.27 18.6906 6.17509 18.6205 6.10623C18.5503 6.03737 18.4592 5.9995 18.3648 6.00001H16.6352C16.5408 5.9995 16.4497 6.03737 16.3795 6.10623C16.3094 6.17509 16.2653 6.27 16.2559 6.37242L16.1686 7.32414C16.1537 7.41161 16.119 7.49362 16.0676 7.56275C16.0163 7.63189 15.9499 7.68595 15.8746 7.72005C15.7993 7.75416 15.7173 7.76721 15.6362 7.75805C15.5551 7.74888 15.4773 7.71778 15.41 7.66756L14.731 7.06345C14.6587 6.99791 14.5665 6.96413 14.4725 6.96872C14.3785 6.97331 14.2895 7.01594 14.2228 7.08828L12.9976 8.42483C12.9313 8.49762 12.8922 8.59475 12.888 8.69727C12.8838 8.79979 12.9148 8.90034 12.9748 8.97931L13.5286 9.72C13.5748 9.79341 13.6034 9.87824 13.6119 9.96678C13.6203 10.0553 13.6084 10.1448 13.5771 10.227C13.5458 10.3092 13.4962 10.3816 13.4328 10.4376C13.3693 10.4936 13.294 10.5314 13.2138 10.5476L12.3414 10.6428C12.2475 10.653 12.1605 10.7011 12.0974 10.7777C12.0342 10.8542 11.9995 10.9536 12 11.0565V12.9434C11.9995 13.0464 12.0342 13.1458 12.0974 13.2223C12.1605 13.2988 12.2475 13.3469 12.3414 13.3572L13.2138 13.4524C13.2943 13.4689 13.3698 13.507 13.4334 13.5633C13.497 13.6197 13.5467 13.6925 13.578 13.7751C13.6093 13.8577 13.6211 13.9476 13.6125 14.0365C13.6039 14.1253 13.5751 14.2105 13.5286 14.2841L12.9748 15.0207C12.9148 15.0996 12.8838 15.2002 12.888 15.3027C12.8922 15.4052 12.9313 15.5024 12.9976 15.5752L14.2228 16.9117C14.2895 16.984 14.3785 17.0267 14.4725 17.0312C14.5665 17.0358 14.6587 17.0021 14.731 16.9365L15.41 16.3324C15.4773 16.2822 15.5551 16.2511 15.6362 16.2419C15.7173 16.2327 15.7993 16.2458 15.8746 16.2799C15.9499 16.314 16.0163 16.3681 16.0676 16.4372C16.119 16.5064 16.1537 16.5884 16.1686 16.6759L16.2559 17.6276C16.2653 17.73 16.3094 17.8249 16.3795 17.8938C16.4497 17.9626 16.5408 18.0005 16.6352 18H18.3648C18.4592 18.0005 18.5503 17.9626 18.6205 17.8938C18.6906 17.8249 18.7347 17.73 18.7441 17.6276L18.8314 16.6759C18.8439 16.5847 18.8786 16.499 18.932 16.4276C18.9854 16.3563 19.0555 16.3019 19.1348 16.2703C19.209 16.2362 19.2901 16.2239 19.37 16.2348C19.4499 16.2457 19.5258 16.2793 19.59 16.3324L20.269 16.9365C20.3413 17.0021 20.4335 17.0358 20.5275 17.0312C20.6215 17.0267 20.7105 16.984 20.7772 16.9117L22.0024 15.5751C22.0687 15.5024 22.1078 15.4052 22.112 15.3027C22.1162 15.2002 22.0852 15.0996 22.0252 15.0207L21.4714 14.28C21.4252 14.2066 21.3966 14.1217 21.3881 14.0332C21.3797 13.9446 21.3916 13.8552 21.4229 13.773C21.4542 13.6907 21.5038 13.6183 21.5673 13.5624C21.6307 13.5064 21.706 13.4686 21.7862 13.4524L22.6586 13.3572C22.7525 13.3469 22.8395 13.2988 22.9026 13.2223C22.9658 13.1458 23.0005 13.0464 23 12.9434V11.0565C23.0005 10.9536 22.9658 10.8542 22.9026 10.7777C22.8395 10.7011 22.7525 10.653 22.6586 10.6428ZM17.5 14.0689C14.9933 13.9837 14.9939 10.0159 17.5 9.93103C20.0067 10.0163 20.0061 13.9841 17.5 14.0689Z" fill="#7C0FD1"/>
</svg>
