<svg width="24" height="24" viewBox="0 0 24 24" fill="none" xmlns="http://www.w3.org/2000/svg">
<g clip-path="url(#clip0_2175_21404)">
<path d="M22 20C21.535 20 21.112 20.166 20.771 20.434L16.97 18.29C16.985 18.194 17 18.099 17 18C17 17.909 16.985 17.821 16.973 17.733L20.773 15.567C21.113 15.834 21.535 16 22 16C23.103 16 24 15.103 24 14C24 12.897 23.103 12 22 12C20.897 12 20 12.897 20 14C20 14.091 20.015 14.178 20.027 14.267L16.227 16.433C15.887 16.166 15.465 16 15 16C13.897 16 13 16.897 13 18C13 19.103 13.897 20 15 20C15.456 20 15.872 19.84 16.209 19.582L20.026 21.736C20.015 21.823 20 21.909 20 22C20 23.103 20.897 24 22 24C23.103 24 24 23.103 24 22C24 20.897 23.103 20 22 20Z" fill="#7C0FD1"/>
<path d="M0 9V15H12.36C13.07 14.38 13.99 14 15 14C15.4 14 15.77 14.08 16.13 14.18L18 13.11V9H0Z" fill="#7C0FD1"/>
<path d="M16.11 21.82C15.76 21.93 15.39 22 15 22C12.79 22 11 20.21 11 18C11 17.65 11.04 17.32 11.13 17H0V21.25C0 22.77 1.23 24 2.75 24H15.25C16.25 24 17.12 23.47 17.61 22.67L16.11 21.82Z" fill="#7C0FD1"/>
<path d="M15.25 0H2.75C1.23 0 0 1.23 0 2.75V7H18V2.75C18 1.23 16.77 0 15.25 0ZM3.5 5C2.67 5 2 4.33 2 3.5C2 2.67 2.67 2 3.5 2C4.33 2 5 2.67 5 3.5C5 4.33 4.33 5 3.5 5ZM8.5 5C7.67 5 7 4.33 7 3.5C7 2.67 7.67 2 8.5 2C9.33 2 10 2.67 10 3.5C10 4.33 9.33 5 8.5 5ZM13.5 5C12.67 5 12 4.33 12 3.5C12 2.67 12.67 2 13.5 2C14.33 2 15 2.67 15 3.5C15 4.33 14.33 5 13.5 5Z" fill="#7C0FD1"/>
</g>
<defs>
<clipPath id="clip0_2175_21404">
<rect width="24" height="24" fill="white"/>
</clipPath>
</defs>
</svg>
