<svg width="428" height="229" viewBox="0 0 428 229" fill="none" xmlns="http://www.w3.org/2000/svg">
<ellipse cx="24.8466" cy="5.23514" rx="24.8466" ry="5.23514" transform="matrix(0.970037 0.242957 -0.121228 0.992625 173.13 201.739)" fill="#002935"/>
<path d="M224.924 15.6283L214.771 19.2505L186.88 210.348L203.417 213.34L224.924 15.6283Z" fill="#F41E92"/>
<path d="M71.4032 97.7479L5.26269 87.3966L16.189 68.1203L37.4409 69.4374L26.7237 60.84L29.0534 23.2468L43.6099 23.963L54.283 29.9853L64.1105 25.2335L203.697 44.0839L210.682 52.9491L216.341 46.081L418.47 73.1756L416.813 99.9079L403.737 109.806L389.808 113.826L407.388 122.415L402.279 133.327L96.457 105.222L84.3446 92.2975L71.4032 97.7479Z" fill="#F41E92"/>
<path d="M164.496 89.284L156.66 88.3949L159.283 65.2706L167.278 66.1775C169.573 66.438 171.493 67.1247 173.037 68.2376C174.588 69.3439 175.711 70.8093 176.403 72.6338C177.096 74.4584 177.306 76.5713 177.034 78.9726C176.76 81.3813 176.078 83.4006 174.985 85.0303C173.901 86.6608 172.467 87.8438 170.683 88.5792C168.907 89.3155 166.844 89.5504 164.496 89.284ZM161.26 85.2457L164.704 85.6364C166.315 85.8192 167.692 85.6781 168.835 85.2131C169.979 84.7405 170.888 83.9478 171.563 82.8351C172.239 81.7147 172.678 80.2701 172.879 78.5011C173.079 76.7322 172.975 75.2336 172.565 74.0053C172.156 72.7696 171.454 71.8017 170.459 71.1016C169.471 70.3949 168.195 69.9528 166.629 69.7751L163.061 69.3703L161.26 85.2457ZM187.046 92.1854C185.352 91.9933 183.926 91.4541 182.769 90.568C181.611 89.6819 180.766 88.53 180.233 87.1124C179.708 85.6956 179.547 84.0915 179.75 82.3C179.953 80.5084 180.47 78.9774 181.3 77.7068C182.138 76.4371 183.22 75.5001 184.547 74.8958C185.873 74.2915 187.384 74.0854 189.077 74.2776C190.771 74.4697 192.196 75.0089 193.354 75.895C194.511 76.7811 195.353 77.9363 195.877 79.3606C196.409 80.7858 196.574 82.3941 196.37 84.1856C196.167 85.9772 195.647 87.504 194.81 88.7662C193.981 90.0292 192.902 90.9629 191.576 91.5672C190.249 92.1715 188.739 92.3776 187.046 92.1854ZM187.44 88.9135C188.358 89.0177 189.154 88.8527 189.829 88.4184C190.504 87.9765 191.041 87.3436 191.44 86.5196C191.845 85.6965 192.108 84.758 192.228 83.7042C192.348 82.6428 192.303 81.6656 192.092 80.7724C191.889 79.8726 191.508 79.1317 190.948 78.5498C190.389 77.968 189.651 77.6249 188.732 77.5207C187.791 77.414 186.979 77.5811 186.296 78.0221C185.621 78.4639 185.08 79.1001 184.673 79.9308C184.275 80.7548 184.015 81.6974 183.895 82.7588C183.775 83.8126 183.817 84.7857 184.021 85.678C184.232 86.5712 184.618 87.3087 185.177 87.8906C185.744 88.4658 186.499 88.8068 187.44 88.9135ZM198.863 93.1831L200.831 75.8398L204.738 76.2831L204.404 79.2301L204.607 79.2531C205.081 78.3005 205.767 77.5931 206.666 77.1308C207.566 76.6611 208.595 76.492 209.754 76.6235C210.929 76.7567 211.886 77.155 212.626 77.8185C213.375 78.4753 213.86 79.3118 214.08 80.3279L214.261 80.3484C214.754 79.4285 215.488 78.7341 216.464 78.2654C217.448 77.7899 218.569 77.6235 219.826 77.7662C221.422 77.9472 222.667 78.5993 223.561 79.7224C224.455 80.8455 224.793 82.3744 224.573 84.3089L223.252 95.9502L219.154 95.4851L220.403 84.4762C220.525 83.3998 220.328 82.5807 219.812 82.019C219.298 81.4498 218.626 81.1182 217.798 81.0242C216.812 80.9123 216.005 81.1334 215.378 81.6875C214.76 82.2349 214.395 82.9978 214.284 83.9764L213.057 94.7934L209.048 94.3386L210.316 83.1603C210.418 82.2646 210.228 81.5187 209.747 80.9228C209.273 80.3277 208.603 79.981 207.738 79.8828C207.15 79.8162 206.599 79.9061 206.083 80.1526C205.568 80.3915 205.137 80.7657 204.789 81.2752C204.442 81.7772 204.229 82.3858 204.147 83.1009L202.951 93.6469L198.863 93.1831ZM232.35 97.3369C231.251 97.2122 230.283 96.9041 229.447 96.4128C228.619 95.9148 227.993 95.2491 227.569 94.4157C227.153 93.5831 227.009 92.5985 227.138 91.4619C227.249 90.4833 227.522 89.6946 227.956 89.0958C228.39 88.4969 228.941 88.041 229.609 87.728C230.277 87.4149 231.014 87.205 231.819 87.0981C232.633 86.9845 233.466 86.9304 234.319 86.9357C235.348 86.9456 236.182 86.9451 236.824 86.934C237.467 86.9154 237.941 86.832 238.248 86.6838C238.563 86.5289 238.742 86.2558 238.787 85.8643L238.794 85.7966C238.891 84.946 238.714 84.2587 238.262 83.7348C237.811 83.2109 237.111 82.8951 236.162 82.7875C235.161 82.6739 234.342 82.8021 233.706 83.1721C233.076 83.5429 232.627 84.0141 232.356 84.5858L228.601 83.6108C229.022 82.5911 229.618 81.7668 230.391 81.1377C231.165 80.5012 232.072 80.0628 233.114 79.8226C234.156 79.5749 235.283 79.5198 236.495 79.6573C237.33 79.7521 238.151 79.9443 238.957 80.234C239.762 80.5236 240.482 80.9331 241.116 81.4625C241.751 81.9843 242.231 82.6526 242.558 83.4674C242.893 84.283 242.995 85.2667 242.864 86.4184L241.547 98.0257L237.618 97.5799L237.888 95.1975L237.753 95.1821C237.449 95.6357 237.048 96.0476 236.549 96.4179C236.058 96.7816 235.459 97.0529 234.752 97.232C234.054 97.4044 233.253 97.4393 232.35 97.3369ZM233.752 94.4538C234.573 94.5469 235.302 94.4658 235.941 94.2104C236.581 93.9475 237.094 93.5634 237.479 93.0582C237.872 92.5538 238.104 91.9817 238.177 91.3418L238.409 89.2981C238.269 89.389 238.039 89.4621 237.72 89.5174C237.409 89.5736 237.061 89.6142 236.677 89.6392C236.293 89.6643 235.914 89.6822 235.539 89.6931C235.164 89.7039 234.839 89.7128 234.564 89.7197C233.945 89.7333 233.384 89.8069 232.881 89.9404C232.377 90.0739 231.967 90.2943 231.65 90.6014C231.334 90.901 231.146 91.3143 231.087 91.8412C231.001 92.5939 231.212 93.1934 231.717 93.6397C232.223 94.0859 232.902 94.3573 233.752 94.4538ZM245.657 98.492L247.625 81.1488L251.712 81.6125L249.744 98.9558L245.657 98.492ZM249.959 78.9204C249.312 78.847 248.779 78.5692 248.361 78.0872C247.944 77.5977 247.77 77.0481 247.839 76.4383C247.909 75.8211 248.202 75.3244 248.717 74.9483C249.233 74.5646 249.815 74.4095 250.462 74.483C251.117 74.5573 251.65 74.8388 252.059 75.3275C252.477 75.8095 252.651 76.3591 252.581 76.9764C252.512 77.5861 252.219 78.0828 251.703 78.4664C251.195 78.8434 250.614 78.9947 249.959 78.9204ZM259.188 89.7343L258.035 99.8964L253.948 99.4326L255.915 82.0894L259.822 82.5326L259.488 85.4796L259.691 85.5027C260.2 84.5769 260.924 83.8775 261.862 83.4045C262.807 82.9323 263.928 82.7696 265.222 82.9165C266.419 83.0523 267.433 83.4265 268.263 84.0392C269.101 84.6527 269.709 85.4727 270.088 86.4993C270.475 87.5267 270.586 88.7325 270.421 90.1167L269.168 101.159L265.081 100.696L266.262 90.2852C266.393 89.126 266.195 88.1848 265.667 87.4616C265.147 86.7392 264.36 86.3183 263.306 86.1987C262.591 86.1176 261.937 86.2035 261.344 86.4564C260.759 86.7027 260.276 87.1015 259.893 87.6528C259.518 88.2049 259.283 88.8987 259.188 89.7343Z" fill="white"/>
</svg>
