<svg width="545" height="265" viewBox="0 0 545 265" fill="none" xmlns="http://www.w3.org/2000/svg">
<ellipse cx="253.333" cy="254.067" rx="42.3588" ry="6.6445" transform="rotate(5.85761 253.333 254.067)" fill="#002935"/>
<path d="M286.377 2.47725L269.123 8.3964L236.318 252.08L265.137 253.603L286.377 2.47725Z" fill="#2686EC"/>
<path d="M96.1762 121.995L20.5314 114.128L18.8615 80.9735L35.5711 71.8637L23.7827 64.8149L18.9483 25.8876L71.9577 35.1587L89.2966 43.5549L91.1171 33.146L254.259 57.9244L262.27 68.4438L269.032 60.5082L511.861 92.3449L535.932 123.073L500.581 139.872L467.275 137.437L504.51 149.849L475.241 161.183L127.46 127.466L109.435 117.877L96.1762 121.995Z" fill="#2686EC"/>
<path d="M92.4387 91.5272L95.018 68.3979L103.691 69.3651C105.468 69.5632 106.922 70.0607 108.053 70.8576C109.191 71.6554 110.004 72.6684 110.493 73.8967C110.989 75.1184 111.155 76.4633 110.992 77.9314C110.826 79.4147 110.367 80.6974 109.613 81.7797C108.86 82.862 107.837 83.6664 106.543 84.1929C105.25 84.7119 103.712 84.8719 101.927 84.6729L96.1788 84.0319L96.5629 80.5874L101.747 81.1654C102.786 81.2813 103.657 81.1955 104.36 80.9079C105.062 80.6204 105.607 80.1781 105.994 79.5809C106.388 78.9846 106.631 78.2761 106.723 77.4554C106.814 76.6347 106.733 75.8939 106.479 75.2329C106.232 74.5727 105.793 74.0321 105.162 73.611C104.539 73.1833 103.704 72.911 102.657 72.7943L98.8175 72.3661L96.6286 91.9945L92.4387 91.5272ZM112.725 93.7894L114.659 76.4424L118.623 76.8844L118.301 79.7756L118.482 79.7958C118.91 78.8297 119.538 78.1184 120.366 77.6619C121.203 77.1988 122.118 77.0226 123.112 77.1335C123.338 77.1586 123.589 77.1981 123.865 77.2517C124.149 77.2987 124.384 77.3515 124.568 77.4101L124.148 81.1709C123.982 81.0913 123.713 81.008 123.341 80.9208C122.978 80.827 122.624 80.7608 122.277 80.7221C121.532 80.639 120.844 80.7262 120.213 80.9836C119.59 81.2343 119.078 81.6231 118.677 82.15C118.275 82.6769 118.033 83.3093 117.95 84.0472L116.813 94.2453L112.725 93.7894ZM132.262 96.3111C130.523 96.1171 129.061 95.5882 127.877 94.7244C126.701 93.8539 125.848 92.7145 125.319 91.3063C124.791 89.8905 124.628 88.2754 124.83 86.4609C125.029 84.6765 125.543 83.1482 126.371 81.8761C127.207 80.5973 128.281 79.6498 129.592 79.0338C130.904 78.4102 132.388 78.1907 134.045 78.3755C135.114 78.4947 136.103 78.7804 137.013 79.2325C137.932 79.6779 138.716 80.299 139.367 81.0957C140.025 81.8932 140.503 82.8689 140.801 84.0227C141.1 85.169 141.165 86.5025 140.995 88.0234L140.856 89.277L126.637 87.6914L126.944 84.9358L137.244 86.0844C137.324 85.3005 137.232 84.5852 136.969 83.9384C136.706 83.284 136.298 82.7468 135.742 82.3266C135.194 81.9072 134.529 81.6539 133.746 81.5666C132.91 81.4734 132.153 81.5948 131.476 81.9308C130.799 82.2593 130.247 82.7314 129.82 83.347C129.401 83.9558 129.145 84.6476 129.051 85.4223L128.783 87.8278C128.67 88.8367 128.758 89.7231 129.047 90.4871C129.336 91.2435 129.79 91.8506 130.41 92.3085C131.03 92.7588 131.785 93.0335 132.673 93.1326C133.268 93.1989 133.816 93.1761 134.316 93.0642C134.817 92.9448 135.263 92.7392 135.654 92.4473C136.045 92.1555 136.358 91.775 136.593 91.3057L140.363 92.1606C140.009 93.1426 139.452 93.9723 138.69 94.6496C137.937 95.3203 137.014 95.8043 135.921 96.1017C134.829 96.3916 133.61 96.4614 132.262 96.3111ZM143.472 97.2181L145.406 79.8711L149.314 80.3069L148.985 83.2545L149.188 83.2772C149.661 82.3236 150.346 81.6149 151.244 81.1509C152.142 80.6795 153.171 80.5084 154.331 80.6377C155.505 80.7686 156.464 81.1651 157.205 81.8272C157.956 82.4826 158.442 83.3181 158.664 84.3338L158.844 84.354C159.336 83.4331 160.069 82.7373 161.044 82.2667C162.027 81.7894 163.147 81.6208 164.405 81.761C166.001 81.939 167.247 82.5887 168.144 83.7101C169.04 84.8315 169.38 86.3597 169.165 88.2947L167.866 99.9385L163.766 99.4813L164.994 88.47C165.114 87.3933 164.916 86.5746 164.399 86.0139C163.883 85.4457 163.211 85.1153 162.383 85.023C161.397 84.913 160.591 85.1356 159.965 85.6909C159.347 86.2395 158.984 87.0031 158.874 87.9819L157.668 98.8012L153.659 98.3541L154.905 87.1734C155.005 86.2775 154.814 85.532 154.332 84.937C153.857 84.3428 153.186 83.9974 152.32 83.9009C151.733 83.8354 151.182 83.9263 150.666 84.1738C150.152 84.4137 149.721 84.7887 149.375 85.2989C149.029 85.8016 148.816 86.4105 148.736 87.1258L147.56 97.674L143.472 97.2181ZM172.014 100.401L173.948 83.0539L178.036 83.5099L176.102 100.857L172.014 100.401ZM176.278 80.8211C175.631 80.7489 175.097 80.4722 174.678 79.991C174.26 79.5023 174.085 78.953 174.153 78.3431C174.222 77.7257 174.514 77.2285 175.029 76.8514C175.544 76.4668 176.126 76.3105 176.773 76.3827C177.428 76.4558 177.961 76.7363 178.371 77.2242C178.79 77.7054 178.965 78.2547 178.897 78.8721C178.829 79.4819 178.537 79.9792 178.021 80.3638C177.514 80.7417 176.933 80.8942 176.278 80.8211ZM192.176 95.263L193.297 85.2116L197.385 85.6675L195.451 103.015L191.487 102.572L191.83 99.4893L191.65 99.4692C191.15 100.397 190.418 101.119 189.453 101.637C188.496 102.155 187.366 102.342 186.063 102.196C184.926 102.07 183.949 101.705 183.132 101.103C182.323 100.495 181.728 99.6777 181.347 98.6519C180.967 97.6185 180.854 96.4092 181.009 95.0238L182.24 83.9787L186.329 84.4346L185.168 94.8473C185.045 95.9465 185.249 96.8535 185.779 97.5682C186.309 98.2828 187.063 98.6948 188.042 98.8039C188.645 98.8711 189.244 98.7893 189.842 98.5587C190.439 98.328 190.951 97.9429 191.377 97.4035C191.811 96.8574 192.078 96.1439 192.176 95.263ZM199.655 103.483L201.589 86.1363L205.497 86.5721L205.168 89.5197L205.371 89.5424C205.844 88.5889 206.529 87.8801 207.427 87.4162C208.325 86.9447 209.354 86.7736 210.514 86.9029C211.688 87.0338 212.647 87.4304 213.388 88.0924C214.139 88.7478 214.625 89.5833 214.847 90.599L215.027 90.6192C215.519 89.6983 216.252 89.0025 217.227 88.5319C218.21 88.0546 219.33 87.886 220.588 88.0263C222.184 88.2043 223.43 88.854 224.327 89.9754C225.223 91.0968 225.563 92.625 225.347 94.5599L224.049 106.204L219.949 105.747L221.177 94.7352C221.297 93.6585 221.099 92.8399 220.582 92.2791C220.066 91.7109 219.394 91.3806 218.566 91.2882C217.58 91.1782 216.774 91.4008 216.148 91.9561C215.53 92.5047 215.167 93.2683 215.057 94.2471L213.851 105.066L209.842 104.619L211.088 93.4386C211.188 92.5427 210.997 91.7972 210.515 91.2022C210.04 90.608 209.369 90.2626 208.503 90.1661C207.916 90.1006 207.365 90.1916 206.849 90.439C206.335 90.6789 205.904 91.0539 205.558 91.5641C205.212 92.0668 204.999 92.6757 204.919 93.391L203.743 103.939L199.655 103.483ZM257.773 94.4483L253.549 93.9773C253.506 93.2712 253.352 92.6328 253.088 92.0621C252.825 91.4839 252.473 90.9797 252.033 90.5495C251.593 90.1193 251.075 89.7757 250.479 89.5186C249.891 89.2549 249.243 89.0835 248.535 89.0046C247.278 88.8644 246.128 89.0564 245.086 89.5805C244.045 90.0971 243.182 90.9308 242.498 92.0817C241.814 93.2251 241.375 94.6664 241.181 96.4056C240.984 98.1749 241.092 99.6964 241.507 100.97C241.929 102.237 242.588 103.232 243.483 103.957C244.386 104.675 245.463 105.104 246.713 105.244C247.405 105.321 248.063 105.303 248.685 105.189C249.316 105.069 249.893 104.855 250.415 104.547C250.945 104.241 251.404 103.842 251.795 103.352C252.192 102.863 252.493 102.286 252.696 101.623L256.918 102.117C256.637 103.198 256.179 104.192 255.545 105.097C254.918 106.002 254.142 106.777 253.216 107.421C252.291 108.057 251.241 108.519 250.066 108.808C248.891 109.088 247.615 109.152 246.237 108.998C244.204 108.771 242.442 108.098 240.951 106.979C239.46 105.86 238.354 104.361 237.633 102.482C236.913 100.602 236.691 98.4205 236.968 95.9359C237.246 93.4437 237.947 91.3646 239.07 89.6986C240.194 88.025 241.607 86.8066 243.308 86.0435C245.009 85.2803 246.869 85.0113 248.887 85.2363C250.174 85.3798 251.351 85.694 252.418 86.1789C253.484 86.6637 254.411 87.3045 255.199 88.1012C255.987 88.8905 256.604 89.8206 257.049 90.8916C257.502 91.9559 257.743 93.1415 257.773 94.4483ZM266.388 87.508L263.808 110.637L259.72 110.181L262.299 87.0521L266.388 87.508ZM275.541 112.289C273.847 112.1 272.421 111.563 271.261 110.68C270.102 109.796 269.255 108.645 268.719 107.229C268.191 105.813 268.027 104.209 268.227 102.417C268.426 100.625 268.94 99.0934 269.768 97.8212C270.604 96.5499 271.684 95.6109 273.01 95.004C274.335 94.3972 275.845 94.1882 277.539 94.3771C279.233 94.566 280.659 95.1024 281.819 95.9863C282.978 96.8703 283.821 98.0239 284.348 99.4471C284.883 100.871 285.051 102.479 284.851 104.271C284.651 106.063 284.134 107.591 283.299 108.855C282.472 110.119 281.396 111.055 280.07 111.662C278.745 112.269 277.235 112.478 275.541 112.289ZM275.929 109.016C276.848 109.119 277.644 108.952 278.317 108.516C278.992 108.073 279.528 107.439 279.924 106.615C280.329 105.791 280.59 104.852 280.707 103.798C280.826 102.736 280.778 101.759 280.565 100.866C280.361 99.9667 279.978 99.2266 279.418 98.6458C278.858 98.065 278.118 97.7233 277.2 97.6209C276.259 97.516 275.447 97.6846 274.765 98.1269C274.091 98.57 273.551 99.2073 273.146 100.039C272.749 100.863 272.491 101.807 272.373 102.868C272.255 103.922 272.299 104.895 272.504 105.787C272.717 106.68 273.104 107.417 273.664 107.998C274.233 108.572 274.988 108.911 275.929 109.016ZM299.231 107.201L300.352 97.1498L304.44 97.6057L302.506 114.953L298.542 114.511L298.886 111.428L298.705 111.407C298.205 112.335 297.473 113.057 296.508 113.575C295.551 114.093 294.421 114.28 293.118 114.135C291.981 114.008 291.004 113.643 290.187 113.042C289.379 112.433 288.784 111.616 288.403 110.59C288.022 109.557 287.909 108.347 288.064 106.962L289.296 95.9169L293.384 96.3728L292.223 106.785C292.1 107.885 292.304 108.792 292.834 109.506C293.364 110.221 294.119 110.633 295.097 110.742C295.7 110.809 296.3 110.728 296.897 110.497C297.494 110.266 298.006 109.881 298.432 109.342C298.867 108.796 299.133 108.082 299.231 107.201ZM313.113 116.444C311.751 116.292 310.57 115.806 309.571 114.986C308.573 114.166 307.835 113.054 307.359 111.652C306.883 110.25 306.751 108.596 306.963 106.691C307.178 104.764 307.676 103.173 308.456 101.918C309.244 100.657 310.219 99.7479 311.378 99.1912C312.539 98.627 313.786 98.4192 315.118 98.5678C316.135 98.6811 316.951 98.9475 317.568 99.3669C318.185 99.7787 318.659 100.247 318.989 100.772C319.32 101.289 319.567 101.77 319.731 102.215L319.9 102.234L320.865 93.5831L324.965 94.0402L322.386 117.17L318.365 116.721L318.67 113.988L318.421 113.96C318.163 114.359 317.809 114.773 317.357 115.202C316.906 115.625 316.334 115.965 315.642 116.223C314.95 116.481 314.107 116.555 313.113 116.444ZM314.628 113.217C315.494 113.314 316.258 113.163 316.92 112.764C317.582 112.358 318.119 111.75 318.529 110.942C318.939 110.134 319.207 109.17 319.332 108.048C319.457 106.926 319.408 105.933 319.184 105.07C318.968 104.207 318.58 103.512 318.022 102.985C317.47 102.458 316.754 102.146 315.874 102.048C314.963 101.946 314.176 102.099 313.513 102.505C312.85 102.911 312.318 103.515 311.916 104.316C311.514 105.118 311.253 106.057 311.133 107.133C311.012 108.218 311.059 109.202 311.272 110.088C311.495 110.966 311.883 111.684 312.439 112.241C313.002 112.792 313.732 113.117 314.628 113.217ZM334.811 118.555L337.391 95.4259L341.581 95.8931L340.489 105.685L351.206 106.88L352.298 97.0883L356.499 97.5568L353.92 120.686L349.719 120.218L350.815 110.392L340.097 109.197L339.001 119.022L334.811 118.555ZM365.825 122.357C364.131 122.168 362.705 121.631 361.546 120.748C360.386 119.864 359.539 118.713 359.003 117.297C358.475 115.881 358.311 114.277 358.511 112.485C358.711 110.693 359.224 109.161 360.052 107.889C360.888 106.618 361.968 105.679 363.294 105.072C364.619 104.465 366.129 104.256 367.823 104.445C369.517 104.634 370.943 105.17 372.103 106.054C373.262 106.938 374.105 108.092 374.632 109.515C375.167 110.939 375.335 112.547 375.135 114.339C374.935 116.131 374.418 117.659 373.583 118.923C372.756 120.187 371.68 121.123 370.355 121.73C369.029 122.337 367.519 122.546 365.825 122.357ZM366.213 119.084C367.132 119.187 367.928 119.02 368.601 118.584C369.276 118.141 369.812 117.507 370.209 116.683C370.613 115.859 370.874 114.92 370.991 113.866C371.11 112.804 371.063 111.827 370.85 110.934C370.645 110.035 370.263 109.295 369.702 108.714C369.142 108.133 368.402 107.791 367.484 107.689C366.543 107.584 365.731 107.753 365.049 108.195C364.375 108.638 363.835 109.275 363.43 110.107C363.033 110.931 362.775 111.875 362.657 112.936C362.539 113.99 362.583 114.963 362.789 115.855C363.002 116.748 363.388 117.485 363.949 118.066C364.517 118.64 365.272 118.979 366.213 119.084ZM392.779 112.099L389.007 112.09C388.943 111.702 388.798 111.327 388.572 110.967C388.353 110.607 388.036 110.301 387.622 110.049C387.208 109.797 386.685 109.636 386.052 109.565C385.202 109.47 384.466 109.575 383.845 109.879C383.231 110.184 382.896 110.631 382.838 111.219C382.774 111.723 382.913 112.154 383.254 112.512C383.603 112.871 384.206 113.201 385.064 113.503L387.953 114.465C389.555 115.002 390.712 115.699 391.424 116.556C392.144 117.414 392.439 118.464 392.308 119.707C392.178 120.798 391.751 121.726 391.025 122.491C390.308 123.25 389.366 123.8 388.2 124.143C387.034 124.486 385.728 124.576 384.282 124.415C382.159 124.178 380.499 123.543 379.303 122.511C378.108 121.47 377.475 120.138 377.405 118.514L381.434 118.575C381.528 119.378 381.846 120.012 382.389 120.476C382.931 120.941 383.673 121.226 384.615 121.331C385.586 121.439 386.387 121.326 387.019 120.993C387.658 120.66 388.011 120.2 388.076 119.613C388.132 119.116 387.985 118.684 387.638 118.317C387.297 117.952 386.738 117.638 385.959 117.376L383.069 116.425C381.444 115.893 380.278 115.172 379.571 114.262C378.866 113.345 378.587 112.254 378.736 110.99C378.847 109.92 379.241 109.027 379.915 108.309C380.598 107.585 381.49 107.067 382.592 106.755C383.703 106.437 384.951 106.355 386.336 106.51C388.369 106.736 389.92 107.348 390.991 108.344C392.069 109.34 392.665 110.592 392.779 112.099ZM405.696 108.897L405.344 112.059L395.371 110.947L395.724 107.785L405.696 108.897ZM398.649 103.904L402.738 104.36L400.922 120.645C400.86 121.195 400.896 121.625 401.029 121.938C401.17 122.243 401.374 122.464 401.641 122.6C401.908 122.737 402.211 122.824 402.55 122.862C402.806 122.89 403.041 122.898 403.256 122.883C403.479 122.87 403.648 122.855 403.764 122.837L404.097 126.11C403.87 126.161 403.548 126.209 403.132 126.254C402.723 126.3 402.227 126.298 401.646 126.248C400.619 126.164 399.714 125.907 398.931 125.477C398.149 125.039 397.557 124.432 397.156 123.655C396.762 122.88 396.629 121.95 396.758 120.867L398.649 103.904ZM407.181 126.626L409.115 109.278L413.204 109.734L411.269 127.081L407.181 126.626ZM411.445 107.046C410.798 106.973 410.265 106.697 409.846 106.216C409.428 105.727 409.253 105.178 409.321 104.568C409.389 103.95 409.681 103.453 410.196 103.076C410.711 102.691 411.293 102.535 411.94 102.607C412.595 102.68 413.128 102.961 413.539 103.449C413.958 103.93 414.133 104.479 414.064 105.097C413.996 105.706 413.704 106.204 413.189 106.588C412.681 106.966 412.1 107.119 411.445 107.046ZM420.695 117.842L419.562 128.006L415.473 127.55L417.408 110.203L421.315 110.639L420.987 113.587L421.19 113.609C421.697 112.683 422.42 111.982 423.357 111.507C424.301 111.033 425.421 110.868 426.716 111.013C427.913 111.146 428.928 111.518 429.759 112.129C430.598 112.741 431.208 113.56 431.589 114.586C431.978 115.613 432.091 116.818 431.929 118.203L430.697 129.248L426.609 128.792L427.77 118.379C427.899 117.22 427.699 116.279 427.17 115.557C426.648 114.835 425.86 114.416 424.806 114.298C424.091 114.219 423.437 114.306 422.845 114.56C422.261 114.807 421.778 115.207 421.396 115.759C421.022 116.312 420.788 117.006 420.695 117.842ZM441.632 137.419C440.163 137.255 438.925 136.915 437.915 136.399C436.905 135.89 436.116 135.268 435.55 134.534C434.984 133.8 434.622 133.017 434.463 132.183L438.244 131.702C438.372 132.059 438.576 132.421 438.855 132.787C439.133 133.162 439.528 133.488 440.038 133.766C440.555 134.052 441.224 134.241 442.044 134.332C443.204 134.462 444.195 134.286 445.019 133.806C445.841 133.334 446.324 132.458 446.467 131.178L446.833 127.891L446.63 127.869C446.372 128.267 446.015 128.665 445.559 129.064C445.11 129.464 444.538 129.778 443.842 130.005C443.153 130.233 442.312 130.292 441.318 130.181C439.986 130.032 438.812 129.585 437.797 128.839C436.791 128.087 436.038 127.05 435.537 125.729C435.045 124.401 434.904 122.792 435.115 120.902C435.328 118.997 435.823 117.425 436.602 116.185C437.389 114.939 438.362 114.038 439.522 113.481C440.682 112.917 441.929 112.709 443.261 112.858C444.278 112.971 445.094 113.237 445.711 113.657C446.335 114.069 446.817 114.538 447.155 115.064C447.493 115.582 447.741 116.063 447.897 116.507L448.123 116.533L448.443 113.664L452.474 114.114L450.509 131.743C450.343 133.226 449.852 134.414 449.036 135.306C448.22 136.199 447.172 136.817 445.891 137.162C444.61 137.507 443.19 137.593 441.632 137.419ZM442.817 127.101C443.682 127.197 444.444 127.069 445.101 126.715C445.758 126.361 446.288 125.807 446.693 125.052C447.097 124.296 447.361 123.365 447.484 122.258C447.606 121.167 447.554 120.193 447.33 119.337C447.113 118.482 446.724 117.794 446.165 117.275C445.614 116.748 444.898 116.436 444.017 116.338C443.106 116.236 442.319 116.389 441.656 116.795C440.993 117.201 440.461 117.801 440.06 118.595C439.66 119.381 439.402 120.298 439.285 121.344C439.167 122.406 439.217 123.353 439.437 124.185C439.665 125.011 440.059 125.68 440.62 126.192C441.188 126.698 441.921 127.001 442.817 127.101Z" fill="white"/>
</svg>
