<svg width="428" height="229" viewBox="0 0 428 229" fill="none" xmlns="http://www.w3.org/2000/svg">
<ellipse cx="24.8466" cy="5.23514" rx="24.8466" ry="5.23514" transform="matrix(0.970037 0.242957 -0.121228 0.992625 173.13 201.239)" fill="#002935"/>
<path d="M224.924 15.129L214.771 18.7513L186.88 209.848L203.417 212.84L224.924 15.129Z" fill="#F41E92"/>
<path d="M71.4032 97.2484L5.26266 86.897L16.189 67.6208L37.4409 68.9379L26.7236 60.3404L29.0534 22.7472L43.6099 23.4635L54.283 29.4858L64.1105 24.734L203.697 43.5843L210.682 52.4496L216.341 45.5815L418.47 72.6761L416.813 99.4084L403.737 109.306L389.808 113.326L407.388 121.915L402.279 132.828L96.457 104.722L84.3446 91.798L71.4032 97.2484Z" fill="#F41E92"/>
<path d="M61.7927 79.8827L63.9996 56.7149L72.6875 57.5424C74.4673 57.712 75.929 58.186 77.0724 58.9646C78.2234 59.744 79.0528 60.7438 79.5606 61.9641C80.0766 63.1776 80.2646 64.5196 80.1245 65.9903C79.983 67.476 79.5443 68.7659 78.8084 69.8602C78.0726 70.9544 77.0622 71.7752 75.7772 72.3225C74.493 72.8622 72.9572 73.047 71.1698 72.8767L65.4118 72.3282L65.7404 68.8779L70.9328 69.3725C71.9736 69.4717 72.843 69.3718 73.5412 69.0731C74.2393 68.7743 74.7769 68.3232 75.154 67.7199C75.5386 67.1173 75.7701 66.405 75.8484 65.5829C75.9267 64.7609 75.8335 64.0215 75.5689 63.3646C75.3118 62.7085 74.8641 62.175 74.226 61.7642C73.5961 61.3465 72.757 61.0877 71.7087 60.9879L67.8624 60.6215L65.9897 80.2825L61.7927 79.8827ZM82.1127 81.8183L83.7678 64.4424L87.7385 64.8206L87.4626 67.7166L87.6436 67.7338C88.0559 66.761 88.6726 66.0397 89.4935 65.57C90.3227 65.0934 91.2351 64.9025 92.2306 64.9974C92.4569 65.0189 92.7084 65.0543 92.9853 65.1035C93.2704 65.1459 93.5055 65.1949 93.6904 65.2506L93.3316 69.0176C93.1639 68.9408 92.8937 68.8618 92.5209 68.7806C92.1564 68.6926 91.8007 68.6321 91.4538 68.599C90.7071 68.5279 90.0205 68.6261 89.3938 68.8937C88.7754 69.1544 88.2696 69.5514 87.8763 70.0847C87.4831 70.618 87.2512 71.2542 87.1808 71.9932L86.2078 82.2084L82.1127 81.8183ZM101.688 84.0253C99.9455 83.8594 98.4755 83.3541 97.2774 82.5094C96.0877 81.6579 95.217 80.5324 94.6654 79.1329C94.1145 77.7258 93.9256 76.1135 94.0988 74.296C94.269 72.5086 94.7578 70.9723 95.5651 69.687C96.3807 68.3949 97.4391 67.4303 98.7402 66.7932C100.042 66.1486 101.523 65.9053 103.182 66.0633C104.253 66.1653 105.247 66.4351 106.164 66.8725C107.089 67.3031 107.884 67.9115 108.547 68.6976C109.218 69.4845 109.712 70.4523 110.028 71.6012C110.346 72.7425 110.432 74.0748 110.287 75.5982L110.167 76.8539L95.9249 75.4973L96.1878 72.737L106.505 73.7198C106.572 72.9347 106.469 72.2209 106.195 71.5785C105.922 70.9284 105.505 70.3978 104.943 69.9866C104.388 69.5761 103.719 69.3335 102.934 69.2588C102.097 69.1791 101.343 69.3127 100.67 69.6596C99.9987 69.9989 99.4545 70.4798 99.0375 71.1022C98.6288 71.7177 98.3837 72.4135 98.3022 73.1896L98.0726 75.5991C97.9764 76.6097 98.0785 77.4946 98.3791 78.2538C98.6804 79.0054 99.1446 79.6052 99.7716 80.053C100.399 80.4933 101.158 80.7558 102.048 80.8406C102.644 80.8974 103.191 80.8658 103.689 80.7458C104.189 80.6183 104.631 80.4056 105.017 80.1075C105.403 79.8094 105.71 79.4239 105.938 78.951L109.721 79.745C109.383 80.7326 108.839 81.5712 108.088 82.2607C107.346 82.9434 106.431 83.4422 105.343 83.7571C104.256 84.0645 103.038 84.1539 101.688 84.0253ZM112.911 84.7519L114.566 67.376L118.48 67.7489L118.199 70.7014L118.402 70.7208C118.859 69.7598 119.533 69.0401 120.423 68.5618C121.314 68.0759 122.34 67.8883 123.502 67.9989C124.678 68.1109 125.643 68.492 126.395 69.142C127.156 69.7852 127.655 70.6128 127.894 71.6249L128.075 71.6421C128.551 70.7134 129.273 70.0059 130.24 69.5197C131.215 69.0266 132.333 68.8401 133.592 68.9601C135.191 69.1124 136.448 69.7419 137.362 70.8488C138.276 71.9556 138.641 73.4781 138.457 75.4163L137.346 87.0794L133.239 86.6883L134.29 75.6587C134.393 74.5802 134.181 73.7648 133.655 73.2125C133.13 72.6526 132.453 72.3331 131.623 72.2541C130.635 72.16 129.833 72.3956 129.216 72.9608C128.607 73.5193 128.256 74.2887 128.163 75.2691L127.131 86.1064L123.115 85.7239L124.181 74.5246C124.267 73.6271 124.064 72.8848 123.572 72.2976C123.087 71.7112 122.411 71.3766 121.544 71.294C120.956 71.238 120.406 71.3378 119.895 71.5935C119.384 71.8416 118.959 72.2236 118.621 72.7393C118.283 73.2474 118.081 73.8597 118.012 74.5762L117.006 85.142L112.911 84.7519ZM141.5 87.4752L143.155 70.0993L147.25 70.4893L145.595 87.8652L141.5 87.4752ZM145.449 67.8293C144.8 67.7675 144.263 67.4994 143.836 67.025C143.41 66.543 143.226 65.9966 143.285 65.3857C143.344 64.7673 143.627 64.2655 144.136 63.8801C144.645 63.4872 145.224 63.3217 145.873 63.3835C146.529 63.446 147.066 63.7178 147.484 64.1991C147.911 64.6735 148.095 65.2199 148.036 65.8383C147.978 66.4492 147.694 66.9511 147.185 67.3439C146.684 67.73 146.105 67.8918 145.449 67.8293ZM161.577 82.0134L162.536 71.9454L166.631 72.3354L164.976 89.7113L161.006 89.3331L161.3 86.2448L161.119 86.2276C160.634 87.1631 159.913 87.8973 158.957 88.4303C158.008 88.9639 156.881 89.1686 155.577 89.0443C154.438 88.9358 153.455 88.5873 152.628 87.9987C151.81 87.4032 151.202 86.5957 150.805 85.5762C150.408 84.5491 150.275 83.3417 150.408 81.954L151.461 70.8905L155.557 71.2805L154.563 81.7106C154.458 82.8117 154.676 83.7152 155.218 84.4213C155.76 85.1273 156.521 85.527 157.501 85.6204C158.104 85.6779 158.703 85.5865 159.296 85.3463C159.89 85.106 160.396 84.7128 160.813 84.1666C161.238 83.6135 161.493 82.8958 161.577 82.0134ZM169.187 90.1125L170.842 72.7366L174.757 73.1094L174.475 76.0619L174.679 76.0813C175.136 75.1203 175.809 74.4006 176.7 73.9223C177.591 73.4364 178.617 73.2488 179.778 73.3594C180.955 73.4715 181.919 73.8525 182.671 74.5026C183.432 75.1458 183.932 75.9734 184.17 76.9854L184.351 77.0026C184.828 76.074 185.549 75.3665 186.517 74.8802C187.492 74.3872 188.609 74.2006 189.869 74.3206C191.468 74.4729 192.724 75.1025 193.639 76.2093C194.553 77.3161 194.918 78.8387 194.733 80.7769L193.622 92.44L189.516 92.0488L190.566 81.0192C190.669 79.9407 190.458 79.1253 189.932 78.573C189.407 78.0131 188.729 77.6937 187.9 77.6146C186.912 77.5205 186.109 77.7561 185.493 78.3214C184.884 78.8798 184.533 79.6492 184.439 80.6296L183.407 91.4669L179.391 91.0844L180.458 79.8851C180.543 78.9877 180.34 78.2453 179.848 77.6582C179.364 77.0717 178.688 76.7372 177.821 76.6546C177.232 76.5985 176.682 76.6983 176.171 76.954C175.66 77.2022 175.236 77.5841 174.898 78.0998C174.56 78.608 174.357 79.2203 174.289 79.9367L173.282 90.5025L169.187 90.1125ZM227.152 80.1436L222.921 79.7406C222.867 79.0353 222.703 78.3994 222.43 77.8331C222.157 77.2592 221.797 76.7607 221.351 76.3377C220.904 75.9146 220.38 75.5794 219.78 75.3319C219.188 75.0776 218.537 74.9167 217.828 74.8492C216.569 74.7292 215.422 74.9397 214.389 75.4805C213.357 76.0138 212.507 76.8613 211.841 78.0231C211.176 79.1773 210.76 80.6255 210.594 82.3676C210.425 84.1399 210.558 85.6593 210.993 86.926C211.436 88.1858 212.111 89.1709 213.018 89.8812C213.932 90.5848 215.016 90.9962 216.267 91.1154C216.961 91.1815 217.618 91.1528 218.239 91.0293C218.868 90.8989 219.441 90.6757 219.958 90.3597C220.483 90.0444 220.936 89.6386 221.318 89.1423C221.708 88.6467 221.999 88.0656 222.192 87.3991L226.421 87.8247C226.157 88.9107 225.716 89.9112 225.096 90.8263C224.484 91.742 223.72 92.5292 222.805 93.1879C221.891 93.8389 220.848 94.318 219.677 94.625C218.507 94.9245 217.232 95.0085 215.852 94.8771C213.816 94.6831 212.043 94.0386 210.534 92.9436C209.025 91.8486 207.895 90.3674 207.145 88.4999C206.394 86.6325 206.137 84.4544 206.375 81.9656C206.612 79.4694 207.279 77.3793 208.376 75.6953C209.473 74.0039 210.866 72.7629 212.555 71.9725C214.243 71.1821 216.098 70.8832 218.119 71.0757C219.409 71.1986 220.591 71.4938 221.665 71.9614C222.739 72.429 223.676 73.0548 224.477 73.8387C225.278 74.6152 225.909 75.5353 226.371 76.599C226.841 77.6559 227.102 78.8374 227.152 80.1436ZM235.654 73.0656L233.448 96.2335L229.352 95.8434L231.559 72.6756L235.654 73.0656ZM245.206 97.6959C243.509 97.5343 242.074 97.0209 240.9 96.1558C239.727 95.2906 238.861 94.1541 238.303 92.7464C237.752 91.3393 237.562 89.7383 237.733 87.9434C237.904 86.1485 238.393 84.6084 239.201 83.3231C240.015 82.0385 241.081 81.0822 242.396 80.4541C243.712 79.826 245.218 79.5928 246.915 79.7544C248.611 79.9161 250.047 80.4294 251.22 81.2946C252.393 82.1597 253.255 83.2996 253.805 84.7142C254.363 86.1295 254.556 87.7347 254.385 89.5296C254.214 91.3245 253.721 92.8604 252.907 94.1375C252.101 95.4152 251.04 96.3682 249.724 96.9963C248.409 97.6243 246.902 97.8576 245.206 97.6959ZM245.541 94.4175C246.461 94.5051 247.254 94.3258 247.921 93.8794C248.588 93.4254 249.113 92.783 249.497 91.952C249.888 91.1217 250.134 90.1786 250.234 89.1228C250.336 88.0594 250.273 87.0831 250.045 86.1939C249.826 85.2979 249.432 84.564 248.862 83.9923C248.293 83.4206 247.548 83.0909 246.628 83.0032C245.685 82.9134 244.877 83.0952 244.202 83.5484C243.534 84.0023 243.005 84.6482 242.613 85.486C242.23 86.317 241.987 87.2642 241.886 88.3276C241.785 89.3834 241.845 90.3555 242.065 91.244C242.292 92.1332 242.69 92.8637 243.26 93.4354C243.838 94.0003 244.598 94.3277 245.541 94.4175ZM268.811 92.2278L269.77 82.1597L273.865 82.5498L272.21 99.9257L268.239 99.5475L268.533 96.4592L268.352 96.442C267.867 97.3775 267.147 98.1117 266.19 98.6446C265.242 99.1783 264.115 99.3829 262.81 99.2587C261.671 99.1502 260.689 98.8017 259.862 98.213C259.043 97.6176 258.435 96.8101 258.038 95.7905C257.641 94.7634 257.509 93.556 257.641 92.1684L258.695 81.1048L262.79 81.4949L261.796 91.925C261.691 93.026 261.91 93.9296 262.451 94.6356C262.993 95.3417 263.754 95.7414 264.734 95.8348C265.338 95.8923 265.936 95.8009 266.53 95.5606C267.123 95.3204 267.629 94.9272 268.046 94.3809C268.472 93.8279 268.727 93.1102 268.811 92.2278ZM282.84 101.246C281.475 101.116 280.286 100.649 279.275 99.8453C278.263 99.0412 277.508 97.9419 277.009 96.5474C276.51 95.1529 276.352 93.5017 276.533 91.5936C276.717 89.663 277.189 88.0641 277.949 86.7972C278.717 85.5234 279.677 84.5988 280.827 84.0235C281.979 83.4407 283.222 83.2128 284.557 83.34C285.575 83.4369 286.395 83.6901 287.019 84.0996C287.642 84.5014 288.124 84.962 288.462 85.4813C288.802 85.9931 289.057 86.4702 289.228 86.9126L289.397 86.9288L290.223 78.2635L294.329 78.6546L292.122 101.822L288.095 101.439L288.356 98.7013L288.107 98.6775C287.856 99.0798 287.507 99.4994 287.062 99.9364C286.618 100.366 286.052 100.715 285.364 100.985C284.677 101.254 283.835 101.341 282.84 101.246ZM284.302 97.9955C285.17 98.0781 285.931 97.9147 286.586 97.5053C287.242 97.0884 287.769 96.4727 288.166 95.6582C288.564 94.8437 288.816 93.8746 288.923 92.7509C289.03 91.6272 288.964 90.6355 288.727 89.7757C288.496 88.9167 288.098 88.2281 287.531 87.7098C286.971 87.1923 286.25 86.8916 285.368 86.8075C284.455 86.7206 283.671 86.8856 283.015 87.3025C282.359 87.7195 281.836 88.3318 281.447 89.1394C281.058 89.9471 280.813 90.8902 280.71 91.9686C280.606 93.0546 280.669 94.0384 280.897 94.9201C281.133 95.7949 281.533 96.5065 282.097 97.0549C282.67 97.5965 283.405 97.91 284.302 97.9955ZM309.875 80.1354L314.168 98.9454L314.405 98.968L322.161 81.3057L326.776 81.7453L316.402 104.135L311.221 103.642L305.271 79.6969L309.875 80.1354ZM327.621 105.204L329.828 82.036L338.516 82.8635C340.295 83.0331 341.757 83.5071 342.9 84.2857C344.051 85.065 344.881 86.0649 345.389 87.2852C345.905 88.4987 346.093 89.8407 345.953 91.3113C345.811 92.797 345.372 94.087 344.636 95.1813C343.901 96.2755 342.89 97.0963 341.605 97.6436C340.321 98.1833 338.785 98.368 336.998 98.1978L331.24 97.6493L331.568 94.199L336.761 94.6936C337.802 94.7928 338.671 94.6929 339.369 94.3942C340.067 94.0954 340.605 93.6443 340.982 93.041C341.367 92.4384 341.598 91.7261 341.676 90.904C341.755 90.082 341.662 89.3425 341.397 88.6857C341.14 88.0296 340.692 87.4961 340.054 87.0852C339.424 86.6676 338.585 86.4088 337.537 86.309L333.69 85.9426L331.818 105.604L327.621 105.204ZM362.313 91.557C362.301 90.559 361.929 89.7473 361.198 89.1221C360.473 88.4975 359.489 88.126 358.244 88.0075C357.37 87.9242 356.607 87.9847 355.956 88.189C355.304 88.3933 354.791 88.7059 354.417 89.1268C354.042 89.5477 353.823 90.0481 353.76 90.6281C353.714 91.1108 353.783 91.5398 353.968 91.9151C354.161 92.2911 354.437 92.6218 354.798 92.9073C355.16 93.1853 355.567 93.4295 356.019 93.64C356.47 93.8504 356.928 94.0348 357.393 94.1932L359.513 94.9431C360.368 95.2301 361.183 95.5854 361.957 96.0092C362.738 96.4337 363.425 96.9405 364.015 97.5294C364.614 98.1191 365.066 98.8052 365.372 99.5878C365.678 100.37 365.783 101.263 365.687 102.266C365.558 103.624 365.097 104.786 364.305 105.753C363.513 106.713 362.434 107.42 361.066 107.876C359.707 108.325 358.1 108.461 356.245 108.284C354.442 108.113 352.904 107.684 351.63 107C350.363 106.316 349.407 105.403 348.763 104.261C348.126 103.12 347.85 101.777 347.936 100.233L352.066 100.626C352.049 101.439 352.234 102.134 352.62 102.711C353.007 103.288 353.538 103.742 354.214 104.073C354.898 104.404 355.677 104.612 356.552 104.695C357.465 104.782 358.277 104.722 358.989 104.516C359.71 104.303 360.289 103.97 360.728 103.517C361.168 103.057 361.423 102.495 361.494 101.832C361.544 101.228 361.414 100.714 361.104 100.289C360.795 99.8558 360.341 99.4776 359.74 99.154C359.147 98.8236 358.446 98.5133 357.637 98.2232L355.066 97.2933C353.204 96.6214 351.767 95.7349 350.753 94.6338C349.747 93.5259 349.324 92.1423 349.482 90.4832C349.612 89.1181 350.095 87.958 350.932 87.0027C351.776 86.0482 352.866 85.3492 354.202 84.9057C355.539 84.4546 357.018 84.3063 358.639 84.4608C360.283 84.6174 361.697 85.0412 362.879 85.7321C364.069 86.4163 364.971 87.2974 365.584 88.3755C366.197 89.4461 366.453 90.6348 366.351 91.9416L362.313 91.557Z" fill="white"/>
</svg>
