<svg width="545" height="266" viewBox="0 0 545 266" fill="none" xmlns="http://www.w3.org/2000/svg">
<ellipse cx="253.213" cy="254.101" rx="42.3588" ry="6.6445" transform="rotate(5.85761 253.213 254.101)" fill="#002935"/>
<path d="M286.257 2.51143L269.003 8.43058L236.198 252.115L265.017 253.637L286.257 2.51143Z" fill="#1EC0F2"/>
<path d="M96.0557 122.029L20.4109 114.162L18.741 81.0077L35.4506 71.8978L23.6622 64.8491L18.8278 25.9217L71.8372 35.1929L89.1761 43.5891L90.9966 33.1802L254.138 57.9586L262.15 68.478L268.911 60.5424L511.741 92.3791L535.812 123.107L500.46 139.906L467.155 137.471L504.39 149.883L475.12 161.218L127.34 127.5L109.314 117.911L96.0557 122.029Z" fill="#1EC0F2"/>
<path d="M75.1417 72.666C75.1463 71.6679 74.7878 70.8504 74.066 70.2135C73.3518 69.5774 72.3736 69.19 71.1313 69.0515C70.2579 68.9541 69.4941 69.0023 68.8398 69.1962C68.1855 69.39 67.6675 69.6943 67.2858 70.1091C66.9042 70.5239 66.6772 71.0208 66.6051 71.5997C66.5513 72.0815 66.6139 72.5116 66.7928 72.8898C66.9792 73.2688 67.2505 73.604 67.6068 73.8953C67.9639 74.179 68.3667 74.4298 68.815 74.6475C69.2633 74.8651 69.7184 75.0569 70.1801 75.2227L72.288 76.0066C73.1387 76.3073 73.9476 76.6758 74.7146 77.1119C75.4891 77.5489 76.1669 78.0666 76.7481 78.6651C77.3369 79.2643 77.7779 79.9576 78.0712 80.745C78.3646 81.5323 78.4554 82.4267 78.3437 83.428C78.1926 84.7833 77.7132 85.938 76.9055 86.8923C76.0986 87.839 75.0078 88.5292 73.6331 88.9628C72.2668 89.3898 70.6575 89.5 68.8054 89.2934C67.0059 89.0928 65.4747 88.64 64.2117 87.9351C62.9563 87.231 62.0155 86.3028 61.3893 85.1506C60.7707 83.9991 60.5169 82.6521 60.6279 81.1095L64.7501 81.5691C64.7205 82.3815 64.8942 83.0793 65.2713 83.6625C65.6484 84.2458 66.1723 84.7082 66.8431 85.0498C67.5215 85.3923 68.2974 85.6122 69.1707 85.7096C70.0818 85.8112 70.8949 85.7646 71.6103 85.57C72.3341 85.3687 72.919 85.0451 73.3651 84.5994C73.812 84.1461 74.0762 83.5886 74.1576 82.9269C74.2172 82.3238 74.0957 81.8071 73.793 81.377C73.4912 80.9393 73.0425 80.5539 72.447 80.2207C71.8598 79.8808 71.1639 79.5592 70.3592 79.2561L67.8033 78.285C65.9531 77.5832 64.5299 76.6737 63.534 75.5564C62.5464 74.4325 62.145 73.0423 62.3297 71.3859C62.4817 70.0231 62.9837 68.8709 63.8357 67.9292C64.6953 66.9884 65.7965 66.307 67.1394 65.885C68.4832 65.4556 69.9644 65.3311 71.5832 65.5116C73.2245 65.6946 74.6307 66.1411 75.8016 66.851C76.981 67.5542 77.8682 68.4497 78.4635 69.5376C79.0595 70.6179 79.2962 71.8105 79.1736 73.1156L75.1417 72.666ZM88.8161 91.5135C87.0769 91.3195 85.6152 90.7906 84.4309 89.9268C83.255 89.0563 82.4025 87.9169 81.8735 86.5087C81.3453 85.0929 81.1824 83.4778 81.3848 81.6633C81.5837 79.8789 82.0972 78.3506 82.9251 77.0785C83.7614 75.7997 84.8351 74.8522 86.1463 74.2362C87.4584 73.6126 88.9426 73.3931 90.599 73.5779C91.6681 73.6971 92.6577 73.9828 93.5677 74.4349C94.4861 74.8803 95.2706 75.5014 95.9212 76.2981C96.5793 77.0956 97.0574 78.0713 97.3556 79.2251C97.6547 80.3714 97.7194 81.7049 97.5498 83.2258L97.41 84.4794L83.1913 82.8938L83.4986 80.1382L93.7984 81.2867C93.8782 80.5029 93.7865 79.7876 93.5232 79.1408C93.2608 78.4864 92.8519 77.9492 92.2965 77.529C91.7487 77.1096 91.0833 76.8563 90.3003 76.769C89.4646 76.6758 88.7078 76.7972 88.03 77.1332C87.3531 77.4617 86.8012 77.9338 86.3742 78.5494C85.9557 79.1582 85.6994 79.85 85.6054 80.6247L85.3372 83.0302C85.2247 84.0391 85.3126 84.9255 85.6009 85.6895C85.89 86.4459 86.3445 87.053 86.9642 87.5109C87.5848 87.9612 88.3393 88.2359 89.2278 88.335C89.8226 88.4013 90.3701 88.3785 90.8704 88.2666C91.3716 88.1472 91.8176 87.9416 92.2084 87.6497C92.5992 87.3579 92.9123 86.9774 93.1475 86.5081L96.9169 87.363C96.5635 88.345 96.006 89.1747 95.2444 89.852C94.4912 90.5227 93.5682 91.0067 92.4755 91.3041C91.3836 91.594 90.1638 91.6638 88.8161 91.5135ZM107.555 93.6032C105.823 93.41 104.379 92.864 103.221 91.965C102.071 91.0669 101.236 89.9104 100.715 88.4955C100.203 87.0739 100.045 85.4859 100.24 83.7317C100.437 81.9699 100.949 80.4529 101.777 79.1807C102.606 77.9011 103.679 76.9536 104.998 76.3384C106.325 75.7165 107.836 75.5 109.53 75.6889C110.938 75.8459 112.155 76.2446 113.181 76.8851C114.216 77.5188 115.004 78.3423 115.547 79.3556C116.09 80.3615 116.338 81.4943 116.289 82.7542L112.381 82.3185C112.316 81.4651 112.017 80.7267 111.485 80.1032C110.96 79.473 110.205 79.103 109.219 78.993C108.383 78.8998 107.624 79.0438 106.941 79.425C106.259 79.7987 105.694 80.3837 105.247 81.1799C104.808 81.977 104.523 82.9591 104.393 84.1261C104.261 85.3082 104.321 86.3439 104.572 87.2333C104.825 88.1152 105.238 88.8206 105.811 89.3496C106.393 89.8719 107.11 90.1804 107.96 90.2753C108.563 90.3425 109.114 90.2896 109.613 90.1166C110.121 89.9369 110.561 89.6468 110.934 89.2462C111.306 88.8456 111.588 88.3396 111.778 87.7281L115.685 88.1639C115.451 89.3802 114.968 90.4278 114.237 91.3068C113.507 92.1783 112.574 92.8213 111.438 93.2358C110.302 93.6427 109.008 93.7652 107.555 93.6032ZM130.251 88.4047L131.372 78.3533L135.46 78.8092L133.526 96.1562L129.562 95.7142L129.906 92.631L129.725 92.6109C129.225 93.5385 128.493 94.261 127.528 94.7785C126.571 95.2968 125.441 95.4833 124.138 95.3381C123.001 95.2113 122.024 94.847 121.207 94.2451C120.398 93.6366 119.804 92.8194 119.422 91.7936C119.042 90.7602 118.929 89.5509 119.084 88.1655L120.316 77.1204L124.404 77.5763L123.243 87.989C123.12 89.0882 123.324 89.9952 123.854 90.7099C124.384 91.4245 125.139 91.8365 126.117 91.9456C126.72 92.0128 127.32 91.931 127.917 91.7004C128.514 91.4697 129.026 91.0846 129.452 90.5452C129.887 89.9991 130.153 89.2856 130.251 88.4047ZM137.73 96.6251L139.664 79.278L143.628 79.7201L143.306 82.6113L143.487 82.6314C143.915 81.6653 144.543 80.954 145.371 80.4976C146.208 80.0344 147.123 79.8583 148.117 79.9691C148.343 79.9943 148.594 80.0337 148.87 80.0874C149.154 80.1343 149.389 80.1871 149.573 80.2457L149.153 84.0065C148.987 83.927 148.718 83.8436 148.347 83.7565C147.983 83.6626 147.629 83.5964 147.282 83.5578C146.537 83.4747 145.849 83.5618 145.218 83.8192C144.595 84.07 144.083 84.4588 143.682 84.9857C143.28 85.5126 143.038 86.145 142.955 86.8828L141.818 97.081L137.73 96.6251ZM157.267 99.1467C155.528 98.9528 154.066 98.4239 152.882 97.56C151.706 96.6895 150.853 95.5501 150.324 94.1419C149.796 92.7262 149.633 91.111 149.835 89.2965C150.034 87.5121 150.548 85.9839 151.376 84.7117C152.212 83.4329 153.286 82.4855 154.597 81.8694C155.909 81.2458 157.393 81.0264 159.05 81.2111C160.119 81.3303 161.108 81.616 162.018 82.0681C162.937 82.5136 163.721 83.1346 164.372 83.9313C165.03 84.7289 165.508 85.7045 165.806 86.8583C166.105 88.0046 166.17 89.3382 166.001 90.8591L165.861 92.1126L151.642 90.5271L151.949 87.7714L162.249 88.92C162.329 88.1361 162.237 87.4208 161.974 86.774C161.711 86.1197 161.303 85.5824 160.747 85.1622C160.199 84.7429 159.534 84.4895 158.751 84.4022C157.915 84.309 157.159 84.4304 156.481 84.7665C155.804 85.095 155.252 85.567 154.825 86.1826C154.406 86.7915 154.15 87.4832 154.056 88.2579L153.788 90.6634C153.675 91.6723 153.763 92.5588 154.052 93.3227C154.341 94.0791 154.795 94.6862 155.415 95.1441C156.036 95.5944 156.79 95.8691 157.678 95.9682C158.273 96.0345 158.821 96.0118 159.321 95.8999C159.822 95.7804 160.268 95.5748 160.659 95.283C161.05 94.9912 161.363 94.6106 161.598 94.1414L165.368 94.9962C165.014 95.9783 164.457 96.8079 163.695 97.4853C162.942 98.1559 162.019 98.64 160.926 98.9374C159.834 99.2272 158.615 99.297 157.267 99.1467ZM190.986 85.5843C190.991 84.5862 190.632 83.7687 189.91 83.1318C189.196 82.4957 188.218 82.1084 186.976 81.9698C186.102 81.8724 185.338 81.9207 184.684 82.1145C184.03 82.3083 183.512 82.6126 183.13 83.0274C182.749 83.4422 182.522 83.9391 182.449 84.518C182.396 84.9999 182.458 85.4299 182.637 85.8081C182.824 86.1872 183.095 86.5223 183.451 86.8136C183.808 87.0974 184.211 87.3481 184.659 87.5658C185.108 87.7835 185.563 87.9752 186.025 88.1411L188.132 88.925C188.983 89.2256 189.792 89.5941 190.559 90.0302C191.334 90.4673 192.011 90.985 192.593 91.5834C193.181 92.1826 193.622 92.8759 193.916 93.6633C194.209 94.4506 194.3 95.345 194.188 96.3464C194.037 97.7016 193.558 98.8563 192.75 99.8106C191.943 100.757 190.852 101.447 189.478 101.881C188.111 102.308 186.502 102.418 184.65 102.212C182.85 102.011 181.319 101.558 180.056 100.853C178.801 100.149 177.86 99.2211 177.234 98.0689C176.615 96.9175 176.361 95.5704 176.472 94.0278L180.595 94.4875C180.565 95.2998 180.739 95.9976 181.116 96.5808C181.493 97.1641 182.017 97.6265 182.688 97.9681C183.366 98.3106 184.142 98.5305 185.015 98.6279C185.926 98.7295 186.739 98.683 187.455 98.4883C188.178 98.287 188.763 97.9635 189.209 97.5177C189.656 97.0645 189.921 96.507 190.002 95.8453C190.062 95.2421 189.94 94.7254 189.637 94.2953C189.336 93.8576 188.887 93.4722 188.291 93.139C187.704 92.7991 187.008 92.4776 186.204 92.1744L183.648 91.2033C181.797 90.5015 180.374 89.592 179.378 88.4747C178.391 87.3508 177.989 85.9606 178.174 84.3042C178.326 82.9414 178.828 81.7892 179.68 80.8475C180.54 79.9067 181.641 79.2253 182.984 78.8034C184.328 78.3739 185.809 78.2494 187.428 78.4299C189.069 78.613 190.475 79.0594 191.646 79.7693C192.825 80.4725 193.713 81.3681 194.308 82.4559C194.904 83.5362 195.141 84.7288 195.018 86.0339L190.986 85.5843ZM204.548 104.419C202.854 104.23 201.427 103.694 200.268 102.81C199.109 101.926 198.261 100.776 197.725 99.3592C197.197 97.9435 197.033 96.3397 197.233 94.5477C197.433 92.7558 197.947 91.2238 198.775 89.9516C199.61 88.6803 200.69 87.7413 202.016 87.1344C203.341 86.5276 204.851 86.3186 206.545 86.5075C208.239 86.6964 209.666 87.2328 210.825 88.1167C211.984 89.0007 212.827 90.1543 213.355 91.5775C213.889 93.0016 214.057 94.6097 213.857 96.4016C213.657 98.1935 213.14 99.7213 212.306 100.985C211.478 102.25 210.402 103.185 209.077 103.792C207.751 104.399 206.242 104.608 204.548 104.419ZM204.935 101.147C205.854 101.249 206.65 101.082 207.324 100.647C207.998 100.204 208.534 99.5698 208.931 98.745C209.335 97.9211 209.596 96.9822 209.714 95.9281C209.832 94.8665 209.785 93.8893 209.572 92.9966C209.367 92.0971 208.985 91.357 208.424 90.7762C207.864 90.1954 207.125 89.8537 206.206 89.7513C205.265 89.6464 204.453 89.815 203.771 90.2573C203.097 90.7004 202.557 91.3377 202.152 92.1691C201.755 92.9939 201.497 93.937 201.379 94.9986C201.261 96.0527 201.305 97.0257 201.511 97.9176C201.724 98.8103 202.11 99.5471 202.671 100.128C203.239 100.702 203.994 101.042 204.935 101.147ZM223.896 106.577C222.165 106.384 220.72 105.838 219.563 104.939C218.413 104.041 217.577 102.884 217.057 101.469C216.544 100.048 216.386 98.4597 216.582 96.7054C216.778 94.9436 217.29 93.4266 218.118 92.1545C218.947 90.8748 220.021 89.9274 221.34 89.3122C222.667 88.6903 224.177 88.4738 225.871 88.6627C227.279 88.8197 228.496 89.2184 229.523 89.8588C230.557 90.4925 231.346 91.316 231.888 92.3294C232.432 93.3352 232.679 94.4681 232.63 95.728L228.722 95.2922C228.657 94.4388 228.359 93.7004 227.826 93.0769C227.302 92.4468 226.546 92.0767 225.56 91.9667C224.724 91.8735 223.965 92.0175 223.282 92.3987C222.6 92.7724 222.036 93.3574 221.589 94.1537C221.149 94.9508 220.864 95.9328 220.734 97.0998C220.602 98.2819 220.662 99.3177 220.914 100.207C221.166 101.089 221.579 101.794 222.153 102.323C222.735 102.846 223.451 103.154 224.302 103.249C224.904 103.316 225.455 103.263 225.955 103.09C226.463 102.911 226.903 102.621 227.275 102.22C227.648 101.819 227.929 101.313 228.119 100.702L232.027 101.138C231.792 102.354 231.309 103.402 230.578 104.281C229.849 105.152 228.916 105.795 227.779 106.209C226.644 106.616 225.35 106.739 223.896 106.577ZM239.056 102.413L239.595 97.4766L240.25 97.5497L247.262 91.2767L252.039 91.8094L243.418 99.4923L242.571 99.3978L239.056 102.413ZM234.722 107.441L237.302 84.3118L241.39 84.7677L238.811 107.897L234.722 107.441ZM245.61 108.655L240.843 100.131L243.92 97.5587L250.5 109.201L245.61 108.655ZM259.757 110.576C258.017 110.382 256.556 109.853 255.371 108.989C254.195 108.119 253.343 106.979 252.814 105.571C252.286 104.155 252.123 102.54 252.325 100.726C252.524 98.9412 253.038 97.413 253.866 96.1408C254.702 94.862 255.776 93.9145 257.087 93.2985C258.399 92.6749 259.883 92.4555 261.539 92.6402C262.609 92.7594 263.598 93.0451 264.508 93.4972C265.427 93.9426 266.211 94.5637 266.862 95.3604C267.52 96.158 267.998 97.1336 268.296 98.2874C268.595 99.4337 268.66 100.767 268.49 102.288L268.35 103.542L254.132 101.956L254.439 99.2005L264.739 100.349C264.819 99.5652 264.727 98.8499 264.464 98.2031C264.201 97.5487 263.792 97.0115 263.237 96.5913C262.689 96.1719 262.024 95.9186 261.241 95.8313C260.405 95.7381 259.648 95.8595 258.97 96.1955C258.293 96.5241 257.742 96.9961 257.315 97.6117C256.896 98.2206 256.64 98.9123 256.546 99.687L256.278 102.093C256.165 103.101 256.253 103.988 256.541 104.752C256.83 105.508 257.285 106.115 257.905 106.573C258.525 107.024 259.28 107.298 260.168 107.397C260.763 107.464 261.311 107.441 261.811 107.329C262.312 107.209 262.758 107.004 263.149 106.712C263.54 106.42 263.853 106.04 264.088 105.57L267.857 106.425C267.504 107.407 266.946 108.237 266.185 108.914C265.432 109.585 264.509 110.069 263.416 110.366C262.324 110.656 261.104 110.726 259.757 110.576ZM281.563 95.1018L281.211 98.264L271.238 97.152L271.591 93.9897L281.563 95.1018ZM274.516 90.1082L278.605 90.5641L276.789 106.85C276.727 107.399 276.763 107.83 276.896 108.142C277.037 108.448 277.241 108.669 277.508 108.805C277.775 108.941 278.078 109.029 278.417 109.066C278.673 109.095 278.908 109.102 279.123 109.088C279.346 109.075 279.515 109.059 279.631 109.042L279.964 112.315C279.737 112.366 279.415 112.414 278.999 112.459C278.59 112.504 278.094 112.503 277.513 112.453C276.486 112.369 275.581 112.112 274.798 111.681C274.016 111.244 273.424 110.636 273.023 109.86C272.629 109.084 272.496 108.155 272.625 107.071L274.516 90.1082ZM297.933 101.57L294.161 101.56C294.097 101.172 293.952 100.798 293.726 100.437C293.507 100.077 293.19 99.7714 292.776 99.5194C292.362 99.2675 291.839 99.1062 291.207 99.0357C290.356 98.9408 289.62 99.0455 288.999 99.3498C288.386 99.6549 288.05 100.102 287.992 100.69C287.928 101.193 288.067 101.624 288.408 101.982C288.757 102.341 289.36 102.672 290.219 102.973L293.107 103.936C294.709 104.472 295.866 105.169 296.578 106.026C297.298 106.884 297.593 107.935 297.462 109.178C297.333 110.269 296.905 111.197 296.18 111.962C295.462 112.72 294.52 113.271 293.354 113.614C292.188 113.956 290.882 114.047 289.436 113.886C287.313 113.649 285.653 113.014 284.458 111.981C283.262 110.941 282.63 109.609 282.559 107.985L286.589 108.045C286.682 108.848 287 109.482 287.543 109.947C288.086 110.411 288.828 110.696 289.769 110.801C290.74 110.909 291.541 110.797 292.173 110.463C292.813 110.131 293.165 109.671 293.23 109.083C293.286 108.586 293.14 108.155 292.792 107.788C292.451 107.422 291.892 107.108 291.113 106.846L288.223 105.895C286.598 105.363 285.432 104.642 284.726 103.733C284.02 102.816 283.741 101.725 283.89 100.461C284.002 99.3909 284.395 98.4971 285.069 97.7796C285.752 97.0554 286.645 96.5374 287.747 96.2258C288.857 95.9075 290.105 95.8256 291.49 95.9801C293.523 96.2068 295.075 96.8181 296.145 97.8141C297.223 98.8109 297.819 100.063 297.933 101.57ZM308.323 115.649L310.902 92.5193L315.092 92.9865L312.905 112.604L323.092 113.74L322.7 117.252L308.323 115.649ZM331.108 118.544C330.009 118.421 329.041 118.115 328.204 117.626C327.375 117.129 326.748 116.465 326.322 115.632C325.904 114.8 325.759 113.816 325.885 112.679C325.995 111.7 326.265 110.911 326.698 110.311C327.131 109.712 327.681 109.255 328.349 108.94C329.017 108.626 329.753 108.415 330.558 108.306C331.371 108.191 332.204 108.135 333.058 108.139C334.086 108.147 334.921 108.145 335.562 108.133C336.205 108.113 336.679 108.028 336.986 107.88C337.3 107.724 337.479 107.451 337.523 107.059L337.531 106.991C337.626 106.141 337.447 105.454 336.994 104.931C336.542 104.408 335.841 104.093 334.893 103.987C333.891 103.876 333.073 104.005 332.437 104.377C331.808 104.749 331.359 105.221 331.09 105.793L327.333 104.825C327.752 103.805 328.347 102.979 329.118 102.349C329.891 101.711 330.797 101.271 331.838 101.028C332.88 100.779 334.007 100.721 335.219 100.857C336.055 100.95 336.876 101.14 337.682 101.428C338.489 101.717 339.209 102.125 339.844 102.653C340.48 103.173 340.962 103.841 341.29 104.655C341.626 105.47 341.73 106.453 341.601 107.605L340.307 119.215L336.376 118.777L336.642 116.394L336.507 116.379C336.204 116.833 335.804 117.246 335.305 117.617C334.815 117.982 334.217 118.254 333.51 118.435C332.813 118.608 332.012 118.645 331.108 118.544ZM332.505 115.658C333.326 115.75 334.055 115.667 334.694 115.411C335.333 115.147 335.845 114.762 336.229 114.256C336.621 113.75 336.852 113.178 336.924 112.538L337.152 110.494C337.012 110.585 336.782 110.658 336.464 110.714C336.152 110.771 335.805 110.812 335.421 110.838C335.037 110.864 334.657 110.883 334.283 110.894C333.908 110.906 333.583 110.915 333.308 110.923C332.688 110.937 332.127 111.012 331.625 111.147C331.122 111.281 330.712 111.502 330.396 111.81C330.08 112.11 329.893 112.524 329.834 113.051C329.75 113.804 329.962 114.403 330.469 114.848C330.975 115.293 331.654 115.563 332.505 115.658ZM345.612 126.393C345.055 126.331 344.544 126.228 344.08 126.085C343.622 125.95 343.261 125.811 342.995 125.667L344.298 122.588C344.874 122.827 345.395 122.969 345.863 123.014C346.331 123.058 346.757 122.957 347.143 122.71C347.536 122.472 347.893 122.039 348.214 121.412L348.669 120.514L344.353 102.104L348.69 102.587L351.227 116.134L351.407 116.154L356.878 103.5L361.226 103.985L352.111 122.658C351.685 123.541 351.168 124.28 350.561 124.875C349.952 125.478 349.241 125.91 348.427 126.169C347.619 126.438 346.681 126.512 345.612 126.393ZM369.172 122.777C367.433 122.583 365.971 122.054 364.787 121.191C363.611 120.32 362.758 119.181 362.229 117.772C361.701 116.357 361.538 114.742 361.741 112.927C361.94 111.143 362.453 109.614 363.281 108.342C364.117 107.063 365.191 106.116 366.502 105.5C367.814 104.876 369.299 104.657 370.955 104.842C372.024 104.961 373.014 105.246 373.924 105.699C374.842 106.144 375.627 106.765 376.277 107.562C376.935 108.359 377.413 109.335 377.712 110.489C378.011 111.635 378.075 112.969 377.906 114.49L377.766 115.743L363.547 114.158L363.855 111.402L374.154 112.55C374.234 111.767 374.142 111.051 373.879 110.404C373.617 109.75 373.208 109.213 372.652 108.793C372.105 108.373 371.439 108.12 370.656 108.033C369.82 107.939 369.064 108.061 368.386 108.397C367.709 108.725 367.157 109.198 366.73 109.813C366.312 110.422 366.055 111.114 365.961 111.888L365.693 114.294C365.581 115.303 365.668 116.189 365.957 116.953C366.246 117.71 366.7 118.317 367.32 118.775C367.941 119.225 368.695 119.5 369.584 119.599C370.178 119.665 370.726 119.642 371.226 119.53C371.728 119.411 372.174 119.205 372.564 118.913C372.955 118.622 373.268 118.241 373.503 117.772L377.273 118.627C376.919 119.609 376.362 120.438 375.6 121.116C374.847 121.786 373.924 122.27 372.831 122.568C371.74 122.858 370.52 122.927 369.172 122.777ZM380.382 123.684L382.317 106.337L386.281 106.779L385.958 109.67L386.139 109.691C386.567 108.725 387.195 108.013 388.023 107.557C388.86 107.094 389.775 106.917 390.769 107.028C390.995 107.053 391.246 107.093 391.522 107.147C391.807 107.194 392.041 107.246 392.225 107.305L391.805 111.066C391.639 110.986 391.37 110.903 390.999 110.816C390.636 110.722 390.281 110.656 389.935 110.617C389.189 110.534 388.501 110.621 387.87 110.878C387.248 111.129 386.735 111.518 386.334 112.045C385.932 112.572 385.69 113.204 385.608 113.942L384.47 124.14L380.382 123.684ZM403.186 114.519C403.501 111.695 404.163 109.143 405.172 106.862C406.189 104.574 407.552 102.508 409.259 100.663L413.11 101.093C412.455 101.774 411.818 102.629 411.2 103.658C410.583 104.679 410.019 105.813 409.506 107.06C409.002 108.299 408.568 109.596 408.203 110.951C407.846 112.306 407.593 113.653 407.444 114.994C407.245 116.778 407.22 118.605 407.37 120.474C407.527 122.344 407.824 124.096 408.259 125.73C408.703 127.357 409.253 128.71 409.91 129.79L406.059 129.36C404.8 127.185 403.926 124.873 403.436 122.425C402.956 119.97 402.872 117.335 403.186 114.519ZM428.017 112.017C428.021 111.019 427.663 110.201 426.941 109.564C426.227 108.928 425.249 108.541 424.006 108.402C423.133 108.305 422.369 108.353 421.715 108.547C421.061 108.741 420.543 109.045 420.161 109.46C419.779 109.875 419.552 110.371 419.48 110.95C419.426 111.432 419.489 111.862 419.668 112.24C419.854 112.62 420.126 112.955 420.482 113.246C420.839 113.53 421.242 113.78 421.69 113.998C422.138 114.216 422.594 114.408 423.055 114.573L425.163 115.357C426.014 115.658 426.823 116.026 427.59 116.463C428.364 116.9 429.042 117.417 429.623 118.016C430.212 118.615 430.653 119.308 430.946 120.096C431.24 120.883 431.331 121.777 431.219 122.779C431.068 124.134 430.588 125.289 429.781 126.243C428.974 127.19 427.883 127.88 426.508 128.313C425.142 128.74 423.533 128.851 421.681 128.644C419.881 128.443 418.35 127.991 417.087 127.286C415.831 126.582 414.891 125.653 414.264 124.501C413.646 123.35 413.392 122.003 413.503 120.46L417.625 120.92C417.596 121.732 417.769 122.43 418.146 123.013C418.524 123.596 419.047 124.059 419.718 124.4C420.397 124.743 421.173 124.963 422.046 125.06C422.957 125.162 423.77 125.115 424.485 124.921C425.209 124.719 425.794 124.396 426.24 123.95C426.687 123.497 426.951 122.939 427.033 122.278C427.092 121.674 426.971 121.158 426.668 120.728C426.366 120.29 425.918 119.905 425.322 119.571C424.735 119.231 424.039 118.91 423.234 118.607L420.678 117.636C418.828 116.934 417.405 116.024 416.409 114.907C415.422 113.783 415.02 112.393 415.205 110.737C415.357 109.374 415.859 108.222 416.711 107.28C417.57 106.339 418.672 105.658 420.015 105.236C421.358 104.806 422.84 104.682 424.458 104.862C426.1 105.045 427.506 105.492 428.677 106.202C429.856 106.905 430.743 107.8 431.339 108.888C431.935 109.969 432.171 111.161 432.049 112.466L428.017 112.017ZM448.67 114.32C448.675 113.322 448.316 112.504 447.594 111.867C446.88 111.231 445.902 110.844 444.66 110.705C443.786 110.608 443.022 110.656 442.368 110.85C441.714 111.044 441.196 111.348 440.814 111.763C440.433 112.178 440.206 112.675 440.133 113.253C440.08 113.735 440.142 114.165 440.321 114.544C440.508 114.923 440.779 115.258 441.135 115.549C441.492 115.833 441.895 116.084 442.343 116.301C442.792 116.519 443.247 116.711 443.708 116.877L445.816 117.66C446.667 117.961 447.476 118.33 448.243 118.766C449.017 119.203 449.695 119.72 450.277 120.319C450.865 120.918 451.306 121.611 451.6 122.399C451.893 123.186 451.984 124.08 451.872 125.082C451.721 126.437 451.242 127.592 450.434 128.546C449.627 129.493 448.536 130.183 447.162 130.617C445.795 131.044 444.186 131.154 442.334 130.947C440.534 130.747 439.003 130.294 437.74 129.589C436.485 128.885 435.544 127.957 434.918 126.804C434.299 125.653 434.045 124.306 434.156 122.763L438.278 123.223C438.249 124.035 438.423 124.733 438.8 125.316C439.177 125.9 439.701 126.362 440.372 126.704C441.05 127.046 441.826 127.266 442.699 127.363C443.61 127.465 444.423 127.418 445.139 127.224C445.862 127.022 446.447 126.699 446.893 126.253C447.34 125.8 447.605 125.242 447.686 124.581C447.746 123.978 447.624 123.461 447.321 123.031C447.02 122.593 446.571 122.208 445.975 121.874C445.388 121.535 444.692 121.213 443.888 120.91L441.332 119.939C439.481 119.237 438.058 118.327 437.062 117.21C436.075 116.086 435.673 114.696 435.858 113.04C436.01 111.677 436.512 110.525 437.364 109.583C438.224 108.642 439.325 107.961 440.668 107.539C442.012 107.109 443.493 106.985 445.112 107.165C446.753 107.348 448.159 107.795 449.33 108.505C450.509 109.208 451.397 110.104 451.992 111.191C452.588 112.272 452.825 113.464 452.702 114.769L448.67 114.32ZM454.883 131.992L457.463 108.863L461.653 109.33L459.465 128.947L469.652 130.083L469.26 133.595L454.883 131.992ZM481.301 123.23C480.987 126.046 480.322 128.597 479.304 130.885C478.295 133.166 476.937 135.229 475.23 137.074L471.378 136.644C472.041 135.964 472.677 135.112 473.287 134.09C473.904 133.069 474.465 131.935 474.97 130.688C475.482 129.441 475.917 128.141 476.274 126.785C476.638 125.431 476.895 124.088 477.044 122.755C477.243 120.971 477.263 119.143 477.106 117.274C476.956 115.404 476.66 113.653 476.217 112.018C475.782 110.384 475.236 109.027 474.579 107.947L478.43 108.377C479.689 110.552 480.559 112.868 481.04 115.322C481.529 117.771 481.616 120.406 481.301 123.23Z" fill="white"/>
</svg>
