<svg width="466" height="312" viewBox="0 0 466 312" fill="none" xmlns="http://www.w3.org/2000/svg">
<ellipse cx="24.8466" cy="5.23514" rx="24.8466" ry="5.23514" transform="matrix(0.999326 0.0367016 0.0870662 0.996202 210.572 249.971)" fill="#002935"/>
<path d="M222.683 57.1663L213.501 62.8136L225.809 255.543L242.607 255.044L222.683 57.1663Z" fill="#7C0FD1"/>
<path d="M102.383 174.628L37.9445 182.501L36.2784 150.524L51.5545 139.793L31.25 140.851L19.8077 109.383L65.6808 106.993L81.7078 110.674L81.2385 101.667L221.702 91.1869L230.373 98.4123L234.486 90.5208L417.829 73.6536L428.626 98.4536L431.439 117.476L389.326 119.67L422.673 122.9L424.845 137.588L129.456 173.217L112.63 168.675L102.383 174.628Z" fill="#7C0FD1"/>
<path d="M114.461 150.19L111.707 127.081L126.737 125.29L127.155 128.799L116.312 130.092L117.059 136.365L127.124 135.166L127.542 138.675L117.477 139.875L118.229 146.182L129.163 144.879L129.581 148.389L114.461 150.19ZM133.581 147.912L131.516 130.58L135.42 130.115L135.771 133.06L135.974 133.036C136.217 132 136.723 131.154 137.491 130.497C138.259 129.834 139.222 129.433 140.381 129.295C141.554 129.155 142.577 129.323 143.451 129.799C144.33 130.266 144.994 130.969 145.441 131.908L145.622 131.886C145.891 130.878 146.446 130.033 147.288 129.353C148.137 128.664 149.19 128.245 150.446 128.096C152.041 127.905 153.402 128.254 154.53 129.142C155.658 130.03 156.338 131.441 156.568 133.374L157.954 145.008L153.858 145.496L152.547 134.494C152.419 133.418 152.04 132.666 151.409 132.238C150.777 131.802 150.047 131.633 149.22 131.732C148.234 131.849 147.5 132.25 147.017 132.933C146.54 133.608 146.36 134.434 146.477 135.412L147.765 146.222L143.759 146.699L142.428 135.528C142.321 134.633 141.965 133.951 141.36 133.481C140.762 133.011 140.031 132.827 139.166 132.93C138.579 133 138.063 133.214 137.617 133.572C137.171 133.923 136.837 134.386 136.616 134.962C136.393 135.53 136.325 136.172 136.41 136.886L137.666 147.425L133.581 147.912ZM167.127 144.269C166.029 144.4 165.017 144.323 164.09 144.036C163.17 143.742 162.408 143.237 161.804 142.523C161.207 141.809 160.842 140.883 160.706 139.747C160.59 138.77 160.674 137.939 160.959 137.257C161.244 136.574 161.675 136.004 162.254 135.546C162.833 135.088 163.502 134.715 164.261 134.426C165.026 134.129 165.825 133.885 166.657 133.694C167.66 133.468 168.472 133.276 169.094 133.117C169.715 132.952 170.158 132.762 170.423 132.547C170.694 132.324 170.806 132.017 170.759 131.626L170.751 131.558C170.65 130.708 170.319 130.08 169.76 129.674C169.2 129.267 168.446 129.121 167.499 129.234C166.498 129.353 165.73 129.665 165.196 130.172C164.668 130.677 164.339 131.239 164.206 131.857L160.328 131.77C160.503 130.681 160.895 129.742 161.503 128.952C162.11 128.155 162.892 127.52 163.851 127.048C164.808 126.567 165.892 126.255 167.104 126.111C167.939 126.011 168.781 126.01 169.632 126.107C170.483 126.204 171.278 126.437 172.016 126.807C172.753 127.169 173.375 127.709 173.88 128.427C174.393 129.145 174.717 130.079 174.855 131.229L176.237 142.829L172.31 143.297L172.026 140.916L171.891 140.932C171.7 141.443 171.404 141.936 171.003 142.411C170.608 142.878 170.088 143.28 169.441 143.616C168.801 143.944 168.03 144.162 167.127 144.269ZM167.83 141.142C168.65 141.044 169.342 140.797 169.905 140.402C170.468 140 170.878 139.508 171.137 138.928C171.404 138.347 171.499 137.737 171.423 137.097L171.179 135.055C171.064 135.175 170.857 135.299 170.56 135.426C170.269 135.552 169.94 135.672 169.572 135.784C169.204 135.897 168.839 136.001 168.477 136.098C168.114 136.194 167.8 136.278 167.534 136.348C166.934 136.503 166.405 136.703 165.946 136.949C165.487 137.194 165.138 137.503 164.9 137.874C164.662 138.239 164.573 138.684 164.636 139.21C164.726 139.963 165.068 140.498 165.663 140.816C166.258 141.134 166.98 141.243 167.83 141.142ZM180.344 142.34L178.279 125.008L182.364 124.521L184.429 141.853L180.344 142.34ZM180.039 122.303C179.392 122.38 178.81 122.232 178.293 121.859C177.774 121.478 177.479 120.983 177.406 120.374C177.333 119.757 177.504 119.207 177.919 118.722C178.333 118.23 178.864 117.946 179.511 117.869C180.165 117.791 180.748 117.943 181.259 118.324C181.776 118.697 182.072 119.192 182.145 119.809C182.218 120.419 182.047 120.969 181.633 121.461C181.225 121.945 180.694 122.225 180.039 122.303ZM189.96 117.757L192.714 140.866L188.629 141.353L185.876 118.243L189.96 117.757ZM204.977 139.405L202.223 116.295L211.07 115.241C212.74 115.042 214.159 115.14 215.327 115.535C216.503 115.921 217.419 116.533 218.075 117.37C218.739 118.207 219.14 119.197 219.276 120.34C219.388 121.281 219.303 122.107 219.022 122.819C218.74 123.524 218.319 124.12 217.759 124.607C217.199 125.093 216.553 125.471 215.823 125.741L215.849 125.967C216.675 125.914 217.491 126.073 218.298 126.442C219.111 126.803 219.808 127.368 220.388 128.138C220.968 128.908 221.328 129.88 221.468 131.054C221.611 132.25 221.449 133.36 220.984 134.385C220.517 135.401 219.734 136.254 218.633 136.942C217.533 137.63 216.099 138.079 214.331 138.29L204.977 139.405ZM208.746 135.408L213.248 134.871C214.768 134.69 215.828 134.27 216.428 133.611C217.036 132.944 217.284 132.151 217.175 131.233C217.094 130.549 216.851 129.952 216.447 129.443C216.042 128.927 215.509 128.548 214.847 128.307C214.184 128.058 213.42 127.985 212.555 128.088L207.939 128.638L208.746 135.408ZM207.58 125.625L211.722 125.131C212.444 125.045 213.079 124.836 213.627 124.504C214.174 124.164 214.583 123.73 214.856 123.201C215.136 122.665 215.235 122.058 215.154 121.381C215.048 120.485 214.644 119.786 213.943 119.282C213.249 118.777 212.286 118.598 211.052 118.745L206.821 119.249L207.58 125.625ZM235.858 128.332L234.661 118.289L238.746 117.803L240.811 135.135L236.851 135.607L236.484 132.526L236.303 132.548C236.027 133.565 235.479 134.435 234.657 135.158C233.843 135.881 232.785 136.32 231.484 136.475C230.348 136.61 229.314 136.478 228.381 136.078C227.455 135.67 226.69 135.009 226.085 134.097C225.48 133.177 225.094 132.026 224.929 130.641L223.614 119.606L227.699 119.119L228.939 129.523C229.07 130.621 229.475 131.458 230.153 132.033C230.832 132.608 231.661 132.838 232.639 132.721C233.241 132.649 233.806 132.433 234.335 132.073C234.864 131.712 235.275 131.221 235.567 130.598C235.866 129.968 235.963 129.212 235.858 128.332ZM257.191 120.251L253.516 121.101C253.365 120.738 253.139 120.406 252.836 120.106C252.541 119.806 252.163 119.58 251.703 119.429C251.242 119.278 250.696 119.24 250.064 119.315C249.214 119.416 248.521 119.686 247.986 120.123C247.458 120.56 247.233 121.072 247.311 121.657C247.363 122.162 247.596 122.55 248.01 122.821C248.431 123.092 249.094 123.276 249.998 123.374L253.03 123.654C254.712 123.812 255.998 124.227 256.886 124.899C257.783 125.571 258.309 126.527 258.464 127.767C258.587 128.859 258.382 129.86 257.849 130.77C257.323 131.672 256.532 132.422 255.474 133.021C254.416 133.62 253.165 134.006 251.721 134.178C249.599 134.431 247.839 134.19 246.439 133.457C245.039 132.716 244.119 131.563 243.681 129.998L247.618 129.139C247.892 129.9 248.346 130.445 248.98 130.774C249.615 131.103 250.402 131.211 251.342 131.099C252.313 130.983 253.068 130.691 253.607 130.223C254.154 129.753 254.392 129.225 254.322 128.638C254.263 128.142 254.022 127.755 253.6 127.477C253.185 127.198 252.569 127.02 251.751 126.942L248.721 126.673C247.017 126.526 245.718 126.089 244.823 125.364C243.927 124.632 243.407 123.633 243.264 122.368C243.129 121.301 243.309 120.341 243.802 119.489C244.302 118.628 245.053 117.921 246.055 117.367C247.064 116.804 248.261 116.44 249.645 116.275C251.676 116.033 253.326 116.275 254.595 117.001C255.872 117.727 256.737 118.81 257.191 120.251ZM262.451 132.556L260.386 115.224L264.47 114.738L266.536 132.069L262.451 132.556ZM262.146 112.52C261.499 112.597 260.917 112.449 260.399 112.075C259.881 111.695 259.586 111.2 259.513 110.59C259.439 109.974 259.61 109.423 260.026 108.939C260.44 108.447 260.971 108.162 261.618 108.085C262.272 108.007 262.855 108.159 263.366 108.541C263.883 108.914 264.179 109.409 264.252 110.026C264.325 110.635 264.154 111.186 263.739 111.677C263.332 112.161 262.801 112.442 262.146 112.52ZM273.611 120.927L274.821 131.082L270.736 131.569L268.671 114.237L272.575 113.772L272.926 116.717L273.129 116.693C273.412 115.675 273.956 114.828 274.76 114.152C275.572 113.476 276.625 113.06 277.919 112.906C279.115 112.764 280.188 112.895 281.136 113.301C282.092 113.706 282.873 114.364 283.477 115.276C284.089 116.188 284.474 117.336 284.632 118.721L285.946 129.756L281.862 130.243L280.622 119.84C280.484 118.681 280.075 117.81 279.395 117.228C278.723 116.644 277.86 116.415 276.807 116.54C276.093 116.626 275.476 116.859 274.957 117.242C274.444 117.615 274.065 118.115 273.819 118.739C273.581 119.363 273.511 120.092 273.611 120.927ZM297.812 128.686C296.075 128.893 294.531 128.711 293.181 128.139C291.838 127.559 290.748 126.644 289.913 125.393C289.076 124.135 288.55 122.599 288.334 120.786C288.121 119.003 288.273 117.398 288.79 115.971C289.313 114.535 290.143 113.368 291.28 112.47C292.415 111.564 293.81 111.013 295.465 110.815C296.534 110.688 297.562 110.741 298.551 110.974C299.547 111.199 300.452 111.625 301.267 112.253C302.089 112.879 302.777 113.721 303.33 114.776C303.882 115.824 304.249 117.108 304.43 118.628L304.579 119.88L290.373 121.573L290.045 118.82L300.336 117.593C300.235 116.812 299.983 116.136 299.579 115.566C299.175 114.989 298.654 114.559 298.018 114.276C297.389 113.993 296.683 113.897 295.901 113.991C295.066 114.09 294.357 114.381 293.773 114.862C293.189 115.336 292.759 115.921 292.483 116.618C292.214 117.306 292.122 118.038 292.207 118.814L292.493 121.217C292.614 122.225 292.901 123.068 293.356 123.747C293.809 124.417 294.39 124.905 295.098 125.21C295.805 125.507 296.602 125.603 297.49 125.497C298.084 125.426 298.612 125.279 299.074 125.057C299.534 124.826 299.922 124.524 300.236 124.151C300.55 123.778 300.768 123.336 300.891 122.826L304.756 122.8C304.635 123.837 304.281 124.772 303.694 125.605C303.113 126.429 302.324 127.111 301.328 127.649C300.331 128.18 299.159 128.525 297.812 128.686ZM321.114 112.634L317.438 113.484C317.288 113.121 317.062 112.789 316.759 112.489C316.464 112.189 316.086 111.963 315.626 111.812C315.165 111.661 314.619 111.623 313.987 111.698C313.137 111.8 312.444 112.069 311.909 112.507C311.381 112.943 311.156 113.455 311.233 114.04C311.286 114.545 311.519 114.933 311.933 115.205C312.354 115.475 313.017 115.659 313.921 115.757L316.953 116.037C318.635 116.195 319.92 116.61 320.809 117.282C321.706 117.954 322.231 118.91 322.387 120.15C322.509 121.242 322.304 122.243 321.772 123.153C321.246 124.055 320.454 124.805 319.397 125.404C318.339 126.003 317.088 126.389 315.644 126.561C313.522 126.814 311.762 126.574 310.362 125.84C308.961 125.099 308.042 123.946 307.604 122.381L311.541 121.523C311.815 122.283 312.269 122.828 312.903 123.157C313.538 123.486 314.325 123.594 315.265 123.482C316.236 123.366 316.99 123.074 317.53 122.606C318.076 122.136 318.315 121.608 318.245 121.021C318.186 120.525 317.945 120.138 317.523 119.86C317.108 119.581 316.492 119.403 315.674 119.325L312.644 119.057C310.94 118.909 309.64 118.472 308.745 117.747C307.849 117.015 307.33 116.016 307.187 114.752C307.052 113.684 307.231 112.724 307.725 111.872C308.225 111.012 308.976 110.304 309.978 109.75C310.987 109.187 312.183 108.823 313.567 108.658C315.599 108.416 317.249 108.658 318.518 109.385C319.794 110.11 320.66 111.193 321.114 112.634ZM338.553 110.556L334.878 111.406C334.727 111.043 334.501 110.711 334.198 110.411C333.903 110.111 333.525 109.885 333.065 109.734C332.604 109.583 332.058 109.545 331.426 109.62C330.576 109.721 329.883 109.991 329.348 110.429C328.82 110.865 328.595 111.377 328.672 111.962C328.725 112.467 328.958 112.855 329.372 113.127C329.793 113.397 330.456 113.581 331.36 113.679L334.392 113.959C336.074 114.117 337.36 114.532 338.248 115.204C339.145 115.876 339.671 116.832 339.826 118.072C339.948 119.164 339.743 120.165 339.211 121.075C338.685 121.977 337.894 122.727 336.836 123.326C335.778 123.925 334.527 124.311 333.083 124.483C330.961 124.736 329.201 124.496 327.801 123.762C326.401 123.021 325.481 121.868 325.043 120.303L328.98 119.445C329.254 120.205 329.708 120.75 330.342 121.079C330.977 121.408 331.764 121.516 332.704 121.404C333.675 121.288 334.43 120.996 334.969 120.528C335.516 120.058 335.754 119.53 335.684 118.943C335.625 118.447 335.384 118.06 334.962 117.782C334.547 117.503 333.931 117.325 333.113 117.247L330.083 116.979C328.379 116.831 327.08 116.394 326.185 115.669C325.289 114.937 324.769 113.938 324.626 112.674C324.491 111.606 324.67 110.646 325.164 109.794C325.664 108.933 326.415 108.226 327.417 107.672C328.426 107.109 329.622 106.745 331.007 106.58C333.038 106.338 334.688 106.58 335.957 107.307C337.233 108.032 338.099 109.115 338.553 110.556Z" fill="white"/>
</svg>
