<svg width="436" height="23" viewBox="0 0 436 23" fill="none" xmlns="http://www.w3.org/2000/svg">
<path d="M434.137 7.04575C344.737 5.60956 256.106 2.93163 166.542 2.33566C115.06 1.9931 -38.8986 0.9903 12.0615 2.92442C95.8235 6.10349 182.393 6.00134 266.729 8.13918C299.405 8.9675 331.819 10.0778 364.33 11.2512C376.841 11.7028 386.612 12.4659 366.592 12.1764C277.24 10.8845 188.351 8.01356 98.9973 6.62522C89.4621 6.47707 61.2111 6.40485 70.3958 7.08781C104.062 9.59118 140.18 10.5774 174.622 11.9661C216.096 13.6384 258.242 14.6828 299.37 16.8865C314.144 17.6781 333.931 17.9251 347.686 19.536C372.026 22.3865 294.385 20.6333 267.698 20.5032C223.285 20.2867 178.923 19.6194 134.547 19.1575" stroke="white" stroke-width="3" stroke-linecap="round"/>
</svg>
