<svg width="80" height="80" viewBox="0 0 80 80" fill="none" xmlns="http://www.w3.org/2000/svg">
<path fill-rule="evenodd" clip-rule="evenodd" d="M55.8333 50.9467V23.3701V13.3334C55.8333 10.9034 54.8667 8.57008 53.15 6.85008C51.43 5.13341 49.0967 4.16675 46.6667 4.16675C38.52 4.16675 24.8133 4.16675 16.6667 4.16675C14.2367 4.16675 11.9033 5.13341 10.1833 6.85008C8.46667 8.57008 7.5 10.9034 7.5 13.3334V66.6667C7.5 69.0967 8.46667 71.4301 10.1833 73.1501C11.9033 74.8667 14.2367 75.8334 16.6667 75.8334H46.6667C49.0967 75.8334 51.43 74.8667 53.15 73.1501C54.8667 71.4301 55.8333 69.0967 55.8333 66.6667V50.9467ZM25 67.5001H38.3333C39.7133 67.5001 40.8333 66.3801 40.8333 65.0001C40.8333 63.6201 39.7133 62.5001 38.3333 62.5001H25C23.62 62.5001 22.5 63.6201 22.5 65.0001C22.5 66.3801 23.62 67.5001 25 67.5001ZM45 9.16675H18.3333L20.41 14.3567C21.17 16.2567 23.0067 17.5001 25.0533 17.5001H38.28C40.3267 17.5001 42.1633 16.2567 42.9233 14.3567L45 9.16675Z" fill="#56A6FC"/>
<g style="mix-blend-mode:multiply">
<path d="M45.9472 46.3565L38.5515 40.0007L45.9472 33.6448C46.81 32.9002 46.9127 31.5952 46.1728 30.7258C45.4339 29.8563 44.139 29.7528 43.2768 30.4979L34.0528 38.4275C33.6012 38.8205 33.334 39.4 33.334 40.0007C33.334 40.6008 33.6012 41.1808 34.0528 41.5738L43.2768 49.5029C43.6673 49.8343 44.139 50 44.6118 50C45.1873 50 45.7628 49.7509 46.1728 49.2756C46.9127 48.4061 46.81 47.1012 45.9472 46.3565Z" fill="#F9A457"/>
</g>
<g style="mix-blend-mode:multiply">
<path d="M72.6139 38.4275L63.3902 30.4979C62.5275 29.7528 61.2331 29.8563 60.4936 30.7258C59.7547 31.5952 59.8575 32.9002 60.7203 33.6448L68.1151 40.0007L60.7203 46.3565C59.8575 47.1012 59.7547 48.4061 60.4936 49.2756C60.9047 49.7509 61.4803 50 62.0547 50C62.5275 50 63.0002 49.8343 63.3902 49.5029L72.6139 41.5738C73.0667 41.1808 73.3333 40.6008 73.3333 40.0007C73.3333 39.4 73.0667 38.8205 72.6139 38.4275Z" fill="#F9A457"/>
</g>
<g style="mix-blend-mode:multiply">
<path d="M54.9993 23.3784C53.8749 23.139 52.7708 23.88 52.541 25.0567L46.7091 54.0505C46.4798 55.2272 47.1879 56.3833 48.3134 56.6232C48.4587 56.6444 48.6046 56.6668 48.7505 56.6668C49.7087 56.6668 50.583 55.9688 50.7914 54.9443L56.6239 25.951C56.8531 24.7956 56.1242 23.6395 54.9993 23.3784Z" fill="#F9A457"/>
</g>
</svg>
