<svg width="80" height="80" viewBox="0 0 80 80" fill="none" xmlns="http://www.w3.org/2000/svg">
<path d="M67.958 28.917C66.9073 22.1925 61.0777 17.0312 54.0625 17.0312C51.4234 17.0312 48.8875 17.7614 46.688 19.1233C43.3417 13.4995 37.3175 10 30.625 10C20.2864 10 11.875 18.4114 11.875 28.75C11.875 28.8141 11.875 28.8805 11.8773 28.9445C5.23281 30.0637 0 35.8567 0 42.8125C0 50.567 6.46422 56.875 14.2188 56.875H65.7812C73.5358 56.875 80 50.567 80 42.8125C80 35.7973 74.6825 29.9677 67.958 28.917Z" fill="#3ED1FF"/>
<g style="mix-blend-mode:multiply">
<path d="M40 30.1042C28.9749 30.1042 20 39.0791 20 50.1042C20 61.1294 28.9749 70.1042 40 70.1042C51.0251 70.1042 60 61.1294 60 50.1042C60 39.0791 51.0251 30.1042 40 30.1042ZM40 32.9686C44.4422 32.9686 48.5025 34.6671 51.5477 37.461C51.0352 37.3605 50.5226 37.3806 50.0201 37.5515C48.6332 38.0339 47.4472 40.0439 48.3216 41.7324C48.7236 42.5063 49.5276 43.6118 50.402 44.7676C50.9648 45.5213 52.191 48.255 51.1357 52.2751C50.392 55.1193 48.8342 60.0138 48.8342 60.0138L42.6131 41.9133H44.5729C44.9749 41.9133 45.2965 41.5917 45.2965 41.1897C45.2965 40.7877 44.9749 40.4661 44.5729 40.4661H35.0653C34.6633 40.4661 34.3417 40.7877 34.3417 41.1897C34.3417 41.5917 34.6633 41.9133 35.0653 41.9133H36.7035L39.5477 49.3203L35.8593 60.3254L29.6683 41.9133H31.6281C32.0302 41.9133 32.3518 41.5917 32.3518 41.1897C32.3518 40.7877 32.0302 40.4661 31.6281 40.4661H25.8392C28.9347 35.9434 34.1307 32.9686 40 32.9686ZM22.8643 50.1042C22.8643 47.662 23.3769 45.3404 24.3015 43.2399L32.5528 65.5314C26.8241 62.7575 22.8643 56.8882 22.8643 50.1042ZM35.0251 66.4962L40.3719 51.6922L45.7286 66.255C43.9397 66.8882 42.0101 67.2399 40.0101 67.2399C38.2714 67.2399 36.603 66.9786 35.0251 66.4962ZM49.0553 64.647C50.1307 61.4811 53.8492 50.4359 54.5528 48.245C55.2161 46.1847 55.7487 44.9786 55.7085 43.2701C56.6231 45.3706 57.1357 47.6821 57.1357 50.1042C57.1357 56.2249 53.8995 61.6118 49.0553 64.647Z" fill="#A943F9"/>
</g>
</svg>
