<svg width="80" height="80" viewBox="0 0 80 80" fill="none" xmlns="http://www.w3.org/2000/svg">
<g clip-path="url(#clip0_3193_6083)">
<path d="M70.4348 19.1304H62.087L57.4783 12.1739C55.7391 9.56522 52.6956 8 49.5652 8H30.4348C27.3043 8 24.2609 9.56522 22.5217 12.1739L17.913 19.1304H9.56522C4.26087 19.1304 0 23.3913 0 28.6957V62.4348C0 67.7391 4.26087 72 9.56522 72H70.4348C75.7391 72 80 67.7391 80 62.4348V28.6957C80 23.3913 75.7391 19.1304 70.4348 19.1304ZM40 64.1739C28.087 64.1739 18.4348 54.5217 18.4348 42.6087C18.4348 30.6956 28.087 21.1304 40 21.1304C51.913 21.1304 61.5652 30.7826 61.5652 42.6956C61.5652 54.5217 51.913 64.1739 40 64.1739ZM69.2174 32.6087C69.1304 32.6087 69.0435 32.6087 68.8696 32.6087H65.3913C63.8261 32.5217 62.6087 31.2174 62.6956 29.6522C62.7826 28.1739 63.913 27.0435 65.3913 26.9565H68.8696C70.4348 26.8696 71.7391 28.087 71.8261 29.6522C71.913 31.2174 70.7826 32.5217 69.2174 32.6087Z" fill="#F9A457"/>
<g style="mix-blend-mode:multiply">
<path d="M26.666 43.3959C26.666 50.7825 32.7037 56.6667 39.9993 56.6667C42.7666 56.6667 45.2824 55.9155 47.2949 54.4131C47.4207 54.4131 47.4207 54.2879 47.5465 54.2879C51.0685 51.9092 53.3327 47.903 53.3327 43.2707C53.3327 35.8842 47.2949 30 39.9993 30C32.7037 30 26.666 36.0094 26.666 43.3959Z" fill="#A943F9"/>
</g>
<g style="mix-blend-mode:multiply">
<path d="M63.3327 77.9947C63.3327 68.3854 57.1828 59.8307 47.8977 56.6666C43.0743 59.4791 37.045 59.5963 32.101 56.6666C22.8159 59.9479 16.666 68.3854 16.666 77.9947C16.666 83.6197 28.7246 86.6666 40.0596 86.6666C51.3947 86.6666 63.3327 83.6197 63.3327 77.9947Z" fill="#A943F9"/>
</g>
</g>
<defs>
<clipPath id="clip0_3193_6083">
<rect width="80" height="80" fill="white"/>
</clipPath>
</defs>
</svg>
