<svg width="80" height="80" viewBox="0 0 80 80" fill="none" xmlns="http://www.w3.org/2000/svg">
<g clip-path="url(#clip0_3193_6107)">
<path d="M15.0007 21.6666H55.0006M6.66732 31.6666H50.0006M3.33398 41.6666H35.0007C38.6826 41.6666 41.6673 44.6514 41.6673 48.3333V48.3333C41.6673 52.0152 38.6825 55 35.0006 55H21.6673C17.9854 55 15.0007 57.9847 15.0007 61.6666V61.6666C15.0007 65.3485 17.9854 68.3333 21.6673 68.3333H31.6673M51.6673 68.3333H75.0006" stroke="#A943F9" stroke-width="3" stroke-linecap="round" stroke-linejoin="round"/>
<g style="mix-blend-mode:multiply">
<path d="M50.8577 55.957L35.5491 46.8159L57.6671 9.79442L72.9758 18.9355L50.8577 55.957ZM34.9491 49.2573L48.9921 57.6427L33.9249 67.2657C33.786 67.3544 33.6055 67.2466 33.6178 67.0823L34.9491 49.2573ZM75.7925 14.2438L74.2064 16.8987L58.8774 7.74553L60.4636 5.09061C62.061 2.41494 65.5252 1.54151 68.2003 3.13995L73.8423 6.50889C76.5033 8.11707 77.3731 11.5669 75.7925 14.2438Z" fill="#F9A457"/>
</g>
</g>
<defs>
<clipPath id="clip0_3193_6107">
<rect width="80" height="80" fill="white"/>
</clipPath>
</defs>
</svg>
