<svg width="80" height="80" viewBox="0 0 80 80" fill="none" xmlns="http://www.w3.org/2000/svg">
<path d="M67.958 35.4795C66.9073 28.755 61.0777 23.5938 54.0625 23.5938C51.4234 23.5938 48.8875 24.3239 46.688 25.6858C43.3417 20.062 37.3175 16.5625 30.625 16.5625C20.2864 16.5625 11.875 24.9739 11.875 35.3125C11.875 35.3766 11.875 35.443 11.8773 35.507C5.23281 36.6262 0 42.4192 0 49.375C0 57.1295 6.46422 63.4375 14.2188 63.4375H65.7812C73.5358 63.4375 80 57.1295 80 49.375C80 42.3598 74.6825 36.5302 67.958 35.4795Z" fill="#3ED1FF"/>
<g style="mix-blend-mode:multiply">
<path fill-rule="evenodd" clip-rule="evenodd" d="M53.3327 10C44.128 10 36.666 17.4619 36.666 26.6667C36.666 35.8714 44.128 43.3333 53.3327 43.3333C62.5374 43.3333 69.9993 35.8714 69.9993 26.6667C69.9993 17.4619 62.5374 10 53.3327 10ZM60.8524 20.5358C61.9371 21.6206 61.9371 23.3794 60.8524 24.4642L52.5191 32.7975C51.9307 33.3861 51.1094 33.6797 50.2813 33.5975C49.453 33.5156 48.7052 33.0667 48.2435 32.3742L45.4657 28.2075C44.6149 26.9311 44.9599 25.2064 46.2363 24.3553C47.5127 23.5044 49.2374 23.8494 50.0885 25.1258L50.9866 26.4733L56.9241 20.5358C58.0088 19.451 59.7677 19.451 60.8524 20.5358Z" fill="#A943F9"/>
</g>
</svg>
