<svg width="80" height="80" viewBox="0 0 80 80" fill="none" xmlns="http://www.w3.org/2000/svg">
<g clip-path="url(#clip0_3188_5313)">
<path fill-rule="evenodd" clip-rule="evenodd" d="M54.5634 70.8568L36.7093 64.9054C36.4107 64.8059 36.1764 64.5716 36.0769 64.273L23.334 26.0444L45.3403 48.0507C44.9375 49.0776 44.9005 50.2118 45.2355 51.2627C45.5706 52.3136 46.2573 53.2171 47.1802 53.8213C48.103 54.4255 49.2058 54.6934 50.303 54.5802C51.4002 54.4669 52.4249 53.9793 53.2049 53.1993C53.9849 52.4193 54.4725 51.3946 54.5858 50.2974C54.6991 49.2002 54.4311 48.0974 53.8269 47.1745C53.2228 46.2517 52.3193 45.565 51.2683 45.2299C50.2174 44.8948 49.0832 44.9319 48.0563 45.3347L26.05 23.3284L64.2786 36.0712C64.5772 36.1708 64.8115 36.4051 64.911 36.7037L70.8624 54.5578L74.2502 51.17L78.3242 55.244L55.2382 78.3299L51.1642 74.2559L54.5634 70.8568Z" fill="#56A6FC"/>
<g style="mix-blend-mode:multiply">
<path d="M1.41421 24.9843C0.633164 24.2032 0.633165 22.9369 1.41421 22.1559L22.156 1.41406C22.9371 0.633007 24.2034 0.633009 24.9844 1.41406L45.7262 22.1559C46.5073 22.9369 46.5073 24.2032 45.7262 24.9843L24.9844 45.7261C24.2034 46.5071 22.9371 46.5071 22.156 45.7261L1.41421 24.9843Z" fill="#FF4BAD"/>
</g>
</g>
<defs>
<clipPath id="clip0_3188_5313">
<rect width="80" height="80" fill="white"/>
</clipPath>
</defs>
</svg>
