<svg width="100" height="100" viewBox="0 0 100 100" fill="none" xmlns="http://www.w3.org/2000/svg">
<g clip-path="url(#clip0_3456_4449)">
<path d="M84.9455 36.147C83.6322 27.7414 76.3451 21.2898 67.5762 21.2898C64.2773 21.2898 61.1074 22.2025 58.358 23.9048C54.1752 16.8751 46.6449 12.5007 38.2793 12.5007C25.3561 12.5007 14.8418 23.015 14.8418 35.9382C14.8418 36.0183 14.8418 36.1013 14.8447 36.1814C6.53906 37.5804 -0.00195312 44.8216 -0.00195312 53.5164C-0.00195312 63.2095 8.07832 71.0945 17.7715 71.0945H82.2246C91.9178 71.0945 99.998 63.2095 99.998 53.5164C99.998 44.7474 93.3512 37.4603 84.9455 36.147Z" fill="#3ED1FF"/>
<g style="mix-blend-mode:multiply">
<path d="M30.1463 41.668C30.1447 41.668 30.1428 41.668 30.1412 41.668C29.5651 41.668 29.0233 41.8925 28.6141 42.3006C28.2005 42.7133 27.9727 43.2627 27.9727 43.8476V76.5301C27.9727 77.7286 28.9515 78.706 30.1549 78.709C35.2282 78.7211 43.7279 79.7785 49.5915 85.9147V51.7115C49.5915 51.3053 49.4878 50.9236 49.2919 50.6078C44.4793 42.8574 35.231 41.6799 30.1463 41.668Z" fill="#A943F9"/>
<path d="M74.5913 76.5303V43.8476C74.5913 43.2627 74.3635 42.7133 73.9498 42.3006C73.5407 41.8925 72.9985 41.668 72.423 41.668C72.4212 41.668 72.4193 41.668 72.4177 41.668C67.3331 41.6801 58.0849 42.8576 53.2721 50.608C53.0762 50.9238 52.9727 51.3055 52.9727 51.7117V85.9147C58.8363 79.7785 67.336 78.7211 72.4093 78.709C73.6125 78.706 74.5913 77.7286 74.5913 76.5303Z" fill="#A943F9"/>
<path d="M79.554 49.2058H77.9736V76.5308C77.9736 79.5908 75.4805 82.086 72.4158 82.0936C68.1126 82.1039 61.0173 82.9453 55.9922 87.7013C64.6831 85.5734 73.8448 86.9567 79.0661 88.1465C79.7181 88.295 80.3917 88.1416 80.9141 87.7253C81.4346 87.31 81.7332 86.6892 81.7332 86.0229V51.385C81.7334 50.1834 80.7556 49.2058 79.554 49.2058Z" fill="#A943F9"/>
<path d="M24.5876 76.5308V49.2058H23.0073C21.8059 49.2058 20.8281 50.1834 20.8281 51.385V86.0223C20.8281 86.6888 21.1267 87.3094 21.6472 87.7247C22.1691 88.1408 22.8422 88.2948 23.4952 88.1459C28.7165 86.9558 37.8784 85.5728 46.5689 87.7007C41.544 82.9449 34.4487 82.1037 30.1455 82.0934C27.081 82.086 24.5876 79.5908 24.5876 76.5308Z" fill="#A943F9"/>
</g>
</g>
<defs>
<clipPath id="clip0_3456_4449">
<rect width="100" height="100" fill="white"/>
</clipPath>
</defs>
</svg>
