<svg width="40" height="40" viewBox="0 0 40 40" fill="none" xmlns="http://www.w3.org/2000/svg">
<g clip-path="url(#clip0_2897_12713)">
<g style="mix-blend-mode:multiply">
<path d="M6.56152 10.5701C6.56152 15.0199 10.1817 18.5646 14.5561 18.5646C16.2153 18.5646 17.7238 18.1121 18.9305 17.2071C19.0059 17.2071 19.0059 17.1316 19.0813 17.1316C21.1931 15.6986 22.5507 13.2852 22.5507 10.4946C22.5507 6.04482 18.9305 2.50006 14.5561 2.50006C10.1817 2.50006 6.56152 6.12024 6.56152 10.5701Z" fill="#56A6FC"/>
</g>
<g style="mix-blend-mode:multiply">
<path d="M25.4814 18.3765C25.4814 21.249 27.8294 23.5373 30.6666 23.5373C31.7428 23.5373 32.7211 23.2452 33.5038 22.6609C33.5527 22.6609 33.5527 22.6123 33.6016 22.6123C34.9713 21.6872 35.8518 20.1292 35.8518 18.3278C35.8518 15.4553 33.5038 13.167 30.6666 13.167C27.8294 13.167 25.4814 15.504 25.4814 18.3765Z" fill="#F5851E"/>
</g>
<g style="mix-blend-mode:multiply">
<path d="M29.1877 32.4416C29.1877 26.2571 25.3413 20.7514 19.5339 18.7151C16.5171 20.5252 12.7461 20.6006 9.65382 18.7151C3.84644 20.8269 0 26.2571 0 32.4416C0 36.0618 7.54205 38.0227 14.6316 38.0227C21.7211 38.0227 29.1877 36.0618 29.1877 32.4416Z" fill="#56A6FC"/>
</g>
<g style="mix-blend-mode:multiply">
<path d="M40.0001 32.384C40.0001 28.3979 37.5401 24.8494 33.8261 23.5369C31.8967 24.7035 29.485 24.7521 27.5075 23.5369C23.7934 24.898 21.3335 28.3979 21.3335 32.384C21.3335 34.7174 26.1569 35.9812 30.6909 35.9812C35.2249 35.9812 40.0001 34.7174 40.0001 32.384Z" fill="#F5851E"/>
</g>
</g>
<defs>
<clipPath id="clip0_2897_12713">
<rect width="40" height="40" fill="white"/>
</clipPath>
</defs>
</svg>
