<svg width="80" height="80" viewBox="0 0 80 80" fill="none" xmlns="http://www.w3.org/2000/svg">
<path d="M59.9368 34.8363L17.2173 30.9967C15.9877 30.7307 14.711 30.7163 13.4884 30.9546C12.2658 31.1929 11.1308 31.6773 10.1733 32.3696C9.2157 33.0619 8.46188 33.9431 7.97147 34.9432C7.48106 35.9434 7.26754 37.0352 7.34779 38.1322L5.20194 62.0069C4.92736 63.072 4.94278 64.1843 5.24698 65.2559C5.55118 66.3275 6.1358 67.329 6.95456 68.1809C7.77332 69.0329 8.80375 69.712 9.96426 70.1645C11.1248 70.617 12.3835 70.8304 13.6408 70.788L56.3604 74.6276C57.59 74.8936 58.8666 74.908 60.0892 74.6697C61.3118 74.4314 62.4468 73.9469 63.4044 73.2546C64.3619 72.5623 65.1158 71.6812 65.6062 70.681C66.0966 69.6808 66.3101 68.589 66.2299 67.4921L68.3757 43.6173C68.6503 42.5522 68.6349 41.4399 68.3307 40.3683C68.0265 39.2967 67.4418 38.2953 66.6231 37.4433C65.8043 36.5914 64.7739 35.9123 63.6134 35.4598C62.4529 35.0073 61.1941 34.7938 59.9368 34.8363ZM25.6745 39.7793C26.972 39.896 28.2104 40.3445 29.2329 41.0681C30.2554 41.7918 31.0163 42.7581 31.4191 43.8449C31.822 44.9317 31.8489 46.0902 31.4963 47.1738C31.1437 48.2574 30.4275 49.2175 29.4383 49.9326C28.4492 50.6478 27.2314 51.0859 25.939 51.1916C24.6466 51.2973 23.3376 51.0658 22.1777 50.5264C21.0177 49.987 20.0588 49.1638 19.4222 48.1611C18.7856 47.1584 18.5 46.0211 18.6014 44.8931C18.7389 43.381 19.5609 41.9933 20.887 41.0346C22.2131 40.0759 23.9349 39.6244 25.6745 39.7793ZM34.3094 63.286C34.2778 63.6378 34.0867 63.9607 33.7782 64.1837C33.4698 64.4067 33.0691 64.5116 32.6645 64.4752L14.3561 62.8297C13.9515 62.7933 13.576 62.6187 13.3122 62.3442C13.0484 62.0698 12.918 61.718 12.9496 61.3662L13.0212 60.5704C13.1014 59.5913 13.4125 58.6421 13.9353 57.782C14.458 56.9219 15.1811 56.1692 16.0596 55.5709C16.9381 54.9725 17.9531 54.5412 19.0415 54.304C20.1299 54.0667 21.2683 54.0285 22.3858 54.1918L26.3038 54.5439C27.4326 54.5826 28.5459 54.8232 29.5745 55.2507C30.6031 55.6782 31.525 56.2836 32.2827 57.029C33.0404 57.7744 33.6177 58.644 33.9787 59.5835C34.3397 60.5231 34.4766 61.5125 34.3809 62.4902L34.3094 63.286ZM57.3403 62.0133L45.1348 60.9162C44.5278 60.8617 43.9645 60.5998 43.5689 60.1881C43.1732 59.7764 42.9776 59.2487 43.025 58.721C43.0725 58.1933 43.3591 57.7089 43.8218 57.3744C44.2845 57.0399 44.8854 56.8826 45.4924 56.9371L57.698 58.0341C58.3049 58.0887 58.8682 58.3506 59.2639 58.7623C59.6595 59.174 59.8551 59.7017 59.8077 60.2294C59.7603 60.7571 59.4737 61.2415 59.011 61.576C58.5482 61.9105 57.9473 62.0678 57.3403 62.0133ZM58.4614 51.2515L43.2044 49.8802C42.5975 49.8257 42.0342 49.5637 41.6386 49.152C41.2429 48.7404 41.0473 48.2126 41.0947 47.685C41.1421 47.1573 41.4287 46.6729 41.8914 46.3384C42.3542 46.0038 42.9551 45.8465 43.5621 45.9011L58.819 47.2724C59.426 47.3269 59.9893 47.5889 60.3849 48.0006C60.7806 48.4123 60.9762 48.94 60.9288 49.4676C60.8813 49.9953 60.5948 50.4797 60.132 50.8142C59.6693 51.1488 59.0684 51.3061 58.4614 51.2515Z" fill="#A943F9"/>
<path d="M25.6745 39.7793C26.972 39.896 28.2104 40.3445 29.2329 41.0681C30.2554 41.7918 31.0163 42.7581 31.4191 43.8449C31.822 44.9317 31.8489 46.0902 31.4963 47.1738C31.1437 48.2574 30.4275 49.2175 29.4383 49.9326C28.4492 50.6478 27.2314 51.0859 25.939 51.1916C24.6466 51.2973 23.3376 51.0658 22.1777 50.5264C21.0177 49.987 20.0588 49.1638 19.4222 48.1611C18.7856 47.1584 18.5 46.0211 18.6014 44.8931C18.7389 43.381 19.5609 41.9933 20.887 41.0346C22.2131 40.0759 23.9349 39.6244 25.6745 39.7793Z" fill="#A943F9"/>
<path d="M34.3094 63.286C34.2778 63.6378 34.0867 63.9607 33.7782 64.1837C33.4698 64.4067 33.0691 64.5116 32.6645 64.4752L14.3561 62.8297C13.9515 62.7933 13.576 62.6187 13.3122 62.3442C13.0484 62.0698 12.918 61.718 12.9496 61.3662L13.0212 60.5704C13.1014 59.5913 13.4125 58.6421 13.9353 57.782C14.458 56.9219 15.1811 56.1692 16.0596 55.5709C16.9381 54.9725 17.9531 54.5412 19.0415 54.304C20.1299 54.0667 21.2683 54.0285 22.3858 54.1918L26.3038 54.5439C27.4326 54.5826 28.5459 54.8232 29.5745 55.2507C30.6031 55.6782 31.525 56.2836 32.2827 57.029C33.0404 57.7744 33.6177 58.644 33.9787 59.5835C34.3397 60.5231 34.4766 61.5125 34.3809 62.4902L34.3094 63.286Z" fill="#A943F9"/>
<path d="M58.4614 51.2515L43.2044 49.8802C42.5975 49.8257 42.0342 49.5637 41.6386 49.152C41.2429 48.7404 41.0473 48.2126 41.0947 47.685C41.1421 47.1573 41.4287 46.6729 41.8914 46.3384C42.3542 46.0038 42.9551 45.8465 43.5621 45.9011L58.819 47.2724C59.426 47.3269 59.9893 47.5889 60.3849 48.0006C60.7806 48.4123 60.9762 48.94 60.9288 49.4676C60.8813 49.9953 60.5948 50.4797 60.132 50.8142C59.6693 51.1488 59.0684 51.3061 58.4614 51.2515Z" fill="#A943F9"/>
<path d="M57.3403 62.0133L45.1348 60.9162C44.5278 60.8617 43.9645 60.5998 43.5689 60.1881C43.1732 59.7764 42.9776 59.2487 43.025 58.721C43.0725 58.1933 43.3591 57.7089 43.8218 57.3744C44.2845 57.0399 44.8854 56.8826 45.4924 56.9371L57.698 58.0341C58.3049 58.0887 58.8682 58.3506 59.2639 58.7623C59.6595 59.174 59.8551 59.7017 59.8077 60.2294C59.7603 60.7571 59.4737 61.2415 59.011 61.576C58.5482 61.9105 57.9473 62.0678 57.3403 62.0133Z" fill="#A943F9"/>
<g style="mix-blend-mode:multiply">
<path d="M62.4652 4.10442L15.9055 7.2622C14.5371 7.16076 13.164 7.37923 11.8947 7.90033C10.6254 8.42142 9.49478 9.23083 8.59243 10.2645C7.69008 11.2981 7.04073 12.5277 6.6958 13.8557C6.35086 15.1837 6.3198 16.5738 6.60508 17.916L8.63508 47.8472C8.53363 49.2155 8.75211 50.5887 9.2732 51.858C9.7943 53.1273 10.6037 54.2579 11.6374 55.1603C12.671 56.0626 13.9005 56.7119 15.2286 57.0569C16.5566 57.4018 17.9467 57.4329 19.2888 57.1476L65.8485 53.9898C67.2169 54.0913 68.5901 53.8728 69.8594 53.3517C71.1287 52.8306 72.2592 52.0212 73.1616 50.9875C74.0639 49.9539 74.7133 48.7244 75.0582 47.3963C75.4032 46.0683 75.4342 44.6782 75.1489 43.3361L73.1189 13.4048C73.2204 12.0365 73.0019 10.6633 72.4808 9.394C71.9597 8.1247 71.1503 6.99412 70.1167 6.09177C69.083 5.18942 67.8535 4.54008 66.5255 4.19514C65.1974 3.8502 63.8073 3.81914 62.4652 4.10442ZM26.5792 16.5613C27.9934 16.4654 29.4042 16.7909 30.6334 17.4969C31.8625 18.2028 32.8547 19.2574 33.4845 20.5272C34.1143 21.797 34.3534 23.2251 34.1716 24.6308C33.9898 26.0365 33.3952 27.3568 32.463 28.4246C31.5309 29.4924 30.303 30.2598 28.9347 30.6297C27.5664 30.9997 26.1191 30.9556 24.7759 30.503C23.4326 30.0505 22.2538 29.2097 21.3883 28.0872C20.5229 26.9646 20.0098 25.6106 19.9139 24.1964C19.7871 22.3005 20.4177 20.4317 21.6673 19.0002C22.9169 17.5688 24.6835 16.6916 26.5792 16.5613ZM40.1164 44.0416C40.1463 44.4826 39.9998 44.9174 39.7091 45.2504C39.4184 45.5834 39.0073 45.7873 38.5663 45.8172L18.6122 47.1705C18.1711 47.2004 17.7363 47.0539 17.4033 46.7632C17.0703 46.4725 16.8664 46.0615 16.8365 45.6205L16.7689 44.6227C16.6773 43.3968 16.839 42.165 17.2441 41.0043C17.6492 39.8435 18.2889 38.7785 19.1234 37.8757C19.9579 36.9729 20.9693 36.2516 22.0947 35.7566C23.2201 35.2616 24.4353 35.0037 25.6647 34.9987L29.9349 34.7091C31.1537 34.548 32.3926 34.6395 33.5745 34.978C34.7564 35.3165 35.856 35.8947 36.8048 36.6765C37.7535 37.4584 38.5312 38.4272 39.0893 39.5227C39.6474 40.6181 39.974 41.8167 40.0487 43.0439L40.1164 44.0416ZM64.6109 38.2041L51.3081 39.1063C50.6466 39.1511 49.9943 38.9314 49.4948 38.4953C48.9953 38.0593 48.6895 37.4427 48.6446 36.7812C48.5998 36.1197 48.8195 35.4674 49.2556 34.9679C49.6916 34.4684 50.3082 34.1626 50.9698 34.1177L64.2725 33.2155C64.9341 33.1706 65.5863 33.3904 66.0858 33.8264C66.5853 34.2625 66.8911 34.8791 66.936 35.5406C66.9808 36.2021 66.7611 36.8544 66.325 37.3539C65.889 37.8534 65.2724 38.1592 64.6109 38.2041ZM63.8609 24.6838L47.2325 25.8116C46.5709 25.8565 45.9187 25.6367 45.4192 25.2007C44.9197 24.7646 44.6139 24.148 44.569 23.4865C44.5242 22.825 44.7439 22.1727 45.18 21.6732C45.616 21.1737 46.2326 20.8679 46.8941 20.823L63.5226 19.6953C64.1841 19.6504 64.8364 19.8702 65.3359 20.3062C65.8354 20.7422 66.1412 21.3588 66.186 22.0204C66.2309 22.6819 66.0111 23.3341 65.5751 23.8336C65.1391 24.3331 64.5225 24.6389 63.8609 24.6838Z" fill="#F9A457"/>
</g>
</svg>
