<svg width="80" height="80" viewBox="0 0 80 80" fill="none" xmlns="http://www.w3.org/2000/svg">
<g style="mix-blend-mode:multiply">
<path d="M67.7804 74.0742L9.63626 74.0741C6.15703 74.0741 3.34049 71.0942 3.34049 67.4131L3.34049 47.0051C3.34049 45.9005 4.23593 45.0051 5.3405 45.0051L67.7804 45.0054C71.2596 45.0054 74.0762 47.9854 74.0762 51.6665L74.0762 67.4132C74.0762 71.0942 71.2596 74.0742 67.7804 74.0742Z" fill="#00ACEA"/>
</g>
<g style="mix-blend-mode:multiply">
<path d="M64.919 21.2074C64.6955 20.9184 64.4087 20.6845 64.0807 20.5236C63.7527 20.3627 63.3922 20.2791 63.0268 20.2793H50.5628L43.2096 7.84025C42.9989 7.48486 42.6998 7.19003 42.3414 6.98441C41.983 6.7788 41.5775 6.66939 41.1643 6.66681H41.1503C40.7395 6.66677 40.3357 6.77256 39.9777 6.97399C39.6197 7.17542 39.3197 7.46569 39.1065 7.81681L31.5409 20.2793H19.0581C18.7034 20.2791 18.3532 20.3578 18.0328 20.5097C17.7123 20.6615 17.4297 20.8828 17.2053 21.1574C16.981 21.432 16.8205 21.7531 16.7356 22.0974C16.6507 22.4417 16.6434 22.8006 16.7143 23.1481L22.2237 50.1559C22.3339 50.696 22.6275 51.1814 23.0546 51.53C23.4817 51.8785 24.0162 52.0687 24.5674 52.0684H56.0049C56.5344 52.0678 57.0487 51.8918 57.4674 51.5678C57.8861 51.2438 58.1856 50.7901 58.319 50.2778L65.3409 23.2715C65.4324 22.918 65.442 22.5483 65.3689 22.1906C65.2958 21.8329 65.1419 21.4966 64.919 21.2074ZM41.1237 13.7074L45.0065 20.2699H37.1362L41.1237 13.7074ZM38.7237 41.6965C38.7319 42.0157 38.676 42.3333 38.5595 42.6306C38.443 42.9278 38.2682 43.1988 38.0453 43.4274C37.8224 43.6561 37.556 43.8378 37.2618 43.9618C36.9676 44.0859 36.6516 44.1498 36.3323 44.1498C36.013 44.1498 35.6969 44.0859 35.4027 43.9618C35.1085 43.8378 34.8421 43.6561 34.6193 43.4274C34.3964 43.1988 34.2216 42.9278 34.1051 42.6306C33.9885 42.3333 33.9327 42.0157 33.9409 41.6965V30.4137C33.9327 30.0945 33.9885 29.7769 34.1051 29.4796C34.2216 29.1824 34.3964 28.9114 34.6193 28.6828C34.8421 28.4541 35.1085 28.2724 35.4027 28.1484C35.6969 28.0243 36.013 27.9604 36.3323 27.9604C36.6516 27.9604 36.9676 28.0243 37.2618 28.1484C37.556 28.2724 37.8224 28.4541 38.0453 28.6828C38.2682 28.9114 38.443 29.1824 38.5595 29.4796C38.676 29.7769 38.7319 30.0945 38.7237 30.4137V41.6965ZM48.144 41.6965C48.1522 42.0157 48.0963 42.3333 47.9798 42.6306C47.8633 42.9278 47.6885 43.1988 47.4656 43.4274C47.2427 43.6561 46.9764 43.8378 46.6822 43.9618C46.388 44.0859 46.0719 44.1498 45.7526 44.1498C45.4333 44.1498 45.1172 44.0859 44.823 43.9618C44.5288 43.8378 44.2625 43.6561 44.0396 43.4274C43.8167 43.1988 43.6419 42.9278 43.5254 42.6306C43.4089 42.3333 43.353 42.0157 43.3612 41.6965V30.4137C43.353 30.0945 43.4089 29.7769 43.5254 29.4796C43.6419 29.1824 43.8167 28.9114 44.0396 28.6828C44.2625 28.4541 44.5288 28.2724 44.823 28.1484C45.1172 28.0243 45.4333 27.9604 45.7526 27.9604C46.0719 27.9604 46.388 28.0243 46.6822 28.1484C46.9764 28.2724 47.2427 28.4541 47.4656 28.6828C47.6885 28.9114 47.8633 29.1824 47.9798 29.4796C48.0963 29.7769 48.1522 30.0945 48.144 30.4137V41.6965Z" fill="#A943F9"/>
</g>
</svg>
