<svg width="40" height="41" viewBox="0 0 40 41" fill="none" xmlns="http://www.w3.org/2000/svg">
<path fill-rule="evenodd" clip-rule="evenodd" d="M29.4429 16.4208C29.2469 15.8469 28.4676 15.8469 28.2715 16.4208L27.5417 18.5572C27.3863 19.0119 26.8251 19.1361 26.5057 18.7865L25.0047 17.144C24.6014 16.7028 23.8895 17.0329 23.9345 17.6403L24.1021 19.9011C24.1377 20.3823 23.6736 20.7335 23.2452 20.5495L21.2325 19.6849C20.6918 19.4526 20.1704 20.0557 20.4487 20.5916L21.4847 22.586C21.7052 23.0104 21.4183 23.528 20.9551 23.5413L18.7788 23.6041C18.1941 23.6209 17.9533 24.3928 18.4168 24.7644L20.1421 26.1475C20.5093 26.4419 20.4493 27.0362 20.0314 27.2446L18.0677 28.2239C17.5402 28.4869 17.6216 29.2942 18.1901 29.4372L20.3064 29.9699C20.7568 30.0832 20.9341 30.6516 20.6337 31.0191L19.2222 32.7455C18.843 33.2093 19.2327 33.9122 19.8079 33.8021L21.9492 33.3922C22.405 33.305 22.7889 33.749 22.6579 34.212L22.0427 36.3871C21.8774 36.9716 22.5079 37.4486 22.9904 37.1043L24.7865 35.8227C25.1688 35.5499 25.6929 35.793 25.7541 36.2714L26.0415 38.5192C26.1187 39.123 26.881 39.2918 27.1873 38.7728L28.3276 36.8411C28.5704 36.4301 29.1441 36.4301 29.3868 36.8411L30.5271 38.7728C30.8335 39.2918 31.5957 39.123 31.6729 38.5192L31.9603 36.2714C32.0215 35.793 32.5457 35.5499 32.9279 35.8227L34.724 37.1043C35.2065 37.4486 35.837 36.9716 35.6717 36.3871L35.0565 34.212C34.9256 33.749 35.3094 33.305 35.7652 33.3922L37.9065 33.8021C38.4818 33.9122 38.8714 33.2093 38.4922 32.7455L37.0807 31.0191C36.7803 30.6516 36.9576 30.0832 37.408 29.9699L39.5243 29.4372C40.0928 29.2942 40.1743 28.4869 39.6467 28.2239L37.683 27.2446C37.2651 27.0362 37.2051 26.4419 37.5724 26.1475L39.2976 24.7644C39.7611 24.3928 39.5203 23.6209 38.9356 23.6041L36.7593 23.5413C36.2961 23.528 36.0092 23.0104 36.2297 22.586L37.2657 20.5916C37.544 20.0557 37.0226 19.4526 36.4819 19.6849L34.4692 20.5495C34.0408 20.7335 33.5767 20.3823 33.6123 19.9011L33.7799 17.6403C33.8249 17.0329 33.113 16.7028 32.7098 17.144L31.2088 18.7865C30.8893 19.1361 30.3281 19.0119 30.1727 18.5572L29.4429 16.4208ZM28.8572 30.8936C30.5739 30.8936 31.9656 29.4442 31.9656 27.6562C31.9656 25.8681 30.5739 24.4187 28.8572 24.4187C27.1405 24.4187 25.7488 25.8681 25.7488 27.6562C25.7488 29.4442 27.1405 30.8936 28.8572 30.8936Z" fill="#A943F9"/>
<g style="mix-blend-mode:multiply">
<path fill-rule="evenodd" clip-rule="evenodd" d="M3.78571 3.00144C2.24721 3.00144 1 4.29374 1 5.88787V28.9793C1 30.5734 2.2472 31.8657 3.78571 31.8657H33.9643C35.5028 31.8657 36.75 30.5734 36.75 28.9793V5.88787C36.75 4.29374 35.5028 3.00144 33.9643 3.00144H3.78571ZM5.87506 7.33108C4.97759 7.33108 4.25006 8.08492 4.25006 9.01482C4.25006 9.94473 4.9776 10.6986 5.87506 10.6986H18.8751C19.7725 10.6986 20.5001 9.94473 20.5001 9.01482C20.5001 8.08492 19.7725 7.33108 18.8751 7.33108H5.87506Z" fill="#F5851E"/>
</g>
</svg>
