<svg width="70" height="70" viewBox="0 0 70 70" fill="none" xmlns="http://www.w3.org/2000/svg">
<g clip-path="url(#clip0_5516_10959)">
<path d="M70 68C70 68.5523 69.5523 69 69 69H0.999998C0.447713 69 0 68.5523 0 68V61.4445C0 60.9144 0.413691 60.4764 0.94295 60.4461L35 58.5L69.0571 60.4461C69.5863 60.4764 70 60.9144 70 61.4445V68Z" fill="#3ED1FF"/>
<g style="mix-blend-mode:multiply">
<path d="M56.875 4.375H13.125C10.7144 4.375 8.75 6.33938 8.75 8.75V41.5625C8.75 42.77 9.73 43.75 10.9375 43.75L35 50.3125L59.0625 43.75C60.27 43.75 61.25 42.77 61.25 41.5625V8.75C61.25 6.33938 59.29 4.375 56.875 4.375Z" fill="#A943F9"/>
</g>
<path d="M19.6875 17.5H50.3125C51.52 17.5 52.5 16.52 52.5 15.3125C52.5 14.105 51.52 13.125 50.3125 13.125H19.6875C18.48 13.125 17.5 14.105 17.5 15.3125C17.5 16.52 18.48 17.5 19.6875 17.5Z" fill="white"/>
<path d="M50.3125 21.875H19.6875C18.48 21.875 17.5 22.855 17.5 24.0625C17.5 25.27 18.48 26.25 19.6875 26.25H50.3125C51.52 26.25 52.5 25.27 52.5 24.0625C52.5 22.855 51.52 21.875 50.3125 21.875Z" fill="white"/>
<path d="M37.1875 30.625H19.6875C18.48 30.625 17.5 31.605 17.5 32.8125C17.5 34.02 18.48 35 19.6875 35H37.1875C38.395 35 39.375 34.02 39.375 32.8125C39.375 31.605 38.395 30.625 37.1875 30.625Z" fill="white"/>
</g>
<defs>
<clipPath id="clip0_5516_10959">
<rect width="70" height="70" fill="white"/>
</clipPath>
</defs>
</svg>
