<svg width="80" height="80" viewBox="0 0 80 80" fill="none" xmlns="http://www.w3.org/2000/svg">
<g clip-path="url(#clip0_3193_5949)">
<path fill-rule="evenodd" clip-rule="evenodd" d="M0 63.0248V8.58496C6.08891 10.8586 15.2275 13.6671 26.6667 15.0032L26.6667 15.0034C30.8203 15.4884 35.2745 15.7812 40 15.7811V15.7811C43.6045 15.7811 48.1316 15.6114 53.3333 15.0042L53.3333 15.0045V15.0042C61.014 14.1076 70.1665 12.2568 80 8.58496V63.0248C73.9111 60.7512 64.7726 57.9426 53.3333 56.6065L53.3333 56.6066C49.1797 56.1214 44.7255 55.8288 40 55.8288V55.8289C36.3955 55.8289 31.8684 55.9986 26.6667 56.6058L26.6667 56.6056C18.9861 57.5022 9.83357 59.3529 0 63.0248Z" fill="#F9A457"/>
<g style="mix-blend-mode:multiply">
<path fill-rule="evenodd" clip-rule="evenodd" d="M13.7105 36.6669C9.82003 36.6669 6.66602 39.7988 6.66602 43.6619V63.005C6.66602 66.8681 9.82003 70 13.7105 70H30.2245C30.5239 69.6135 30.7557 69.0796 31.0164 68.4789C31.9792 66.2608 33.3377 63.1307 39.9609 63.1394C46.5841 63.1481 47.9392 66.2694 48.8998 68.4821C49.16 69.0814 49.3913 69.6141 49.6904 70.0002H66.2882C70.1789 70.0002 73.3327 66.8683 73.3327 63.0052V43.6621C73.3327 39.7987 70.1789 36.6669 66.2882 36.6669H39.9594H13.7105ZM16.666 46.6669V53.3335H63.3327V46.6669H16.666Z" fill="#A943F9"/>
</g>
</g>
<defs>
<clipPath id="clip0_3193_5949">
<rect width="80" height="80" fill="white"/>
</clipPath>
</defs>
</svg>
