<svg width="80" height="80" viewBox="0 0 80 80" fill="none" xmlns="http://www.w3.org/2000/svg">
<g clip-path="url(#clip0_3193_5978)">
<path d="M15 30C23.2843 30 30 23.2843 30 15C30 6.71573 23.2843 0 15 0C6.71573 0 0 6.71573 0 15C0 23.2843 6.71573 30 15 30Z" fill="#A943F9"/>
<path d="M65 80C73.2843 80 80 73.2843 80 65C80 56.7157 73.2843 50 65 50C56.7157 50 50 56.7157 50 65C50 73.2843 56.7157 80 65 80Z" fill="#A943F9"/>
<path d="M65 30C73.2843 30 80 23.2843 80 15C80 6.71573 73.2843 0 65 0C56.7157 0 50 6.71573 50 15C50 23.2843 56.7157 30 65 30Z" fill="#A943F9"/>
<path d="M15 80C23.2843 80 30 73.2843 30 65C30 56.7157 23.2843 50 15 50C6.71573 50 0 56.7157 0 65C0 73.2843 6.71573 80 15 80Z" fill="#A943F9"/>
<g style="mix-blend-mode:multiply">
<path d="M14.5857 19.2666C17.1722 19.2666 19.269 17.1698 19.269 14.5832C19.269 11.9967 17.1722 9.8999 14.5857 9.8999C11.9991 9.8999 9.90234 11.9967 9.90234 14.5832C9.90234 17.1698 11.9991 19.2666 14.5857 19.2666Z" fill="#F9A457"/>
</g>
<g style="mix-blend-mode:multiply">
<path d="M65.4197 70.0999C68.0062 70.0999 70.103 68.0031 70.103 65.4166C70.103 62.8301 68.0062 60.7333 65.4197 60.7333C62.8331 60.7333 60.7363 62.8301 60.7363 65.4166C60.7363 68.0031 62.8331 70.0999 65.4197 70.0999Z" fill="#F9A457"/>
</g>
<g style="mix-blend-mode:multiply">
<path d="M65.4197 19.2666C68.0062 19.2666 70.103 17.1698 70.103 14.5832C70.103 11.9967 68.0062 9.8999 65.4197 9.8999C62.8331 9.8999 60.7363 11.9967 60.7363 14.5832C60.7363 17.1698 62.8331 19.2666 65.4197 19.2666Z" fill="#F9A457"/>
</g>
<g style="mix-blend-mode:multiply">
<path d="M58.7313 62.8418C59.0929 61.9081 59.6454 61.0601 60.3534 60.3522C61.0614 59.6442 61.9093 59.0917 62.843 58.7301C60.5962 57.3278 58.5316 55.6529 56.6963 53.7434C54.8774 51.9523 53.4406 49.8109 52.4729 47.4487C51.5052 45.0865 51.0267 42.5525 51.0663 40.0001C51.0267 37.4476 51.5052 34.9137 52.4729 32.5515C53.4406 30.1892 54.8774 28.0478 56.6963 26.2567C58.5316 24.3473 60.5962 22.6723 62.843 21.2701C61.9101 20.9094 61.0627 20.3582 60.3547 19.6517C59.6468 18.9452 59.0939 18.0989 58.7313 17.1667C57.3295 19.4138 55.6545 21.4785 53.7446 23.3134C51.9528 25.1309 49.8111 26.5661 47.4489 27.5323C45.0867 28.4986 42.5531 28.9758 40.0013 28.9351C37.4489 28.9747 34.9149 28.4962 32.5527 27.5285C30.1905 26.5608 28.049 25.124 26.258 23.3051C24.349 21.4724 22.6741 19.4106 21.2713 17.1667C20.9096 18.0981 20.358 18.9439 19.6516 19.6503C18.9451 20.3568 18.0993 20.9084 17.168 21.2701C19.4151 22.6719 21.4797 24.3469 23.3146 26.2567C25.1321 28.0485 26.5673 30.1903 27.5335 32.5524C28.4998 34.9146 28.977 37.4482 28.9363 40.0001C28.9759 42.5525 28.4974 45.0865 27.5297 47.4487C26.562 49.8109 25.1252 51.9523 23.3063 53.7434C21.474 55.6527 19.4121 57.3277 17.168 58.7301C18.1016 59.0917 18.9496 59.6442 19.6576 60.3522C20.3655 61.0601 20.918 61.9081 21.2796 62.8418C22.6819 60.595 24.3568 58.5304 26.2663 56.6951C28.0564 54.8772 30.1965 53.441 32.5572 52.4733C34.9179 51.5057 37.4503 51.0266 40.0013 51.0651C42.5537 51.0255 45.0877 51.504 47.4499 52.4717C49.8121 53.4394 51.9536 54.8761 53.7446 56.6951C55.6541 58.5304 57.3291 60.595 58.7313 62.8418Z" fill="#F9A457"/>
</g>
<g style="mix-blend-mode:multiply">
<path d="M14.5857 70.0999C17.1722 70.0999 19.269 68.0031 19.269 65.4166C19.269 62.8301 17.1722 60.7333 14.5857 60.7333C11.9991 60.7333 9.90234 62.8301 9.90234 65.4166C9.90234 68.0031 11.9991 70.0999 14.5857 70.0999Z" fill="#F9A457"/>
</g>
</g>
<defs>
<clipPath id="clip0_3193_5978">
<rect width="80" height="80" fill="white"/>
</clipPath>
</defs>
</svg>
