<svg width="80" height="80" viewBox="0 0 80 80" fill="none" xmlns="http://www.w3.org/2000/svg">
<path fill-rule="evenodd" clip-rule="evenodd" d="M57.7231 37.4122C57.3712 36.4181 55.9725 36.4181 55.6206 37.4122L54.3107 41.1129C54.0319 41.9006 53.0246 42.1158 52.4511 41.5103L49.757 38.665C49.0333 37.9007 47.7555 38.4725 47.8363 39.5247L48.137 43.4409C48.201 44.2746 47.368 44.8829 46.5991 44.5642L42.9866 43.0665C42.0161 42.6641 41.0802 43.7089 41.5797 44.637L43.4391 48.0919C43.835 48.8271 43.32 49.7236 42.4887 49.7468L38.5824 49.8555C37.533 49.8846 37.1008 51.2218 37.9327 51.8654L41.0293 54.2613C41.6884 54.7712 41.5808 55.8007 40.8307 56.1617L37.3061 57.8581C36.3592 58.3138 36.5054 59.7121 37.5259 59.9599L41.3243 60.8826C42.1327 61.079 42.4509 62.0635 41.9117 62.7L39.3783 65.6907C38.6977 66.4941 39.397 67.7117 40.4296 67.521L44.2729 66.811C45.091 66.6598 45.78 67.429 45.5449 68.2311L44.4407 71.9989C44.144 73.0112 45.2757 73.8375 46.1417 73.2413L49.3654 71.0212C50.0516 70.5487 50.9924 70.9697 51.1022 71.7984L51.618 75.6921C51.7566 76.7381 53.1248 77.0304 53.6746 76.1314L55.7213 72.7853C56.157 72.0732 57.1867 72.0732 57.6224 72.7853L59.6692 76.1314C60.219 77.0304 61.5871 76.7381 61.7257 75.6921L62.2416 71.7984C62.3514 70.9697 63.2922 70.5487 63.9783 71.0212L67.2021 73.2413C68.0681 73.8375 69.1997 73.0112 68.9031 71.9989L67.7988 68.2311C67.5638 67.429 68.2528 66.6598 69.0709 66.811L72.9142 67.521C73.9467 67.7117 74.6461 66.4941 73.9654 65.6907L71.4321 62.7C70.8928 62.0635 71.2111 61.079 72.0195 60.8826L75.8179 59.9599C76.8383 59.7121 76.9845 58.3138 76.0377 57.8581L72.5131 56.1617C71.7629 55.8007 71.6553 54.7712 72.3144 54.2613L75.411 51.8654C76.2429 51.2218 75.8107 49.8846 74.7613 49.8555L70.8551 49.7468C70.0237 49.7236 69.5088 48.8271 69.9046 48.0919L71.7641 44.637C72.2636 43.7089 71.3277 42.6641 70.3572 43.0665L66.7447 44.5642C65.9758 44.8829 65.1427 44.2746 65.2067 43.4409L65.5075 39.5247C65.5883 38.4725 64.3105 37.9007 63.5867 38.665L60.8926 41.5103C60.3192 42.1158 59.3119 41.9006 59.0331 41.1129L57.7231 37.4122ZM56.6719 62.4828C59.7531 62.4828 62.251 59.972 62.251 56.8746C62.251 53.7773 59.7531 51.2665 56.6719 51.2665C53.5906 51.2665 51.0927 53.7773 51.0927 56.8746C51.0927 59.972 53.5906 62.4828 56.6719 62.4828Z" fill="#A943F9"/>
<g style="mix-blend-mode:multiply">
<path fill-rule="evenodd" clip-rule="evenodd" d="M70.0104 19.629V55.1856C70.0104 58.6649 67.0305 61.4814 63.3494 61.4814H10.0104C6.32852 61.4814 3.34375 58.4966 3.34375 54.8147V19.629C3.34375 16.1498 6.3237 13.3333 10.0048 13.3333H63.3494C67.0305 13.3333 70.0104 16.1498 70.0104 19.629ZM22.4416 27.7825L14.5707 20.4597C13.8345 19.7716 12.7299 19.8672 12.099 20.6701C11.4685 21.473 11.5562 22.6781 12.2924 23.3658L18.6026 29.2352L12.2924 35.1047C11.5562 35.7923 11.4685 36.9974 12.099 37.8003C12.4498 38.2393 12.9409 38.4693 13.4311 38.4693C13.8345 38.4693 14.2379 38.3163 14.5707 38.0102L22.4416 30.688C22.8279 30.3251 23.0555 29.7894 23.0555 29.2352C23.0555 28.6805 22.8279 28.1454 22.4416 27.7825ZM25.0117 35C24.0912 35 23.3451 35.7462 23.3451 36.6666C23.3451 37.5871 24.0912 38.3333 25.0117 38.3333H38.3451C39.2655 38.3333 40.0117 37.5871 40.0117 36.6666C40.0117 35.7462 39.2655 35 38.3451 35H25.0117Z" fill="#56A6FC"/>
</g>
</svg>
