<svg width="80" height="80" viewBox="0 0 80 80" fill="none" xmlns="http://www.w3.org/2000/svg">
<g clip-path="url(#clip0_5399_11859)">
<mask id="mask0_5399_11859" style="mask-type:luminance" maskUnits="userSpaceOnUse" x="0" y="0" width="80" height="80">
<path d="M0 0H80V80H0V0Z" fill="white"/>
</mask>
<g mask="url(#mask0_5399_11859)">
<path fill-rule="evenodd" clip-rule="evenodd" d="M70 34.9969C70 34.9983 70 34.9997 70 35.0012C70 52.5923 56.958 67.1892 40.0367 69.6378C39.6394 69.8321 39.2051 69.9513 38.7555 69.9843C38.5002 70.0033 36.3793 69.9991 35.4422 69.9963C35.295 69.9981 35.1476 69.999 35 69.999C15.701 69.999 0 54.3025 0 35.0012C0 35.0018 0 35.0005 0 35.0012C0 35.0004 0 34.9977 0 34.9969C0 17.4057 13.042 2.80882 29.9634 0.360283C30.3606 0.165943 30.7949 0.0467788 31.2445 0.0137897C31.4998 -0.00522257 33.6207 -0.00104927 34.5578 0.00177331C34.705 -5.81355e-05 34.8524 -0.000976562 35 -0.000976562C54.1706 -0.000976562 69.7908 15.4873 69.9979 34.612C69.9993 34.7401 70 34.8684 70 34.9969ZM62.1312 28.2008C62.1142 28.1343 62.097 28.0679 62.0795 28.0016L48.713 28.0016C48.916 30.203 49.0455 32.5163 49.0455 34.9872C49.0433 37.329 48.9312 39.6694 48.7095 42.0007L62.0795 42.0007C62.3727 40.8703 62.6044 39.7149 62.762 38.5363C62.7548 38.3874 62.757 38.2374 62.769 38.0872C62.8913 37.0701 62.9997 36.0495 63 35.001C62.9958 33.8633 62.9219 32.728 62.7791 31.6015C62.63 30.4452 62.4097 29.3111 62.1312 28.2008ZM34.8272 27.9973H28.322C28.0977 30.1428 27.9759 32.2963 27.9564 34.4505C27.9853 34.6315 28 34.8156 28 35.0012C28 37.4949 28.1363 39.8208 28.367 41.9965H35C35.0578 41.9965 35.1154 41.9979 35.1728 42.0007H41.678C41.9023 39.8553 42.0241 37.7018 42.0436 35.5475C42.0147 35.3665 42 35.1825 42 34.9969C42 32.5032 41.8637 30.1772 41.633 28.0016H35C34.9422 28.0016 34.8846 28.0002 34.8272 27.9973ZM7.8689 41.7978C7.88585 41.8641 7.90305 41.9303 7.9205 41.9965H21.287C21.084 39.7951 20.9545 37.4817 20.9545 35.0109C20.9567 32.6691 21.0688 30.3286 21.2905 27.9973H7.9205C7.62727 29.1278 7.39556 30.2832 7.23796 31.4618C7.24521 31.6107 7.24298 31.7607 7.231 31.9108C7.10866 32.928 7.00028 33.9485 7 34.997C7.0042 36.1348 7.0781 37.27 7.22087 38.3965C7.37 39.553 7.59037 40.6873 7.8689 41.7978ZM29.484 20.9977C31.108 13.8827 33.607 9.24546 34.958 7.12459C36.316 9.24546 38.8325 13.8827 40.4635 20.9977H29.484ZM22.2993 49.0003L10.7905 49.0003C11.0301 49.4141 11.2798 49.8209 11.539 50.2202C15.0181 55.5721 20.2258 59.5937 26.3165 61.5988C24.4934 57.5694 23.1453 53.3413 22.2993 49.0003ZM26.3305 8.38801C24.878 11.5378 23.359 15.7446 22.3055 20.9977H10.787C14.2451 15.0296 19.7774 10.5415 26.3305 8.38801ZM58.453 19.7655C54.9739 14.4198 49.7695 10.4028 43.6835 8.39928C45.5066 12.4287 46.8547 16.6567 47.7007 20.9977H59.2095C58.9674 20.5796 58.7151 20.1688 58.453 19.7655ZM40.516 49.0003C38.892 56.1154 36.393 60.7526 35.042 62.8735C33.684 60.7526 31.1675 56.1154 29.5365 49.0003H40.516ZM43.6695 61.61C45.122 58.4602 46.641 54.2535 47.6945 49.0003H59.213C55.7549 54.9685 50.2226 59.4566 43.6695 61.61Z" fill="#56A6FC"/>
<g style="mix-blend-mode:multiply">
<path d="M52.3749 74.8931L36.9477 40.9531C35.791 38.4087 38.4086 35.7916 40.9531 36.9477L74.8929 52.3753C77.2093 53.428 77.2698 56.6966 74.9939 57.8345L64.456 63.1031C63.8704 63.3959 63.3961 63.8708 63.1033 64.4558L57.8341 74.9941C56.6961 77.27 53.4281 77.2095 52.3749 74.8931Z" fill="#A943F9"/>
</g>
</g>
</g>
<defs>
<clipPath id="clip0_5399_11859">
<rect width="80" height="80" fill="white"/>
</clipPath>
</defs>
</svg>
