<svg width="40" height="40" viewBox="0 0 40 40" fill="none" xmlns="http://www.w3.org/2000/svg">
<g clip-path="url(#clip0_2897_12577)">
<path d="M23.994 19.3184C24.3744 21.9934 21.6875 24.1068 19.1774 23.1069L4.29051 17.1764C1.7997 16.1841 1.35051 12.8652 3.48029 11.19L16.1112 1.25548C18.2409 -0.419654 21.3605 0.798866 21.738 3.45333L23.994 19.3184Z" fill="#A943F9"/>
<g style="mix-blend-mode:multiply">
<path d="M6.25 23.0349C6.25 21.9057 6.75886 20.8365 7.63528 20.1245L25.2167 5.83957C25.8851 5.29646 26.7201 5 27.5814 5L33.75 5C35.8211 5 37.5 6.67893 37.5 8.75V36.25C37.5 38.3211 35.8211 40 33.75 40H10C7.92893 40 6.25 38.3211 6.25 36.25V23.0349Z" fill="#3ED1FF"/>
</g>
</g>
<defs>
<clipPath id="clip0_2897_12577">
<rect width="40" height="40" fill="white"/>
</clipPath>
</defs>
</svg>
