<svg width="70" height="71" viewBox="0 0 70 71" fill="none" xmlns="http://www.w3.org/2000/svg">
<path d="M59.4632 25.3858C58.5439 19.5018 53.4429 14.9857 47.3047 14.9857C44.9955 14.9857 42.7766 15.6246 40.852 16.8162C37.924 11.8955 32.6528 8.83337 26.7969 8.83337C17.7506 8.83337 10.3906 16.1934 10.3906 25.2396C10.3906 25.2957 10.3906 25.3538 10.3927 25.4098C4.57871 26.3892 0 31.458 0 37.5443C0 44.3295 5.65619 49.849 12.4414 49.849H57.5586C64.3438 49.849 70 44.3295 70 37.5443C70 31.406 65.3472 26.3051 59.4632 25.3858Z" fill="#3ED1FF"/>
<g style="mix-blend-mode:multiply">
<path d="M50.5564 36.1944V32.8611C50.5564 31.977 50.2052 31.1292 49.5801 30.5041C48.955 29.879 48.1071 29.5278 47.2231 29.5278H42.7786V28.4167C42.7786 28.122 42.6616 27.8394 42.4532 27.631C42.2448 27.4226 41.9622 27.3055 41.6675 27.3055C41.3728 27.3055 41.0902 27.4226 40.8819 27.631C40.6735 27.8394 40.5564 28.122 40.5564 28.4167V29.5278H29.4453V28.4167C29.4453 28.122 29.3282 27.8394 29.1199 27.631C28.9115 27.4226 28.6289 27.3055 28.3342 27.3055C28.0395 27.3055 27.7569 27.4226 27.5485 27.631C27.3402 27.8394 27.2231 28.122 27.2231 28.4167V29.5278H22.7786C21.8946 29.5278 21.0467 29.879 20.4216 30.5041C19.7965 31.1292 19.4453 31.977 19.4453 32.8611V36.1944H50.5564Z" fill="#A943F9"/>
<path d="M19.4453 38.4166V55.0833C19.4453 55.9673 19.7965 56.8152 20.4216 57.4403C21.0467 58.0654 21.8946 58.4166 22.7786 58.4166H47.2231C48.1071 58.4166 48.955 58.0654 49.5801 57.4403C50.2052 56.8152 50.5564 55.9673 50.5564 55.0833V38.4166H19.4453ZM41.2786 44.8155L33.5009 51.4822C33.2883 51.664 33.0149 51.7588 32.7354 51.7479C32.456 51.737 32.1909 51.6211 31.9931 51.4233L28.6598 48.09C28.4574 47.8804 28.3454 47.5997 28.3479 47.3084C28.3504 47.0171 28.4673 46.7384 28.6733 46.5324C28.8793 46.3264 29.158 46.2095 29.4493 46.207C29.7406 46.2045 30.0213 46.3165 30.2309 46.5188L32.8375 49.1255L39.8375 43.1255C39.9477 43.0262 40.0766 42.95 40.2167 42.9013C40.3568 42.8526 40.5053 42.8325 40.6533 42.8421C40.8013 42.8516 40.9459 42.8908 41.0785 42.9571C41.2111 43.0235 41.3292 43.1157 41.4256 43.2284C41.522 43.3411 41.5949 43.4719 41.64 43.6132C41.6851 43.7545 41.7014 43.9034 41.688 44.0511C41.6746 44.1988 41.6318 44.3424 41.5621 44.4733C41.4923 44.6042 41.3971 44.7198 41.282 44.8133L41.2786 44.8155Z" fill="#A943F9"/>
</g>
</svg>
