<svg width="80" height="80" viewBox="0 0 80 80" fill="none" xmlns="http://www.w3.org/2000/svg">
<path d="M67.958 28.917C66.9073 22.1925 61.0777 17.0312 54.0625 17.0312C51.4234 17.0312 48.8875 17.7614 46.688 19.1233C43.3417 13.4995 37.3175 10 30.625 10C20.2864 10 11.875 18.4114 11.875 28.75C11.875 28.8141 11.875 28.8805 11.8773 28.9445C5.23281 30.0637 0 35.8567 0 42.8125C0 50.567 6.46422 56.875 14.2188 56.875H65.7812C73.5358 56.875 80 50.567 80 42.8125C80 35.7973 74.6825 29.9677 67.958 28.917Z" fill="#3ED1FF"/>
<g style="mix-blend-mode:multiply">
<path d="M23.334 61.0977L36.6673 69.9999V52.2556L23.334 43.3333V61.0977Z" fill="#A943F9"/>
</g>
<g style="mix-blend-mode:multiply">
<path d="M39.9993 33.3333L26.666 41.6666L39.9993 49.9999L53.3327 41.6666L39.9993 33.3333Z" fill="#A943F9"/>
</g>
<g style="mix-blend-mode:multiply">
<path d="M43.334 69.9999L56.6673 61.0977V43.3333L43.334 52.2556V69.9999Z" fill="#A943F9"/>
</g>
</svg>
