<svg width="80" height="80" viewBox="0 0 80 80" fill="none" xmlns="http://www.w3.org/2000/svg">
<path fill-rule="evenodd" clip-rule="evenodd" d="M63.8278 66.6667H9.50682C7.87029 66.6648 6.30134 66.0423 5.14413 64.9357C3.98692 63.8291 3.33594 62.3288 3.33398 60.7639V5.90278C3.33594 4.33784 3.98692 2.83753 5.14413 1.73095C6.30134 0.624375 7.87029 0.00187455 9.50682 0H63.8278C65.4644 0.00187455 67.0333 0.624375 68.1905 1.73095C69.3477 2.83753 69.9987 4.33784 70.0006 5.90278V60.7639C69.9987 62.3288 69.3477 63.8291 68.1905 64.9357C67.0333 66.0423 65.4644 66.6648 63.8278 66.6667ZM33.334 13.3333C35.1749 13.3333 36.6673 11.8409 36.6673 10C36.6673 8.15905 35.1749 6.66667 33.334 6.66667C31.493 6.66667 30.0007 8.15905 30.0007 10C30.0007 11.8409 31.493 13.3333 33.334 13.3333ZM26.6673 10C26.6673 11.8409 25.1749 13.3333 23.334 13.3333C21.493 13.3333 20.0007 11.8409 20.0007 10C20.0007 8.15905 21.493 6.66667 23.334 6.66667C25.1749 6.66667 26.6673 8.15905 26.6673 10ZM13.334 13.3333C15.1749 13.3333 16.6673 11.8409 16.6673 10C16.6673 8.15905 15.1749 6.66667 13.334 6.66667C11.493 6.66667 10.0007 8.15905 10.0007 10C10.0007 11.8409 11.493 13.3333 13.334 13.3333Z" fill="#56A6FC"/>
<g style="mix-blend-mode:multiply">
<path d="M42.4326 67.8681L33.1879 58.3342L42.4326 48.8004C43.511 47.6835 43.6395 45.7261 42.7145 44.4219C41.7909 43.1177 40.1723 42.9624 39.0946 44.0801L27.5646 55.9745C27 56.564 26.666 57.4332 26.666 58.3342C26.666 59.2345 27 60.1045 27.5646 60.694L39.0946 72.5876C39.5827 73.0847 40.1723 73.3333 40.7632 73.3333C41.4826 73.3333 42.202 72.9596 42.7145 72.2466C43.6395 70.9424 43.511 68.985 42.4326 67.8681Z" fill="#F9A457"/>
</g>
<g style="mix-blend-mode:multiply">
<path d="M79.1014 55.9745L67.5718 44.0801C66.4933 42.9624 64.8753 43.1177 63.951 44.4219C63.0274 45.7261 63.1559 47.6835 64.2343 48.8004L73.4779 58.3342L64.2343 67.8681C63.1559 68.985 63.0274 70.9424 63.951 72.2466C64.4649 72.9596 65.1843 73.3333 65.9024 73.3333C66.4933 73.3333 67.0843 73.0847 67.5718 72.5876L79.1014 60.694C79.6673 60.1045 80.0006 59.2345 80.0006 58.3342C80.0006 57.4332 79.6673 56.564 79.1014 55.9745Z" fill="#F9A457"/>
</g>
<g style="mix-blend-mode:multiply">
<path d="M57.777 36.7251C56.2779 36.4139 54.8058 37.3773 54.4993 38.907L46.7234 76.5989C46.4177 78.1286 47.3619 79.6315 48.8625 79.9434C49.0563 79.971 49.2508 80.0001 49.4453 80.0001C50.7229 80.0001 51.8886 79.0927 52.1665 77.7607L59.9431 40.0695C60.2488 38.5674 59.2769 37.0646 57.777 36.7251Z" fill="#F9A457"/>
</g>
</svg>
