<svg width="80" height="80" viewBox="0 0 80 80" fill="none" xmlns="http://www.w3.org/2000/svg">
<path d="M67.958 28.917C66.9073 22.1925 61.0777 17.0312 54.0625 17.0312C51.4234 17.0312 48.8875 17.7614 46.688 19.1233C43.3417 13.4995 37.3175 10 30.625 10C20.2864 10 11.875 18.4114 11.875 28.75C11.875 28.8141 11.875 28.8805 11.8773 28.9445C5.23281 30.0637 0 35.8567 0 42.8125C0 50.567 6.46422 56.875 14.2188 56.875H65.7812C73.5358 56.875 80 50.567 80 42.8125C80 35.7973 74.6825 29.9677 67.958 28.917Z" fill="#3ED1FF"/>
<g style="mix-blend-mode:multiply">
<path d="M62.8066 51.3392L56.9458 48.385L62.8066 45.4309C63.1275 45.2686 63.3307 44.9468 63.3326 44.5936C63.3345 44.2403 63.137 43.9158 62.818 43.7489L48.2347 36.153C47.9518 36.0065 47.6156 36.0047 47.3308 36.1474L39.9994 39.8429L32.6678 36.1475C32.383 36.0047 32.0431 36.0066 31.7639 36.1531L17.1806 43.749C16.8616 43.9159 16.6641 44.2404 16.666 44.5937C16.6679 44.9469 16.8711 45.2687 17.192 45.431L23.0528 48.3851L17.1921 51.3392C16.8712 51.5015 16.668 51.8233 16.6661 52.1765C16.6642 52.5298 16.8617 52.8543 17.1807 53.0212L31.764 60.6171C31.9065 60.6913 32.064 60.7283 32.2216 60.7283C32.3755 60.7283 32.5273 60.6931 32.6679 60.6227L39.9994 56.9273L47.3309 60.6227C47.4715 60.6931 47.6233 60.7283 47.7772 60.7283C47.9347 60.7283 48.0923 60.6913 48.2348 60.6171L62.8181 53.0212C63.1371 52.8543 63.3346 52.5298 63.3327 52.1765C63.3307 51.8232 63.1275 51.5015 62.8066 51.3392ZM39.9994 54.7898L27.2932 48.3851L39.9994 41.9804L52.7055 48.385L39.9994 54.7898Z" fill="#A943F9"/>
<path d="M38.5557 60.3005C38.269 60.129 37.9063 60.1169 37.6043 60.2681L33.554 62.3099C32.7204 62.7308 31.676 62.7235 30.8443 62.2913L25.8693 59.6997C25.5693 59.5439 25.2066 59.5514 24.9123 59.7238C24.618 59.8953 24.4395 60.2041 24.4395 60.5379V66.4248C24.4395 66.7753 24.637 67.098 24.9541 67.263L37.5929 73.8463C37.7354 73.9205 37.893 73.9576 38.0506 73.9576C38.2234 73.9576 38.3962 73.9122 38.55 73.8222C38.8443 73.6507 39.0228 73.3419 39.0228 73.0081V61.1119C39.0228 60.7808 38.8463 60.473 38.5557 60.3005Z" fill="#A943F9"/>
<path d="M55.087 59.7238C54.7927 59.5513 54.4281 59.5439 54.1299 59.6997L49.155 62.2913C48.3232 62.7244 47.277 62.7318 46.4453 62.3099L42.3951 60.2681C42.0931 60.1161 41.7304 60.129 41.4437 60.3005C41.1531 60.473 40.9766 60.7809 40.9766 61.1119V73.0083C40.9766 73.342 41.155 73.6509 41.4494 73.8224C41.6033 73.9123 41.776 73.9577 41.9488 73.9577C42.1064 73.9577 42.264 73.9206 42.4065 73.8464L55.0452 67.2631C55.3623 67.0981 55.5598 66.7754 55.5598 66.4249V60.538C55.5598 60.2041 55.3814 59.8954 55.087 59.7238Z" fill="#A943F9"/>
</g>
</svg>
