<svg width="40" height="40" viewBox="0 0 40 40" fill="none" xmlns="http://www.w3.org/2000/svg">
<path d="M27.6121 40H8.75C6.67893 40 5 38.3211 5 36.25V3.75C5 1.67893 6.67893 0 8.75 0H15.5745C17.1432 0 18.5461 0.976451 19.091 2.44751L31.1286 34.9475C32.0358 37.3967 30.2239 40 27.6121 40Z" fill="#FF4BAD"/>
<g style="mix-blend-mode:multiply">
<path fill-rule="evenodd" clip-rule="evenodd" d="M29.4773 35H16.25C14.1789 35 12.5 33.3211 12.5 31.25V8.75C12.5 6.67893 14.1789 5 16.25 5H20.5483C20.7543 5 20.9575 5.01684 21.1563 5.04945C21.3558 5.01697 21.5616 5 21.7727 5H35C37.0711 5 38.75 6.67893 38.75 8.75L38.75 31.25C38.75 33.3211 37.0711 35 35 35H30.7017C30.4957 35 30.2925 34.9832 30.0938 34.9505C29.8942 34.983 29.6884 35 29.4773 35ZM18.125 10.625H33.125C34.1605 10.625 35 11.4645 35 12.5C35 13.5355 34.1605 14.375 33.125 14.375H18.125C17.0895 14.375 16.25 13.5355 16.25 12.5C16.25 11.4645 17.0895 10.625 18.125 10.625ZM26.875 18.125H18.125C17.0895 18.125 16.25 18.9645 16.25 20C16.25 21.0355 17.0895 21.875 18.125 21.875H26.875C27.9105 21.875 28.75 21.0355 28.75 20C28.75 18.9645 27.9105 18.125 26.875 18.125ZM18.125 25.625H33.125C34.1605 25.625 35 26.4645 35 27.5C35 28.5355 34.1605 29.375 33.125 29.375H18.125C17.0895 29.375 16.25 28.5355 16.25 27.5C16.25 26.4645 17.0895 25.625 18.125 25.625Z" fill="#3ED1FF"/>
</g>
</svg>
