<svg width="80" height="80" viewBox="0 0 80 80" fill="none" xmlns="http://www.w3.org/2000/svg">
<g clip-path="url(#clip0_5399_11903)">
<path d="M1.5 36.6665C0.671574 36.6665 0 37.3381 0 38.1665V71.8332C0 72.6616 0.671573 73.3332 1.5 73.3332H78.5C79.3284 73.3332 80 72.6616 80 71.8332V38.1665C80 37.3381 79.3284 36.6665 78.5 36.6665H1.5ZM15.2847 66.8637H11.8442C11.3483 67.7324 10.4312 68.3792 9.08857 68.4207C4.8304 68.2888 4.83138 62.0825 9.08867 61.9512C10.4912 61.9947 11.4219 62.7017 11.9003 63.629H15.2847C17.4072 63.6823 17.4102 66.8096 15.2847 66.8637ZM57.4497 68.4185C57.4497 69.4825 56.4261 70.3067 55.3138 69.9523C54.6428 69.7387 54.2282 69.057 54.2282 68.35V62.7577C54.2815 60.6263 57.3958 60.6237 57.4497 62.7577V68.4185ZM64.698 68.4185C64.698 69.4825 63.6744 70.3067 62.5621 69.9523C61.8911 69.7387 61.4765 69.057 61.4765 68.35V62.7577C61.5298 60.6263 64.6441 60.6237 64.698 62.7577V68.4185ZM71.9463 68.4185C71.9463 69.4825 70.9227 70.3067 69.8104 69.9523C69.1394 69.7387 68.7248 69.057 68.7248 68.35V62.7577C68.7781 60.6263 71.8924 60.6237 71.9463 62.7577V68.4185Z" fill="#3ED1FF"/>
<g style="mix-blend-mode:multiply">
<path d="M19.9357 49.9987H39.787C54.2768 50.1429 64.2355 34.8618 58.2102 21.807C51.3934 6.69389 29.8444 5.90903 22.018 20.4934C27.0721 21.0869 31.5927 24.014 34.2067 28.3603C34.4133 28.3353 34.6227 28.3173 34.8359 28.3102H35.0219C38.6348 28.4309 41.3648 31.186 41.3648 34.7365C41.3648 38.2871 38.6348 41.0423 35.0219 41.1627H34.7172C31.1224 41.0511 28.4122 38.3159 28.4041 34.7909C28.4041 32.6358 29.4204 30.7769 31.0294 29.627C28.5515 25.8699 24.3263 23.6518 19.7426 23.6662C12.4644 23.8735 6.65797 29.5674 6.66602 36.8405C6.66602 44.0975 12.6172 49.9987 19.9357 49.9987Z" fill="#A943F9"/>
</g>
<g style="mix-blend-mode:multiply">
<path d="M36.2355 33.3623C32.9293 33.4687 32.9293 38.2624 36.2355 38.3623C39.5356 38.2561 39.5356 33.4687 36.2355 33.3623Z" fill="#A943F9"/>
</g>
<g style="mix-blend-mode:multiply">
<path d="M64.179 29.9998C64.5595 38.0074 60.1149 46.0536 53.334 49.9998H63.1516C68.2125 49.9998 72.6799 46.2694 73.2659 41.1751C73.9281 35.3716 69.6738 30.416 64.179 29.9998Z" fill="#A943F9"/>
</g>
<path d="M36.666 53.333H39.9993V59.9997H36.666V53.333Z" fill="white"/>
</g>
<defs>
<clipPath id="clip0_5399_11903">
<rect width="80" height="80" fill="white"/>
</clipPath>
</defs>
</svg>
