<svg width="70" height="71" viewBox="0 0 70 71" fill="none" xmlns="http://www.w3.org/2000/svg">
<path d="M40.8327 27.9722V39.6389H57.3352C54.926 46.4289 48.4393 51.3056 40.8327 51.3056C31.1843 51.3056 23.3327 43.4539 23.3327 33.8056C23.3327 24.1572 31.1843 16.3056 40.8327 16.3056C45.0152 16.3056 49.0402 17.8047 52.1668 20.5289L59.8318 11.7322C54.5818 7.15892 47.8385 4.63892 40.8327 4.63892C24.7502 4.63892 11.666 17.7231 11.666 33.8056C11.666 49.8881 24.7502 62.9722 40.8327 62.9722C56.9152 62.9722 69.9993 49.8881 69.9993 33.8056V27.9722H40.8327Z" fill="#A943F9"/>
<g style="mix-blend-mode:multiply">
<path d="M0.905637 8.74658C0.32387 9.65942 0 10.7823 0 11.984V59.5477C0 60.6639 0.280388 61.7125 0.78681 62.5884L22.5836 35.594L0.905637 8.74658Z" fill="#3ED1FF"/>
<path d="M24.5726 33.1057L31.6438 24.3485L6.78789 7.30996C5.70907 6.57025 4.47132 6.39489 3.31641 6.78032L24.5726 33.1057Z" fill="#3ED1FF"/>
<path d="M24.5804 38.0571L3.10938 64.6482C3.57231 64.8329 4.05137 64.926 4.53081 64.926C5.30862 64.926 6.08681 64.6829 6.79565 64.1969L31.8304 47.0355L24.5804 38.0571Z" fill="#3ED1FF"/>
<path d="M41.4916 31.0901L34.2248 26.1084L26.5801 35.5755L34.4032 45.2646L41.4916 40.4054C42.91 39.4333 43.7568 37.6918 43.7568 35.7477C43.7568 33.8032 42.91 32.0621 41.4916 31.0901Z" fill="#3ED1FF"/>
</g>
</svg>
