<svg width="120" height="120" viewBox="0 0 120 120" fill="none" xmlns="http://www.w3.org/2000/svg">
<path d="M7.72493 63.4867C6.55399 58.105 10.0706 52.815 15.5794 51.6711L62.128 42.0053C67.6369 40.8614 73.0519 44.2968 74.2229 49.6785L82.7036 88.6559C83.8746 94.0376 80.358 99.3276 74.8491 100.472L28.3006 110.137C22.7917 111.281 17.3766 107.846 16.2057 102.464L7.72493 63.4867Z" fill="#56A6FC"/>
<g style="mix-blend-mode:multiply">
<path d="M45.7991 14.7276C47.2519 9.3953 52.7408 6.34352 58.059 7.91128L102.996 21.1585C108.314 22.7263 111.448 28.3199 109.995 33.6522L99.4732 72.2724C98.0204 77.6047 92.5315 80.6565 87.2133 79.0887L42.2761 65.8415C36.958 64.2737 33.8244 58.6801 35.2772 53.3478L45.7991 14.7276Z" fill="#A943F9"/>
</g>
</svg>
