<svg width="81" height="81" viewBox="0 0 81 81" fill="none" xmlns="http://www.w3.org/2000/svg">
<g clip-path="url(#clip0_2779_4980)">
<path fill-rule="evenodd" clip-rule="evenodd" d="M58.7462 35.8615C58.3503 34.7431 56.7767 34.7431 56.3808 35.8615L54.9071 40.0248C54.5935 40.911 53.4603 41.1531 52.8151 40.4718L49.7843 37.2709C48.9701 36.4111 47.5326 37.0543 47.6234 38.2381L47.9618 42.6438C48.0338 43.5817 47.0966 44.2661 46.2316 43.9075L42.1675 42.2226C41.0757 41.7699 40.0228 42.9453 40.5847 43.9894L42.6766 47.8761C43.122 48.7033 42.5426 49.7119 41.6074 49.7379L37.2129 49.8602C36.0322 49.893 35.546 51.3973 36.4819 52.1214L39.9656 54.8168C40.7071 55.3904 40.586 56.5485 39.7421 56.9547L35.777 58.8632C34.7117 59.3758 34.8762 60.9489 36.0242 61.2277L40.2974 62.2657C41.207 62.4866 41.5649 63.5942 40.9583 64.3103L38.1082 67.6748C37.3425 68.5787 38.1293 69.9485 39.2909 69.7339L43.6146 68.9351C44.5349 68.7651 45.3101 69.6304 45.0457 70.5327L43.8034 74.7715C43.4696 75.9104 44.7427 76.84 45.717 76.1692L49.3437 73.6716C50.1157 73.14 51.1741 73.6137 51.2976 74.546L51.8779 78.9264C52.0338 80.1032 53.573 80.432 54.1915 79.4207L56.4941 75.6563C56.9842 74.8552 58.1427 74.8552 58.6328 75.6563L60.9354 79.4207C61.554 80.432 63.0932 80.1032 63.2491 78.9264L63.8294 74.546C63.9529 73.6137 65.0113 73.14 65.7832 73.6716L69.4099 76.1692C70.3842 76.84 71.6573 75.9104 71.3236 74.7715L70.0813 70.5327C69.8169 69.6304 70.592 68.7651 71.5123 68.9351L75.8361 69.7339C76.9977 69.9485 77.7845 68.5787 77.0187 67.6748L74.1687 64.3103C73.562 63.5942 73.9201 62.4866 74.8295 62.2657L79.1028 61.2277C80.2507 60.9489 80.4152 59.3758 79.35 58.8632L75.3849 56.9547C74.5409 56.5485 74.4198 55.3904 75.1614 54.8168L78.645 52.1214C79.5809 51.3973 79.0947 49.893 77.9141 49.8602L73.5196 49.7379C72.5843 49.7119 72.005 48.7033 72.4503 47.8761L74.5422 43.9894C75.1041 42.9453 74.0512 41.7699 72.9594 42.2226L68.8954 43.9075C68.0304 44.2661 67.0932 43.5817 67.1652 42.6438L67.5035 38.2381C67.5945 37.0543 66.1569 36.4111 65.3427 37.2709L62.3118 40.4718C61.6667 41.1531 60.5335 40.911 60.2198 40.0248L58.7462 35.8615ZM57.5635 64.0659C61.0299 64.0659 63.84 61.2413 63.84 57.7568C63.84 54.2723 61.0299 51.4476 57.5635 51.4476C54.097 51.4476 51.2869 54.2723 51.2869 57.7568C51.2869 61.2413 54.097 64.0659 57.5635 64.0659Z" fill="#A943F9"/>
<g style="mix-blend-mode:multiply">
<path fill-rule="evenodd" clip-rule="evenodd" d="M5.90763 10.0227C2.67999 10.0227 0.0634766 12.4851 0.0634766 15.5227V59.5227C0.0634766 62.5603 2.67999 65.0227 5.90763 65.0227H69.2193C72.447 65.0227 75.0635 62.5603 75.0635 59.5227V15.5227C75.0635 12.4851 72.447 10.0227 69.2193 10.0227H5.90763ZM10.2909 18.2727C8.40808 18.2727 6.88178 19.7091 6.88178 21.481C6.88178 23.253 8.40808 24.6894 10.2909 24.6894H37.5636C39.4464 24.6894 40.9727 23.253 40.9727 21.481C40.9727 19.7091 39.4464 18.2727 37.5636 18.2727H10.2909Z" fill="#F5851E"/>
</g>
</g>
<defs>
<clipPath id="clip0_2779_4980">
<rect width="80" height="80" fill="white" transform="translate(0.0634766 0.0227051)"/>
</clipPath>
</defs>
</svg>
