<svg width="80" height="80" viewBox="0 0 80 80" fill="none" xmlns="http://www.w3.org/2000/svg">
<path d="M46.3168 42.8C46.0656 42.8 40.796 42.8016 38.3656 42.7992C37.1144 42.7984 36.668 42.3488 36.668 41.0896C36.6664 37.8552 36.6656 34.6208 36.668 31.3864C36.6688 30.1432 37.1408 29.6688 38.376 29.668C40.8064 29.6664 46.0472 29.6672 46.3168 29.6672C46.3168 29.4456 46.316 24.776 46.3168 22.6256C46.3184 19.4464 46.8856 16.4032 48.5008 13.6168C50.1544 10.7648 52.5608 8.81118 55.6448 7.68158C57.62 6.95758 59.6704 6.66878 61.7664 6.66718C64.3888 6.66558 67.0112 6.66798 69.6344 6.67278C70.7616 6.67438 71.2616 7.17278 71.264 8.30798C71.2688 11.3504 71.2688 14.3928 71.264 17.4344C71.2624 18.5816 70.7832 19.0424 69.6304 19.0552C67.4808 19.0784 65.3296 19.064 63.1824 19.1504C61.0136 19.1504 59.8728 20.2096 59.8728 22.4544C59.8208 24.8288 59.8512 27.2056 59.8512 29.6664C60.0544 29.6664 66.2264 29.6656 69.1112 29.6664C70.4216 29.6664 70.8696 30.1168 70.8696 31.4344C70.8696 34.6512 70.8688 37.8688 70.8664 41.0856C70.8656 42.384 70.4448 42.7984 69.1264 42.7992C66.2416 42.8008 60.0936 42.8 59.8248 42.8V68.836C59.8248 70.224 59.388 70.6664 58.0184 70.6664C54.6792 70.6664 51.3392 70.6672 48 70.6664C46.7896 70.6664 46.3176 70.196 46.3176 68.9856C46.3168 60.5064 46.3168 43.0976 46.3168 42.8Z" fill="#2686EC"/>
<g style="mix-blend-mode:multiply">
<circle cx="29.9998" cy="50" r="23.3333" fill="#F5851E"/>
</g>
</svg>
