<svg width="80" height="80" viewBox="0 0 80 80" fill="none" xmlns="http://www.w3.org/2000/svg">
<path fill-rule="evenodd" clip-rule="evenodd" d="M54.4067 33.2511C54.4067 29.7993 51.6085 27.0042 48.1567 27.0042H13.6717C9.73333 27.0042 6.5625 30.1742 6.5625 34.1134V55.2475C6.5625 59.1867 9.73333 62.3567 13.6717 62.3567H17.2695C17.4313 62.3567 17.5625 62.4879 17.5625 62.6497V71.34C17.5625 73.1159 19.6758 74.0292 20.9725 72.8284L32.0338 62.4362C32.0881 62.3851 32.1598 62.3567 32.2344 62.3567H47.295C51.2358 62.3567 54.4067 59.1867 54.4067 55.2475C54.4067 49.1512 54.4067 39.5376 54.4067 33.2511ZM20.9267 46.77C21.2142 46.8684 21.5025 46.9625 21.8392 46.9625C22.4633 46.9625 23.0883 46.6759 23.52 46.245C23.7608 46.0009 23.9533 45.7617 24.0492 45.4759C24.1933 45.185 24.2417 44.8517 24.2417 44.5142C24.2417 44.2234 24.1933 43.89 24.0492 43.5992C23.9525 43.3134 23.76 43.0742 23.52 42.83C22.6075 41.92 21.0233 41.92 20.1575 42.83C19.6775 43.2667 19.4375 43.89 19.4375 44.5142C19.4375 44.8517 19.4858 45.185 19.63 45.4759C19.7258 45.7617 19.9175 46.0009 20.1575 46.245C20.35 46.4325 20.6383 46.625 20.9267 46.77ZM31.4458 46.9625C31.1092 46.9625 30.8208 46.8684 30.5333 46.77C30.245 46.625 29.9567 46.4325 29.7642 46.245C29.2842 45.8092 29.0442 45.185 29.0442 44.5142C29.0442 44.2234 29.0925 43.89 29.2367 43.5992C29.3325 43.3134 29.5242 43.0742 29.7642 42.83C29.9513 42.5975 30.2291 42.4579 30.5094 42.3171L30.5333 42.305C31.3975 41.9675 32.5025 42.16 33.1258 42.83C33.6067 43.2659 33.8467 43.89 33.8467 44.5142C33.8467 45.185 33.6067 45.8092 33.1258 46.245C32.935 46.4325 32.6458 46.625 32.3575 46.77C32.07 46.8684 31.7825 46.9625 31.4458 46.9625ZM39.3708 46.245C39.8033 46.6767 40.4275 46.9625 41.0525 46.9625C41.6767 46.9625 42.3017 46.6759 42.7342 46.245C43.215 45.8092 43.455 45.185 43.455 44.5142C43.455 44.2234 43.4067 43.89 43.2625 43.5992C43.1658 43.3134 42.9733 43.0742 42.7333 42.83C41.8683 41.92 40.2367 41.92 39.3708 42.83C38.8908 43.2667 38.6508 43.89 38.6508 44.5142C38.6508 45.185 38.8908 45.8092 39.3708 46.245Z" fill="#56A6FC"/>
<g style="mix-blend-mode:multiply">
<path fill-rule="evenodd" clip-rule="evenodd" d="M73.5415 12.8545V31.2345C73.5415 34.6517 70.7747 37.4223 67.3608 37.4223H63.9816V45.2198C63.9816 46.7569 62.1486 47.552 61.028 46.5011L51.3523 37.4223H38.1597C34.7465 37.4223 31.979 34.6524 31.979 31.2345V12.8545C31.979 9.43735 34.7458 6.66669 38.1597 6.66669H67.3608C70.7747 6.66669 73.5415 9.43735 73.5415 12.8545ZM61.1055 19.8265H44.415C43.2626 19.8265 42.3287 18.8923 42.3287 17.7378C42.3287 16.5833 43.2626 15.6491 44.415 15.6491H61.1055C62.2579 15.6491 63.1918 16.5833 63.1918 17.7378C63.1918 18.8923 62.2579 19.8265 61.1055 19.8265ZM44.415 28.1812H61.1055C62.2579 28.1812 63.1918 27.247 63.1918 26.0925C63.1918 24.938 62.2579 24.0038 61.1055 24.0038H44.415C43.2626 24.0038 42.3287 24.938 42.3287 26.0925C42.3287 27.247 43.2626 28.1812 44.415 28.1812Z" fill="#FF4BAD"/>
</g>
</svg>
