<svg width="80" height="80" viewBox="0 0 80 80" fill="none" xmlns="http://www.w3.org/2000/svg">
<path d="M14.4655 17.3593H55.5362C55.9636 17.3593 56.3557 17.1164 56.5625 16.7288C56.7692 16.3412 56.7575 15.8628 56.5343 15.4851L54.989 12.8922C53.9111 11.0818 52.0463 10 50.0031 10H19.9962C17.9553 10 16.0907 11.0818 15.0103 12.8922L13.4674 15.4851C13.242 15.8628 13.2302 16.3388 13.4392 16.7288C13.6482 17.1188 14.0381 17.3593 14.4655 17.3593Z" fill="#1EC0F2"/>
<path d="M58.6108 19.567H11.3888C8.78442 19.567 6.6665 21.6574 6.6665 24.2279V28.8888C6.6665 31.4593 8.78442 33.5497 11.3888 33.5497H58.6109C61.2153 33.5497 63.3332 31.4593 63.3332 28.8888V24.2279C63.3331 21.6574 61.2152 19.567 58.6108 19.567ZM13.7498 28.8888C12.4488 28.8888 11.3888 27.8424 11.3888 26.5584C11.3888 25.2743 12.4488 24.2279 13.7498 24.2279C15.0508 24.2279 16.1109 25.2743 16.1109 26.5583C16.1109 27.8424 15.0508 28.8888 13.7498 28.8888ZM57.4303 28.8888H38.5414C37.8898 28.8888 37.3609 28.3667 37.3609 27.7235C37.3609 27.0803 37.8898 26.5583 38.5414 26.5583H57.4303C58.082 26.5583 58.6109 27.0803 58.6109 27.7235C58.6109 28.3667 58.082 28.8888 57.4303 28.8888Z" fill="#1EC0F2"/>
<path d="M58.6108 35.7576H11.3888C8.78442 35.7576 6.6665 37.848 6.6665 40.4185V45.0793C6.6665 47.6498 8.78442 49.7402 11.3888 49.7402H58.6109C61.2153 49.7402 63.3332 47.6498 63.3332 45.0793V40.4185C63.3331 37.848 61.2152 35.7576 58.6108 35.7576ZM13.7498 45.0793C12.4488 45.0793 11.3888 44.0329 11.3888 42.7489C11.3888 41.4648 12.4488 40.4185 13.7498 40.4185C15.0508 40.4185 16.1109 41.4648 16.1109 42.7488C16.1109 44.0329 15.0508 45.0793 13.7498 45.0793ZM57.4303 45.0793H38.5414C37.8898 45.0793 37.3609 44.5573 37.3609 43.9141C37.3609 43.2709 37.8898 42.7488 38.5414 42.7488H57.4303C58.082 42.7488 58.6109 43.2709 58.6109 43.9141C58.6109 44.5573 58.082 45.0793 57.4303 45.0793Z" fill="#1EC0F2"/>
<path d="M57.4303 45.0793H38.5414C37.8898 45.0793 37.3609 44.5573 37.3609 43.9141C37.3609 43.2709 37.8898 42.7488 38.5414 42.7488H57.4303C58.082 42.7488 58.6109 43.2709 58.6109 43.9141C58.6109 44.5573 58.082 45.0793 57.4303 45.0793Z" fill="#1EC0F2"/>
<path d="M58.6108 52.6841H11.3888C8.78442 52.6841 6.6665 54.7745 6.6665 57.345V62.0058C6.6665 64.5763 8.78442 66.6667 11.3888 66.6667H58.6109C61.2153 66.6667 63.3332 64.5763 63.3332 62.0058V57.345C63.3331 54.7745 61.2152 52.6841 58.6108 52.6841ZM13.7498 62.0058C12.4488 62.0058 11.3888 60.9595 11.3888 59.6755C11.3888 58.3914 12.4488 57.345 13.7498 57.345C15.0508 57.345 16.1109 58.3914 16.1109 59.6754C16.1109 60.9595 15.0508 62.0058 13.7498 62.0058ZM57.4303 62.0058H38.5414C37.8898 62.0058 37.3609 61.4838 37.3609 60.8406C37.3609 60.1974 37.8898 59.6754 38.5414 59.6754H57.4303C58.082 59.6754 58.6109 60.1974 58.6109 60.8406C58.6109 61.4838 58.082 62.0058 57.4303 62.0058Z" fill="#1EC0F2"/>
<path d="M57.4303 62.0058H38.5414C37.8898 62.0058 37.3609 61.4838 37.3609 60.8406C37.3609 60.1974 37.8898 59.6754 38.5414 59.6754H57.4303C58.082 59.6754 58.6109 60.1974 58.6109 60.8406C58.6109 61.4838 58.082 62.0058 57.4303 62.0058Z" fill="#1EC0F2"/>
<g style="mix-blend-mode:multiply">
<path d="M61.6663 50V50C61.1088 50 60.5755 49.7506 60.2393 49.3058C57.4215 45.5785 53.0215 43.3333 48.3331 43.3333C41.0517 43.3333 34.9648 48.5485 33.6138 55.4404C33.4545 56.2529 32.8437 56.9076 32.0689 57.1996C28.9158 58.3878 26.6665 61.4372 26.6665 65C26.6665 69.5933 30.4065 73.3333 34.9998 73.3333H61.6665C68.0998 73.3333 73.3331 68.1 73.3331 61.6666C73.3331 55.2332 68.0998 50 61.6663 50Z" fill="#2686EC"/>
</g>
</svg>
