<svg width="80" height="80" viewBox="0 0 80 80" fill="none" xmlns="http://www.w3.org/2000/svg">
<g style="mix-blend-mode:multiply">
<rect x="6.6665" y="46.6667" width="66.6667" height="26.6667" rx="1.875" fill="#FFA51F"/>
</g>
<g style="mix-blend-mode:multiply">
<path fill-rule="evenodd" clip-rule="evenodd" d="M9.62176 24.7043C8.64868 25.0585 8.14695 26.1344 8.50113 27.1075L20.482 60.0246C20.8361 60.9976 21.9121 61.4994 22.8852 61.1452L70.3786 43.859C71.3517 43.5048 71.8534 42.4289 71.4992 41.4558L59.5184 8.53872C59.1642 7.56564 58.0883 7.06391 57.1152 7.41809L9.62176 24.7043ZM48.6807 34.0342C50.1231 32.2888 49.1275 29.6027 46.896 29.219L33.6615 26.9433C31.4472 26.5625 29.6739 28.738 30.463 30.8671L35.1429 43.4942C35.9321 45.6234 38.6948 46.1176 40.1261 44.3856L48.6807 34.0342Z" fill="#F41E92"/>
</g>
</svg>
