<svg width="24" height="24" viewBox="0 0 24 24" fill="none" xmlns="http://www.w3.org/2000/svg">
<path fill-rule="evenodd" clip-rule="evenodd" d="M12.2724 3.2351C10.5668 3.1783 8.84358 3.64364 7.35584 4.6367C5.68491 5.75324 4.51718 7.40203 3.97931 9.24523C3.83078 9.2271 3.65291 9.2351 3.44171 9.29484C2.65318 9.51857 2.06011 10.1647 1.79344 10.7338C1.44758 11.4754 1.30171 12.4562 1.45558 13.4687C1.60838 14.478 2.03478 15.31 2.56811 15.8266C3.10304 16.3434 3.70704 16.5114 4.30704 16.3852C5.20038 16.1946 5.64331 16.0519 5.51824 15.2196L4.91264 11.1852C5.03478 9.00177 6.16518 6.9463 8.05584 5.6823C10.5865 3.9919 13.9044 4.10017 16.3182 5.95324C17.9974 7.2407 18.9724 9.16977 19.0849 11.1948L18.6614 14.017C17.7169 16.6018 15.3753 18.3922 12.6657 18.6463H10.8614C10.3958 18.6463 10.0209 19.0212 10.0209 19.4863V19.9295C10.0209 20.3948 10.3958 20.7698 10.8614 20.7698H13.1364C13.6017 20.7698 13.975 20.3948 13.975 19.9295V19.6978C16.0182 19.1991 17.8017 17.9434 18.963 16.1922L19.6918 16.3855C20.2849 16.5394 20.8961 16.3434 21.4308 15.8268C21.9641 15.31 22.3902 14.4783 22.5433 13.469C22.6977 12.4564 22.5476 11.4772 22.2057 10.734C21.8625 9.99084 21.3513 9.51884 20.7612 9.3495C20.514 9.2783 20.2457 9.25217 20.0156 9.24523C19.5292 7.57857 18.5278 6.06284 17.0846 4.95617C15.6657 3.86737 13.978 3.2911 12.2724 3.2351Z" fill="#7C0FD1"/>
<path fill-rule="evenodd" clip-rule="evenodd" d="M14.9364 10.4937C15.5378 10.4937 16.0252 10.9812 16.0266 11.5841C16.0252 12.1855 15.5378 12.6743 14.9364 12.6743C14.3335 12.6743 13.8447 12.1855 13.8447 11.5841C13.8447 10.9815 14.3338 10.4937 14.9364 10.4937ZM12.0004 10.4937C12.6031 10.4937 13.0906 10.9812 13.0906 11.5841C13.0906 12.1855 12.6031 12.6743 12.0004 12.6743C11.3972 12.6743 10.9098 12.1855 10.9098 11.5841C10.9098 10.9815 11.3972 10.4937 12.0004 10.4937ZM9.0655 10.4937C9.66683 10.4937 10.1556 10.9812 10.1556 11.5841C10.1556 12.1855 9.66683 12.6743 9.0655 12.6743C8.46283 12.6743 7.9751 12.1855 7.9751 11.5841C7.9751 10.9815 8.46283 10.4937 9.0655 10.4937ZM12.0004 5.81055C8.8031 5.81055 6.22656 8.30228 6.22656 11.5841C6.22656 13.1604 6.82256 14.5535 7.7935 15.5756L7.44896 17.1201C7.33536 17.6284 7.6879 17.9703 8.1447 17.7159L9.65296 16.8745C10.3698 17.1857 11.1626 17.3577 12.0004 17.3577C15.1988 17.3577 17.7738 14.8676 17.7738 11.5841C17.7738 8.30228 15.1988 5.81055 12.0004 5.81055Z" fill="#7C0FD1"/>
</svg>
