<svg width="24" height="24" viewBox="0 0 24 24" fill="none" xmlns="http://www.w3.org/2000/svg">
<path d="M7.5 19.0003L11.5 21.2203V16.7953L7.5 14.5703V19.0003Z" fill="#7C0FD1"/>
<path d="M12.0006 11.5L8.01562 13.715L12.0006 15.93L15.9856 13.715L12.0006 11.5Z" fill="#7C0FD1"/>
<path d="M12.5 21.2203L16.5 19.0003V14.5703L12.5 16.7953V21.2203Z" fill="#7C0FD1"/>
<path d="M20.5001 10.5002H20.4351C20.4769 10.3368 20.4988 10.1689 20.5001 10.0002C20.5001 9.52959 20.3342 9.07406 20.0314 8.71374C19.7287 8.35342 19.3087 8.11137 18.8451 8.0302C18.5342 6.60152 17.7838 5.30605 16.6991 4.32561C15.6145 3.34517 14.25 2.72898 12.7973 2.56353C11.3446 2.39807 9.87655 2.69165 8.59919 3.40307C7.32183 4.11448 6.2993 5.20802 5.67512 6.5302H5.50012C4.17921 6.53017 2.91197 7.05284 1.97515 7.98404C1.03832 8.91524 0.508041 10.1793 0.500115 11.5002C0.49814 11.7718 0.521575 12.043 0.570115 12.3102C0.762083 13.4795 1.36312 14.5427 2.26605 15.3101C3.16899 16.0775 4.31513 16.4993 5.50012 16.5002H6.50012V14.0002C6.49853 13.8231 6.54398 13.6488 6.63183 13.4951C6.71968 13.3414 6.84677 13.2137 7.00012 13.1252L11.5001 10.6252C11.6485 10.5429 11.8154 10.4997 11.9851 10.4997C12.1548 10.4997 12.3217 10.5429 12.4701 10.6252L16.9701 13.1252C17.129 13.2098 17.2622 13.3358 17.3555 13.4898C17.4488 13.6438 17.4987 13.8201 17.5001 14.0002V16.5002H20.5001C21.2958 16.5002 22.0588 16.1841 22.6214 15.6215C23.184 15.0589 23.5001 14.2958 23.5001 13.5002C23.5001 12.7045 23.184 11.9415 22.6214 11.3789C22.0588 10.8163 21.2958 10.5002 20.5001 10.5002Z" fill="#7C0FD1"/>
</svg>
