<svg width="24" height="24" viewBox="0 0 24 24" fill="none" xmlns="http://www.w3.org/2000/svg">
<path d="M13.5735 1H3.42647C2.08529 1 1 2.11286 1 3.4881V17.5119C1 18.8871 2.08529 20 3.42647 20H10.6176C9.87647 18.7967 9.38235 17.3762 9.38235 15.7476V13.54C9.25 13.6214 9.1 13.6667 8.94118 13.6667H4.52941C4.04412 13.6667 3.64706 13.2595 3.64706 12.7619C3.64706 12.2643 4.04412 11.8571 4.52941 11.8571H8.94118C9.10882 11.8571 9.25882 11.9024 9.39118 11.9838C9.42647 11.2148 9.77941 10.509 10.3353 10.0476H4.52941C4.04412 10.0476 3.64706 9.64048 3.64706 9.14286C3.64706 8.64524 4.04412 8.2381 4.52941 8.2381H12.4706C12.8412 8.2381 13.1588 8.47333 13.2912 8.8081L15.8059 7.93048C15.8676 7.90333 15.9294 7.88524 16 7.87619V3.4881C16 2.11286 14.9147 1 13.5735 1ZM8.05882 6.42857H4.52941C4.04412 6.42857 3.64706 6.02143 3.64706 5.52381C3.64706 5.02619 4.04412 4.61905 4.52941 4.61905H8.05882C8.54412 4.61905 8.94118 5.02619 8.94118 5.52381C8.94118 6.02143 8.54412 6.42857 8.05882 6.42857Z" fill="#7C0FD1"/>
<path d="M22.4034 11.649L17.7838 10.0477C17.5999 9.98409 17.4001 9.98409 17.2162 10.0477L12.5966 11.649C12.2402 11.7727 12 12.1143 12 12.498V16.1003C12 20.643 16.9443 22.8377 17.1546 22.9292C17.2655 22.9767 17.3834 23 17.5004 23C17.6175 23 17.7354 22.9767 17.8454 22.9283C18.0557 22.8368 23 20.643 23 16.1003V12.498C23 12.1134 22.7607 11.7727 22.4034 11.649ZM20.6242 15.0208L17.9844 18.607C17.8313 18.815 17.5981 18.945 17.3429 18.9629C17.3218 18.9647 17.3007 18.9656 17.2805 18.9656C17.0473 18.9656 16.8238 18.8723 16.6583 18.7029L14.8985 16.9098C14.5544 16.5593 14.5544 15.9927 14.8985 15.6421C15.2425 15.2916 15.7987 15.2916 16.1427 15.6421L17.1854 16.7045L19.2163 13.945C19.5076 13.5496 20.0593 13.468 20.4473 13.7657C20.8371 14.0624 20.9163 14.6246 20.6242 15.0208Z" fill="#7C0FD1"/>
</svg>
