<svg width="24" height="24" viewBox="0 0 24 24" fill="none" xmlns="http://www.w3.org/2000/svg">
<path fill-rule="evenodd" clip-rule="evenodd" d="M16.3799 8.49028L14.1989 15.0363C14.0679 15.4283 14.2799 15.8533 14.6729 15.9843C15.0659 16.1153 15.4909 15.9033 15.6219 15.5103L17.8029 8.96428C17.9339 8.57228 17.7219 8.14728 17.3289 8.01628C16.9359 7.88528 16.5109 8.09728 16.3799 8.49028Z" fill="#7C0FD1"/>
<path fill-rule="evenodd" clip-rule="evenodd" d="M18.2862 10.3491L19.9372 12.0001L18.2862 13.6511C17.9932 13.9441 17.9932 14.4191 18.2862 14.7121C18.5792 15.0051 19.0542 15.0051 19.3472 14.7121L21.5282 12.5301C21.8212 12.2371 21.8212 11.7631 21.5282 11.4701L19.3472 9.28811C19.0542 8.99511 18.5792 8.99511 18.2862 9.28811C17.9932 9.58111 17.9932 10.0561 18.2862 10.3491Z" fill="#7C0FD1"/>
<path fill-rule="evenodd" clip-rule="evenodd" d="M12.6507 9.28811L10.4698 11.4701C10.1767 11.7631 10.1767 12.2371 10.4698 12.5301L12.6507 14.7121C12.9437 15.0051 13.4187 15.0051 13.7118 14.7121C14.0048 14.4191 14.0048 13.9441 13.7118 13.6511L12.0607 12.0001L13.7118 10.3491C14.0048 10.0561 14.0048 9.58111 13.7118 9.28811C13.4187 8.99511 12.9437 8.99511 12.6507 9.28811Z" fill="#7C0FD1"/>
<path fill-rule="evenodd" clip-rule="evenodd" d="M16.75 15.284L16.569 15.826C16.264 16.742 15.272 17.238 14.356 16.933C13.85 16.764 13.472 16.387 13.287 15.928C12.805 15.957 12.313 15.787 11.944 15.419L9.763 13.237C9.079 12.554 9.079 11.446 9.763 10.763L11.944 8.581C12.627 7.898 13.736 7.898 14.419 8.581C14.727 8.889 14.896 9.283 14.927 9.686L15.431 8.174C15.637 7.556 16.154 7.13 16.75 7.011V4C16.75 3.271 16.46 2.571 15.945 2.055C15.429 1.54 14.729 1.25 14 1.25C11.556 1.25 7.444 1.25 5 1.25C4.271 1.25 3.571 1.54 3.055 2.055C2.54 2.571 2.25 3.271 2.25 4V20C2.25 20.729 2.54 21.429 3.055 21.945C3.571 22.46 4.271 22.75 5 22.75H14C14.729 22.75 15.429 22.46 15.945 21.945C16.46 21.429 16.75 20.729 16.75 20V15.284ZM7.5 20.25H11.5C11.914 20.25 12.25 19.914 12.25 19.5C12.25 19.086 11.914 18.75 11.5 18.75H7.5C7.086 18.75 6.75 19.086 6.75 19.5C6.75 19.914 7.086 20.25 7.5 20.25ZM13.5 2.75H5.5L6.123 4.307C6.351 4.877 6.902 5.25 7.516 5.25H11.484C12.098 5.25 12.649 4.877 12.877 4.307L13.5 2.75Z" fill="#7C0FD1"/>
</svg>
