<svg width="24" height="24" viewBox="0 0 24 24" fill="none" xmlns="http://www.w3.org/2000/svg">
<path fill-rule="evenodd" clip-rule="evenodd" d="M5.3122 17.4942C2.63728 17.4942 0.46875 15.3197 0.46875 12.6374C0.46875 10.6338 1.67892 8.91364 3.40627 8.17142C3.65592 4.44167 6.75169 1.49365 10.5345 1.49365C13.1311 1.49365 15.4042 2.88279 16.6552 4.96029C16.8564 4.94075 17.0603 4.93057 17.2667 4.93057C20.7265 4.93057 23.5313 7.74307 23.5313 11.2124C23.5313 14.4689 21.06 17.1466 17.8953 17.4628V12.8888C17.8953 12.1676 17.35 11.5717 16.65 11.4917V9.57336C16.65 8.90815 16.1094 8.36754 15.4441 8.36754H8.13098C7.01667 8.36754 6.10791 9.27434 6.10477 10.3879V17.4942H5.3122V17.4942ZM8.13098 11.4825H15.7125V9.57336C15.7125 9.42556 15.5919 9.30504 15.4441 9.30504H8.13098C7.53216 9.30504 7.04222 9.79498 7.04222 10.3938C7.04227 10.9926 7.53216 11.4825 8.13098 11.4825ZM16.9578 22.2377V12.8888C16.9578 12.6306 16.7472 12.42 16.489 12.42H8.13098C7.73072 12.42 7.35698 12.303 7.04222 12.1015V21.4173C7.04222 22.0161 7.47295 22.506 7.99936 22.506H16.6895C16.8373 22.506 16.9578 22.3855 16.9578 22.2377ZM9.89916 20.7072C9.64027 20.7072 9.43041 20.4973 9.43041 20.2384C9.43041 19.9796 9.64027 19.7697 9.89916 19.7697H14.3816C14.6405 19.7697 14.8503 19.9796 14.8503 20.2384C14.8503 20.4973 14.6405 20.7072 14.3816 20.7072H9.89916ZM9.89916 19.0901C9.64027 19.0901 9.43041 18.8802 9.43041 18.6213C9.43041 18.3624 9.64027 18.1526 9.89916 18.1526H14.3816C14.6405 18.1526 14.8503 18.3624 14.8503 18.6213C14.8503 18.8802 14.6405 19.0901 14.3816 19.0901H9.89916ZM9.71377 13.9272C9.55767 13.9272 9.43036 14.0546 9.43036 14.2106V15.6843C9.43036 15.8404 9.55767 15.9677 9.71377 15.9677H14.5669C14.723 15.9677 14.8503 15.8404 14.8503 15.6843V14.2106C14.8503 14.0545 14.723 13.9272 14.5669 13.9272H9.71377Z" fill="#7C0FD1"/>
</svg>
