<svg width="24" height="24" viewBox="0 0 24 24" fill="none" xmlns="http://www.w3.org/2000/svg">
<path d="M6.01405 13.4592H11.9956C16.3617 13.503 19.3625 8.85952 17.5469 4.89257C15.4929 0.300134 8.99975 0.0616355 6.64149 4.49341C8.16439 4.67373 9.52653 5.5632 10.3142 6.88392C10.3764 6.87631 10.4395 6.87084 10.5038 6.86871H10.5598C11.6485 6.90536 12.4711 7.74258 12.4711 8.82145C12.4711 9.90037 11.6485 10.7376 10.5598 10.7742H10.468C9.38483 10.7403 8.56818 9.90912 8.56576 8.83798C8.56576 8.18312 8.87199 7.61824 9.3568 7.26883C8.61017 6.12717 7.33702 5.45314 5.95587 5.45752C3.76281 5.52052 2.0132 7.25072 2.01563 9.46078C2.01563 11.666 3.80885 13.4592 6.01405 13.4592Z" fill="#7C0FD1"/>
<path d="M10.5309 7.82568C9.23969 7.86722 9.23969 9.73939 10.5309 9.77842C11.8197 9.73695 11.8197 7.86722 10.5309 7.82568Z" fill="#7C0FD1"/>
<path d="M20.7835 17.8525H3.20884C2.80365 17.8525 2.47656 18.1796 2.47656 18.5848V22.0021C2.47656 22.4073 2.80365 22.7344 3.20884 22.7344H20.7835C21.1887 22.7344 21.5158 22.4073 21.5158 22.0021V18.5848C21.5158 18.1796 21.1887 17.8525 20.7835 17.8525ZM7.10906 20.7816H6.0663C5.91601 21.0439 5.63807 21.2391 5.23114 21.2516C3.94057 21.2118 3.94086 19.3385 5.23117 19.2989C5.65626 19.312 5.93831 19.5254 6.08333 19.8053H7.10906C7.75235 19.8214 7.75326 20.7653 7.10906 20.7816ZM14.6812 21.2509C14.6812 21.5721 14.371 21.8209 14.0338 21.7139C13.8305 21.6494 13.7048 21.4437 13.7048 21.2303V19.5423C13.721 18.8989 14.6649 18.8982 14.6812 19.5423V21.2509ZM16.878 21.2509C16.878 21.5721 16.5678 21.8209 16.2307 21.7139C16.0273 21.6494 15.9016 21.4437 15.9016 21.2303V19.5423C15.9178 18.8989 16.8617 18.8982 16.878 19.5423V21.2509ZM19.0749 21.2509C19.0749 21.5721 18.7646 21.8209 18.4275 21.7139C18.2241 21.6494 18.0985 21.4437 18.0985 21.2303V19.5423C18.1146 18.8989 19.0585 18.8982 19.0749 19.5423V21.2509Z" fill="#7C0FD1"/>
<path d="M19.0682 7.125C19.1902 9.66109 17.7647 12.2094 15.5898 13.4592H18.7386C20.3618 13.4592 21.7947 12.2778 21.9826 10.6643C22.195 8.82632 20.8305 7.25682 19.0682 7.125Z" fill="#7C0FD1"/>
<path d="M11.5117 14.4355H12.4881V16.8765H11.5117V14.4355Z" fill="#7C0FD1"/>
</svg>
