<svg width="24" height="24" viewBox="0 0 24 24" fill="none" xmlns="http://www.w3.org/2000/svg">
<path d="M18.9844 7.64062H5.01562C3.85252 7.64062 2.90625 8.58689 2.90625 9.75V17.9531C2.90625 21.2873 5.61886 24 8.95312 24H15.0469C18.3811 24 21.0938 21.2874 21.0938 17.9531V9.75C21.0938 8.58689 20.1475 7.64062 18.9844 7.64062ZM7.89647 18.2305C7.89258 18.2305 7.88869 18.2305 7.8848 18.2305C6.68161 18.2251 5.77425 17.4323 5.77425 16.3862C5.77425 15.9979 6.08906 15.6831 6.47738 15.6831C6.86569 15.6831 7.1805 15.9979 7.1805 16.3862C7.1805 16.6861 7.59605 16.8229 7.89108 16.8242H7.89698C8.12555 16.8242 8.50191 16.7648 8.50537 16.3748C8.50758 16.1293 8.38345 16.0151 7.55766 15.7318C7.53216 15.723 7.50703 15.7141 7.48158 15.7054C7.46227 15.7004 7.443 15.6945 7.42383 15.6877C6.87037 15.4922 5.71875 15.0855 5.73047 13.7727C5.74008 12.7032 6.58683 11.9297 7.74563 11.9297H7.7573C8.96053 11.9351 9.86784 12.7279 9.86784 13.7739C9.86784 14.1622 9.55303 14.4771 9.16472 14.4771C8.77641 14.4771 8.46159 14.1622 8.46159 13.7739C8.46159 13.474 8.04605 13.3372 7.75102 13.3359C7.52306 13.336 7.14019 13.3919 7.13667 13.7853C7.13503 13.9681 7.18078 14.0991 7.79611 14.3269C7.80202 14.3288 7.80797 14.3301 7.81388 14.3322C7.87997 14.3557 7.94691 14.3786 8.01389 14.4015C8.41322 14.5385 8.82609 14.6802 9.17972 14.9377C9.6638 15.2904 9.91688 15.7917 9.91158 16.3873C9.90206 17.457 9.05531 18.2304 7.89647 18.2305ZM12.3463 18.2305C12.3424 18.2305 12.3385 18.2305 12.3346 18.2305C11.1314 18.2251 10.2241 17.4323 10.2241 16.3862C10.2241 15.9979 10.5389 15.6831 10.9272 15.6831C11.3155 15.6831 11.6303 15.9979 11.6303 16.3862C11.6303 16.6861 12.0459 16.8229 12.341 16.8242H12.3469C12.5754 16.8242 12.9518 16.7648 12.9553 16.3748C12.9575 16.1293 12.8333 16.015 12.0075 15.7318C11.982 15.723 11.9568 15.7141 11.9313 15.7054C11.9121 15.7004 11.8928 15.6945 11.8737 15.6877C11.3203 15.4923 10.1686 15.0855 10.1804 13.7728C10.19 12.7033 11.0367 11.9297 12.1955 11.9297H12.2072C13.4104 11.9351 14.3177 12.728 14.3177 13.774C14.3177 14.1623 14.0029 14.4771 13.6146 14.4771C13.2263 14.4771 12.9115 14.1623 12.9115 13.774C12.9115 13.4741 12.4959 13.3373 12.2009 13.3359C11.9729 13.336 11.5901 13.392 11.5866 13.7853C11.5849 13.9682 11.6307 14.0991 12.2459 14.327C12.2518 14.3289 12.2578 14.3302 12.2637 14.3323C12.3298 14.3557 12.3967 14.3786 12.4637 14.4016C12.8631 14.5386 13.276 14.6802 13.6296 14.9378C14.1137 15.2904 14.3668 15.7917 14.3615 16.3874C14.3519 17.457 13.5051 18.2304 12.3463 18.2305ZM17.5664 18.2303H15.5508C15.1625 18.2303 14.8477 17.9155 14.8477 17.5272V12.6526C14.8477 12.2643 15.1625 11.9495 15.5508 11.9495C15.9391 11.9495 16.2539 12.2643 16.2539 12.6526V16.824H17.5664C17.9547 16.824 18.2695 17.1389 18.2695 17.5272C18.2695 17.9155 17.9547 18.2303 17.5664 18.2303Z" fill="#7C0FD1"/>
<path d="M7.3125 6.09375C7.3125 3.50906 9.41527 1.40625 12 1.40625C14.5847 1.40625 16.6875 3.50902 16.6875 6.09375V6.23438H18.0938V6.09375C18.0938 2.73361 15.3601 0 12 0C8.63991 0 5.90625 2.73361 5.90625 6.09375V6.23438H7.3125V6.09375Z" fill="#7C0FD1"/>
</svg>
