<svg width="24" height="24" viewBox="0 0 24 24" fill="none" xmlns="http://www.w3.org/2000/svg">
<path d="M21.9075 8.88036C21.4699 8.81679 21.0522 8.65531 20.6856 8.40795C20.3191 8.16059 20.013 7.83372 19.7903 7.45168C19.5675 7.06963 19.4339 6.64227 19.3992 6.2014C19.3645 5.76053 19.4297 5.31752 19.59 4.90536C19.6919 4.6359 19.7069 4.34132 19.6329 4.0629C19.559 3.78449 19.3997 3.5362 19.1775 3.35286C18.1965 2.52911 17.0799 1.88199 15.8775 1.44036C15.6037 1.33864 15.3048 1.32594 15.0233 1.40404C14.7419 1.48215 14.4923 1.64709 14.31 1.87536C14.0357 2.2261 13.6852 2.50977 13.2849 2.70487C12.8847 2.89996 12.4453 3.00135 12 3.00135C11.5548 3.00135 11.1153 2.89996 10.7151 2.70487C10.3149 2.50977 9.96431 2.2261 9.69002 1.87536C9.50778 1.64709 9.25816 1.48215 8.9767 1.40404C8.69525 1.32594 8.39633 1.33864 8.12252 1.44036C7.01227 1.84809 5.97421 2.43041 5.04752 3.16536C4.81392 3.35028 4.64567 3.60513 4.56739 3.8926C4.48912 4.18006 4.50493 4.48503 4.61252 4.76286C4.78558 5.18592 4.85709 5.64366 4.8213 6.09936C4.7855 6.55505 4.64341 6.99601 4.40642 7.38687C4.16942 7.77773 3.84412 8.1076 3.45661 8.35004C3.0691 8.59247 2.63017 8.7407 2.17502 8.78286C1.87952 8.81445 1.60198 8.94009 1.38325 9.14126C1.16452 9.34244 1.01616 9.60853 0.960016 9.90036C0.820364 10.5916 0.750016 11.2951 0.750016 12.0004C0.74899 12.5908 0.796651 13.1803 0.892516 13.7629C0.940227 14.064 1.08583 14.3411 1.3068 14.5512C1.52778 14.7614 1.81182 14.8928 2.11502 14.9254C2.58016 14.969 3.02808 15.1234 3.42129 15.3757C3.8145 15.628 4.14156 15.9708 4.37509 16.3755C4.60862 16.7801 4.74182 17.2348 4.76356 17.7015C4.78529 18.1682 4.69493 18.6333 4.50002 19.0579C4.37246 19.334 4.34082 19.6449 4.41012 19.9411C4.47942 20.2373 4.64568 20.5019 4.88252 20.6929C5.8576 21.5016 6.96345 22.1383 8.15252 22.5754C8.30457 22.628 8.46411 22.6559 8.62502 22.6579C8.84564 22.6574 9.06294 22.604 9.25869 22.5022C9.45443 22.4004 9.62292 22.2532 9.75002 22.0729C10.0173 21.6834 10.3757 21.3651 10.7939 21.1455C11.2121 20.9259 11.6776 20.8117 12.15 20.8129C12.6077 20.8134 13.0589 20.9209 13.4678 21.1266C13.8766 21.3323 14.2318 21.6307 14.505 21.9979C14.6867 22.2421 14.9442 22.4195 15.2372 22.5022C15.5302 22.585 15.8423 22.5685 16.125 22.4554C17.2123 22.0178 18.2245 21.413 19.125 20.6629C19.3512 20.4758 19.5123 20.2219 19.5851 19.9375C19.6578 19.6532 19.6386 19.3531 19.53 19.0804C19.3536 18.6627 19.2767 18.2098 19.3053 17.7574C19.334 17.305 19.4674 16.8654 19.6951 16.4733C19.9227 16.0813 20.2384 15.7476 20.6171 15.4984C20.9959 15.2493 21.4274 15.0916 21.8775 15.0379C22.1694 14.9975 22.4409 14.8653 22.6526 14.6603C22.8643 14.4553 23.0052 14.1883 23.055 13.8979C23.1755 13.2723 23.2407 12.6373 23.25 12.0004C23.2502 11.3285 23.1874 10.658 23.0625 9.99786C23.0119 9.71383 22.873 9.45299 22.6657 9.25238C22.4583 9.05177 22.1931 8.9216 21.9075 8.88036ZM15.75 12.0004C15.75 12.742 15.5301 13.4671 15.118 14.0837C14.706 14.7004 14.1203 15.1811 13.4351 15.4649C12.7499 15.7487 11.9959 15.823 11.2684 15.6783C10.541 15.5336 9.87281 15.1765 9.34837 14.652C8.82392 14.1276 8.46677 13.4594 8.32207 12.7319C8.17738 12.0045 8.25164 11.2505 8.53547 10.5653C8.8193 9.88007 9.29994 9.2944 9.91663 8.88235C10.5333 8.47029 11.2583 8.25036 12 8.25036C12.9946 8.25036 13.9484 8.64545 14.6517 9.34871C15.3549 10.052 15.75 11.0058 15.75 12.0004Z" fill="#7C0FD1"/>
</svg>
