<svg width="24" height="24" viewBox="0 0 24 24" fill="none" xmlns="http://www.w3.org/2000/svg">
<g clip-path="url(#clip0_2175_21416)">
<path d="M22.3265 9.95166C22.0543 8.58319 21.5102 7.2788 20.7262 6.11752C21.2192 5.30606 21.1527 4.2488 20.4519 3.54811C19.7512 2.84742 18.6939 2.78077 17.8825 3.27389C16.7212 2.48981 15.4169 1.94573 14.0484 1.67358C13.8289 0.743297 12.9964 0 12 0C11.0036 0 10.1711 0.743297 9.95166 1.67353C8.58319 1.94569 7.27889 2.48977 6.11761 3.27384C5.30616 2.78077 4.2488 2.84733 3.54811 3.54806C2.84742 4.2488 2.78077 5.30606 3.27389 6.11747C2.48981 7.27875 1.94573 8.58314 1.67358 9.95161C0.743297 10.1711 0 11.0036 0 12C0 12.9964 0.743297 13.8289 1.67353 14.0483C1.94569 15.4168 2.48977 16.7211 3.27384 17.8824C2.78077 18.6938 2.84733 19.7512 3.54806 20.4519C4.2487 21.1525 5.3063 21.2187 6.11747 20.726C7.27875 21.5101 8.58314 22.0543 9.95161 22.3264C10.1711 23.2567 11.0036 24 12 24C12.9964 24 13.8289 23.2567 14.0483 22.3265C15.4168 22.0543 16.7212 21.5101 17.8825 20.7261C18.694 21.2191 19.7519 21.152 20.4519 20.4519C21.1526 19.7512 21.2192 18.6939 20.7261 17.8824C21.5102 16.7212 22.0543 15.4169 22.3264 14.0484C23.2567 13.8289 24 12.9964 24 12C24 11.0036 23.2567 10.1711 22.3265 9.95166ZM17.4691 17.4691C16.8824 18.0559 16.7335 18.9008 16.9837 19.6377C16.0384 20.2555 14.9895 20.692 13.89 20.9254C13.5473 20.2232 12.8326 19.7344 12 19.7344C11.1674 19.7344 10.4527 20.2232 10.1099 20.9255C9.01041 20.692 7.96158 20.2556 7.0162 19.6378C7.26647 18.9008 7.11755 18.0559 6.53081 17.4692C5.94408 16.8825 5.09916 16.7335 4.36223 16.9838C3.74442 16.0385 3.30797 14.9896 3.07453 13.8901C3.77681 13.5472 4.26562 12.8326 4.26562 12C4.26562 11.1674 3.77681 10.4527 3.07453 10.1099C3.30797 9.01031 3.74442 7.96158 4.36233 7.01616C5.09953 7.26628 5.94469 7.11698 6.53086 6.53086C7.11759 5.94412 7.26652 5.0992 7.01625 4.36228C7.96158 3.74447 9.01045 3.30802 10.11 3.07458C10.4528 3.77681 11.1674 4.26562 12 4.26562C12.8326 4.26562 13.5472 3.77681 13.8901 3.07453C14.9896 3.30797 16.0384 3.74442 16.9838 4.36223C16.7335 5.09916 16.8825 5.94408 17.4692 6.53081C18.0557 7.11736 18.9008 7.26586 19.6376 7.01592C20.2555 7.96134 20.6921 9.01027 20.9255 10.1099C20.2232 10.4528 19.7344 11.1674 19.7344 12C19.7344 12.8326 20.2232 13.5472 20.9255 13.8901C20.692 14.9896 20.2556 16.0384 19.6378 16.9838C18.9008 16.7335 18.0559 16.8824 17.4691 17.4691Z" fill="#7C0FD1"/>
<path d="M12 16.9219C12.2488 16.9219 12.7155 16.2725 13.0431 15.0469H10.957C11.2845 16.2725 11.7513 16.9219 12 16.9219Z" fill="#7C0FD1"/>
<path d="M13.4062 12C13.4062 11.3937 13.3622 10.8581 13.3012 10.3594H10.6988C10.6378 10.8581 10.5938 11.3937 10.5938 12C10.5938 12.6063 10.6378 13.1419 10.6988 13.6406H13.3012C13.3622 13.1419 13.4062 12.6063 13.4062 12Z" fill="#7C0FD1"/>
<path d="M14.4799 8.95312H17.5116C16.431 7.00716 14.3793 5.67188 12 5.67188C13.2268 5.67188 14.0555 7.08736 14.4799 8.95312Z" fill="#7C0FD1"/>
<path d="M11.9999 5.67188C9.62056 5.67188 7.56889 7.00716 6.48828 8.95312H9.52002C9.94433 7.08736 10.773 5.67188 11.9999 5.67188Z" fill="#7C0FD1"/>
<path d="M9.52002 15.0469H6.48828C7.56889 16.9928 9.62061 18.3281 11.9999 18.3281C10.7731 18.3281 9.94438 16.9126 9.52002 15.0469Z" fill="#7C0FD1"/>
<path d="M14.7109 10.3594C14.7703 10.8978 14.8111 11.4464 14.8111 12C14.8111 12.5536 14.7703 13.1022 14.7109 13.6406H18.0838C18.2262 13.114 18.3267 12.5709 18.3267 12C18.3267 11.4291 18.2262 10.886 18.0838 10.3594H14.7109Z" fill="#7C0FD1"/>
<path d="M12 18.3281C14.3793 18.3281 16.431 16.9928 17.5116 15.0469H14.4799C14.0556 16.9126 13.2269 18.3281 12 18.3281Z" fill="#7C0FD1"/>
<path d="M12 7.07812C11.7513 7.07812 11.2845 7.72753 10.957 8.95312H13.0431C12.7155 7.72753 12.2488 7.07812 12 7.07812Z" fill="#7C0FD1"/>
<path d="M9.1875 12C9.1875 11.4464 9.22828 10.8978 9.28767 10.3594H5.91478C5.77237 10.886 5.67188 11.4291 5.67188 12C5.67188 12.5709 5.77237 13.114 5.91478 13.6406H9.28767C9.22828 13.1022 9.1875 12.5536 9.1875 12Z" fill="#7C0FD1"/>
</g>
<defs>
<clipPath id="clip0_2175_21416">
<rect width="24" height="24" fill="white"/>
</clipPath>
</defs>
</svg>
