<svg width="24" height="24" viewBox="0 0 24 24" fill="none" xmlns="http://www.w3.org/2000/svg">
<path d="M21.5887 2.00175C17.6754 1.93152 13.2126 3.97917 10.3878 7.15558C7.6882 7.20658 5.05962 8.31443 3.12432 10.2517C3.01156 10.3629 2.97146 10.5293 3.02074 10.6798C3.07086 10.8311 3.20116 10.9407 3.35819 10.9633L6.5773 11.4248L6.17971 11.8704C6.03187 12.036 6.03939 12.2877 6.19642 12.4449L11.5647 17.8186C11.6457 17.8997 11.7526 17.9406 11.8603 17.9406C11.9597 17.9406 12.0591 17.9055 12.1385 17.8345L12.5837 17.4365L13.0447 20.6589C13.0673 20.8161 13.1909 20.9314 13.3404 20.9816C13.3789 20.9941 13.4189 21 13.4599 21C13.5785 21 13.6996 20.9482 13.7831 20.8654C15.6917 18.9549 16.7984 16.3236 16.8494 13.6213C20.0259 10.7877 22.0881 6.32197 21.9971 2.40978C21.9913 2.18737 21.8117 2.0076 21.5887 2.00175ZM17.7398 9.21911C17.333 9.6263 16.7984 9.83031 16.263 9.83031C15.7276 9.83031 15.193 9.6263 14.7863 9.21911C13.9727 8.4039 13.9727 7.07782 14.7863 6.2626C15.6007 5.44739 16.9254 5.44739 17.7398 6.2626C18.5541 7.07782 18.5541 8.40474 17.7398 9.21911Z" fill="#7C0FD1"/>
<path d="M4.38391 15.7906C3.44752 16.7271 2.16195 20.9577 2.01843 21.4364C1.97205 21.5904 2.01493 21.7576 2.12782 21.8713C2.21183 21.9554 2.32297 22 2.43762 22C2.47962 22 2.52163 21.9939 2.56363 21.9816C3.04233 21.8381 7.27271 20.5525 8.2091 19.616C9.26363 18.5614 9.26363 16.8452 8.2091 15.7906C7.15369 14.736 5.43844 14.7369 4.38391 15.7906Z" fill="#7C0FD1"/>
</svg>
