<svg width="24" height="24" viewBox="0 0 24 24" fill="none" xmlns="http://www.w3.org/2000/svg">
<path d="M7.5 11.25C8.46043 10.2896 9.76305 9.75 11.1213 9.75H12V1.5H11.1213C9.76305 1.5 8.46043 2.03957 7.5 3C6.53957 2.03957 5.23695 1.5 3.87868 1.5H3V9.75H3.87868C5.23695 9.75 6.53957 10.2896 7.5 11.25ZM4.875 3.75C5.6543 3.75 6.85254 4.18616 7.5 4.92664C8.14746 4.18616 9.3457 3.75 10.125 3.75C10.3323 3.75 10.5 3.91772 10.5 4.125C10.5 4.33228 10.3323 4.5 10.125 4.5C9.42261 4.5 8.12915 5.04163 7.84937 5.76086C7.7937 5.90515 7.65454 6 7.5 6C7.34546 6 7.2063 5.90515 7.15063 5.76086C6.87085 5.04163 5.57739 4.5 4.875 4.5C4.66772 4.5 4.5 4.33228 4.5 4.125C4.5 3.91772 4.66772 3.75 4.875 3.75ZM4.875 6.75C5.6543 6.75 6.85254 7.18616 7.5 7.92664C8.14746 7.18616 9.3457 6.75 10.125 6.75C10.3323 6.75 10.5 6.91772 10.5 7.125C10.5 7.33228 10.3323 7.5 10.125 7.5C9.42261 7.5 8.12915 8.04163 7.84937 8.76086C7.7937 8.90515 7.65454 9 7.5 9C7.34546 9 7.2063 8.90515 7.15063 8.76086C6.87085 8.04163 5.57739 7.5 4.875 7.5C4.66772 7.5 4.5 7.33228 4.5 7.125C4.5 6.91772 4.66772 6.75 4.875 6.75Z" fill="#7C0FD1"/>
<path d="M8.25 12.1327C9.09174 11.5626 10.09 11.25 11.1213 11.25H12.75C13.1642 11.25 13.5 10.9142 13.5 10.5V7.5H15.75V9.75H17.25V6.75C17.25 6.33582 16.9146 6 16.5 6H13.5V3C13.5 2.58577 13.1642 2.25 12.75 2.25V10.5H11.1213C9.76305 10.5 8.46043 11.0396 7.5 12C6.53957 11.0396 5.23695 10.5 3.87868 10.5H2.25V2.25C1.83577 2.25 1.5 2.58577 1.5 3V10.5C1.5 10.9142 1.83577 11.25 2.25 11.25H3.87868C4.90997 11.25 5.90826 11.5626 6.75 12.1327V16.5C6.75 16.9142 7.08545 17.25 7.5 17.25H9.75V15.75H8.25V12.1327Z" fill="#7C0FD1"/>
<path d="M22.2643 15.6557L20.8154 15.2308C20.7242 14.9201 20.6026 14.6227 20.4501 14.3439L21.1729 13.021C21.2334 12.8801 21.2019 12.7166 21.0934 12.6081L20.3918 11.9065C20.2834 11.7981 20.1199 11.7666 19.979 11.827L18.6561 12.5499C18.3773 12.3974 18.0799 12.2758 17.7692 12.1846L17.3443 10.7357C17.2874 10.5933 17.1494 10.5 16.9961 10.5H16.0039C15.8506 10.5 15.7126 10.5933 15.6557 10.7357L15.2308 12.1846C14.9201 12.2758 14.6227 12.3974 14.3439 12.5499L13.021 11.827C12.8801 11.7666 12.7166 11.7981 12.6082 11.9065L11.9066 12.6081C11.7981 12.7166 11.7666 12.8801 11.8271 13.021L12.5499 14.3439C12.3974 14.6227 12.2758 14.9201 12.1846 15.2308L10.7357 15.6557C10.5933 15.7126 10.5 15.8505 10.5 16.0039V16.9961C10.5 17.1494 10.5933 17.2874 10.7357 17.3443L12.1846 17.7692C12.2758 18.0799 12.3974 18.3773 12.5499 18.6561L11.8271 19.979C11.7666 20.1199 11.7981 20.2834 11.9066 20.3918L12.6082 21.0934C12.7166 21.2019 12.8801 21.2334 13.021 21.1729L14.3439 20.4501C14.6227 20.6026 14.9201 20.7242 15.2308 20.8154L15.6557 22.2643C15.7126 22.4066 15.8506 22.5 16.0039 22.5H16.9961C17.1494 22.5 17.2874 22.4066 17.3443 22.2643L17.7692 20.8154C18.0799 20.7242 18.3773 20.6026 18.6561 20.4501L19.979 21.1729C20.1199 21.2334 20.2834 21.2019 20.3918 21.0934L21.0934 20.3918C21.2019 20.2834 21.2334 20.1199 21.1729 19.979L20.4501 18.6561C20.6026 18.3773 20.7242 18.0799 20.8154 17.7692L22.2643 17.3443C22.4067 17.2874 22.5 17.1494 22.5 16.9961V16.0039C22.5 15.8505 22.4067 15.7126 22.2643 15.6557ZM16.5 18.75C15.2574 18.75 14.25 17.7426 14.25 16.5C14.25 15.2574 15.2574 14.25 16.5 14.25C17.7426 14.25 18.75 15.2574 18.75 16.5C18.75 17.7426 17.7426 18.75 16.5 18.75Z" fill="#7C0FD1"/>
<path d="M16.5 18C17.3284 18 18 17.3284 18 16.5C18 15.6716 17.3284 15 16.5 15C15.6716 15 15 15.6716 15 16.5C15 17.3284 15.6716 18 16.5 18Z" fill="#7C0FD1"/>
</svg>
