<svg width="24" height="24" viewBox="0 0 24 24" fill="none" xmlns="http://www.w3.org/2000/svg">
<path d="M7.24003 6.70386L12.0392 8.47705L10.607 10.864C10.4678 11.0955 10.4642 11.384 10.5975 11.6199C10.7304 11.855 10.9798 12 11.25 12H12.75C12.9489 12 13.1397 11.9209 13.2803 11.7803L15.3592 9.70139C15.3616 9.7023 15.3631 9.70441 15.3655 9.70532L20.7675 11.7004C20.9074 11.7495 21.0528 11.7737 21.1978 11.7737C21.464 11.7737 21.7284 11.6924 21.9511 11.5342C22.295 11.291 22.5 10.8933 22.5 10.4722C22.5 8.37231 21.0726 6.56982 19.0287 6.08936L9.46 3.83789L8.12406 1.83398C7.9849 1.62524 7.7509 1.5 7.50004 1.5H6.75004C6.52519 1.5 6.31242 1.60107 6.16996 1.77466C6.02751 1.94824 5.97038 2.17676 6.01469 2.39722L6.76469 6.14722C6.81559 6.40283 6.99577 6.61304 7.24003 6.70386Z" fill="#7C0FD1"/>
<path d="M10.625 15.334L9.34766 17.25H14.249V15H11.2491C10.9983 15 10.7641 15.1253 10.625 15.334Z" fill="#7C0FD1"/>
<path d="M21.75 14.25H15.75C15.3358 14.25 15 14.5858 15 15V19.5H14.25V18H9V20.25C9 20.6642 9.33577 21 9.75 21H10.5C10.5 21.8273 11.1727 22.5 12 22.5C12.8273 22.5 13.5 21.8273 13.5 21H18C18 21.8273 18.6727 22.5 19.5 22.5C20.3273 22.5 21 21.8273 21 21H21.75C22.1642 21 22.5 20.6642 22.5 20.25V15C22.5 14.5858 22.1642 14.25 21.75 14.25ZM12 21.75C11.5865 21.75 11.25 21.4135 11.25 21C11.25 20.5865 11.5865 20.25 12 20.25C12.4135 20.25 12.75 20.5865 12.75 21C12.75 21.4135 12.4135 21.75 12 21.75ZM19.5 21.75C19.0865 21.75 18.75 21.4135 18.75 21C18.75 20.5865 19.0865 20.25 19.5 20.25C19.9135 20.25 20.25 20.5865 20.25 21C20.25 21.4135 19.9135 21.75 19.5 21.75Z" fill="#7C0FD1"/>
<path d="M8.58519 9.8291L5.58519 8.3291C5.37425 8.22363 5.12523 8.22363 4.91429 8.3291L1.91429 9.8291C1.88824 9.84215 1.86778 9.86201 1.84375 9.87772L5.24974 11.5807L8.65573 9.87772C8.6317 9.86201 8.61124 9.84215 8.58519 9.8291Z" fill="#7C0FD1"/>
<path d="M1.5 14.2501C1.5 14.5343 1.6604 14.7939 1.91455 14.921L4.875 16.5001V12.2319L1.5 10.5444V14.2501Z" fill="#7C0FD1"/>
<path d="M9 10.5444L5.625 12.2319V16.5001L8.58545 14.921C8.8396 14.7939 9 14.5343 9 14.2501V10.5444Z" fill="#7C0FD1"/>
<path d="M12.2764 3.73018L16.4756 4.71812L14.8498 2.55029C14.7084 2.36133 14.4861 2.25 14.2499 2.25H12.7499C12.4899 2.25 12.2486 2.38477 12.112 2.60596C11.9754 2.82715 11.963 3.10327 12.079 3.33545L12.2764 3.73018Z" fill="#7C0FD1"/>
</svg>
